<svg width="63" height="22" viewBox="0 0 63 22" fill="none" xmlns="http://www.w3.org/2000/svg">
<g filter="url(#filter0_d_2051_112)">
<path d="M4.76549 13.2477C4.58949 13.2461 4.44602 13.1888 4.33507 13.0757C4.22412 12.9627 4.16946 12.8182 4.1711 12.6422L4.19615 9.95428C4.19779 9.77829 4.25513 9.63482 4.36817 9.52387C4.48121 9.41291 4.62572 9.35826 4.80171 9.3599L7.4896 9.38494C7.66559 9.38658 7.80906 9.44392 7.92001 9.55696C8.03097 9.67 8.08562 9.81452 8.08398 9.99051L8.05894 12.6784C8.0573 12.8544 7.99996 12.9979 7.88692 13.1088C7.77388 13.2198 7.62936 13.2744 7.45337 13.2728L4.76549 13.2477ZM16.3429 13.5956C15.175 13.5847 14.145 13.3591 13.2531 12.9188C12.3772 12.4786 11.687 11.8482 11.1826 11.0274C10.6784 10.1907 10.4077 9.19613 10.3704 8.04373C10.3568 7.78759 10.3518 7.46753 10.3554 7.08355C10.3591 6.68356 10.3701 6.35565 10.3885 6.09981C10.4474 4.93231 10.7286 3.94289 11.2322 3.13154C11.7519 2.30435 12.4618 1.67894 13.3618 1.25531C14.2618 0.831674 15.2957 0.625299 16.4637 0.636182C17.5356 0.646171 18.4462 0.806662 19.1953 1.11766C19.9446 1.41265 20.5572 1.78637 21.033 2.23883C21.5088 2.69128 21.8564 3.16654 22.0757 3.66461C22.3112 4.14682 22.4353 4.572 22.4479 4.94013C22.4624 5.10027 22.405 5.24374 22.2758 5.37054C22.1628 5.4815 22.0263 5.53623 21.8663 5.53474L19.2984 5.51081C19.1384 5.50932 19.0108 5.46813 18.9155 5.38723C18.8364 5.29049 18.7576 5.16175 18.6791 5.00102C18.4603 4.43895 18.1761 4.03629 17.8263 3.79302C17.4766 3.54975 17.0377 3.42565 16.5098 3.42073C15.7898 3.41402 15.2196 3.64072 14.7993 4.10082C14.379 4.56093 14.1483 5.27881 14.1072 6.25447C14.0854 6.87829 14.0801 7.44627 14.0914 7.9584C14.1301 8.9508 14.3474 9.67286 14.7432 10.1246C15.155 10.5764 15.7209 10.8057 16.4409 10.8124C17.0008 10.8176 17.4499 10.7018 17.7882 10.465C18.1264 10.2281 18.4101 9.83072 18.6393 9.27283C18.7048 9.11343 18.7859 8.99418 18.8827 8.91508C18.9795 8.81998 19.108 8.77318 19.268 8.77467L21.8359 8.79859C21.9959 8.80008 22.1313 8.86535 22.2421 8.99439C22.369 9.10758 22.4237 9.24409 22.4063 9.40393C22.3877 9.67577 22.3047 9.99501 22.1573 10.3617C22.0259 10.7284 21.8064 11.1024 21.4988 11.4836C21.2073 11.8649 20.8279 12.2214 20.3608 12.553C19.8939 12.8687 19.3234 13.1274 18.6495 13.3291C17.9918 13.515 17.2229 13.6038 16.3429 13.5956ZM30.4322 13.7269C29.1043 13.7145 27.9943 13.4882 27.1024 13.0479C26.2106 12.5915 25.5285 11.9531 25.0561 11.1327C24.5998 10.3124 24.3526 9.35807 24.3148 8.26967C24.3018 7.94953 24.2971 7.58947 24.3008 7.18949C24.3047 6.77351 24.3161 6.4136 24.3349 6.10976C24.3932 5.00626 24.6741 4.05683 25.1775 3.26149C25.6811 2.45015 26.3829 1.83266 27.2828 1.40903C28.183 0.969394 29.273 0.755542 30.553 0.767468C31.8169 0.779246 32.8948 1.0133 33.7866 1.46963C34.6785 1.90996 35.3686 2.54042 35.857 3.361C36.3455 4.16559 36.6087 5.12008 36.6464 6.22448C36.6755 6.52877 36.6882 6.8889 36.6843 7.30488C36.6806 7.70487 36.6612 8.0647 36.6262 8.38439C36.5681 9.47189 36.2953 10.4214 35.8077 11.2329C35.3361 12.0445 34.6502 12.6702 33.7501 13.1098C32.8501 13.5334 31.7441 13.7391 30.4322 13.7269ZM30.4568 11.087C31.2408 11.0943 31.835 10.8599 32.2394 10.3836C32.644 9.89135 32.8667 9.17339 32.9075 8.22973C32.9258 7.98989 32.9367 7.66998 32.9405 7.27C32.9442 6.87001 32.9392 6.54995 32.9254 6.30982C32.9021 5.38156 32.6927 4.66758 32.2974 4.16787C31.902 3.66816 31.3123 3.41466 30.5284 3.40735C29.7444 3.40005 29.1421 3.64245 28.7215 4.13455C28.3169 4.6268 28.0943 5.33676 28.0536 6.26442C28.0354 6.50426 28.0244 6.82417 28.0207 7.22415C28.017 7.62414 28.022 7.9442 28.0357 8.18434C28.0589 9.12859 28.2682 9.85057 28.6636 10.3503C29.0751 10.8341 29.6728 11.0797 30.4568 11.087ZM39.7121 13.5734C39.5521 13.5719 39.4166 13.5146 39.3057 13.4016C39.1947 13.2885 39.1401 13.144 39.1417 12.968L39.2468 1.68852C39.2485 1.51252 39.3058 1.36905 39.4188 1.2581C39.5319 1.14715 39.6684 1.09242 39.8284 1.09391L42.0603 1.11471C42.2203 1.1162 42.3558 1.17346 42.4667 1.2865C42.5937 1.39969 42.6563 1.54428 42.6547 1.72027L42.6471 2.53624C42.9712 2.09124 43.4148 1.71135 43.9777 1.39659C44.5567 1.08197 45.2382 0.920309 46.0223 0.911615C47.8786 0.89691 49.144 1.61273 49.8185 3.05908C50.1923 2.43854 50.725 1.93948 51.4165 1.56191C52.1242 1.16848 52.8941 0.975646 53.726 0.983399C54.558 0.991151 55.3082 1.19015 55.9766 1.58039C56.6451 1.95464 57.1677 2.53554 57.5444 3.32308C57.9372 4.09477 58.128 5.08859 58.1166 6.30454L58.0529 13.1442C58.0513 13.3202 57.9939 13.4637 57.8809 13.5747C57.7678 13.6856 57.6313 13.7403 57.4713 13.7389L55.0954 13.7167C54.9354 13.7152 54.8 13.658 54.689 13.5449C54.5781 13.4319 54.5234 13.2874 54.525 13.1114L54.587 6.46366C54.5931 5.80769 54.5019 5.29482 54.3133 4.92504C54.1249 4.53927 53.8714 4.2649 53.553 4.10192C53.2505 3.9391 52.9072 3.85589 52.5232 3.85232C52.1872 3.84919 51.8585 3.92613 51.537 4.08314C51.2316 4.2403 50.973 4.5099 50.7615 4.89195C50.566 5.25814 50.4653 5.76922 50.4592 6.4252L50.3972 13.0729C50.3956 13.2489 50.3382 13.3924 50.2252 13.5033C50.1122 13.6143 49.9677 13.6689 49.7917 13.6673L47.4398 13.6454C47.2638 13.6437 47.1203 13.5864 47.0093 13.4734C46.8984 13.3603 46.8437 13.2158 46.8454 13.0398L46.9073 6.3921C46.9134 5.73613 46.8222 5.22325 46.6336 4.85348C46.4452 4.46771 46.1918 4.19334 45.8733 4.03036C45.5708 3.86754 45.2355 3.78441 44.8676 3.78098C44.5316 3.77785 44.2028 3.86279 43.8811 4.0358C43.5597 4.19281 43.2932 4.45434 43.0818 4.82039C42.8864 5.18658 42.7857 5.68966 42.7797 6.32964L42.7176 13.0013C42.7159 13.1773 42.6586 13.3208 42.5455 13.4318C42.4325 13.5427 42.296 13.5974 42.136 13.596L39.7121 13.5734Z" fill="white"/>
<path d="M4.33507 13.0757L4.6919 12.7255L4.33507 13.0757ZM7.88692 13.1088L8.23716 13.4656L7.88692 13.1088ZM4.77015 12.7478C4.71061 12.7472 4.69923 12.7329 4.6919 12.7255L3.97824 13.426C4.19281 13.6446 4.46838 13.745 4.76083 13.7477L4.77015 12.7478ZM4.6919 12.7255C4.68457 12.718 4.67053 12.7064 4.67108 12.6468L3.67113 12.6375C3.6684 12.93 3.76367 13.2073 3.97824 13.426L4.6919 12.7255ZM4.67108 12.6468L4.69613 9.95894L3.69617 9.94962L3.67113 12.6375L4.67108 12.6468ZM4.69613 9.95894C4.69668 9.8994 4.71094 9.88803 4.71841 9.8807L4.01792 9.16703C3.79931 9.38161 3.6989 9.65718 3.69617 9.94962L4.69613 9.95894ZM4.71841 9.8807C4.72588 9.87337 4.73752 9.85932 4.79706 9.85988L4.80637 8.85992C4.51393 8.85719 4.23654 8.95246 4.01792 9.16703L4.71841 9.8807ZM4.79706 9.85988L7.48494 9.88492L7.49426 8.88497L4.80637 8.85992L4.79706 9.85988ZM7.48494 9.88492C7.54448 9.88548 7.55585 9.89974 7.56318 9.90721L8.27685 9.20672C8.06227 8.98811 7.7867 8.88769 7.49426 8.88497L7.48494 9.88492ZM7.56318 9.90721C7.57051 9.91467 7.58456 9.92631 7.584 9.98585L8.58396 9.99517C8.58669 9.70272 8.49142 9.42533 8.27685 9.20672L7.56318 9.90721ZM7.584 9.98585L7.55896 12.6737L8.55891 12.6831L8.58396 9.99517L7.584 9.98585ZM7.55896 12.6737C7.5584 12.7333 7.54414 12.7446 7.53667 12.752L8.23716 13.4656C8.45577 13.2511 8.55619 12.9755 8.55891 12.6831L7.55896 12.6737ZM7.53667 12.752C7.52921 12.7593 7.51757 12.7734 7.45803 12.7728L7.44871 13.7728C7.74116 13.7755 8.01855 13.6802 8.23716 13.4656L7.53667 12.752ZM7.45803 12.7728L4.77015 12.7478L4.76083 13.7477L7.44871 13.7728L7.45803 12.7728ZM13.2531 12.9188L13.0286 13.3656L13.0318 13.3671L13.2531 12.9188ZM11.1826 11.0274L10.7544 11.2855L10.7567 11.2892L11.1826 11.0274ZM10.3704 8.04373L10.8703 8.02757L10.8697 8.01719L10.3704 8.04373ZM10.3885 6.09981L10.8873 6.13566L10.8879 6.125L10.3885 6.09981ZM11.2322 3.13154L10.8088 2.86554L10.8074 2.86787L11.2322 3.13154ZM13.3618 1.25531L13.1488 0.802918L13.3618 1.25531ZM19.1953 1.11766L19.0036 1.57952L19.0122 1.5829L19.1953 1.11766ZM21.033 2.23883L21.3775 1.87649L21.033 2.23883ZM22.0757 3.66461L21.6181 3.86614L21.6221 3.87517L21.6264 3.88404L22.0757 3.66461ZM22.4479 4.94013L21.9481 4.95719L21.9486 4.97124L21.9499 4.98524L22.4479 4.94013ZM22.2758 5.37054L22.6261 5.72738L22.6261 5.72738L22.2758 5.37054ZM18.9155 5.38723L18.5285 5.70373L18.5572 5.73892L18.5919 5.76835L18.9155 5.38723ZM18.6791 5.00101L18.2132 5.18238L18.2207 5.20176L18.2298 5.22045L18.6791 5.00101ZM17.8263 3.79302L18.1118 3.38255L17.8263 3.79302ZM14.7993 4.10082L15.1685 4.43805L14.7993 4.10082ZM14.1072 6.25447L13.6077 6.23343L13.6075 6.237L14.1072 6.25447ZM14.0914 7.9584L13.5914 7.96936L13.5917 7.97791L14.0914 7.9584ZM14.7432 10.1246L14.3671 10.4541L14.3737 10.4614L14.7432 10.1246ZM18.6393 9.27283L18.1768 9.08282L18.6393 9.27283ZM18.8827 8.91508L19.1992 9.30216L19.2167 9.2878L19.2329 9.27191L18.8827 8.91508ZM22.2421 8.99439L21.8627 9.32012L21.8844 9.34541L21.9093 9.36759L22.2421 8.99439ZM22.4063 9.40394L21.9092 9.34955L21.9081 9.35972L21.9074 9.36992L22.4063 9.40394ZM22.1573 10.3617L21.6934 10.1751L21.6899 10.184L21.6866 10.193L22.1573 10.3617ZM21.4988 11.4836L21.1096 11.1695L21.1017 11.1799L21.4988 11.4836ZM20.3608 12.553L20.6409 12.9674L20.6503 12.9607L20.3608 12.553ZM18.6495 13.3291L18.7855 13.8103L18.7929 13.8081L18.6495 13.3291ZM16.3476 13.0956C15.2418 13.0853 14.2882 12.8722 13.4744 12.4705L13.0318 13.3671C14.0019 13.8461 15.1082 14.0841 16.3383 14.0956L16.3476 13.0956ZM13.4776 12.472C12.6832 12.0728 12.0634 11.5057 11.6086 10.7656L10.7567 11.2892C11.3106 12.1906 12.0712 12.8844 13.0286 13.3656L13.4776 12.472ZM11.6109 10.7694C11.1581 10.018 10.9051 9.10999 10.8701 8.02757L9.87067 8.05989C9.9102 9.28226 10.1987 10.3634 10.7544 11.2855L11.6109 10.7694ZM10.8697 8.01719C10.8568 7.77517 10.8518 7.46634 10.8553 7.08821L9.85538 7.07889C9.85174 7.46872 9.85675 7.80001 9.87111 8.07027L10.8697 8.01719ZM10.8553 7.08821C10.859 6.69358 10.8699 6.37707 10.8872 6.13565L9.88981 6.06397C9.87039 6.33424 9.85915 6.67355 9.85538 7.07889L10.8553 7.08821ZM10.8879 6.125C10.9435 5.02324 11.2071 4.12021 11.657 3.39522L10.8074 2.86787C10.2502 3.76556 9.95135 4.84138 9.88916 6.07463L10.8879 6.125ZM11.6556 3.39755C12.1235 2.65288 12.7596 2.09139 13.5747 1.70769L13.1488 0.802918C12.164 1.26649 11.3804 1.95583 10.8088 2.86554L11.6556 3.39755ZM13.5747 1.70769C14.3958 1.3212 15.3533 1.12586 16.459 1.13616L16.4684 0.136203C15.2382 0.124741 14.1277 0.342144 13.1488 0.802918L13.5747 1.70769ZM16.459 1.13616C17.4863 1.14573 18.3295 1.2996 19.0036 1.57944L19.387 0.655866C18.5629 0.31372 17.585 0.146608 16.4684 0.136203L16.459 1.13616ZM19.0122 1.5829C19.7147 1.85949 20.2685 2.20189 20.6884 2.60116L21.3775 1.87649C20.8458 1.37086 20.1745 0.965814 19.3785 0.652414L19.0122 1.5829ZM20.6884 2.60116C21.1259 3.01722 21.4303 3.43975 21.6181 3.86614L22.5333 3.46307C22.2824 2.89333 21.8916 2.36534 21.3775 1.87649L20.6884 2.60116ZM21.6264 3.88404C21.8441 4.32962 21.9388 4.6838 21.9481 4.95719L22.9476 4.92307C22.9318 4.46019 22.7784 3.96402 22.525 3.44518L21.6264 3.88404ZM21.9499 4.98524C21.9502 4.98884 21.9499 4.98921 21.9502 4.98727C21.9504 4.98524 21.951 4.98332 21.9514 4.98228C21.9525 4.97954 21.9491 4.99064 21.9256 5.01371L22.6261 5.72738C22.8471 5.51043 22.9757 5.22449 22.9458 4.89502L21.9499 4.98524ZM21.9256 5.01371C21.9125 5.02654 21.905 5.02975 21.9026 5.03071C21.9001 5.03172 21.8914 5.03495 21.8709 5.03476L21.8616 6.03471C22.1527 6.03743 22.4173 5.93227 22.6261 5.72738L21.9256 5.01371ZM21.8709 5.03476L19.3031 5.01083L19.2937 6.01079L21.8616 6.03471L21.8709 5.03476ZM19.3031 5.01083C19.2642 5.01047 19.2437 5.00537 19.2363 5.00297C19.2302 5.00101 19.2333 5.00113 19.2392 5.00612L18.5919 5.76835C18.7988 5.94411 19.0502 6.00852 19.2937 6.01079L19.3031 5.01083ZM19.3026 5.07073C19.2559 5.01359 19.1966 4.9212 19.1284 4.78159L18.2298 5.22045C18.3187 5.40231 18.417 5.56739 18.5285 5.70373L19.3026 5.07073ZM19.1451 4.81965C18.9046 4.20194 18.5706 3.70162 18.1118 3.38255L17.5408 4.20349C17.7816 4.37096 18.0161 4.67596 18.2132 5.18238L19.1451 4.81965ZM18.1118 3.38255C17.6617 3.06947 17.1187 2.92638 16.5144 2.92075L16.5051 3.92071C16.9568 3.92492 17.2914 4.03002 17.5408 4.20349L18.1118 3.38255ZM16.5144 2.92075C15.6767 2.91295 14.9616 3.18188 14.4302 3.7636L15.1685 4.43805C15.4777 4.09956 15.9029 3.9151 16.5051 3.92071L16.5144 2.92075ZM14.4302 3.7636C13.8965 4.34784 13.6511 5.20339 13.6077 6.23343L14.6068 6.27551C14.6456 5.35423 14.8616 4.77402 15.1685 4.43805L14.4302 3.7636ZM13.6075 6.237C13.5855 6.86833 13.58 7.44597 13.5915 7.96936L14.5912 7.94744C14.5803 7.44656 14.5854 6.88825 14.6069 6.27194L13.6075 6.237ZM13.5917 7.97791C13.6323 9.01581 13.8604 9.87571 14.3672 10.4541L15.1193 9.79505C14.8344 9.47 14.628 8.88579 14.591 7.93888L13.5917 7.97791ZM14.3737 10.4614C14.8958 11.0343 15.6041 11.3046 16.4362 11.3124L16.4455 10.3124C15.8377 10.3068 15.4142 10.1185 15.1128 9.78777L14.3737 10.4614ZM16.4362 11.3124C17.064 11.3182 17.6257 11.1891 18.075 10.8745L17.5014 10.0554C17.2741 10.2145 16.9377 10.317 16.4455 10.3124L16.4362 11.3124ZM18.075 10.8745C18.5198 10.563 18.8521 10.0707 19.1018 9.46284L18.1768 9.08282C17.9682 9.59072 17.733 9.89319 17.5014 10.0554L18.075 10.8745ZM19.1018 9.46284C19.1471 9.35258 19.1864 9.31258 19.1992 9.30216L18.5662 8.528C18.3854 8.67579 18.2625 8.87428 18.1768 9.08282L19.1018 9.46284ZM19.2329 9.27191C19.2321 9.27266 19.2303 9.27424 19.2277 9.2759C19.2251 9.27756 19.2232 9.27832 19.2229 9.27843C19.222 9.27873 19.2333 9.27436 19.2633 9.27464L19.2726 8.27469C19.0055 8.2722 18.7407 8.35381 18.5324 8.55825L19.2329 9.27191ZM19.2633 9.27464L21.8312 9.29857L21.8405 8.29862L19.2726 8.27469L19.2633 9.27464ZM21.8312 9.29857C21.8377 9.29863 21.8407 9.29929 21.841 9.29937C21.8413 9.29943 21.8408 9.29931 21.8403 9.29907C21.8382 9.29807 21.8463 9.30103 21.8627 9.32012L22.6214 8.66865C22.4234 8.43804 22.1547 8.30154 21.8405 8.29862L21.8312 9.29857ZM21.9093 9.36759C21.9171 9.37454 21.9197 9.37817 21.9194 9.37782C21.919 9.37727 21.9167 9.37383 21.9142 9.36772C21.9118 9.36154 21.9103 9.3555 21.9097 9.35076C21.9092 9.34624 21.9097 9.34545 21.9092 9.34955L22.9033 9.45832C22.9395 9.12714 22.8142 8.83464 22.5748 8.62118L21.9093 9.36759ZM21.9074 9.36992C21.8937 9.57161 21.8293 9.83728 21.6934 10.1751L22.6212 10.5482C22.7802 10.1528 22.8818 9.77994 22.9051 9.43795L21.9074 9.36992ZM21.6866 10.193C21.5782 10.4956 21.3908 10.8213 21.1097 11.1696L21.888 11.7976C22.222 11.3836 22.4736 10.9613 22.628 10.5303L21.6866 10.193ZM21.1017 11.1799C20.8458 11.5145 20.5052 11.8373 20.0714 12.1453L20.6503 12.9607C21.1507 12.6054 21.5687 12.2153 21.896 11.7873L21.1017 11.1799ZM20.0808 12.1388C19.6648 12.42 19.143 12.6595 18.5061 12.8501L18.7929 13.8081C19.5039 13.5953 20.123 13.3173 20.6408 12.9672L20.0808 12.1388ZM18.5135 12.8479C17.9125 13.0178 17.1929 13.1035 16.3476 13.0956L16.3383 14.0956C17.2529 14.1041 18.071 14.0122 18.7855 13.8103L18.5135 12.8479ZM27.1024 13.0478L26.8746 13.493L26.881 13.4962L27.1024 13.0478ZM25.0561 11.1327L24.6192 11.3758L24.6228 11.3822L25.0561 11.1327ZM24.3148 8.26967L24.8145 8.25229L24.8144 8.24935L24.3148 8.26967ZM24.3349 6.10976L24.834 6.14069L24.8342 6.13613L24.3349 6.10976ZM25.1775 3.26149L25.6 3.52892L25.6023 3.52517L25.1775 3.26149ZM27.2828 1.40903L27.4958 1.86146L27.5023 1.8583L27.2828 1.40903ZM33.7866 1.46963L33.5588 1.91478L33.5652 1.91797L33.7866 1.46963ZM35.857 3.361L35.4273 3.61673L35.4296 3.6205L35.857 3.361ZM36.6464 6.22448L36.1467 6.24155L36.1472 6.2569L36.1487 6.27219L36.6464 6.22448ZM36.6262 8.38439L36.1292 8.33L36.1277 8.34382L36.127 8.3577L36.6262 8.38439ZM35.8077 11.2329L35.379 10.9753L35.3754 10.9817L35.8077 11.2329ZM33.7501 13.1098L33.9631 13.5622L33.9695 13.5591L33.7501 13.1098ZM32.2394 10.3836L32.6206 10.7073L32.6257 10.7011L32.2394 10.3836ZM32.9075 8.22973L32.409 8.19182L32.4083 8.19997L32.408 8.20814L32.9075 8.22973ZM32.9254 6.30981L32.4256 6.32239L32.4258 6.33041L32.4262 6.33843L32.9254 6.30981ZM32.2973 4.16787L32.6895 3.85763L32.2973 4.16787ZM28.7215 4.13455L28.3414 3.80963L28.3352 3.81706L28.7215 4.13455ZM28.0536 6.26442L28.5522 6.30233L28.5528 6.29432L28.5532 6.28631L28.0536 6.26442ZM28.0357 8.18434L28.5356 8.17205L28.5354 8.16388L28.5349 8.15573L28.0357 8.18434ZM28.6636 10.3503L28.2715 10.6605L28.277 10.6675L28.2827 10.6742L28.6636 10.3503ZM30.4369 13.2269C29.1601 13.215 28.1296 12.9973 27.3237 12.5995L26.881 13.4962C27.8591 13.979 29.0484 14.214 30.4275 14.2269L30.4369 13.2269ZM27.3301 12.6027C26.5191 12.1877 25.9108 11.615 25.4894 10.8832L24.6228 11.3822C25.1462 12.2913 25.9021 12.9953 26.8746 13.493L27.3301 12.6027ZM25.4931 10.8896C25.0809 10.1488 24.85 9.27424 24.8145 8.25229L23.8151 8.28705C23.8553 9.4419 24.1186 10.476 24.6192 11.3758L25.4931 10.8896ZM24.8144 8.24935C24.8018 7.93928 24.7972 7.58775 24.8008 7.19415L23.8009 7.18483C23.7971 7.5912 23.8018 7.95979 23.8152 8.28998L24.8144 8.24935ZM24.8008 7.19415C24.8046 6.78401 24.8158 6.43328 24.834 6.14069L23.8359 6.07883C23.8163 6.39392 23.8048 6.76301 23.8009 7.18483L24.8008 7.19415ZM24.8342 6.13613C24.8888 5.10326 25.1498 4.24012 25.6 3.52891L24.755 2.99407C24.1983 3.87354 23.8976 4.90925 23.8356 6.08339L24.8342 6.13613ZM25.6023 3.52517C26.0528 2.7994 26.6793 2.24573 27.4958 1.86141L27.0699 0.956637C26.0864 1.41959 25.3094 2.10089 24.7527 2.99781L25.6023 3.52517ZM27.5023 1.8583C28.316 1.46086 29.3251 1.25605 30.5483 1.26745L30.5576 0.267489C29.221 0.255034 28.0499 0.477928 27.0634 0.959748L27.5023 1.8583ZM30.5483 1.26745C31.7544 1.27868 32.7518 1.5018 33.5588 1.91474L34.0143 1.02452C33.0377 0.5248 31.8794 0.279806 30.5576 0.267489L30.5483 1.26745ZM33.5652 1.91797C34.3744 2.31743 34.9905 2.88268 35.4274 3.61672L36.2867 3.10529C35.7468 2.19815 34.9826 1.50249 34.0079 1.02129L33.5652 1.91797ZM35.4296 3.6205C35.8665 4.33998 36.1114 5.20784 36.1467 6.24155L37.1461 6.20742C37.106 5.03233 36.8246 3.9912 36.2844 3.1015L35.4296 3.6205ZM36.1487 6.27219C36.1757 6.55415 36.1881 6.89596 36.1843 7.30022L37.1843 7.30954C37.1883 6.88184 37.1754 6.50339 37.1441 6.17678L36.1487 6.27219ZM36.1843 7.30022C36.1807 7.68741 36.162 8.03023 36.1292 8.33L37.1233 8.43877C37.1604 8.09917 37.1804 7.72232 37.1843 7.30954L36.1843 7.30022ZM36.127 8.3577C36.0725 9.37599 35.8187 10.2438 35.3791 10.9754L36.2363 11.4904C36.7718 10.599 37.0637 9.5678 37.1255 8.41108L36.127 8.3577ZM35.3754 10.9817C34.9569 11.7018 34.3481 12.2613 33.5307 12.6605L33.9695 13.5591C34.9524 13.079 35.7152 12.3872 36.24 11.4841L35.3754 10.9817ZM33.5372 12.6574C32.7233 13.0405 31.6966 13.2387 30.4369 13.2269L30.4275 14.2269C31.7917 14.2396 32.9769 14.0264 33.963 13.5622L33.5372 12.6574ZM30.4521 11.587C31.3434 11.5953 32.0963 11.3246 32.6205 10.7073L31.8583 10.0599C31.5737 10.3951 31.1381 10.5933 30.4615 10.587L30.4521 11.587ZM32.6257 10.7011C33.1252 10.0933 33.3637 9.25339 33.4071 8.25133L32.408 8.20814C32.3697 9.0934 32.1628 9.68936 31.8532 10.0661L32.6257 10.7011ZM33.4061 8.26764C33.4255 8.01191 33.4367 7.67952 33.4405 7.27466L32.4405 7.26534C32.4368 7.66044 32.426 7.96787 32.409 8.19182L33.4061 8.26764ZM33.4405 7.27466C33.4442 6.86979 33.4393 6.53725 33.4246 6.28121L32.4262 6.33843C32.4391 6.56265 32.4442 6.87023 32.4405 7.26534L33.4405 7.27466ZM33.4253 6.29724C33.4004 5.30831 33.1765 4.47326 32.6895 3.85763L31.9052 4.47811C32.2089 4.86189 32.4038 5.45481 32.4256 6.32239L33.4253 6.29724ZM32.6895 3.85763C32.1788 3.21223 31.4298 2.91573 30.533 2.90738L30.5237 3.90733C31.1948 3.91359 31.6251 4.1241 31.9052 4.47811L32.6895 3.85763ZM30.533 2.90738C29.6355 2.89901 28.8783 3.18152 28.3414 3.80969L29.1016 4.45941C29.4059 4.10338 29.8533 3.90109 30.5237 3.90733L30.533 2.90738ZM28.3352 3.81706C27.8368 4.4235 27.5974 5.25424 27.5541 6.24253L28.5532 6.28631C28.5911 5.41928 28.797 4.8301 29.1078 4.45204L28.3352 3.81706ZM27.5551 6.22651C27.5356 6.48224 27.5245 6.81463 27.5207 7.21949L28.5207 7.22881C28.5243 6.83371 28.5352 6.52628 28.5522 6.30233L27.5551 6.22651ZM27.5207 7.21949C27.5169 7.62435 27.5219 7.9569 27.5366 8.21295L28.5349 8.15573C28.5221 7.9315 28.517 7.62392 28.5207 7.22881L27.5207 7.21949ZM27.5359 8.19662C27.5605 9.19932 27.7833 10.0436 28.2715 10.6605L29.0557 10.04C28.7531 9.65759 28.5574 9.05787 28.5356 8.17205L27.5359 8.19662ZM28.2827 10.6742C28.8097 11.2938 29.5601 11.5787 30.4521 11.587L30.4615 10.587C29.7856 10.5807 29.3405 10.3744 29.0445 10.0263L28.2827 10.6742ZM39.3057 13.4016L38.9488 13.7518L39.3057 13.4016ZM39.4188 1.2581L39.7691 1.61493L39.7691 1.61493L39.4188 1.2581ZM42.4667 1.2865L42.1099 1.63674L42.1215 1.64863L42.134 1.65971L42.4667 1.2865ZM42.6471 2.53623L42.1471 2.53158L42.1326 4.09174L43.0512 2.83063L42.6471 2.53623ZM43.9777 1.39659L43.739 0.957231L43.7337 0.960171L43.9777 1.39659ZM46.0223 0.911614L46.0184 0.411628L46.0168 0.411646L46.0223 0.911614ZM49.8185 3.05908L49.3654 3.27042L49.7623 4.12145L50.2468 3.31707L49.8185 3.05908ZM51.4165 1.56191L51.6561 2.00077L51.6595 1.99892L51.4165 1.56191ZM55.9766 1.58039L55.7244 2.01226L55.7323 2.01669L55.9766 1.58039ZM57.5444 3.32308L57.0932 3.53889L57.0988 3.5499L57.5444 3.32308ZM57.8809 13.5747L58.2311 13.9315L58.2311 13.9315L57.8809 13.5747ZM54.689 13.5449L54.3322 13.8952L54.3322 13.8952L54.689 13.5449ZM54.3133 4.92504L53.864 5.14451L53.8679 5.15219L54.3133 4.92504ZM53.5529 4.10192L53.3159 4.54229L53.3252 4.54703L53.5529 4.10192ZM51.537 4.08314L51.3176 3.63376L51.3083 3.63853L51.537 4.08314ZM50.7615 4.89195L50.324 4.64969L50.3204 4.65654L50.7615 4.89195ZM50.2252 13.5033L50.5754 13.8602L50.5755 13.8602L50.2252 13.5033ZM47.0093 13.4734L47.3662 13.1231L47.3662 13.1231L47.0093 13.4734ZM46.6336 4.85348L46.1843 5.07294L46.1882 5.08062L46.6336 4.85348ZM45.8733 4.03036L45.6362 4.47073L45.6455 4.47547L45.8733 4.03036ZM43.8811 4.0358L44.1006 4.48508L44.1094 4.48078L44.118 4.47613L43.8811 4.0358ZM43.0818 4.82039L42.6488 4.57031L42.6446 4.57758L42.6407 4.58498L43.0818 4.82039ZM42.5455 13.4318L42.8958 13.7886L42.5455 13.4318ZM39.7168 13.0734C39.6963 13.0732 39.6877 13.0698 39.6852 13.0688C39.6828 13.0677 39.6753 13.0644 39.6625 13.0513L38.9488 13.7518C39.1537 13.9606 39.4164 14.0706 39.7074 14.0733L39.7168 13.0734ZM39.6625 13.0513C39.6552 13.0439 39.6411 13.0322 39.6417 12.9727L38.6417 12.9634C38.639 13.2558 38.7343 13.5332 38.9488 13.7518L39.6625 13.0513ZM39.6417 12.9727L39.7468 1.69317L38.7468 1.68386L38.6417 12.9634L39.6417 12.9727ZM39.7468 1.69317C39.7473 1.63364 39.7616 1.62226 39.7691 1.61493L39.0686 0.901267C38.85 1.11584 38.7496 1.39141 38.7468 1.68386L39.7468 1.69317ZM39.7691 1.61493C39.7821 1.6021 39.7897 1.59889 39.7921 1.59793C39.7946 1.59693 39.8033 1.5937 39.8237 1.59389L39.833 0.59393C39.542 0.591217 39.2773 0.696371 39.0686 0.901268L39.7691 1.61493ZM39.8237 1.59389L42.0556 1.61468L42.0649 0.614727L39.833 0.59393L39.8237 1.59389ZM42.0556 1.61468C42.0761 1.61487 42.0847 1.61827 42.0872 1.61932C42.0896 1.62032 42.097 1.62367 42.1099 1.63674L42.8235 0.936258C42.6186 0.727506 42.356 0.617439 42.0649 0.614727L42.0556 1.61468ZM42.134 1.65971C42.1476 1.67189 42.1499 1.6781 42.1501 1.67864C42.1506 1.67962 42.1549 1.68937 42.1547 1.71561L43.1546 1.72493C43.1576 1.41049 43.0382 1.12618 42.7994 0.913296L42.134 1.65971ZM42.1547 1.71561L42.1471 2.53158L43.147 2.54089L43.1546 1.72493L42.1547 1.71561ZM43.0512 2.83063C43.3262 2.45314 43.7111 2.11853 44.2218 1.833L43.7337 0.960171C43.1185 1.30417 42.6163 1.72933 42.2429 2.24184L43.0512 2.83063ZM44.2165 1.83591C44.7114 1.56697 45.3099 1.41955 46.0279 1.41158L46.0168 0.411646C45.1666 0.421072 44.402 0.596961 43.739 0.957264L44.2165 1.83591ZM46.0263 1.4116C46.8906 1.40475 47.5793 1.56825 48.1174 1.87265C48.6506 2.17428 49.0676 2.63191 49.3654 3.27042L50.2716 2.84774C49.8949 2.03991 49.3419 1.41645 48.6097 1.00226C47.8824 0.590834 47.0103 0.403773 46.0184 0.41163L46.0263 1.4116ZM50.2468 3.31707C50.5709 2.77906 51.0354 2.33968 51.6561 2.00076L51.1769 1.12306C50.4146 1.53928 49.8137 2.09801 49.3902 2.80109L50.2468 3.31707ZM51.6595 1.99892C52.2893 1.64876 52.9735 1.47641 53.7214 1.48338L53.7307 0.48342C52.8146 0.474884 51.9591 0.6882 51.1736 1.1249L51.6595 1.99892ZM53.7214 1.48338C54.473 1.49038 55.1368 1.66909 55.7244 2.01219L56.2287 1.1486C55.4795 0.711209 54.6429 0.49192 53.7307 0.48342L53.7214 1.48338ZM55.7323 2.01669C56.2986 2.33369 56.7547 2.83091 57.0933 3.53882L57.9954 3.10734C57.5807 2.24016 56.9916 1.57559 56.2208 1.1441L55.7323 2.01669ZM57.0988 3.5499C57.4434 4.22689 57.6275 5.13375 57.6166 6.29988L58.6166 6.3092C58.6284 5.04344 58.431 3.96266 57.99 3.09625L57.0988 3.5499ZM57.6166 6.29988L57.5529 13.1396L58.5529 13.1489L58.6166 6.3092L57.6166 6.29988ZM57.5529 13.1396C57.5524 13.1991 57.5381 13.2105 57.5306 13.2178L58.2311 13.9315C58.4497 13.7169 58.5501 13.4413 58.5529 13.1489L57.5529 13.1396ZM57.5306 13.2178C57.5176 13.2307 57.51 13.2339 57.5077 13.2348C57.5051 13.2358 57.4965 13.2391 57.476 13.2389L57.4667 14.2388C57.7577 14.2415 58.0224 14.1364 58.2311 13.9315L57.5306 13.2178ZM57.476 13.2389L55.1001 13.2167L55.0908 14.2167L57.4667 14.2388L57.476 13.2389ZM55.1001 13.2167C55.0796 13.2165 55.071 13.2131 55.0685 13.2121C55.0661 13.2111 55.0587 13.2077 55.0458 13.1947L54.3322 13.8952C54.5371 14.1039 54.7997 14.214 55.0908 14.2167L55.1001 13.2167ZM55.0458 13.1947C55.0385 13.1872 55.0245 13.1756 55.025 13.116L54.0251 13.1067C54.0223 13.3992 54.1176 13.6765 54.3322 13.8952L55.0458 13.1947ZM55.025 13.116L55.087 6.46832L54.087 6.459L54.0251 13.1067L55.025 13.116ZM55.087 6.46832C55.0934 5.77386 54.9991 5.16931 54.7587 4.6979L53.8679 5.15219C54.0046 5.42032 54.0928 5.84152 54.087 6.459L55.087 6.46832ZM54.7626 4.70561C54.5365 4.24262 54.2136 3.87832 53.7807 3.65681L53.3252 4.54703C53.5293 4.65147 53.7133 4.83592 53.864 5.14447L54.7626 4.70561ZM53.7899 3.66165C53.4079 3.45602 52.9833 3.35658 52.5279 3.35234L52.5186 4.3523C52.8311 4.35521 53.093 4.42217 53.316 4.54219L53.7899 3.66165ZM52.5279 3.35234C52.1093 3.34844 51.7042 3.44504 51.3176 3.63386L51.7565 4.53241C52.0128 4.40721 52.2652 4.34993 52.5186 4.3523L52.5279 3.35234ZM51.3083 3.63853C50.8936 3.85186 50.5706 4.20445 50.3241 4.64972L51.1989 5.13417C51.3754 4.81535 51.5695 4.62873 51.7658 4.52775L51.3083 3.63853ZM50.3204 4.65654C50.0712 5.12339 49.9657 5.72608 49.9592 6.42054L50.9591 6.42985C50.9649 5.81237 51.0609 5.39289 51.2026 5.12735L50.3204 4.65654ZM49.9592 6.42054L49.8972 13.0682L50.8972 13.0776L50.9591 6.42985L49.9592 6.42054ZM49.8972 13.0682C49.8967 13.1278 49.8824 13.1392 49.875 13.1465L50.5755 13.8602C50.7941 13.6456 50.8945 13.37 50.8972 13.0776L49.8972 13.0682ZM49.875 13.1465C49.8675 13.1538 49.8559 13.1679 49.7963 13.1673L49.787 14.1673C50.0794 14.17 50.3568 14.0747 50.5754 13.8602L49.875 13.1465ZM49.7963 13.1673L47.4444 13.1454L47.4351 14.1454L49.787 14.1673L49.7963 13.1673ZM47.4444 13.1454C47.3849 13.1448 47.3735 13.1306 47.3662 13.1231L46.6525 13.8236C46.8671 14.0422 47.1427 14.1426 47.4351 14.1454L47.4444 13.1454ZM47.3662 13.1231C47.3588 13.1156 47.3448 13.104 47.3454 13.0445L46.3454 13.0352C46.3427 13.3276 46.4379 13.605 46.6525 13.8236L47.3662 13.1231ZM47.3454 13.0445L47.4073 6.39676L46.4073 6.38744L46.3454 13.0352L47.3454 13.0445ZM47.4073 6.39676C47.4138 5.7023 47.3195 5.09775 47.0791 4.62634L46.1882 5.08062C46.325 5.34876 46.4131 5.76996 46.4073 6.38744L47.4073 6.39676ZM47.0829 4.63405C46.8568 4.17106 46.5339 3.80676 46.101 3.58525L45.6455 4.47547C45.8496 4.57991 46.0337 4.76436 46.1844 5.07291L47.0829 4.63405ZM46.1103 3.59009C45.7313 3.38609 45.3154 3.28513 44.8722 3.281L44.8629 4.28096C45.1557 4.28369 45.4103 4.34898 45.6363 4.47063L46.1103 3.59009ZM44.8722 3.281C44.4448 3.27702 44.0335 3.3861 43.6443 3.59547L44.118 4.47613C44.3721 4.33947 44.6184 4.27868 44.8629 4.28096L44.8722 3.281ZM43.6617 3.58652C43.2356 3.79465 42.9008 4.13406 42.6488 4.57031L43.5148 5.07046C43.6856 4.77462 43.8838 4.59097 44.1006 4.48508L43.6617 3.58652ZM42.6407 4.58498C42.3923 5.05047 42.2861 5.64412 42.2797 6.32498L43.2797 6.3343C43.2853 5.73521 43.3805 5.32269 43.5229 5.05579L42.6407 4.58498ZM42.2797 6.32498L42.2176 12.9967L43.2175 13.006L43.2797 6.3343L42.2797 6.32498ZM42.2176 12.9967C42.217 13.0562 42.2028 13.0676 42.1953 13.0749L42.8958 13.7886C43.1144 13.574 43.2148 13.2985 43.2175 13.006L42.2176 12.9967ZM42.1953 13.0749C42.1822 13.0878 42.1747 13.091 42.1723 13.0919C42.1698 13.0929 42.1611 13.0962 42.1407 13.096L42.1313 14.0959C42.4224 14.0986 42.687 13.9935 42.8958 13.7886L42.1953 13.0749ZM42.1407 13.096L39.7168 13.0734L39.7074 14.0733L42.1313 14.0959L42.1407 13.096Z" fill="#414141"/>
</g>
<defs>
<filter id="filter0_d_2051_112" x="0.16333" y="0.474731" width="62.0029" height="21.5095" filterUnits="userSpaceOnUse" color-interpolation-filters="sRGB">
<feFlood flood-opacity="0" result="BackgroundImageFix"/>
<feColorMatrix in="SourceAlpha" type="matrix" values="0 0 0 0 0 0 0 0 0 0 0 0 0 0 0 0 0 0 127 0" result="hardAlpha"/>
<feOffset dy="4"/>
<feGaussianBlur stdDeviation="2"/>
<feComposite in2="hardAlpha" operator="out"/>
<feColorMatrix type="matrix" values="0 0 0 0 0 0 0 0 0 0 0 0 0 0 0 0 0 0 0.25 0"/>
<feBlend mode="normal" in2="BackgroundImageFix" result="effect1_dropShadow_2051_112"/>
<feBlend mode="normal" in="SourceGraphic" in2="effect1_dropShadow_2051_112" result="shape"/>
</filter>
</defs>
</svg>
