<svg width="158" height="48" viewBox="0 0 158 48" fill="none" xmlns="http://www.w3.org/2000/svg">
<g filter="url(#filter0_d_1618_95)">
<path d="M2.54691 35.0766C2.19528 35.0604 1.91272 34.9354 1.69923 34.7013C1.48574 34.4673 1.38706 34.1744 1.40321 33.8228L2.83398 2.65564C2.85012 2.30401 2.97521 2.02145 3.20925 1.80795C3.44328 1.59446 3.73612 1.49579 4.08774 1.51193L16.1231 2.06443C19.3197 2.21117 21.9654 2.84517 24.0602 3.96641C26.1565 5.05568 27.7192 6.60098 28.7485 8.60228C29.8113 10.5731 30.3093 12.9825 30.2426 15.8304C30.21 17.2384 30.1695 18.4698 30.1211 19.5247C30.0727 20.5796 30.0009 21.7936 29.9059 23.1667C29.6735 26.1351 28.9691 28.5694 27.7927 30.4695C26.6164 32.3695 24.9513 33.7506 22.7975 34.6127C20.6452 35.4429 17.9867 35.7854 14.822 35.6401L2.54691 35.0766ZM9.2561 29.1861L14.8662 29.4436C16.4645 29.517 17.7861 29.3374 18.8311 28.9048C19.876 28.4723 20.6617 27.7556 21.1882 26.7547C21.748 25.7233 22.0821 24.3772 22.1904 22.7164C22.2649 21.7908 22.3191 20.9604 22.3528 20.2252C22.4185 19.4915 22.4523 18.7562 22.4541 18.0195C22.4878 17.2843 22.5092 16.4684 22.5184 15.5719C22.5645 13.1715 22.0219 11.3847 20.8905 10.2116C19.7925 9.008 18.0288 8.35043 15.5994 8.23891L10.229 7.99237L9.2561 29.1861ZM36.5424 36.6372C36.1907 36.621 35.9082 36.496 35.6947 36.2619C35.4812 36.0279 35.3825 35.7351 35.3987 35.3834L36.8294 4.21624C36.8456 3.86461 36.9707 3.58205 37.2047 3.36856C37.4387 3.15507 37.7316 3.05639 38.0832 3.07253L59.8043 4.06967C60.1559 4.08581 60.4385 4.2109 60.652 4.44494C60.8655 4.67898 60.9642 4.97181 60.948 5.32344L60.7719 9.1594C60.7573 9.47906 60.6329 9.74564 60.3989 9.95913C60.1648 10.1726 59.872 10.2713 59.5204 10.2552L43.9847 9.54197L43.6391 17.07L58.1199 17.7348C58.4715 17.7509 58.7541 17.876 58.9676 18.1101C59.1811 18.3441 59.2797 18.6369 59.2636 18.9886L59.1007 22.5368C59.086 22.8565 58.9617 23.1231 58.7276 23.3366C58.4936 23.5501 58.2008 23.6487 57.8491 23.6326L43.3684 22.9678L43.0118 30.7357L58.931 31.4664C59.2827 31.4826 59.5652 31.6077 59.7787 31.8417C59.9922 32.0758 60.0909 32.3686 60.0747 32.7202L59.9009 36.5082C59.8847 36.8599 59.7596 37.1424 59.5256 37.3559C59.2915 37.5694 58.9987 37.6681 58.6471 37.6519L36.5424 36.6372ZM78.5732 39.0472C75.5684 38.9092 73.0338 38.2964 70.9695 37.2086C68.9387 36.0902 67.3919 34.5457 66.3291 32.5749C65.2678 30.5721 64.7371 28.1772 64.7369 25.3903C64.7651 24.0782 64.8137 22.671 64.8827 21.1685C64.9516 19.6661 65.0337 18.2284 65.1287 16.8553C65.3828 14.1121 66.1292 11.8079 67.3681 9.94271C68.6403 8.04706 70.3548 6.6362 72.5116 5.71013C74.6683 4.78406 77.2171 4.38853 80.158 4.52353C82.2998 4.62185 84.2373 4.98308 85.9705 5.60722C87.7037 6.23136 89.1861 7.08423 90.4178 8.16586C91.6495 9.24748 92.5854 10.4917 93.2256 11.8985C93.8657 13.3054 94.1789 14.8574 94.1651 16.5545C94.1519 16.8422 94.029 17.0768 93.7964 17.2584C93.5958 17.4414 93.3516 17.5262 93.0639 17.513L87.5977 17.2621C87.2141 17.2445 86.9148 17.1347 86.6999 16.9326C86.4849 16.7305 86.3238 16.4028 86.2165 15.9494C85.8235 14.0414 85.0838 12.71 83.9973 11.9554C82.9107 11.2008 81.5363 10.7853 79.8741 10.709C77.8922 10.618 76.3009 11.0896 75.1002 12.1236C73.8995 13.1576 73.1933 14.9351 72.9814 17.456C72.7652 20.0729 72.6419 22.758 72.6116 25.5116C72.5916 28.0413 73.132 29.876 74.2329 31.0157C75.3338 32.1554 76.8752 32.7707 78.8571 32.8617C80.5194 32.938 81.9261 32.6502 83.0772 31.9983C84.2617 31.3159 85.1203 30.058 85.6529 28.2245C85.8028 27.7508 85.9933 27.4392 86.2244 27.2897C86.457 27.1082 86.7651 27.0262 87.1487 27.0438L92.6149 27.2947C92.9026 27.3079 93.1379 27.4148 93.3209 27.6155C93.5359 27.8175 93.6368 28.0624 93.6236 28.3501C93.4819 30.0414 93.0278 31.5582 92.2615 32.9004C91.4951 34.2427 90.4491 35.3959 89.1235 36.3602C87.7979 37.3244 86.2435 38.0379 84.4604 38.5006C82.6774 38.9633 80.7149 39.1455 78.5732 39.0472ZM99.7102 39.537C99.3586 39.5209 99.076 39.3958 98.8625 39.1617C98.649 38.9277 98.5504 38.6349 98.5665 38.2832L99.9973 7.11605C100.013 6.76442 100.139 6.48186 100.373 6.26837C100.607 6.05487 100.899 5.9562 101.251 5.97234L106.334 6.20567C106.685 6.22181 106.968 6.3469 107.181 6.58093C107.395 6.81497 107.494 7.1078 107.477 7.45943L106.976 18.3919L117.368 7.62518C117.505 7.43925 117.721 7.25699 118.018 7.0784C118.348 6.86931 118.769 6.77651 119.28 6.79999L125.082 7.06633C125.37 7.07954 125.604 7.20242 125.786 7.43499C125.969 7.6356 126.054 7.86376 126.043 8.1195C126.032 8.34326 125.96 8.53212 125.824 8.68608L112.837 22.6011L125.34 39.1279C125.462 39.2616 125.517 39.4564 125.505 39.7121C125.494 39.9678 125.387 40.2032 125.185 40.4181C124.984 40.6011 124.74 40.686 124.452 40.6728L118.458 40.3977C117.883 40.3712 117.457 40.2236 117.181 39.9546C116.905 39.6857 116.722 39.5011 116.63 39.4008L106.597 26.6392L106.047 38.6266C106.03 38.9782 105.905 39.2608 105.671 39.4743C105.437 39.6878 105.144 39.7865 104.793 39.7703L99.7102 39.537ZM140.775 41.9026C137.707 41.7618 135.154 41.1961 133.117 40.2057C131.112 39.2167 129.616 37.9788 128.627 36.4918C127.638 35.0049 127.149 33.4449 127.16 31.8116C127.171 31.5559 127.278 31.3366 127.478 31.1536C127.68 30.9386 127.925 30.8377 128.213 30.8509L133.343 31.0865C133.759 31.1055 134.074 31.2161 134.289 31.4182C134.506 31.5883 134.704 31.8056 134.884 32.0701C135.083 32.6238 135.41 33.1674 135.866 33.7009C136.354 34.2358 137.022 34.6989 137.869 35.0902C138.717 35.4495 139.781 35.6585 141.059 35.7172C143.137 35.8125 144.703 35.5481 145.757 34.9237C146.842 34.3009 147.412 33.414 147.464 32.2633C147.503 31.4321 147.246 30.7476 146.694 30.2098C146.174 29.6733 145.316 29.1695 144.12 28.6982C142.957 28.2283 141.395 27.7081 139.435 27.1376C137.061 26.5161 135.045 25.7669 133.388 24.89C131.764 23.9825 130.549 22.8697 129.745 21.5514C128.974 20.2026 128.633 18.5693 128.721 16.6513C128.809 14.7333 129.414 13.0633 130.536 11.6413C131.66 10.1873 133.2 9.08874 135.156 8.34566C137.114 7.57062 139.419 7.244 142.072 7.3658C144.214 7.46412 146.087 7.83839 147.691 8.48863C149.327 9.14033 150.667 9.95464 151.711 10.9316C152.787 11.9099 153.589 12.9398 154.116 14.0211C154.643 15.1024 154.9 16.1393 154.886 17.1317C154.874 17.3874 154.767 17.6228 154.565 17.8377C154.365 18.0207 154.121 18.1056 153.833 18.0924L148.463 17.8459C148.143 17.8312 147.858 17.754 147.608 17.6144C147.358 17.4748 147.161 17.2415 147.016 16.9145C146.862 16.0746 146.32 15.3289 145.389 14.6776C144.491 13.9957 143.291 13.6203 141.789 13.5513C140.222 13.4794 138.962 13.7098 138.009 14.2427C137.087 14.777 136.599 15.6355 136.545 16.8183C136.51 17.5855 136.704 18.251 137.126 18.815C137.582 19.3485 138.344 19.848 139.412 20.3134C140.513 20.7484 141.964 21.2474 143.764 21.8106C146.55 22.5151 148.805 23.3073 150.526 24.1872C152.247 25.067 153.494 26.1654 154.267 27.4822C155.041 28.767 155.384 30.3684 155.296 32.2864C155.197 34.4281 154.506 36.2383 153.22 37.7169C151.967 39.197 150.267 40.3042 148.119 41.0385C146.004 41.7423 143.556 42.0303 140.775 41.9026Z" fill="url(#paint0_linear_1618_95)"/>
<path d="M1.69923 34.7013L1.51453 34.8698L1.69923 34.7013ZM3.20925 1.80795L3.37773 1.99265L3.37773 1.99265L3.20925 1.80795ZM24.0602 3.96641L23.9422 4.18684L23.9449 4.18825L24.0602 3.96641ZM28.7485 8.60228L28.5262 8.71665L28.5285 8.72094L28.7485 8.60228ZM30.2426 15.8304L29.9927 15.8246L29.9927 15.8246L30.2426 15.8304ZM29.9059 23.1667L30.1551 23.1862L30.1553 23.1839L29.9059 23.1667ZM27.7927 30.4695L27.5802 30.3379L27.7927 30.4695ZM22.7975 34.6127L22.8875 34.846L22.8904 34.8448L22.7975 34.6127ZM9.2561 29.1861L9.00636 29.1746L8.9949 29.4243L9.24464 29.4358L9.2561 29.1861ZM21.1882 26.7547L20.9684 26.6354L20.9669 26.6383L21.1882 26.7547ZM22.1904 22.7164L21.9412 22.6963L21.9409 22.7001L22.1904 22.7164ZM22.3528 20.2252L22.1036 20.2029L22.1031 20.2138L22.3528 20.2252ZM22.4541 18.0195L22.2041 18.0081L22.2041 18.0189L22.4541 18.0195ZM22.5184 15.5719L22.2684 15.5671L22.2684 15.5694L22.5184 15.5719ZM20.8905 10.2116L20.7057 10.3802L20.7105 10.3852L20.8905 10.2116ZM10.229 7.99237L10.2405 7.74264L9.99075 7.73117L9.97929 7.98091L10.229 7.99237ZM2.55838 34.8268C2.26492 34.8134 2.04757 34.7122 1.88393 34.5328L1.51453 34.8698C1.77787 35.1585 2.12565 35.3075 2.53545 35.3263L2.55838 34.8268ZM1.88393 34.5328C1.72028 34.3534 1.63947 34.1277 1.65294 33.8343L1.15347 33.8113C1.13466 34.2211 1.25119 34.5811 1.51453 34.8698L1.88393 34.5328ZM1.65294 33.8343L3.08371 2.6671L2.58424 2.64417L1.15347 33.8113L1.65294 33.8343ZM3.08371 2.6671C3.09719 2.37364 3.19834 2.1563 3.37773 1.99265L3.04076 1.62326C2.75208 1.8866 2.60305 2.23437 2.58424 2.64417L3.08371 2.6671ZM3.37773 1.99265C3.55712 1.82901 3.78282 1.74819 4.07628 1.76166L4.09921 1.26219C3.68941 1.24338 3.32944 1.35992 3.04076 1.62326L3.37773 1.99265ZM4.07628 1.76166L16.1116 2.31416L16.1345 1.81469L4.09921 1.26219L4.07628 1.76166ZM16.1116 2.31416C19.2833 2.45976 21.8896 3.08817 23.9422 4.18682L24.1782 3.746C22.0412 2.60216 19.3561 1.96258 16.1345 1.81469L16.1116 2.31416ZM23.9449 4.18825C25.9977 5.2549 27.5218 6.76375 28.5262 8.71663L28.9709 8.48794C27.9166 6.43821 26.3153 4.85647 24.1755 3.74457L23.9449 4.18825ZM28.5285 8.72094C29.5658 10.6445 30.0586 13.0084 29.9927 15.8246L30.4926 15.8363C30.56 12.9565 30.0568 10.5017 28.9686 8.48363L28.5285 8.72094ZM29.9927 15.8246C29.9601 17.2313 29.9197 18.4608 29.8714 19.5133L30.3708 19.5362C30.4194 18.4789 30.4599 17.2455 30.4926 15.8362L29.9927 15.8246ZM29.8714 19.5133C29.8231 20.5657 29.7514 21.7777 29.6565 23.1494L30.1553 23.1839C30.2504 21.8095 30.3223 20.5935 30.3708 19.5362L29.8714 19.5133ZM29.6566 23.1472C29.4264 26.0885 28.7298 28.4811 27.5802 30.3379L28.0053 30.6011C29.2085 28.6577 29.9206 26.1817 30.1551 23.1862L29.6566 23.1472ZM27.5802 30.3379C26.4331 32.1907 24.8108 33.5376 22.7046 34.3807L22.8904 34.8448C25.0918 33.9637 26.7997 32.5484 28.0053 30.6011L27.5802 30.3379ZM22.7075 34.3795C20.5972 35.1935 17.9756 35.5346 14.8335 35.3903L14.8105 35.8898C17.9977 36.0361 20.6932 35.6924 22.8875 34.846L22.7075 34.3795ZM14.8335 35.3903L2.55838 34.8268L2.53545 35.3263L14.8105 35.8898L14.8335 35.3903ZM9.24464 29.4358L14.8547 29.6933L14.8777 29.1939L9.26757 28.9363L9.24464 29.4358ZM14.8547 29.6933C16.4755 29.7677 17.8368 29.587 18.9267 29.1358L18.7355 28.6739C17.7354 29.0878 16.4535 29.2662 14.8777 29.1939L14.8547 29.6933ZM18.9267 29.1358C20.0256 28.681 20.8558 27.9237 21.4094 26.8711L20.9669 26.6383C20.4676 27.5875 19.7264 28.2637 18.7355 28.6739L18.9267 29.1358ZM21.4079 26.8739C21.9907 25.8004 22.3302 24.4155 22.4399 22.7327L21.9409 22.7001C21.8341 24.3389 21.5054 25.6462 20.9684 26.6354L21.4079 26.8739ZM22.4396 22.7365C22.5143 21.8087 22.5686 20.9754 22.6025 20.2367L22.1031 20.2138C22.0695 20.9455 22.0155 21.7729 21.9412 22.6963L22.4396 22.7365ZM22.6018 20.2475C22.6682 19.5065 22.7023 18.7641 22.7041 18.0201L22.2041 18.0189C22.2023 18.7484 22.1689 19.4764 22.1038 20.2029L22.6018 20.2475ZM22.7038 18.031C22.7377 17.2923 22.7592 16.4733 22.7684 15.5745L22.2684 15.5694C22.2593 16.4635 22.2379 17.2764 22.2043 18.0081L22.7038 18.031ZM22.7683 15.5767C22.8151 13.1412 22.2658 11.2776 21.0704 10.0381L20.7105 10.3852C21.7779 11.4919 22.3139 13.2018 22.2684 15.5671L22.7683 15.5767ZM21.0752 10.0431C19.9146 8.77093 18.0742 8.10225 15.6108 7.98917L15.5879 8.48864C17.9834 8.59861 19.6704 9.24508 20.7058 10.3801L21.0752 10.0431ZM15.6108 7.98917L10.2405 7.74264L10.2176 8.24211L15.5879 8.48864L15.6108 7.98917ZM9.97929 7.98091L9.00636 29.1746L9.50584 29.1975L10.4788 8.00384L9.97929 7.98091ZM35.6947 36.2619L35.51 36.4304L35.6947 36.2619ZM37.2047 3.36856L37.3732 3.55326L37.2047 3.36856ZM60.3989 9.95914L60.5673 10.1438L60.5674 10.1438L60.3989 9.95914ZM43.9847 9.54197L43.9962 9.29224L43.7465 9.28077L43.735 9.53051L43.9847 9.54197ZM43.6391 17.07L43.3894 17.0586L43.3779 17.3083L43.6277 17.3198L43.6391 17.07ZM58.9676 18.1101L59.1523 17.9416L58.9676 18.1101ZM58.7276 23.3366L58.8961 23.5213L58.7276 23.3366ZM43.3684 22.9678L43.3799 22.7181L43.1301 22.7066L43.1187 22.9564L43.3684 22.9678ZM43.0118 30.7357L42.7621 30.7242L42.7506 30.9739L43.0003 30.9854L43.0118 30.7357ZM59.7787 31.8417L59.594 32.0102L59.594 32.0102L59.7787 31.8417ZM59.5256 37.3559L59.3571 37.1712L59.5256 37.3559ZM36.5538 36.3875C36.2604 36.374 36.043 36.2728 35.8794 36.0934L35.51 36.4304C35.7733 36.7191 36.1211 36.8681 36.5309 36.8869L36.5538 36.3875ZM35.8794 36.0934C35.7157 35.914 35.6349 35.6883 35.6484 35.3949L35.1489 35.372C35.1301 35.7818 35.2466 36.1417 35.51 36.4304L35.8794 36.0934ZM35.6484 35.3949L37.0792 4.22771L36.5797 4.20478L35.1489 35.372L35.6484 35.3949ZM37.0792 4.22771C37.0926 3.93425 37.1938 3.7169 37.3732 3.55326L37.0362 3.18386C36.7475 3.4472 36.5985 3.79498 36.5797 4.20478L37.0792 4.22771ZM37.3732 3.55326C37.5526 3.38961 37.7783 3.3088 38.0717 3.32227L38.0947 2.8228C37.6849 2.80399 37.3249 2.92052 37.0362 3.18386L37.3732 3.55326ZM38.0717 3.32227L59.7929 4.31941L59.8158 3.81994L38.0947 2.8228L38.0717 3.32227ZM59.7929 4.31941C60.0863 4.33288 60.3037 4.43403 60.4673 4.61343L60.8367 4.27646C60.5734 3.98778 60.2256 3.83875 59.8158 3.81994L59.7929 4.31941ZM60.4673 4.61343C60.6309 4.79282 60.7118 5.01851 60.6983 5.31198L61.1978 5.33491C61.2166 4.92511 61.1 4.56514 60.8367 4.27646L60.4673 4.61343ZM60.6983 5.31198L60.5222 9.14794L61.0217 9.17086L61.1978 5.33491L60.6983 5.31198ZM60.5222 9.14794C60.5105 9.40212 60.4149 9.60614 60.2304 9.77444L60.5674 10.1438C60.8509 9.88515 61.004 9.55601 61.0217 9.17086L60.5222 9.14794ZM60.2304 9.77444C60.051 9.93808 59.8253 10.0189 59.5318 10.0054L59.5089 10.5049C59.9187 10.5237 60.2787 10.4072 60.5673 10.1438L60.2304 9.77444ZM59.5318 10.0054L43.9962 9.29224L43.9733 9.79171L59.5089 10.5049L59.5318 10.0054ZM43.735 9.53051L43.3894 17.0586L43.8889 17.0815L44.2345 9.55344L43.735 9.53051ZM43.6277 17.3198L58.1084 17.9845L58.1314 17.4851L43.6506 16.8203L43.6277 17.3198ZM58.1084 17.9845C58.4019 17.998 58.6192 18.0992 58.7829 18.2786L59.1523 17.9416C58.8889 17.6529 58.5412 17.5039 58.1314 17.4851L58.1084 17.9845ZM58.7829 18.2786C58.9465 18.4579 59.0273 18.6836 59.0139 18.9771L59.5133 19C59.5321 18.5902 59.4156 18.2303 59.1523 17.9416L58.7829 18.2786ZM59.0139 18.9771L58.851 22.5254L59.3504 22.5483L59.5133 19L59.0139 18.9771ZM58.851 22.5254C58.8393 22.7796 58.7437 22.9836 58.5592 23.1519L58.8961 23.5213C59.1797 23.2626 59.3328 22.9334 59.3504 22.5483L58.851 22.5254ZM58.5592 23.1519C58.3798 23.3155 58.1541 23.3963 57.8606 23.3829L57.8377 23.8823C58.2475 23.9011 58.6074 23.7846 58.8961 23.5213L58.5592 23.1519ZM57.8606 23.3829L43.3799 22.7181L43.3569 23.2176L57.8377 23.8823L57.8606 23.3829ZM43.1187 22.9564L42.7621 30.7242L43.2615 30.7471L43.6181 22.9793L43.1187 22.9564ZM43.0003 30.9854L58.9196 31.7162L58.9425 31.2167L43.0233 30.4859L43.0003 30.9854ZM58.9196 31.7162C59.213 31.7297 59.4304 31.8308 59.594 32.0102L59.9634 31.6732C59.7001 31.3846 59.3523 31.2355 58.9425 31.2167L58.9196 31.7162ZM59.594 32.0102C59.7577 32.1896 59.8385 32.4153 59.825 32.7088L60.3245 32.7317C60.3433 32.3219 60.2268 31.9619 59.9634 31.6732L59.594 32.0102ZM59.825 32.7088L59.6511 36.4968L60.1506 36.5197L60.3245 32.7317L59.825 32.7088ZM59.6511 36.4968C59.6376 36.7902 59.5365 37.0076 59.3571 37.1712L59.6941 37.5406C59.9827 37.2773 60.1318 36.9295 60.1506 36.5197L59.6511 36.4968ZM59.3571 37.1712C59.1777 37.3349 58.952 37.4157 58.6585 37.4022L58.6356 37.9017C59.0454 37.9205 59.4054 37.8039 59.6941 37.5406L59.3571 37.1712ZM58.6585 37.4022L36.5538 36.3875L36.5309 36.8869L58.6356 37.9017L58.6585 37.4022ZM70.9695 37.2086L70.8489 37.4276L70.853 37.4297L70.9695 37.2086ZM66.3291 32.5749L66.1082 32.6919L66.1091 32.6935L66.3291 32.5749ZM64.7369 25.3903L64.4869 25.3849L64.4869 25.3903L64.7369 25.3903ZM65.1287 16.8553L64.8797 16.8322L64.8793 16.838L65.1287 16.8553ZM67.3681 9.94271L67.1605 9.80339L67.1598 9.80439L67.3681 9.94271ZM72.5116 5.71013L72.4129 5.48041L72.5116 5.71013ZM85.9705 5.60722L85.8858 5.84243L85.9705 5.60722ZM90.4178 8.16586L90.2528 8.35371L90.4178 8.16586ZM93.2256 11.8985L92.998 12.0021L93.2256 11.8985ZM94.1651 16.5545L94.415 16.566L94.4151 16.5566L94.1651 16.5545ZM93.7964 17.2584L93.6426 17.0613L93.635 17.0672L93.6279 17.0737L93.7964 17.2584ZM86.6999 16.9326L86.5286 17.1147L86.6999 16.9326ZM86.2164 15.9494L85.9715 15.9998L85.9732 16.007L86.2164 15.9494ZM83.9973 11.9554L83.8547 12.1607L83.9973 11.9554ZM75.1002 12.1236L74.9371 11.9342L75.1002 12.1236ZM72.9814 17.456L72.7323 17.4351L72.7323 17.4354L72.9814 17.456ZM72.6116 25.5115L72.3616 25.5088L72.3616 25.5096L72.6116 25.5115ZM74.2329 31.0157L74.4127 30.842L74.2329 31.0157ZM83.0772 31.9983L83.2004 32.2158L83.202 32.2149L83.0772 31.9983ZM85.6529 28.2245L85.4145 28.149L85.4129 28.1547L85.6529 28.2245ZM86.2244 27.2897L86.3602 27.4996L86.3695 27.4936L86.3782 27.4868L86.2244 27.2897ZM93.3209 27.6155L93.1362 27.7839L93.1427 27.791L93.1497 27.7976L93.3209 27.6155ZM93.6236 28.3501L93.8729 28.371L93.8733 28.3616L93.6236 28.3501ZM92.2615 32.9004L92.0444 32.7765L92.2615 32.9004ZM89.1235 36.3602L88.9764 36.158L89.1235 36.3602ZM84.4604 38.5006L84.3977 38.2586L84.4604 38.5006ZM78.5847 38.7974C75.6063 38.6607 73.1099 38.0539 71.0861 36.9874L70.853 37.4297C72.9577 38.5389 75.5304 39.1578 78.5617 39.2969L78.5847 38.7974ZM71.0901 36.9896C69.0998 35.8936 67.5882 34.3832 66.5492 32.4562L66.1091 32.6935C67.1955 34.7082 68.7775 36.2869 70.8489 37.4275L71.0901 36.9896ZM66.55 32.4578C65.5118 30.4985 64.9871 28.1457 64.9869 25.3903L64.4869 25.3903C64.4871 28.2088 65.0239 30.6457 66.1082 32.6919L66.55 32.4578ZM64.9869 25.3957C65.015 24.0859 65.0635 22.6807 65.1324 21.18L64.6329 21.1571C64.5639 22.6612 64.5152 24.0705 64.487 25.3849L64.9869 25.3957ZM65.1324 21.18C65.2013 19.6794 65.2832 18.2435 65.3781 16.8726L64.8793 16.838C64.7841 18.2132 64.702 19.6529 64.6329 21.1571L65.1324 21.18ZM65.3777 16.8783C65.6288 14.1669 66.3651 11.9046 67.5763 10.081L67.1598 9.80439C65.8934 11.7111 65.1368 14.0572 64.8798 16.8322L65.3777 16.8783ZM67.5757 10.082C68.8203 8.22755 70.4964 6.84748 72.6102 5.93985L72.4129 5.48041C70.2133 6.42492 68.4604 7.86657 67.1605 9.80339L67.5757 10.082ZM72.6102 5.93985C74.7246 5.03198 77.2341 4.63957 80.1466 4.77327L80.1695 4.2738C77.2002 4.13749 74.6121 4.53614 72.4129 5.48041L72.6102 5.93985ZM80.1466 4.77327C82.2673 4.87062 84.1796 5.22803 85.8858 5.84243L86.0552 5.37201C84.2949 4.73813 82.3323 4.37308 80.1695 4.2738L80.1466 4.77327ZM85.8858 5.84243C87.5931 6.45726 89.0474 7.29517 90.2528 8.35371L90.5828 7.97801C89.3248 6.8733 87.8142 6.00545 86.0552 5.37201L85.8858 5.84243ZM90.2528 8.35371C91.4596 9.41341 92.3734 10.6294 92.998 12.0021L93.4531 11.795C92.7974 10.354 91.8394 9.08154 90.5828 7.97801L90.2528 8.35371ZM92.998 12.0021C93.6217 13.3726 93.9286 14.8881 93.9151 16.5525L94.4151 16.5566C94.4292 14.8266 94.1098 13.2381 93.4531 11.795L92.998 12.0021ZM93.9153 16.5431C93.9056 16.7558 93.8192 16.9234 93.6426 17.0613L93.9502 17.4554C94.2387 17.2303 94.3982 16.9286 94.4148 16.566L93.9153 16.5431ZM93.6279 17.0737C93.4795 17.209 93.3013 17.2737 93.0754 17.2633L93.0525 17.7628C93.402 17.7788 93.7121 17.6737 93.9649 17.4431L93.6279 17.0737ZM93.0754 17.2633L87.6092 17.0124L87.5862 17.5118L93.0525 17.7628L93.0754 17.2633ZM87.6092 17.0124C87.2669 16.9967 87.0309 16.9006 86.8711 16.7504L86.5286 17.1147C86.7988 17.3687 87.1613 17.4923 87.5862 17.5118L87.6092 17.0124ZM86.8711 16.7504C86.707 16.5962 86.5618 16.3229 86.4597 15.8918L85.9732 16.007C86.0858 16.4827 86.2628 16.8648 86.5286 17.1147L86.8711 16.7504ZM86.4613 15.899C86.0615 13.9574 85.2994 12.5554 84.1399 11.7501L83.8547 12.1607C84.8682 12.8647 85.5856 14.1253 85.9716 15.9998L86.4613 15.899ZM84.1399 11.7501C83.0058 10.9625 81.5828 10.5372 79.8856 10.4593L79.8626 10.9588C81.4899 11.0335 82.8156 11.4391 83.8547 12.1607L84.1399 11.7501ZM79.8856 10.4593C77.8567 10.3661 76.1975 10.8486 74.9371 11.9342L75.2633 12.313C76.4042 11.3305 77.9277 10.8699 79.8626 10.9588L79.8856 10.4593ZM74.9371 11.9342C73.6642 13.0304 72.9465 14.8863 72.7323 17.4351L73.2306 17.477C73.44 14.9839 74.1349 13.2849 75.2633 12.313L74.9371 11.9342ZM72.7323 17.4354C72.5155 20.0585 72.392 22.7496 72.3616 25.5088L72.8616 25.5143C72.8919 22.7665 73.0149 20.0872 73.2306 17.4766L72.7323 17.4354ZM72.3616 25.5096C72.3414 28.0673 72.886 29.9812 74.0531 31.1894L74.4127 30.842C73.3781 29.7709 72.8418 28.0153 72.8616 25.5135L72.3616 25.5096ZM74.0531 31.1894C75.2088 32.3858 76.8168 33.0183 78.8457 33.1114L78.8686 32.612C76.9336 32.5231 75.4588 31.9249 74.4127 30.842L74.0531 31.1894ZM78.8457 33.1114C80.5429 33.1893 81.9989 32.8962 83.2004 32.2158L82.954 31.7808C81.8532 32.4042 80.4959 32.6867 78.8686 32.612L78.8457 33.1114ZM83.202 32.2149C84.4615 31.4894 85.3496 30.1649 85.893 28.2942L85.4129 28.1547C84.891 29.951 84.062 31.1425 82.9524 31.7817L83.202 32.2149ZM85.8913 28.2999C86.0362 27.842 86.204 27.6007 86.3602 27.4996L86.0886 27.0798C85.7826 27.2778 85.5695 27.6596 85.4146 28.149L85.8913 28.2999ZM86.3782 27.4868C86.5511 27.3518 86.7949 27.2778 87.1372 27.2935L87.1601 26.7941C86.7352 26.7746 86.3629 26.8645 86.0706 27.0926L86.3782 27.4868ZM87.1372 27.2935L92.6034 27.5445L92.6264 27.045L87.1601 26.7941L87.1372 27.2935ZM92.6034 27.5445C92.8294 27.5548 93.0009 27.6355 93.1362 27.7839L93.5056 27.447C93.275 27.1942 92.9758 27.061 92.6264 27.045L92.6034 27.5445ZM93.1497 27.7976C93.313 27.9511 93.3836 28.1259 93.3738 28.3386L93.8733 28.3616C93.89 27.9989 93.7588 27.684 93.4922 27.4333L93.1497 27.7976ZM93.3744 28.3292C93.2355 29.9878 92.791 31.4688 92.0444 32.7765L92.4786 33.0244C93.2647 31.6475 93.7283 30.0949 93.8727 28.371L93.3744 28.3292ZM92.0444 32.7765C91.2966 34.0862 90.2752 35.2133 88.9764 36.158L89.2706 36.5623C90.623 35.5786 91.6936 34.3992 92.4786 33.0244L92.0444 32.7765ZM88.9764 36.158C87.6791 37.1016 86.1542 37.8028 84.3977 38.2586L84.5232 38.7426C86.3329 38.2729 87.9167 37.5471 89.2706 36.5623L88.9764 36.158ZM84.3977 38.2586C82.6424 38.7141 80.7054 38.8948 78.5847 38.7974L78.5617 39.2969C80.7245 39.3962 82.7123 39.2125 84.5232 38.7426L84.3977 38.2586ZM98.8625 39.1617L98.6778 39.3302L98.8625 39.1617ZM100.373 6.26837L100.541 6.45306L100.373 6.26837ZM107.181 6.58093L106.997 6.74942L106.997 6.74942L107.181 6.58093ZM106.976 18.3919L106.726 18.3805L106.695 19.0421L107.155 18.5655L106.976 18.3919ZM117.368 7.62518L117.548 7.7988L117.56 7.78675L117.57 7.77325L117.368 7.62518ZM118.018 7.0784L118.147 7.29261L118.152 7.28957L118.018 7.0784ZM125.786 7.435L125.589 7.58882L125.595 7.59639L125.601 7.60348L125.786 7.435ZM125.824 8.68608L126.007 8.85674L126.012 8.85104L125.824 8.68608ZM112.837 22.6011L112.654 22.4305L112.51 22.5843L112.637 22.752L112.837 22.6011ZM125.34 39.1279L125.141 39.2787L125.147 39.2879L125.155 39.2964L125.34 39.1279ZM125.185 40.4181L125.353 40.6028L125.36 40.5964L125.367 40.5894L125.185 40.4181ZM116.63 39.4008L116.434 39.5553L116.439 39.5625L116.446 39.5693L116.63 39.4008ZM106.597 26.6392L106.793 26.4847L106.378 25.9563L106.347 26.6278L106.597 26.6392ZM105.671 39.4743L105.84 39.659L105.671 39.4743ZM99.7217 39.2873C99.4282 39.2738 99.2109 39.1726 99.0472 38.9932L98.6778 39.3302C98.9412 39.6189 99.289 39.7679 99.6987 39.7867L99.7217 39.2873ZM99.0472 38.9932C98.8836 38.8139 98.8028 38.5882 98.8162 38.2947L98.3168 38.2718C98.298 38.6816 98.4145 39.0415 98.6778 39.3302L99.0472 38.9932ZM98.8162 38.2947L100.247 7.12751L99.7475 7.10458L98.3168 38.2718L98.8162 38.2947ZM100.247 7.12751C100.26 6.83405 100.362 6.61671 100.541 6.45306L100.204 6.08367C99.9154 6.34701 99.7664 6.69479 99.7475 7.10458L100.247 7.12751ZM100.541 6.45306C100.72 6.28942 100.946 6.2086 101.24 6.22208L101.263 5.7226C100.853 5.70379 100.493 5.82033 100.204 6.08367L100.541 6.45306ZM101.24 6.22208L106.322 6.4554L106.345 5.95593L101.263 5.7226L101.24 6.22208ZM106.322 6.4554C106.616 6.46887 106.833 6.57003 106.997 6.74942L107.366 6.41245C107.103 6.12377 106.755 5.97474 106.345 5.95593L106.322 6.4554ZM106.997 6.74942C107.16 6.92881 107.241 7.15451 107.228 7.44797L107.727 7.4709C107.746 7.0611 107.629 6.70113 107.366 6.41245L106.997 6.74942ZM107.228 7.44797L106.726 18.3805L107.225 18.4034L107.727 7.4709L107.228 7.44797ZM107.155 18.5655L117.548 7.7988L117.188 7.45155L106.796 18.2183L107.155 18.5655ZM117.57 7.77325C117.68 7.62377 117.866 7.46183 118.147 7.29256L117.889 6.86425C117.577 7.05216 117.33 7.25474 117.167 7.47711L117.57 7.77325ZM118.152 7.28957C118.427 7.11533 118.793 7.02787 119.269 7.04972L119.292 6.55025C118.745 6.52514 118.269 6.6233 117.884 6.86724L118.152 7.28957ZM119.269 7.04972L125.07 7.31607L125.093 6.81659L119.292 6.55025L119.269 7.04972ZM125.07 7.31607C125.283 7.32583 125.451 7.41217 125.589 7.58882L125.983 7.28117C125.758 6.99268 125.456 6.83324 125.093 6.81659L125.07 7.31607ZM125.601 7.60348C125.742 7.7584 125.801 7.92286 125.793 8.10803L126.292 8.13096C126.307 7.80466 126.195 7.5128 125.97 7.26651L125.601 7.60348ZM125.793 8.10803C125.785 8.28072 125.731 8.41387 125.637 8.52112L126.012 8.85104C126.189 8.65037 126.28 8.4058 126.292 8.13096L125.793 8.10803ZM125.642 8.5155L112.654 22.4305L113.019 22.7717L126.007 8.85666L125.642 8.5155ZM112.637 22.752L125.141 39.2787L125.539 38.9771L113.036 22.4503L112.637 22.752ZM125.155 39.2964C125.217 39.3639 125.266 39.4834 125.256 39.7006L125.755 39.7236C125.769 39.4293 125.707 39.1594 125.525 38.9594L125.155 39.2964ZM125.256 39.7006C125.247 39.8878 125.17 40.0684 125.002 40.2469L125.367 40.5894C125.603 40.3379 125.74 40.0479 125.755 39.7236L125.256 39.7006ZM125.016 40.2334C124.868 40.3688 124.69 40.4334 124.464 40.4231L124.441 40.9225C124.79 40.9386 125.1 40.8334 125.353 40.6028L125.016 40.2334ZM124.464 40.4231L118.47 40.1479L118.447 40.6474L124.441 40.9225L124.464 40.4231ZM118.47 40.1479C117.926 40.123 117.571 39.9849 117.356 39.7756L117.007 40.1337C117.344 40.4622 117.84 40.6195 118.447 40.6474L118.47 40.1479ZM117.356 39.7756C117.079 39.506 116.901 39.3263 116.815 39.2323L116.446 39.5693C116.543 39.6758 116.732 39.8654 117.007 40.1337L117.356 39.7756ZM116.827 39.2463L106.793 26.4847L106.4 26.7938L116.434 39.5553L116.827 39.2463ZM106.347 26.6278L105.797 38.6151L106.296 38.6381L106.847 26.6507L106.347 26.6278ZM105.797 38.6151C105.783 38.9086 105.682 39.126 105.503 39.2896L105.84 39.659C106.129 39.3957 106.278 39.0479 106.296 38.6381L105.797 38.6151ZM105.503 39.2896C105.323 39.4532 105.098 39.5341 104.804 39.5206L104.781 40.0201C105.191 40.0389 105.551 39.9223 105.84 39.659L105.503 39.2896ZM104.804 39.5206L99.7217 39.2873L99.6987 39.7867L104.781 40.0201L104.804 39.5206ZM133.117 40.2057L133.006 40.4299L133.008 40.4305L133.117 40.2057ZM128.627 36.4918L128.835 36.3534L128.627 36.4918ZM127.16 31.8116L126.91 31.8002L126.91 31.81L127.16 31.8116ZM127.478 31.1536L127.647 31.3383L127.654 31.3318L127.66 31.3248L127.478 31.1536ZM134.289 31.4182L134.118 31.6003L134.126 31.6079L134.135 31.6147L134.289 31.4182ZM134.884 32.0701L135.119 31.9857L135.109 31.9557L135.091 31.9295L134.884 32.0701ZM135.866 33.7009L135.676 33.8634L135.682 33.8694L135.866 33.7009ZM137.869 35.0902L137.764 35.3173L137.771 35.3204L137.869 35.0902ZM145.757 34.9237L145.632 34.7069L145.629 34.7087L145.757 34.9237ZM146.694 30.2098L146.514 30.3838L146.519 30.3888L146.694 30.2098ZM144.12 28.6982L144.027 28.93L144.029 28.9307L144.12 28.6982ZM139.435 27.1377L139.505 26.8975L139.498 26.8958L139.435 27.1377ZM133.388 24.89L133.266 25.1083L133.271 25.1109L133.388 24.89ZM129.745 21.5514L129.528 21.6755L129.532 21.6816L129.745 21.5514ZM130.536 11.6413L130.733 11.7962L130.734 11.7942L130.536 11.6413ZM135.156 8.34566L135.245 8.57939L135.248 8.57811L135.156 8.34566ZM147.691 8.48863L147.597 8.72032L147.598 8.72088L147.691 8.48863ZM151.711 10.9316L151.54 11.1141L151.543 11.1165L151.711 10.9316ZM154.116 14.0211L153.891 14.1306L154.116 14.0211ZM154.886 17.1317L155.136 17.1431L155.136 17.1351L154.886 17.1317ZM154.565 17.8377L154.734 18.0224L154.741 18.0159L154.748 18.0089L154.565 17.8377ZM147.608 17.6144L147.73 17.3962L147.608 17.6144ZM147.016 16.9145L146.77 16.9595L146.775 16.9888L146.787 17.016L147.016 16.9145ZM145.389 14.6776L145.237 14.8768L145.245 14.8824L145.389 14.6776ZM138.009 14.2427L137.887 14.0244L137.883 14.0264L138.009 14.2427ZM137.126 18.815L136.926 18.9649L136.931 18.9714L136.936 18.9775L137.126 18.815ZM139.412 20.3134L139.312 20.5427L139.32 20.5459L139.412 20.3134ZM143.764 21.8106L143.689 22.0495L143.703 22.0529L143.764 21.8106ZM150.526 24.1872L150.64 23.9645L150.526 24.1872ZM154.267 27.4822L154.051 27.6087L154.053 27.6112L154.267 27.4822ZM153.22 37.717L153.032 37.5529L153.03 37.5554L153.22 37.717ZM148.119 41.0385L148.198 41.2757L148.2 41.2751L148.119 41.0385ZM140.787 41.6529C137.741 41.5131 135.224 40.9521 133.226 39.9808L133.008 40.4305C135.084 41.4401 137.673 42.0105 140.764 42.1524L140.787 41.6529ZM133.228 39.9815C131.253 39.0071 129.794 37.7955 128.835 36.3534L128.418 36.6303C129.437 38.162 130.972 39.4263 133.006 40.4299L133.228 39.9815ZM128.835 36.3534C127.871 34.9039 127.399 33.3921 127.41 31.8133L126.91 31.81C126.898 33.4977 127.405 35.1059 128.418 36.6303L128.835 36.3534ZM127.409 31.8231C127.418 31.6379 127.492 31.4796 127.647 31.3383L127.31 30.9689C127.063 31.1935 126.925 31.4739 126.91 31.8002L127.409 31.8231ZM127.66 31.3248C127.814 31.1615 127.989 31.0909 128.201 31.1007L128.224 30.6012C127.862 30.5845 127.547 30.7157 127.296 30.9823L127.66 31.3248ZM128.201 31.1007L133.332 31.3362L133.355 30.8367L128.224 30.6012L128.201 31.1007ZM133.332 31.3362C133.712 31.3536 133.961 31.4531 134.118 31.6003L134.461 31.236C134.187 30.9791 133.806 30.8574 133.355 30.8367L133.332 31.3362ZM134.135 31.6147C134.328 31.7667 134.509 31.9641 134.677 32.2108L135.091 31.9295C134.898 31.6471 134.683 31.4099 134.444 31.2216L134.135 31.6147ZM134.649 32.1546C134.86 32.7418 135.204 33.3112 135.676 33.8633L136.056 33.5385C135.616 33.0237 135.306 32.5059 135.119 31.9857L134.649 32.1546ZM135.682 33.8694C136.197 34.4349 136.895 34.9158 137.764 35.3171L137.973 34.8632C137.148 34.4821 136.511 34.0367 136.051 33.5324L135.682 33.8694ZM137.771 35.3204C138.655 35.6948 139.75 35.9073 141.048 35.9669L141.071 35.4674C139.811 35.4096 138.779 35.2042 137.966 34.86L137.771 35.3204ZM141.048 35.9669C143.144 36.0631 144.768 35.7999 145.884 35.1388L145.629 34.7087C144.637 35.2962 143.13 35.562 141.071 35.4674L141.048 35.9669ZM145.881 35.1406C147.033 34.4796 147.657 33.5194 147.714 32.2747L147.215 32.2518C147.166 33.3087 146.651 34.1222 145.632 34.7069L145.881 35.1406ZM147.714 32.2747C147.755 31.3787 147.476 30.6227 146.868 30.0307L146.519 30.3888C147.016 30.8725 147.25 31.4856 147.215 32.2518L147.714 32.2747ZM146.873 30.0358C146.317 29.4617 145.42 28.9419 144.212 28.4656L144.029 28.9307C145.212 29.3971 146.031 29.885 146.514 30.3838L146.873 30.0358ZM144.214 28.4663C143.039 27.992 141.469 27.4692 139.505 26.8976L139.365 27.3777C141.321 27.9471 142.874 28.4646 144.027 28.93L144.214 28.4663ZM139.498 26.8958C137.138 26.2777 135.141 25.5347 133.505 24.669L133.271 25.1109C134.95 25.9991 136.984 26.7545 139.372 27.3795L139.498 26.8958ZM133.51 24.6717C131.915 23.781 130.736 22.6959 129.958 21.4212L129.532 21.6816C130.363 23.0435 131.612 24.1841 133.266 25.1082L133.51 24.6717ZM129.962 21.4273C129.22 20.1285 128.884 18.5445 128.97 16.6627L128.471 16.6398C128.381 18.594 128.728 20.2768 129.528 21.6755L129.962 21.4273ZM128.97 16.6627C129.056 14.7937 129.644 13.1746 130.733 11.7962L130.34 11.4864C129.183 12.952 128.561 14.6729 128.471 16.6398L128.97 16.6627ZM130.734 11.7942C131.826 10.3815 133.326 9.3084 135.245 8.57937L135.067 8.11196C133.074 8.86909 131.494 9.99306 130.338 11.4884L130.734 11.7942ZM135.248 8.57811C137.166 7.81902 139.434 7.49495 142.061 7.61553L142.084 7.11606C139.404 6.99305 137.062 7.32222 135.064 8.11322L135.248 8.57811ZM142.061 7.61553C144.181 7.71285 146.025 8.08292 147.597 8.72031L147.785 8.25694C146.149 7.59386 144.247 7.21538 142.084 7.11606L142.061 7.61553ZM147.598 8.72088C149.212 9.36362 150.523 10.1628 151.54 11.1141L151.882 10.749C150.81 9.74648 149.442 8.91704 147.783 8.25638L147.598 8.72088ZM151.543 11.1165C152.6 12.0779 153.381 13.0831 153.891 14.1306L154.341 13.9116C153.797 12.7965 152.974 11.7419 151.879 10.7466L151.543 11.1165ZM153.891 14.1306C154.405 15.1841 154.649 16.1824 154.636 17.1283L155.136 17.1351C155.15 16.0961 154.881 15.0207 154.341 13.9116L153.891 14.1306ZM154.636 17.1202C154.628 17.3074 154.551 17.488 154.383 17.6665L154.748 18.0089C154.984 17.7575 155.121 17.4675 155.136 17.1431L154.636 17.1202ZM154.397 17.653C154.248 17.7884 154.07 17.853 153.844 17.8427L153.821 18.3421C154.171 18.3582 154.481 18.253 154.734 18.0224L154.397 17.653ZM153.844 17.8427L148.474 17.5961L148.451 18.0956L153.821 18.3421L153.844 17.8427ZM148.474 17.5961C148.189 17.583 147.942 17.5147 147.73 17.3962L147.486 17.8327C147.774 17.9934 148.097 18.0794 148.451 18.0956L148.474 17.5961ZM147.73 17.3962C147.538 17.289 147.373 17.1032 147.244 16.8131L146.787 17.016C146.949 17.3799 147.179 17.6607 147.486 17.8327L147.73 17.3962ZM147.262 16.8695C147.093 15.9457 146.499 15.1489 145.532 14.4727L145.245 14.8824C146.141 15.509 146.632 16.2035 146.77 16.9595L147.262 16.8695ZM145.54 14.4785C144.59 13.7572 143.336 13.3721 141.8 13.3015L141.777 13.801C143.245 13.8684 144.392 14.2342 145.237 14.8766L145.54 14.4785ZM141.8 13.3015C140.206 13.2284 138.895 13.461 137.887 14.0244L138.131 14.4609C139.03 13.9586 140.238 13.7304 141.777 13.801L141.8 13.3015ZM137.883 14.0264C136.879 14.6087 136.353 15.5503 136.295 16.8068L136.795 16.8297C136.846 15.7207 137.296 14.9452 138.134 14.459L137.883 14.0264ZM136.295 16.8068C136.258 17.6264 136.466 18.3503 136.926 18.9649L137.326 18.6651C136.942 18.1518 136.762 17.5446 136.795 16.8297L136.295 16.8068ZM136.936 18.9775C137.428 19.5527 138.23 20.0708 139.312 20.5426L139.512 20.0842C138.459 19.6252 137.737 19.1443 137.316 18.6526L136.936 18.9775ZM139.32 20.5459C140.429 20.984 141.886 21.4851 143.689 22.0492L143.838 21.572C142.041 21.0097 140.597 20.5127 139.504 20.0809L139.32 20.5459ZM143.703 22.0529C146.479 22.7549 148.713 23.5415 150.412 24.4098L150.64 23.9645C148.896 23.0731 146.622 22.2753 143.825 21.5682L143.703 22.0529ZM150.412 24.4098C152.102 25.2737 153.308 26.3426 154.051 27.6087L154.482 27.3557C153.68 25.9881 152.392 24.8604 150.64 23.9645L150.412 24.4098ZM154.053 27.6112C154.795 28.8433 155.132 30.3925 155.046 32.2749L155.545 32.2979C155.635 30.3443 155.287 28.6907 154.481 27.3532L154.053 27.6112ZM155.046 32.2749C154.95 34.3661 154.276 36.1209 153.032 37.5529L153.409 37.8809C154.735 36.3557 155.445 34.4902 155.545 32.2979L155.046 32.2749ZM153.03 37.5554C151.81 38.9955 150.15 40.0798 148.038 40.8019L148.2 41.2751C150.383 40.5287 152.124 39.3986 153.411 37.8785L153.03 37.5554ZM148.04 40.8013C145.961 41.4933 143.545 41.7795 140.787 41.6529L140.764 42.1524C143.568 42.2811 146.048 41.9912 148.198 41.2757L148.04 40.8013Z" fill="#575129"/>
</g>
<defs>
<filter id="filter0_d_1618_95" x="0.326172" y="0.977417" width="157.083" height="46.5702" filterUnits="userSpaceOnUse" color-interpolation-filters="sRGB">
<feFlood flood-opacity="0" result="BackgroundImageFix"/>
<feColorMatrix in="SourceAlpha" type="matrix" values="0 0 0 0 0 0 0 0 0 0 0 0 0 0 0 0 0 0 127 0" result="hardAlpha"/>
<feOffset dy="4"/>
<feGaussianBlur stdDeviation="0.5"/>
<feComposite in2="hardAlpha" operator="out"/>
<feColorMatrix type="matrix" values="0 0 0 0 0 0 0 0 0 0 0 0 0 0 0 0 0 0 0.25 0"/>
<feBlend mode="normal" in2="BackgroundImageFix" result="effect1_dropShadow_1618_95"/>
<feBlend mode="normal" in="SourceGraphic" in2="effect1_dropShadow_1618_95" result="shape"/>
</filter>
<linearGradient id="paint0_linear_1618_95" x1="45.9145" y1="22.6227" x2="131.502" y2="39.6065" gradientUnits="userSpaceOnUse">
<stop offset="0.182292" stop-color="#FFDE00"/>
<stop offset="1" stop-color="#E2C70C"/>
</linearGradient>
</defs>
</svg>
