<svg width="421" height="102" viewBox="0 0 421 102" fill="none" xmlns="http://www.w3.org/2000/svg">
<path fill-rule="evenodd" clip-rule="evenodd" d="M8.84356 16.5573C3.60206 16.9275 -0.346544 21.4713 0.0240987 26.7063L4.77332 93.784C4.89687 95.529 6.41338 96.8435 8.16055 96.7201L3.3554 28.8525C3.20096 26.6713 5.90848 24.703 9.40281 24.4562L243.503 7.92297C246.998 7.67618 249.956 9.24435 250.11 11.4256L252 22.5C253.747 22.3766 256.124 23.745 256 22L253.106 8.83248C252.735 3.59755 248.186 -0.346109 242.944 0.0240685L8.84356 16.5573Z" fill="url(#paint0_linear_2045_111)"/>
<path fill-rule="evenodd" clip-rule="evenodd" d="M177.405 12.003C172.155 11.7831 167.721 15.8555 167.501 21.0989L164.677 88.348C164.604 90.0958 165.963 91.5721 167.713 91.6454L170.57 23.6051C170.661 21.4203 173.573 19.7681 177.073 19.9147L411.552 29.7356C415.052 29.8822 417.815 31.7721 417.723 33.9568L414.866 101.997C416.616 102.07 418.094 100.713 418.168 98.9652L420.991 31.716C421.212 26.4727 417.134 22.0438 411.884 21.8239L177.405 12.003Z" fill="url(#paint1_linear_2045_111)"/>
<defs>
<linearGradient id="paint0_linear_2045_111" x1="215.047" y1="-10.0447" x2="219.425" y2="95.8581" gradientUnits="userSpaceOnUse">
<stop offset="0.593646" stop-color="white"/>
<stop offset="0.953125" stop-opacity="0"/>
</linearGradient>
<linearGradient id="paint1_linear_2045_111" x1="294.479" y1="20.8694" x2="291.297" y2="96.8217" gradientUnits="userSpaceOnUse">
<stop offset="0.724544" stop-color="#F7FBF4"/>
<stop offset="1" stop-color="#F7FBF4" stop-opacity="0"/>
</linearGradient>
</defs>
</svg>
