<svg width="313" height="78" viewBox="0 0 313 78" fill="none" xmlns="http://www.w3.org/2000/svg">
<g id="logo-frame" clip-path="url(#clip0_2390_97)">
<g id="logo-frame-text">
<g id="frame-poke">
<g id="POKE" filter="url(#filter0_d_2390_97)">
<path d="M22.755 51.937C22.4915 51.9541 22.2706 51.8843 22.092 51.7275C21.9135 51.5707 21.8157 51.3606 21.7987 51.0971L20.2856 27.7461C20.2686 27.4826 20.3384 27.2617 20.4952 27.0832C20.652 26.9046 20.8621 26.8069 21.1255 26.7898L30.933 26.1543C32.8729 26.0286 34.5688 26.2193 36.0206 26.7265C37.4964 27.2322 38.669 28.0701 39.5385 29.2403C40.4304 30.3851 40.9346 31.8555 41.0509 33.6518C41.1689 35.4719 40.8595 37.0072 40.1228 38.2574C39.4085 39.4822 38.3515 40.4285 36.9517 41.0964C35.5759 41.7628 33.9181 42.1588 31.9781 42.2845L27.1642 42.5964L27.6903 50.7154C27.7074 50.9788 27.6375 51.1998 27.4807 51.3783C27.324 51.5568 27.1138 51.6546 26.8504 51.6717L22.755 51.937ZM26.7678 38.1487L31.5099 37.8415C32.7313 37.7623 33.6579 37.4016 34.2897 36.7594C34.9455 36.1157 35.2346 35.1951 35.157 33.9976C35.0887 32.9438 34.7215 32.1018 34.0553 31.4715C33.4131 30.8397 32.4095 30.5681 31.0443 30.6565L26.3023 30.9638L26.7678 38.1487ZM55.8287 50.1548C53.6492 50.296 51.7459 50.0586 50.1187 49.4425C48.4914 48.8264 47.1882 47.8286 46.2089 46.449C45.2281 45.0455 44.6304 43.2444 44.4158 41.0457C44.3251 40.0174 44.2472 39.0003 44.182 37.9944C44.1153 36.9646 44.0597 35.922 44.0154 34.8666C43.9476 32.7065 44.3094 30.8672 45.1009 29.3489C45.9148 27.805 47.088 26.6107 48.6206 25.7658C50.1771 24.9194 52.0212 24.4271 54.1527 24.289C56.2603 24.1525 58.1284 24.4042 59.7572 25.0442C61.41 25.6827 62.7395 26.7149 63.7458 28.1408C64.7506 29.5427 65.3467 31.3199 65.5343 33.4723C65.6505 34.523 65.7419 35.5632 65.8087 36.5931C65.8738 37.599 65.9158 38.6184 65.9347 39.6513C66.0056 41.8594 65.6453 43.7226 64.8538 45.2409C64.0608 46.7353 62.8972 47.893 61.3631 48.7139C59.829 49.5348 57.9841 50.0151 55.8287 50.1548ZM55.5284 45.5205C56.9175 45.4305 58.0279 44.9377 58.8598 44.042C59.714 43.1208 60.1045 41.7247 60.0314 39.8535C60.011 38.7966 59.9713 37.8131 59.9124 36.903C59.8518 35.9689 59.7643 34.9886 59.6496 33.9618C59.545 32.718 59.2515 31.7149 58.7692 30.9525C58.2869 30.19 57.6749 29.6525 56.9331 29.3398C56.2137 29.0016 55.387 28.8628 54.453 28.9233C53.5189 28.9838 52.7051 29.229 52.0114 29.6587C51.3162 30.0645 50.7786 30.6765 50.3988 31.4948C50.0428 32.3115 49.8812 33.3442 49.914 34.5926C49.9568 35.624 50.0085 36.6068 50.069 37.5408C50.128 38.4509 50.2036 39.4321 50.2958 40.4843C50.4887 42.3477 51.0561 43.6818 51.9981 44.4866C52.9386 45.2674 54.1154 45.612 55.5284 45.5205ZM71.976 48.7477C71.7125 48.7648 71.4916 48.695 71.313 48.5382C71.1345 48.3814 71.0367 48.1713 71.0197 47.9078L69.5066 24.5568C69.4896 24.2933 69.5594 24.0724 69.7162 23.8939C69.873 23.7153 70.0831 23.6175 70.3465 23.6005L74.1546 23.3537C74.418 23.3367 74.639 23.4065 74.8175 23.5633C74.996 23.7201 75.0938 23.9302 75.1109 24.1937L75.6416 32.3845L82.4974 23.4986C82.5839 23.3487 82.7302 23.1949 82.9365 23.0372C83.1651 22.8541 83.471 22.7501 83.8542 22.7252L88.2011 22.4436C88.4167 22.4296 88.6017 22.5018 88.7563 22.6601C88.9093 22.7945 88.992 22.9575 89.0044 23.1491C89.0153 23.3168 88.9767 23.4636 88.8886 23.5895L80.359 35.037L91.047 46.3215C91.149 46.4111 91.2062 46.5517 91.2186 46.7433C91.2311 46.9349 91.1708 47.1192 91.038 47.2962C90.9036 47.4492 90.7287 47.5327 90.5131 47.5466L86.0225 47.8376C85.5914 47.8655 85.2619 47.7907 85.0339 47.613C84.806 47.4354 84.6537 47.313 84.5772 47.2458L76.042 38.5635L76.6239 47.5447C76.641 47.8081 76.5711 48.0291 76.4143 48.2076C76.2576 48.3861 76.0474 48.4839 75.784 48.501L71.976 48.7477ZM95.2358 47.2406C94.9723 47.2577 94.7514 47.1878 94.5729 47.031C94.3943 46.8743 94.2966 46.6641 94.2795 46.4007L92.7664 23.0497C92.7494 22.7862 92.8192 22.5652 92.976 22.3867C93.1328 22.2082 93.3429 22.1104 93.6064 22.0933L109.88 21.0389C110.144 21.0218 110.365 21.0917 110.543 21.2484C110.722 21.4052 110.819 21.6153 110.837 21.8788L111.023 24.7528C111.038 24.9923 110.968 25.2013 110.811 25.3798C110.654 25.5583 110.444 25.6561 110.181 25.6732L98.5409 26.4273L98.9064 32.0675L109.756 31.3645C110.019 31.3475 110.24 31.4173 110.419 31.5741C110.597 31.7309 110.695 31.941 110.712 32.2045L110.884 34.8629C110.9 35.1024 110.829 35.3114 110.672 35.4899C110.516 35.6684 110.305 35.7662 110.042 35.7833L99.1927 36.4863L99.5698 42.306L111.497 41.5332C111.76 41.5162 111.981 41.586 112.16 41.7428C112.338 41.8996 112.436 42.1097 112.453 42.3732L112.637 45.2112C112.654 45.4746 112.584 45.6956 112.427 45.8741C112.271 46.0527 112.061 46.1504 111.797 46.1675L95.2358 47.2406Z" fill="url(#paint0_linear_2390_97)"/>
<path d="M22.092 51.7275L21.4321 52.4788L21.4321 52.4788L22.092 51.7275ZM20.4952 27.0832L21.2465 27.7431L21.2465 27.7431L20.4952 27.0832ZM36.0206 26.7265L35.6908 27.6706L35.6965 27.6725L36.0206 26.7265ZM39.5385 29.2403L38.7358 29.8367L38.7427 29.8459L38.7497 29.8549L39.5385 29.2403ZM40.1228 38.2574L39.2612 37.7497L39.259 37.7536L40.1228 38.2574ZM36.9517 41.0964L36.5211 40.1939L36.5158 40.1964L36.9517 41.0964ZM27.1642 42.5964L27.0996 41.5985L26.1017 41.6631L26.1663 42.6611L27.1642 42.5964ZM27.4807 51.3783L26.7294 50.7184L27.4807 51.3783ZM26.7678 38.1487L25.7699 38.2134L25.8346 39.2113L26.8325 39.1466L26.7678 38.1487ZM34.2897 36.7594L33.5892 36.0458L33.583 36.0519L33.5769 36.0581L34.2897 36.7594ZM34.0553 31.4715L33.354 32.1844L33.361 32.1912L33.3681 32.1979L34.0553 31.4715ZM26.3023 30.9638L26.2376 29.9659L25.2397 30.0305L25.3044 31.0284L26.3023 30.9638ZM22.6903 50.9391C22.6653 50.9408 22.6701 50.9367 22.6931 50.944C22.704 50.9474 22.7158 50.9524 22.7273 50.959C22.7388 50.9655 22.7471 50.9718 22.7519 50.9761L21.4321 52.4788C21.8329 52.8308 22.3238 52.9671 22.8196 52.935L22.6903 50.9391ZM22.7519 50.9761C22.7568 50.9804 22.7642 50.9878 22.7721 50.9983C22.7801 51.0089 22.7866 51.02 22.7914 51.0303C22.8016 51.0522 22.7982 51.0575 22.7966 51.0325L20.8008 51.1618C20.8329 51.6577 21.0313 52.1268 21.4321 52.4788L22.7519 50.9761ZM22.7966 51.0325L21.2835 27.6814L19.2877 27.8108L20.8008 51.1618L22.7966 51.0325ZM21.2835 27.6814C21.2819 27.6564 21.286 27.6612 21.2787 27.6842C21.2753 27.6951 21.2702 27.7069 21.2637 27.7185C21.2572 27.7299 21.2508 27.7382 21.2465 27.7431L19.7439 26.4232C19.3918 26.8241 19.2556 27.3149 19.2877 27.8108L21.2835 27.6814ZM21.2465 27.7431C21.2422 27.748 21.2349 27.7553 21.2244 27.7632C21.2138 27.7712 21.2027 27.7777 21.1923 27.7825C21.1705 27.7927 21.1652 27.7893 21.1902 27.7877L21.0609 25.7919C20.565 25.824 20.0959 26.0224 19.7439 26.4233L21.2465 27.7431ZM21.1902 27.7877L30.9976 27.1522L30.8683 25.1564L21.0609 25.7919L21.1902 27.7877ZM30.9976 27.1522C32.8378 27.033 34.3942 27.2176 35.6908 27.6706L36.3504 25.7825C34.7434 25.2211 32.908 25.0242 30.8683 25.1564L30.9976 27.1522ZM35.6965 27.6725C36.9952 28.1175 37.9955 28.8403 38.7358 29.8367L40.3412 28.6439C39.3426 27.2999 37.9976 26.3468 36.3448 25.7805L35.6965 27.6725ZM38.7497 29.8549C39.4915 30.8071 39.9465 32.0719 40.053 33.7164L42.0488 33.5871C41.9226 31.6392 41.3693 29.963 40.3274 28.6257L38.7497 29.8549ZM40.053 33.7164C40.1613 35.388 39.8727 36.712 39.2612 37.7498L40.9844 38.7651C41.8463 37.3024 42.1764 35.5559 42.0488 33.5871L40.053 33.7164ZM39.259 37.7536C38.6553 38.7887 37.7575 39.6039 36.5211 40.1939L37.3824 41.9989C38.9455 41.2531 40.1617 40.1756 40.9866 38.7612L39.259 37.7536ZM36.5158 40.1964C35.2832 40.7934 33.7581 41.167 31.9135 41.2866L32.0428 43.2824C34.078 43.1505 35.8687 42.7321 37.3876 41.9964L36.5158 40.1964ZM31.9135 41.2866L27.0996 41.5985L27.2289 43.5943L32.0428 43.2824L31.9135 41.2866ZM26.1663 42.6611L26.6924 50.78L28.6882 50.6507L28.1621 42.5317L26.1663 42.6611ZM26.6924 50.78C26.694 50.8051 26.69 50.8003 26.6972 50.7773C26.7007 50.7664 26.7057 50.7545 26.7123 50.743C26.7188 50.7316 26.7251 50.7233 26.7294 50.7184L28.2321 52.0382C28.5841 51.6374 28.7204 51.1466 28.6882 50.6507L26.6924 50.78ZM26.7294 50.7184C26.7337 50.7135 26.7411 50.7062 26.7516 50.6982C26.7622 50.6903 26.7732 50.6837 26.7836 50.6789C26.8055 50.6687 26.8108 50.6722 26.7857 50.6738L26.9151 52.6696C27.4109 52.6375 27.8801 52.439 28.2321 52.0382L26.7294 50.7184ZM26.7857 50.6738L22.6903 50.9391L22.8196 52.935L26.9151 52.6696L26.7857 50.6738ZM26.8325 39.1466L31.5745 38.8394L31.4452 36.8435L26.7032 37.1508L26.8325 39.1466ZM31.5745 38.8394C32.9524 38.7501 34.1449 38.3325 35.0026 37.4608L33.5769 36.0581C33.1709 36.4708 32.5102 36.7745 31.4452 36.8435L31.5745 38.8394ZM34.9903 37.4731C35.9129 36.5673 36.2451 35.3261 36.1549 33.9329L34.1591 34.0623C34.224 35.0641 33.978 35.6641 33.5892 36.0458L34.9903 37.4731ZM36.1549 33.9329C36.0729 32.6682 35.6198 31.5751 34.7426 30.7451L33.3681 32.1979C33.8231 32.6285 34.1045 33.2194 34.1591 34.0623L36.1549 33.9329ZM34.7566 30.7587C33.8256 29.8427 32.4815 29.5613 30.9797 29.6586L31.109 31.6544C32.3374 31.5748 33.0007 31.8368 33.354 32.1844L34.7566 30.7587ZM30.9797 29.6586L26.2376 29.9659L26.3669 31.9617L31.109 31.6544L30.9797 29.6586ZM25.3044 31.0284L25.7699 38.2134L27.7657 38.0841L27.3002 30.8991L25.3044 31.0284ZM50.1187 49.4425L50.4727 48.5073L50.1187 49.4425ZM46.2089 46.449L45.3892 47.0219L45.3935 47.0279L46.2089 46.449ZM44.4158 41.0457L43.4196 41.1335L43.4205 41.1428L44.4158 41.0457ZM44.0154 34.8666L43.0159 34.898L43.0163 34.9086L44.0154 34.8666ZM45.1009 29.3489L44.2163 28.8825L44.2142 28.8866L45.1009 29.3489ZM48.6206 25.7658L48.1429 24.8873L48.1378 24.8901L48.6206 25.7658ZM59.7572 25.0442L59.3915 25.9749L59.3969 25.977L59.7572 25.0442ZM63.7458 28.1408L62.9288 28.7174L62.933 28.7233L63.7458 28.1408ZM65.5343 33.4723L64.5381 33.5591L64.5391 33.5707L64.5403 33.5822L65.5343 33.4723ZM65.9347 39.6513L64.9347 39.6696L64.9352 39.6834L65.9347 39.6513ZM64.8538 45.2409L65.7372 45.7097L65.7406 45.7032L64.8538 45.2409ZM61.3631 48.7139L60.8913 47.8322L61.3631 48.7139ZM58.8598 44.042L59.5925 44.7225L59.593 44.722L58.8598 44.042ZM60.0314 39.8535L59.0316 39.8728L59.0318 39.8826L59.0321 39.8925L60.0314 39.8535ZM59.6496 33.9618L58.6531 34.0457L58.6543 34.0592L58.6558 34.0728L59.6496 33.9618ZM56.9331 29.3398L56.5076 30.2448L56.526 30.2534L56.5446 30.2613L56.9331 29.3398ZM52.0114 29.6587L52.5155 30.5223L52.5269 30.5157L52.5381 30.5088L52.0114 29.6587ZM50.3988 31.4948L49.4917 31.0737L49.4868 31.0845L49.482 31.0953L50.3988 31.4948ZM49.914 34.5926L48.9144 34.6189L48.9146 34.6265L48.9149 34.6341L49.914 34.5926ZM50.2958 40.4843L49.2996 40.5716L49.3003 40.5794L49.3011 40.5873L50.2958 40.4843ZM51.9981 44.4866L51.3485 45.247L51.3594 45.256L51.9981 44.4866ZM55.764 49.1569C53.6918 49.2911 51.937 49.0616 50.4727 48.5073L49.7646 50.3777C51.5548 51.0555 53.6067 51.3008 55.8933 51.1527L55.764 49.1569ZM50.4727 48.5073C49.0257 47.9594 47.8852 47.083 47.0244 45.8702L45.3935 47.0279C46.4911 48.5742 47.9572 49.6934 49.7646 50.3777L50.4727 48.5073ZM47.0286 45.8762C46.1708 44.6487 45.6137 43.0247 45.4111 40.9485L43.4205 41.1428C43.6471 43.4641 44.2855 45.4424 45.3892 47.0218L47.0286 45.8762ZM45.4119 40.9578C45.3219 39.9371 45.2446 38.9277 45.1799 37.9297L43.1841 38.0591C43.2498 39.0729 43.3283 40.0977 43.4197 41.1335L45.4119 40.9578ZM45.1799 37.9297C45.1137 36.9076 45.0586 35.8726 45.0145 34.8247L43.0163 34.9086C43.0609 35.9713 43.1169 37.0215 43.1841 38.0591L45.1799 37.9297ZM45.0149 34.8352C44.9511 32.8024 45.2937 31.1424 45.9877 29.8111L44.2142 28.8866C43.3252 30.5921 42.9441 32.6106 43.0159 34.898L45.0149 34.8352ZM45.9855 29.8152C46.708 28.4447 47.7413 27.3924 49.1034 26.6416L48.1378 24.8901C46.4347 25.829 45.1215 27.1654 44.2163 28.8826L45.9855 29.8152ZM49.0983 26.6443C50.504 25.8799 52.2013 25.4176 54.2173 25.2869L54.088 23.2911C51.841 23.4367 49.8503 23.9588 48.1429 24.8873L49.0983 26.6443ZM54.2173 25.2869C56.2081 25.1579 57.9248 25.3986 59.3915 25.9749L60.123 24.1135C58.332 23.4098 56.3124 23.147 54.088 23.2911L54.2173 25.2869ZM59.3969 25.977C60.8686 26.5455 62.0381 27.4552 62.9288 28.7174L64.5628 27.5642C63.441 25.9745 61.9514 24.8198 60.1176 24.1114L59.3969 25.977ZM62.933 28.7233C63.8099 29.9469 64.3622 31.5408 64.5381 33.5591L66.5305 33.3855C66.3313 31.0991 65.6912 29.1386 64.5586 27.5583L62.933 28.7233ZM64.5403 33.5822C64.6549 34.6182 64.745 35.6434 64.8107 36.6577L66.8066 36.5284C66.7388 35.4831 66.646 34.4278 66.5282 33.3624L64.5403 33.5822ZM64.8107 36.6577C64.8749 37.6478 64.9163 38.6517 64.9348 39.6696L66.9345 39.6331C66.9154 38.5851 66.8728 37.5502 66.8066 36.5284L64.8107 36.6577ZM64.9352 39.6834C65.0021 41.7684 64.6593 43.4507 63.9671 44.7787L65.7406 45.7032C66.6313 43.9945 67.009 41.9504 66.9341 39.6192L64.9352 39.6834ZM63.9705 44.7722C63.2734 46.0859 62.2556 47.1022 60.8913 47.8322L61.8349 49.5956C63.5389 48.6838 64.8482 47.3848 65.7372 45.7097L63.9705 44.7722ZM60.8913 47.8322C59.5096 48.5716 57.8105 49.0243 55.764 49.1569L55.8933 51.1527C58.1578 51.006 60.1483 50.4981 61.8349 49.5956L60.8913 47.8322ZM55.593 46.5184C57.199 46.4143 58.5623 45.8317 59.5925 44.7225L58.127 43.3615C57.4935 44.0436 56.6359 44.4466 55.4637 44.5226L55.593 46.5184ZM59.593 44.722C60.7 43.5282 61.1091 41.822 61.0306 39.8144L59.0321 39.8925C59.1 41.6273 58.728 42.7135 58.1265 43.362L59.593 44.722ZM61.0312 39.8342C61.0106 38.7645 60.9703 37.7657 60.9103 36.8383L58.9144 36.9677C58.9723 37.8605 59.0114 38.8287 59.0316 39.8728L61.0312 39.8342ZM60.9103 36.8383C60.8486 35.8873 60.7596 34.8914 60.6435 33.8509L58.6558 34.0728C58.7689 35.0857 58.855 36.0506 58.9144 36.9677L60.9103 36.8383ZM60.6461 33.878C60.5329 32.5321 60.2091 31.3581 59.6143 30.4178L57.9241 31.4871C58.2939 32.0716 58.5571 32.9039 58.6531 34.0457L60.6461 33.878ZM59.6143 30.4178C59.0365 29.5046 58.2738 28.8197 57.3215 28.4183L56.5446 30.2613C57.0759 30.4852 57.5372 30.8755 57.9241 31.4871L59.6143 30.4178ZM57.3585 28.4348C56.4612 28.013 55.4609 27.8559 54.3883 27.9254L54.5176 29.9212C55.3131 29.8697 55.9662 29.9903 56.5076 30.2448L57.3585 28.4348ZM54.3883 27.9254C53.3147 27.995 52.3373 28.2805 51.4847 28.8086L52.5381 30.5088C53.0729 30.1774 53.7231 29.9727 54.5176 29.9212L54.3883 27.9254ZM51.5073 28.7951C50.6148 29.316 49.9468 30.0935 49.4917 31.0737L51.3058 31.9159C51.6105 31.2596 52.0176 30.813 52.5155 30.5223L51.5073 28.7951ZM49.482 31.0953C49.0491 32.0888 48.8792 33.2791 48.9144 34.6189L50.9137 34.5664C50.8833 33.4092 51.0366 32.5343 51.3155 31.8943L49.482 31.0953ZM48.9149 34.6341C48.958 35.6724 49.01 36.6629 49.0711 37.6055L51.0669 37.4761C51.0069 36.5506 50.9557 35.5756 50.9132 34.5512L48.9149 34.6341ZM49.0711 37.6055C49.1306 38.5242 49.2068 39.513 49.2996 40.5716L51.292 40.397C51.2003 39.3511 51.1253 38.3776 51.0669 37.4761L49.0711 37.6055ZM49.3011 40.5873C49.5072 42.5782 50.1318 44.2074 51.3486 45.2469L52.6477 43.7263C51.9805 43.1563 51.4702 42.1173 51.2905 40.3813L49.3011 40.5873ZM51.3594 45.256C52.5275 46.2259 53.9683 46.6237 55.593 46.5184L55.4637 44.5226C54.2624 44.6004 53.3497 44.309 52.6369 43.7172L51.3594 45.256ZM71.313 48.5382L70.6531 49.2895L70.6531 49.2895L71.313 48.5382ZM69.7162 23.8939L70.4675 24.5538L70.4675 24.5538L69.7162 23.8939ZM74.8175 23.5633L74.1576 24.3147L74.1576 24.3147L74.8175 23.5633ZM75.6416 32.3845L74.6437 32.4491L74.815 35.0929L76.4333 32.9953L75.6416 32.3845ZM82.4974 23.4986L83.2891 24.1094L83.3301 24.0564L83.3636 23.9983L82.4974 23.4986ZM82.9365 23.0372L83.5438 23.8317L83.5528 23.8248L83.5617 23.8177L82.9365 23.0372ZM88.7563 22.6601L88.0407 23.3587L88.0675 23.3861L88.0964 23.4115L88.7563 22.6601ZM88.8886 23.5895L89.6905 24.187L89.6996 24.1749L89.7083 24.1624L88.8886 23.5895ZM80.359 35.037L79.5571 34.4395L79.0546 35.114L79.6329 35.7247L80.359 35.037ZM91.047 46.3215L90.321 47.0092L90.3526 47.0426L90.3871 47.0729L91.047 46.3215ZM91.038 47.2962L91.7894 47.9561L91.8147 47.9272L91.8378 47.8965L91.038 47.2962ZM84.5772 47.2458L83.8641 47.9468L83.8898 47.973L83.9173 47.9972L84.5772 47.2458ZM76.042 38.5635L76.7551 37.8625L74.8702 35.9451L75.0441 38.6282L76.042 38.5635ZM76.4143 48.2076L75.663 47.5477L76.4143 48.2076ZM71.9113 47.7498C71.8863 47.7515 71.8911 47.7474 71.9141 47.7547C71.925 47.7581 71.9368 47.7631 71.9483 47.7697C71.9598 47.7762 71.968 47.7825 71.9729 47.7868L70.6531 49.2895C71.0539 49.6415 71.5448 49.7778 72.0406 49.7457L71.9113 47.7498ZM71.9729 47.7868C71.9778 47.7911 71.9852 47.7985 71.9931 47.809C72.0011 47.8196 72.0076 47.8307 72.0124 47.841C72.0226 47.8629 72.0192 47.8682 72.0176 47.8432L70.0218 47.9725C70.0539 48.4684 70.2523 48.9375 70.6531 49.2895L71.9729 47.7868ZM72.0176 47.8432L70.5045 24.4921L68.5087 24.6215L70.0218 47.9725L72.0176 47.8432ZM70.5045 24.4921C70.5029 24.4671 70.507 24.4719 70.4997 24.4949C70.4963 24.5058 70.4912 24.5176 70.4847 24.5291C70.4782 24.5406 70.4718 24.5489 70.4675 24.5538L68.9649 23.2339C68.6128 23.6347 68.4766 24.1256 68.5087 24.6215L70.5045 24.4921ZM70.4675 24.5538C70.4632 24.5587 70.4559 24.566 70.4454 24.5739C70.4348 24.5819 70.4237 24.5884 70.4133 24.5932C70.3915 24.6034 70.3862 24.6 70.4112 24.5984L70.2819 22.6026C69.786 22.6347 69.3169 22.8331 68.9648 23.2339L70.4675 24.5538ZM70.4112 24.5984L74.2192 24.3516L74.0899 22.3558L70.2819 22.6026L70.4112 24.5984ZM74.2192 24.3516C74.2443 24.35 74.2395 24.3541 74.2165 24.3468C74.2056 24.3434 74.1937 24.3383 74.1822 24.3318C74.1707 24.3253 74.1625 24.319 74.1576 24.3147L75.4774 22.812C75.0766 22.4599 74.5858 22.3237 74.0899 22.3558L74.2192 24.3516ZM74.1576 24.3147C74.1527 24.3104 74.1454 24.303 74.1374 24.2925C74.1295 24.2819 74.1229 24.2708 74.1181 24.2604C74.1079 24.2386 74.1113 24.2333 74.113 24.2583L76.1088 24.129C76.0766 23.6331 75.8782 23.164 75.4774 22.812L74.1576 24.3147ZM74.113 24.2583L74.6437 32.4491L76.6395 32.3198L76.1088 24.129L74.113 24.2583ZM76.4333 32.9953L83.2891 24.1094L81.7056 22.8877L74.8499 31.7736L76.4333 32.9953ZM83.3636 23.9983C83.3595 24.0054 83.366 23.9922 83.3964 23.9602C83.4265 23.9286 83.4736 23.8854 83.5438 23.8317L82.3291 22.2428C82.0655 22.4443 81.8081 22.6922 81.6312 22.9988L83.3636 23.9983ZM83.5617 23.8177C83.5871 23.7973 83.6774 23.7388 83.9189 23.7231L83.7896 21.7273C83.2647 21.7613 82.7431 21.9108 82.3112 22.2568L83.5617 23.8177ZM83.9189 23.7231L88.2658 23.4415L88.1364 21.4457L83.7896 21.7273L83.9189 23.7231ZM88.2658 23.4415C88.2406 23.4431 88.1933 23.4404 88.1382 23.4189C88.0836 23.3976 88.0515 23.3697 88.0407 23.3587L89.4719 21.9616C89.1191 21.6002 88.6514 21.4123 88.1364 21.4457L88.2658 23.4415ZM88.0964 23.4115C88.0882 23.4043 88.0637 23.3799 88.0413 23.3357C88.0183 23.2904 88.0086 23.2462 88.0065 23.2138L90.0023 23.0845C89.9716 22.6109 89.755 22.2064 89.4162 21.9088L88.0964 23.4115ZM88.0065 23.2138C88.0057 23.2017 88.0057 23.1718 88.0165 23.1307C88.0275 23.0886 88.0463 23.0491 88.069 23.0166L89.7083 24.1624C89.9388 23.8327 90.0264 23.4562 90.0023 23.0845L88.0065 23.2138ZM88.0868 22.992L79.5571 34.4395L81.1609 35.6345L89.6905 24.187L88.0868 22.992ZM79.6329 35.7247L90.321 47.0092L91.773 45.6339L81.085 34.3494L79.6329 35.7247ZM90.3871 47.0729C90.2196 46.9257 90.2183 46.7702 90.2207 46.808L92.2165 46.6787C92.1942 46.3332 92.0785 45.8965 91.7069 45.5702L90.3871 47.0729ZM90.2207 46.808C90.2186 46.7756 90.2232 46.7422 90.2322 46.7147C90.2406 46.689 90.248 46.6828 90.2383 46.6958L91.8378 47.8965C92.0908 47.5595 92.2467 47.1443 92.2165 46.6787L90.2207 46.808ZM90.2867 46.6362C90.3042 46.6162 90.3345 46.5905 90.3753 46.571C90.4151 46.552 90.4437 46.549 90.4484 46.5487L90.5778 48.5445C91.0402 48.5146 91.4685 48.3214 91.7894 47.9561L90.2867 46.6362ZM90.4484 46.5487L85.9579 46.8397L86.0872 48.8355L90.5778 48.5445L90.4484 46.5487ZM85.9579 46.8397C85.6535 46.8594 85.6071 46.7919 85.6486 46.8242L84.4193 48.4018C84.9167 48.7894 85.5293 48.8716 86.0872 48.8355L85.9579 46.8397ZM85.6486 46.8242C85.4177 46.6443 85.2882 46.5393 85.2371 46.4945L83.9173 47.9972C84.0193 48.0867 84.1942 48.2265 84.4193 48.4018L85.6486 46.8242ZM85.2904 46.5448L76.7551 37.8625L75.3289 39.2646L83.8641 47.9468L85.2904 46.5448ZM75.0441 38.6282L75.626 47.6093L77.6218 47.48L77.0399 38.4989L75.0441 38.6282ZM75.626 47.6093C75.6276 47.6344 75.6236 47.6296 75.6308 47.6066C75.6343 47.5957 75.6393 47.5839 75.6459 47.5723C75.6524 47.5609 75.6587 47.5526 75.663 47.5477L77.1657 48.8675C77.5177 48.4667 77.654 47.9759 77.6218 47.48L75.626 47.6093ZM75.663 47.5477C75.6673 47.5428 75.6747 47.5355 75.6852 47.5276C75.6958 47.5196 75.7068 47.5131 75.7172 47.5082C75.7391 47.4981 75.7444 47.5015 75.7193 47.5031L75.8487 49.4989C76.3445 49.4668 76.8137 49.2683 77.1657 48.8675L75.663 47.5477ZM75.7193 47.5031L71.9113 47.7498L72.0406 49.7457L75.8487 49.4989L75.7193 47.5031ZM94.5729 47.031L93.9129 47.7824L93.9129 47.7824L94.5729 47.031ZM92.976 22.3867L93.7274 23.0466L93.7274 23.0466L92.976 22.3867ZM110.811 25.3798L111.562 26.0397L111.562 26.0397L110.811 25.3798ZM98.5409 26.4273L98.4763 25.4294L97.4784 25.4941L97.543 26.492L98.5409 26.4273ZM98.9064 32.0675L97.9085 32.1322L97.9731 33.1301L98.971 33.0654L98.9064 32.0675ZM110.419 31.5741L111.078 30.8228L111.078 30.8228L110.419 31.5741ZM110.672 35.4899L111.424 36.1498L111.424 36.1498L110.672 35.4899ZM99.1927 36.4863L99.128 35.4883L98.1301 35.553L98.1948 36.5509L99.1927 36.4863ZM99.5698 42.306L98.5719 42.3707L98.6365 43.3686L99.6345 43.304L99.5698 42.306ZM112.16 41.7428L111.5 42.4942L111.5 42.4942L112.16 41.7428ZM112.427 45.8741L111.676 45.2142L111.676 45.2142L112.427 45.8741ZM95.1711 46.2427C95.1461 46.2443 95.1509 46.2403 95.1739 46.2475C95.1848 46.251 95.1966 46.256 95.2081 46.2626C95.2196 46.2691 95.2279 46.2754 95.2328 46.2797L93.9129 47.7824C94.3138 48.1344 94.8046 48.2706 95.3005 48.2385L95.1711 46.2427ZM95.2328 46.2797C95.2377 46.284 95.245 46.2914 95.2529 46.3019C95.2609 46.3125 95.2674 46.3235 95.2722 46.3339C95.2824 46.3558 95.279 46.3611 95.2774 46.336L93.2816 46.4653C93.3137 46.9612 93.5121 47.4304 93.9129 47.7824L95.2328 46.2797ZM95.2774 46.336L93.7643 22.985L91.7685 23.1143L93.2816 46.4653L95.2774 46.336ZM93.7643 22.985C93.7627 22.9599 93.7668 22.9648 93.7595 22.9878C93.7561 22.9987 93.751 23.0105 93.7445 23.022C93.738 23.0335 93.7317 23.0417 93.7274 23.0466L92.2247 21.7268C91.8726 22.1276 91.7364 22.6184 91.7685 23.1143L93.7643 22.985ZM93.7274 23.0466C93.7231 23.0515 93.7157 23.0589 93.7052 23.0668C93.6946 23.0748 93.6835 23.0813 93.6731 23.0861C93.6513 23.0963 93.646 23.0929 93.671 23.0913L93.5417 21.0954C93.0458 21.1276 92.5767 21.326 92.2247 21.7268L93.7274 23.0466ZM93.671 23.0913L109.945 22.0368L109.816 20.041L93.5417 21.0954L93.671 23.0913ZM109.945 22.0368C109.97 22.0352 109.965 22.0392 109.942 22.032C109.931 22.0285 109.919 22.0235 109.908 22.0169C109.896 22.0104 109.888 22.0041 109.883 21.9998L111.203 20.4971C110.802 20.1451 110.311 20.0088 109.816 20.041L109.945 22.0368ZM109.883 21.9998C109.878 21.9955 109.871 21.9881 109.863 21.9776C109.855 21.967 109.849 21.9559 109.844 21.9456C109.834 21.9237 109.837 21.9184 109.839 21.9435L111.834 21.8141C111.802 21.3183 111.604 20.8491 111.203 20.4971L109.883 21.9998ZM109.839 21.9435L110.025 24.8174L112.021 24.6881L111.834 21.8141L109.839 21.9435ZM110.025 24.8174C110.025 24.8184 110.024 24.7987 110.034 24.769C110.044 24.739 110.058 24.7221 110.06 24.7199L111.562 26.0397C111.896 25.6596 112.053 25.1892 112.021 24.6881L110.025 24.8174ZM110.06 24.7199C110.064 24.715 110.071 24.7076 110.082 24.6997C110.092 24.6917 110.103 24.6852 110.114 24.6804C110.136 24.6702 110.141 24.6736 110.116 24.6752L110.245 26.6711C110.741 26.6389 111.21 26.4405 111.562 26.0397L110.06 24.7199ZM110.116 24.6752L98.4763 25.4294L98.6056 27.4253L110.245 26.6711L110.116 24.6752ZM97.543 26.492L97.9085 32.1322L99.9043 32.0029L99.5388 26.3627L97.543 26.492ZM98.971 33.0654L109.82 32.3624L109.691 30.3666L98.8417 31.0696L98.971 33.0654ZM109.82 32.3624C109.845 32.3608 109.841 32.3649 109.818 32.3576C109.807 32.3542 109.795 32.3491 109.783 32.3426C109.772 32.3361 109.764 32.3298 109.759 32.3255L111.078 30.8228C110.678 30.4707 110.187 30.3345 109.691 30.3666L109.82 32.3624ZM109.759 32.3255C109.754 32.3212 109.746 32.3138 109.738 32.3033C109.731 32.2927 109.724 32.2816 109.719 32.2712C109.709 32.2494 109.712 32.2441 109.714 32.2691L111.71 32.1398C111.678 31.6439 111.479 31.1748 111.078 30.8228L109.759 32.3255ZM109.714 32.2691L109.886 34.9275L111.882 34.7982L111.71 32.1398L109.714 32.2691ZM109.886 34.9275C109.886 34.9285 109.885 34.9088 109.895 34.8791C109.906 34.8492 109.919 34.8322 109.921 34.83L111.424 36.1498C111.757 35.7698 111.915 35.2994 111.882 34.7982L109.886 34.9275ZM109.921 34.83C109.925 34.8251 109.933 34.8177 109.943 34.8098C109.954 34.8019 109.965 34.7953 109.975 34.7905C109.997 34.7803 110.002 34.7837 109.977 34.7854L110.107 36.7812C110.602 36.749 111.072 36.5506 111.424 36.1498L109.921 34.83ZM109.977 34.7854L99.128 35.4883L99.2574 37.4842L110.107 36.7812L109.977 34.7854ZM98.1948 36.5509L98.5719 42.3707L100.568 42.2414L100.191 36.4216L98.1948 36.5509ZM99.6345 43.304L111.561 42.5311L111.432 40.5353L99.5051 41.3081L99.6345 43.304ZM111.561 42.5311C111.586 42.5295 111.582 42.5336 111.559 42.5263C111.548 42.5229 111.536 42.5178 111.524 42.5113C111.513 42.5048 111.505 42.4985 111.5 42.4942L112.82 40.9915C112.419 40.6394 111.928 40.5032 111.432 40.5353L111.561 42.5311ZM111.5 42.4942C111.495 42.4899 111.488 42.4825 111.48 42.472C111.472 42.4614 111.465 42.4503 111.46 42.4399C111.45 42.4181 111.454 42.4128 111.455 42.4378L113.451 42.3085C113.419 41.8126 113.22 41.3435 112.82 40.9915L111.5 42.4942ZM111.455 42.4378L111.639 45.2759L113.635 45.1465L113.451 42.3085L111.455 42.4378ZM111.639 45.2759C111.641 45.3009 111.637 45.2961 111.644 45.2731C111.647 45.2622 111.652 45.2504 111.659 45.2388C111.665 45.2274 111.672 45.2191 111.676 45.2142L113.179 46.534C113.531 46.1332 113.667 45.6424 113.635 45.1465L111.639 45.2759ZM111.676 45.2142C111.68 45.2093 111.688 45.202 111.698 45.1941C111.709 45.1861 111.72 45.1796 111.73 45.1747C111.752 45.1646 111.757 45.168 111.732 45.1696L111.862 47.1654C112.358 47.1333 112.827 46.9348 113.179 46.534L111.676 45.2142ZM111.732 45.1696L95.1711 46.2427L95.3005 48.2385L111.862 47.1654L111.732 45.1696Z" fill="url(#paint1_linear_2390_97)"/>
</g>
</g>
<g id="frame-decks">
<g id="DECKS" filter="url(#filter1_d_2390_97)">
<path d="M131.275 46.7693C130.997 46.7565 130.773 46.6575 130.604 46.4722C130.435 46.2869 130.357 46.0551 130.37 45.7767L131.503 21.1027C131.516 20.8243 131.615 20.6006 131.8 20.4316C131.985 20.2626 132.217 20.1845 132.495 20.1973L142.023 20.6347C144.554 20.7508 146.648 21.2528 148.307 22.1404C149.966 23.0027 151.204 24.2261 152.018 25.8105C152.86 27.3707 153.254 29.2781 153.201 31.5327C153.175 32.6474 153.143 33.6223 153.105 34.4574C153.067 35.2925 153.01 36.2536 152.935 37.3406C152.751 39.6907 152.193 41.6178 151.262 43.122C150.33 44.6262 149.012 45.7196 147.307 46.4021C145.603 47.0593 143.499 47.3304 140.993 47.2154L131.275 46.7693ZM136.587 42.106L141.028 42.3098C142.294 42.3679 143.34 42.2258 144.167 41.8833C144.994 41.5409 145.616 40.9735 146.033 40.1811C146.476 39.3646 146.741 38.2989 146.827 36.9841C146.886 36.2514 146.928 35.594 146.955 35.012C147.007 34.4311 147.034 33.849 147.035 33.2658C147.062 32.6837 147.079 32.0378 147.086 31.3281C147.123 29.4278 146.693 28.0132 145.797 27.0845C144.928 26.1317 143.532 25.6111 141.609 25.5228L137.357 25.3276L136.587 42.106ZM158.189 48.0048C157.91 47.992 157.686 47.893 157.517 47.7077C157.348 47.5224 157.27 47.2906 157.283 47.0122L158.416 22.3382C158.429 22.0598 158.528 21.8361 158.713 21.6671C158.898 21.4981 159.13 21.42 159.408 21.4328L176.604 22.2222C176.883 22.2349 177.106 22.334 177.275 22.5192C177.444 22.7045 177.522 22.9363 177.51 23.2147L177.37 26.2515C177.359 26.5046 177.26 26.7156 177.075 26.8846C176.89 27.0537 176.658 27.1318 176.379 27.119L164.08 26.5544L163.807 32.5141L175.271 33.0404C175.549 33.0532 175.773 33.1522 175.942 33.3375C176.111 33.5227 176.189 33.7546 176.176 34.0329L176.047 36.842C176.036 37.0951 175.937 37.3061 175.752 37.4751C175.567 37.6441 175.335 37.7222 175.056 37.7095L163.592 37.1832L163.31 43.3327L175.913 43.9113C176.191 43.924 176.415 44.0231 176.584 44.2084C176.753 44.3936 176.831 44.6255 176.818 44.9038L176.681 47.9027C176.668 48.181 176.569 48.4047 176.384 48.5738C176.198 48.7428 175.966 48.8209 175.688 48.8081L158.189 48.0048ZM191.463 49.9127C189.084 49.8035 187.078 49.3183 185.443 48.4571C183.836 47.5718 182.611 46.349 181.77 44.7888C180.93 43.2032 180.509 41.3073 180.509 39.101C180.532 38.0622 180.57 36.9482 180.625 35.7588C180.679 34.5693 180.744 33.4311 180.819 32.3441C181.021 30.1724 181.611 28.3482 182.592 26.8716C183.599 25.3709 184.957 24.254 186.664 23.5208C188.372 22.7877 190.389 22.4746 192.718 22.5815C194.413 22.6593 195.947 22.9453 197.319 23.4394C198.691 23.9335 199.865 24.6087 200.84 25.465C201.815 26.3212 202.556 27.3063 203.063 28.42C203.57 29.5338 203.817 30.7624 203.807 32.106C203.796 32.3338 203.699 32.5195 203.515 32.6632C203.356 32.8081 203.163 32.8753 202.935 32.8648L198.607 32.6662C198.304 32.6522 198.067 32.5653 197.897 32.4053C197.726 32.2453 197.599 31.9859 197.514 31.6269C197.203 30.1164 196.617 29.0624 195.757 28.465C194.897 27.8676 193.809 27.5387 192.493 27.4783C190.924 27.4063 189.664 27.7796 188.714 28.5982C187.763 29.4168 187.204 30.8239 187.036 32.8197C186.865 34.8913 186.767 37.0171 186.743 39.197C186.728 41.1997 187.155 42.6522 188.027 43.5544C188.898 44.4567 190.119 44.9438 191.688 45.0158C193.004 45.0762 194.117 44.8484 195.029 44.3323C195.966 43.7921 196.646 42.7962 197.068 41.3447C197.186 40.9697 197.337 40.7231 197.52 40.6047C197.704 40.4609 197.948 40.3961 198.252 40.41L202.579 40.6087C202.807 40.6191 202.993 40.7037 203.138 40.8626C203.308 41.0225 203.388 41.2164 203.378 41.4442C203.266 42.7831 202.906 43.9839 202.3 45.0465C201.693 46.1091 200.865 47.0221 199.815 47.7855C198.766 48.5488 197.535 49.1136 196.124 49.48C194.712 49.8463 193.159 49.9905 191.463 49.9127ZM208.196 50.3004C207.918 50.2877 207.694 50.1886 207.525 50.0034C207.356 49.8181 207.278 49.5863 207.291 49.3079L208.424 24.6339C208.436 24.3555 208.535 24.1318 208.721 23.9628C208.906 23.7938 209.138 23.7157 209.416 23.7284L213.44 23.9131C213.718 23.9259 213.942 24.025 214.111 24.2102C214.28 24.3955 214.358 24.6273 214.345 24.9057L213.948 33.5606L222.176 25.0369C222.284 24.8897 222.455 24.7454 222.69 24.6041C222.951 24.4385 223.284 24.3651 223.689 24.3836L228.282 24.5945C228.51 24.605 228.696 24.7022 228.84 24.8864C228.984 25.0452 229.052 25.2258 229.043 25.4283C229.035 25.6054 228.977 25.7549 228.87 25.8768L218.588 36.8929L228.487 49.9766C228.583 50.0824 228.627 50.2366 228.618 50.4391C228.608 50.6415 228.524 50.8278 228.364 50.998C228.205 51.1429 228.012 51.2101 227.784 51.1996L223.039 50.9818C222.583 50.9609 222.246 50.844 222.028 50.6311C221.809 50.4182 221.664 50.272 221.591 50.1926L213.648 40.0897L213.213 49.5797C213.2 49.8581 213.101 50.0818 212.916 50.2508C212.73 50.4198 212.499 50.4979 212.22 50.4852L208.196 50.3004ZM240.706 52.1733C238.277 52.0617 236.256 51.6139 234.644 50.8298C233.056 50.0469 231.871 49.0668 231.089 47.8897C230.306 46.7126 229.919 45.4775 229.927 44.1845C229.937 43.9821 230.021 43.8084 230.179 43.6636C230.339 43.4934 230.533 43.4135 230.761 43.424L234.823 43.6104C235.152 43.6255 235.401 43.7131 235.572 43.8731C235.743 44.0077 235.9 44.1798 236.042 44.3892C236.2 44.8275 236.459 45.2579 236.82 45.6802C237.206 46.1037 237.735 46.4703 238.405 46.7801C239.077 47.0645 239.919 47.2299 240.931 47.2764C242.576 47.3519 243.816 47.1426 244.65 46.6483C245.509 46.1552 245.96 45.4531 246.002 44.5421C246.032 43.8841 245.829 43.3422 245.392 42.9164C244.98 42.4917 244.301 42.0928 243.354 41.7197C242.433 41.3477 241.197 40.9359 239.645 40.4843C237.766 39.9923 236.17 39.3991 234.858 38.7049C233.572 37.9865 232.611 37.1055 231.974 36.0619C231.364 34.9941 231.093 33.701 231.163 32.1826C231.233 30.6642 231.712 29.3421 232.6 28.2163C233.49 27.0653 234.709 26.1956 236.258 25.6073C237.808 24.9937 239.633 24.7352 241.733 24.8316C243.429 24.9094 244.911 25.2057 246.181 25.7205C247.476 26.2364 248.537 26.8811 249.364 27.6545C250.216 28.429 250.85 29.2443 251.268 30.1004C251.685 30.9564 251.888 31.7772 251.877 32.5629C251.868 32.7654 251.783 32.9517 251.623 33.1219C251.465 33.2667 251.271 33.3339 251.044 33.3235L246.792 33.1283C246.539 33.1167 246.314 33.0556 246.116 32.9451C245.918 32.8346 245.762 32.6499 245.647 32.391C245.525 31.7261 245.096 31.1357 244.359 30.6201C243.648 30.0802 242.698 29.783 241.508 29.7284C240.268 29.6715 239.271 29.854 238.516 30.2758C237.787 30.6988 237.4 31.3784 237.357 32.3148C237.33 32.9222 237.483 33.4491 237.817 33.8956C238.178 34.3179 238.782 34.7133 239.627 35.0818C240.499 35.4261 241.647 35.8212 243.072 36.267C245.278 36.8248 247.063 37.4519 248.426 38.1485C249.788 38.8451 250.776 39.7146 251.387 40.757C252 41.7742 252.271 43.042 252.202 44.5604C252.124 46.2559 251.576 47.689 250.559 48.8596C249.567 50.0313 248.22 50.9078 246.52 51.4891C244.846 52.0463 242.908 52.2743 240.706 52.1733Z" fill="url(#paint2_linear_2390_97)"/>
<path d="M130.604 46.4722L130.235 46.8092L130.235 46.8092L130.604 46.4722ZM131.8 20.4316L132.137 20.801L132.137 20.801L131.8 20.4316ZM148.307 22.1404L148.071 22.5813L148.076 22.5841L148.307 22.1404ZM152.018 25.8105L151.574 26.0392L151.578 26.0478L152.018 25.8105ZM153.201 31.5327L152.701 31.521L152.701 31.5212L153.201 31.5327ZM152.935 37.3406L153.433 37.3796L153.433 37.3752L152.935 37.3406ZM151.262 43.122L150.837 42.8588L151.262 43.122ZM147.307 46.4021L147.487 46.8686L147.493 46.8663L147.307 46.4021ZM136.587 42.106L136.087 42.083L136.065 42.5825L136.564 42.6054L136.587 42.106ZM146.033 40.1811L145.594 39.9426L145.591 39.9484L146.033 40.1811ZM146.827 36.9841L146.328 36.944L146.328 36.9516L146.827 36.9841ZM146.955 35.012L146.457 34.9674L146.456 34.9782L146.456 34.989L146.955 35.012ZM147.035 33.2658L146.536 33.2429L146.535 33.2537L146.535 33.2646L147.035 33.2658ZM147.086 31.3281L146.586 31.3185L146.586 31.323L147.086 31.3281ZM145.797 27.0845L145.428 27.4216L145.438 27.4316L145.797 27.0845ZM137.357 25.3276L137.38 24.8281L136.881 24.8052L136.858 25.3047L137.357 25.3276ZM131.298 46.2698C131.136 46.2624 131.043 46.2112 130.974 46.1352L130.235 46.8092C130.504 47.1037 130.858 47.2506 131.253 47.2688L131.298 46.2698ZM130.974 46.1352C130.904 46.0592 130.862 45.9617 130.87 45.7997L129.871 45.7538C129.852 46.1485 129.966 46.5146 130.235 46.8092L130.974 46.1352ZM130.87 45.7997L132.002 21.1256L131.003 21.0798L129.871 45.7538L130.87 45.7997ZM132.002 21.1256C132.01 20.9636 132.061 20.8703 132.137 20.801L131.463 20.0622C131.168 20.3309 131.021 20.6851 131.003 21.0798L132.002 21.1256ZM132.137 20.801C132.213 20.7317 132.31 20.6893 132.472 20.6967L132.518 19.6978C132.124 19.6797 131.757 19.7935 131.463 20.0622L132.137 20.801ZM132.472 20.6967L142 21.1341L142.046 20.1352L132.518 19.6978L132.472 20.6967ZM142 21.1341C144.481 21.248 146.497 21.7388 148.071 22.5812L148.543 21.6996C146.8 20.7667 144.627 20.2537 142.046 20.1352L142 21.1341ZM148.076 22.5841C149.649 23.4012 150.809 24.5516 151.574 26.0392L152.463 25.5818C151.598 23.9006 150.284 22.6043 148.537 21.6967L148.076 22.5841ZM151.578 26.0478C152.369 27.5135 152.753 29.33 152.701 31.521L153.701 31.5444C153.755 29.2262 153.351 27.2279 152.459 25.5732L151.578 26.0478ZM152.701 31.5212C152.676 32.6332 152.644 33.6041 152.606 34.4345L153.605 34.4803C153.643 33.6404 153.675 32.6616 153.701 31.5443L152.701 31.5212ZM152.606 34.4345C152.567 35.2648 152.511 36.2218 152.436 37.3061L153.433 37.3752C153.509 36.2853 153.566 35.3203 153.605 34.4803L152.606 34.4345ZM152.436 37.3016C152.256 39.5975 151.714 41.4411 150.837 42.8588L151.687 43.3852C152.672 41.7944 153.245 39.7839 153.433 37.3796L152.436 37.3016ZM150.837 42.8588C149.964 44.2685 148.731 45.2935 147.121 45.9379L147.493 46.8663C149.293 46.1457 150.697 44.9839 151.687 43.3852L150.837 42.8588ZM147.127 45.9356C145.507 46.5604 143.477 46.8289 141.016 46.7159L140.97 47.7149C143.521 47.8319 145.699 47.5582 147.487 46.8686L147.127 45.9356ZM141.016 46.7159L131.298 46.2698L131.253 47.2688L140.97 47.7149L141.016 46.7159ZM136.564 42.6054L141.005 42.8093L141.051 41.8104L136.61 41.6065L136.564 42.6054ZM141.005 42.8093C142.316 42.8695 143.441 42.7249 144.358 42.3453L143.976 41.4213C143.238 41.7266 142.272 41.8664 141.051 41.8104L141.005 42.8093ZM144.358 42.3453C145.294 41.9582 146.004 41.3097 146.476 40.4139L145.591 39.9484C145.228 40.6373 144.695 41.1236 143.976 41.4213L144.358 42.3453ZM146.473 40.4197C146.962 39.5188 147.237 38.3755 147.326 37.0167L146.328 36.9516C146.245 38.2223 145.991 39.2104 145.594 39.9426L146.473 40.4197ZM147.325 37.0243C147.384 36.2872 147.428 35.6239 147.455 35.0349L146.456 34.989C146.429 35.5641 146.387 36.2156 146.328 36.944L147.325 37.0243ZM147.453 35.0566C147.506 34.4612 147.534 33.8647 147.535 33.267L146.535 33.2646C146.534 33.8333 146.508 34.4009 146.457 34.9674L147.453 35.0566ZM147.535 33.2887C147.562 32.6996 147.579 32.0477 147.586 31.3332L146.586 31.323C146.579 32.028 146.562 32.6679 146.536 33.2429L147.535 33.2887ZM147.586 31.3377C147.624 29.3671 147.181 27.7989 146.157 26.7374L145.438 27.4316C146.205 28.2276 146.621 29.4884 146.586 31.3185L147.586 31.3377ZM146.167 26.7476C145.173 25.6575 143.623 25.1147 141.632 25.0233L141.586 26.0223C143.441 26.1074 144.684 26.6058 145.428 27.4215L146.167 26.7476ZM141.632 25.0233L137.38 24.8281L137.334 25.8271L141.586 26.0223L141.632 25.0233ZM136.858 25.3047L136.087 42.083L137.086 42.1289L137.857 25.3506L136.858 25.3047ZM157.517 47.7077L157.148 48.0447L157.517 47.7077ZM158.713 21.6671L159.05 22.0365L159.05 22.0365L158.713 21.6671ZM177.075 26.8846L177.412 27.254L177.412 27.254L177.075 26.8846ZM164.08 26.5544L164.103 26.0549L163.604 26.032L163.581 26.5315L164.08 26.5544ZM163.807 32.5141L163.307 32.4912L163.284 32.9907L163.784 33.0136L163.807 32.5141ZM175.942 33.3375L176.311 33.0005L175.942 33.3375ZM175.752 37.4751L176.089 37.8445L176.089 37.8445L175.752 37.4751ZM163.592 37.1832L163.615 36.6837L163.116 36.6608L163.093 37.1603L163.592 37.1832ZM163.31 43.3327L162.811 43.3098L162.788 43.8093L163.287 43.8322L163.31 43.3327ZM176.584 44.2084L176.215 44.5453L176.215 44.5453L176.584 44.2084ZM176.384 48.5738L176.047 48.2044L176.384 48.5738ZM158.211 47.5053C158.049 47.4979 157.956 47.4467 157.887 47.3707L157.148 48.0447C157.417 48.3392 157.771 48.4861 158.166 48.5042L158.211 47.5053ZM157.887 47.3707C157.818 47.2947 157.775 47.1972 157.783 47.0351L156.784 46.9893C156.766 47.384 156.879 47.7501 157.148 48.0447L157.887 47.3707ZM157.783 47.0351L158.915 22.3611L157.916 22.3153L156.784 46.9893L157.783 47.0351ZM158.915 22.3611C158.923 22.1991 158.974 22.1058 159.05 22.0365L158.376 21.2977C158.081 21.5664 157.934 21.9205 157.916 22.3153L158.915 22.3611ZM159.05 22.0365C159.126 21.9672 159.223 21.9248 159.385 21.9322L159.431 20.9333C159.037 20.9152 158.67 21.029 158.376 21.2977L159.05 22.0365ZM159.385 21.9322L176.581 22.7216L176.627 21.7227L159.431 20.9333L159.385 21.9322ZM176.581 22.7216C176.743 22.7291 176.837 22.7802 176.906 22.8562L177.645 22.1823C177.376 21.8877 177.022 21.7408 176.627 21.7227L176.581 22.7216ZM176.906 22.8562C176.975 22.9322 177.018 23.0298 177.01 23.1918L178.009 23.2376C178.027 22.8429 177.913 22.4768 177.645 22.1823L176.906 22.8562ZM177.01 23.1918L176.871 26.2286L177.87 26.2744L178.009 23.2376L177.01 23.1918ZM176.871 26.2286C176.865 26.3507 176.824 26.4366 176.738 26.5152L177.412 27.254C177.696 26.9946 177.852 26.6585 177.87 26.2744L176.871 26.2286ZM176.738 26.5152C176.662 26.5846 176.564 26.627 176.402 26.6195L176.357 27.6185C176.751 27.6366 177.117 27.5227 177.412 27.254L176.738 26.5152ZM176.402 26.6195L164.103 26.0549L164.057 27.0539L176.357 27.6185L176.402 26.6195ZM163.581 26.5315L163.307 32.4912L164.306 32.537L164.58 26.5773L163.581 26.5315ZM163.784 33.0136L175.248 33.5399L175.294 32.5409L163.83 32.0146L163.784 33.0136ZM175.248 33.5399C175.41 33.5473 175.503 33.5984 175.572 33.6744L176.311 33.0005C176.043 32.7059 175.688 32.559 175.294 32.5409L175.248 33.5399ZM175.572 33.6744C175.642 33.7504 175.684 33.848 175.677 34.01L176.676 34.0559C176.694 33.6612 176.58 33.2951 176.311 33.0005L175.572 33.6744ZM175.677 34.01L175.548 36.8191L176.547 36.8649L176.676 34.0559L175.677 34.01ZM175.548 36.8191C175.542 36.9412 175.501 37.0271 175.415 37.1057L176.089 37.8445C176.373 37.5851 176.529 37.2489 176.547 36.8649L175.548 36.8191ZM175.415 37.1057C175.339 37.175 175.241 37.2174 175.079 37.21L175.033 38.2089C175.428 38.2271 175.794 38.1132 176.089 37.8445L175.415 37.1057ZM175.079 37.21L163.615 36.6837L163.57 37.6827L175.033 38.2089L175.079 37.21ZM163.093 37.1603L162.811 43.3098L163.81 43.3557L164.092 37.2061L163.093 37.1603ZM163.287 43.8322L175.89 44.4107L175.936 43.4118L163.333 42.8332L163.287 43.8322ZM175.89 44.4107C176.052 44.4182 176.145 44.4693 176.215 44.5453L176.953 43.8714C176.685 43.5768 176.331 43.4299 175.936 43.4118L175.89 44.4107ZM176.215 44.5453C176.284 44.6213 176.326 44.7189 176.319 44.8809L177.318 44.9268C177.336 44.5321 177.222 44.166 176.953 43.8714L176.215 44.5453ZM176.319 44.8809L176.181 47.8797L177.18 47.9256L177.318 44.9268L176.319 44.8809ZM176.181 47.8797C176.174 48.0418 176.123 48.135 176.047 48.2044L176.721 48.9432C177.015 48.6744 177.162 48.3203 177.18 47.9256L176.181 47.8797ZM176.047 48.2044C175.971 48.2737 175.873 48.3161 175.711 48.3086L175.665 49.3076C176.06 49.3257 176.426 49.2119 176.721 48.9431L176.047 48.2044ZM175.711 48.3086L158.211 47.5053L158.166 48.5042L175.665 49.3076L175.711 48.3086ZM185.443 48.4571L185.202 48.8952L185.21 48.8994L185.443 48.4571ZM181.77 44.7888L181.328 45.0229L181.33 45.0261L181.77 44.7888ZM180.509 39.101L180.009 39.0902L180.009 39.101L180.509 39.101ZM180.819 32.3441L180.321 32.298L180.321 32.3096L180.819 32.3441ZM182.592 26.8716L182.177 26.593L182.176 26.595L182.592 26.8716ZM186.664 23.5208L186.467 23.0614L186.664 23.5208ZM197.319 23.4394L197.15 23.9098L197.319 23.4394ZM200.84 25.465L200.51 25.8407L200.84 25.465ZM203.063 28.42L202.608 28.6271L203.063 28.42ZM203.807 32.106L204.306 32.1289L204.306 32.1195L204.307 32.1101L203.807 32.106ZM203.515 32.6632L203.207 32.269L203.192 32.2809L203.178 32.2938L203.515 32.6632ZM197.897 32.4053L197.554 32.7696L197.554 32.7696L197.897 32.4053ZM197.514 31.6269L197.024 31.7278L197.026 31.735L197.027 31.7421L197.514 31.6269ZM195.757 28.465L195.472 28.8757L195.757 28.465ZM188.714 28.5982L188.387 28.2193L188.714 28.5982ZM187.036 32.8197L186.538 32.7778L186.538 32.7785L187.036 32.8197ZM186.743 39.197L186.243 39.1915L186.243 39.193L186.743 39.197ZM188.027 43.5544L188.387 43.207L188.027 43.5544ZM195.029 44.3323L195.275 44.7674L195.278 44.7656L195.029 44.3323ZM197.068 41.3447L196.591 41.1938L196.588 41.2052L197.068 41.3447ZM197.52 40.6047L197.792 41.0244L197.81 41.0124L197.828 40.9988L197.52 40.6047ZM203.138 40.8626L202.769 41.1995L202.782 41.2137L202.796 41.2269L203.138 40.8626ZM203.378 41.4442L203.876 41.4859L203.877 41.4765L203.877 41.4671L203.378 41.4442ZM202.3 45.0465L201.865 44.7986L202.3 45.0465ZM199.815 47.7855L199.521 47.3811L199.521 47.3811L199.815 47.7855ZM196.124 49.48L195.998 48.996L196.124 49.48ZM191.486 49.4132C189.16 49.3064 187.23 48.8333 185.676 48.0148L185.21 48.8994C186.925 49.8033 189.008 50.3005 191.44 50.4122L191.486 49.4132ZM185.685 48.0191C184.158 47.1784 183.004 46.0239 182.21 44.5515L181.33 45.0261C182.218 46.674 183.513 47.9651 185.202 48.8951L185.685 48.0191ZM182.212 44.5547C181.417 43.056 181.009 41.2442 181.009 39.101L180.009 39.101C180.009 41.3705 180.442 43.3505 181.328 45.0229L182.212 44.5547ZM181.009 39.1117C181.031 38.0776 181.07 36.9676 181.124 35.7817L180.125 35.7358C180.07 36.9287 180.032 38.0469 180.009 39.0902L181.009 39.1117ZM181.124 35.7817C181.179 34.5958 181.243 33.4615 181.318 32.3786L180.321 32.3096C180.245 33.4008 180.18 34.5429 180.125 35.7358L181.124 35.7817ZM181.317 32.3902C181.513 30.2821 182.083 28.5418 183.009 27.1483L182.176 26.595C181.14 28.1546 180.529 30.0626 180.322 32.298L181.317 32.3902ZM183.007 27.1503C183.959 25.7319 185.24 24.6765 186.861 23.9803L186.467 23.0614C184.674 23.8314 183.24 25.0099 182.177 26.593L183.007 27.1503ZM186.861 23.9803C188.484 23.2836 190.423 22.9767 192.695 23.0809L192.741 22.082C190.356 21.9725 188.259 22.2919 186.467 23.0614L186.861 23.9803ZM192.695 23.0809C194.348 23.1568 195.832 23.4352 197.15 23.9098L197.489 22.9689C196.062 22.4554 194.478 22.1617 192.741 22.082L192.695 23.0809ZM197.15 23.9098C198.47 24.3853 199.588 25.0305 200.51 25.8407L201.17 25.0893C200.142 24.1868 198.912 23.4817 197.489 22.9689L197.15 23.9098ZM200.51 25.8407C201.435 26.6531 202.132 27.5816 202.608 28.6271L203.518 28.2129C202.98 27.0309 202.195 25.9894 201.17 25.0893L200.51 25.8407ZM202.608 28.6271C203.081 29.6683 203.317 30.8239 203.307 32.1019L204.307 32.1101C204.318 30.7009 204.058 29.3992 203.518 28.2129L202.608 28.6271ZM203.307 32.0831C203.303 32.161 203.279 32.2126 203.207 32.269L203.822 33.0573C204.118 32.8263 204.289 32.5065 204.306 32.1289L203.307 32.0831ZM203.178 32.2938C203.123 32.3435 203.062 32.3701 202.958 32.3653L202.912 33.3643C203.263 33.3804 203.588 33.2727 203.852 33.0326L203.178 32.2938ZM202.958 32.3653L198.63 32.1667L198.584 33.1656L202.912 33.3643L202.958 32.3653ZM198.63 32.1667C198.409 32.1565 198.299 32.0972 198.239 32.041L197.554 32.7696C197.835 33.0333 198.198 33.1479 198.584 33.1656L198.63 32.1667ZM198.239 32.041C198.171 31.9766 198.075 31.8261 198 31.5118L197.027 31.7421C197.123 32.1457 197.282 32.514 197.554 32.7696L198.239 32.041ZM198.004 31.5261C197.679 29.9486 197.048 28.7532 196.042 28.0544L195.472 28.8757C196.186 29.3717 196.727 30.2842 197.024 31.7278L198.004 31.5261ZM196.042 28.0544C195.087 27.391 193.902 27.0424 192.516 26.9788L192.47 27.9778C193.716 28.035 194.707 28.3443 195.472 28.8757L196.042 28.0544ZM192.516 26.9788C190.853 26.9025 189.457 27.2977 188.387 28.2193L189.04 28.977C189.871 28.2614 190.995 27.9101 192.47 27.9778L192.516 26.9788ZM188.387 28.2193C187.292 29.1623 186.71 30.7263 186.538 32.7778L187.534 32.8616C187.697 30.9215 188.234 29.6713 189.04 28.977L188.387 28.2193ZM186.538 32.7785C186.366 34.8626 186.268 37.0003 186.243 39.1915L187.243 39.2025C187.267 37.0339 187.364 34.9201 187.534 32.8609L186.538 32.7785ZM186.243 39.193C186.227 41.2517 186.663 42.8625 187.667 43.9018L188.387 43.207C187.647 42.4419 187.228 41.1477 187.243 39.2009L186.243 39.193ZM187.667 43.9018C188.648 44.9175 190.002 45.439 191.665 45.5153L191.711 44.5164C190.236 44.4486 189.148 43.9958 188.387 43.207L187.667 43.9018ZM191.665 45.5153C193.051 45.5789 194.263 45.3405 195.275 44.7674L194.782 43.8972C193.972 44.3563 192.957 44.5736 191.711 44.5164L191.665 45.5153ZM195.278 44.7656C196.366 44.139 197.105 43.01 197.548 41.4842L196.588 41.2052C196.188 42.5824 195.567 43.4452 194.779 43.8991L195.278 44.7656ZM197.544 41.4955C197.653 41.1521 197.759 41.0459 197.792 41.0244L197.249 40.1849C196.916 40.4002 196.72 40.7873 196.591 41.1938L197.544 41.4955ZM197.828 40.9988C197.892 40.9483 198.008 40.8993 198.229 40.9095L198.275 39.9105C197.889 39.8928 197.516 39.9736 197.213 40.2105L197.828 40.9988ZM198.229 40.9095L202.556 41.1081L202.602 40.1092L198.275 39.9105L198.229 40.9095ZM202.556 41.1081C202.661 41.1129 202.719 41.1451 202.769 41.1995L203.508 40.5256C203.268 40.2624 202.954 40.1253 202.602 40.1092L202.556 41.1081ZM202.796 41.2269C202.863 41.2897 202.882 41.3433 202.878 41.4212L203.877 41.4671C203.895 41.0895 203.754 40.7554 203.481 40.4983L202.796 41.2269ZM202.88 41.4024C202.773 42.676 202.432 43.8052 201.865 44.7986L202.734 45.2944C203.38 44.1626 203.758 42.8902 203.876 41.4859L202.88 41.4024ZM201.865 44.7986C201.296 45.7961 200.517 46.6568 199.521 47.3811L200.109 48.1898C201.213 47.3874 202.09 46.4222 202.734 45.2944L201.865 44.7986ZM199.521 47.3811C198.528 48.1033 197.357 48.6435 195.998 48.996L196.249 49.9639C197.714 49.5838 199.003 48.9943 200.109 48.1898L199.521 47.3811ZM195.998 48.996C194.642 49.3479 193.139 49.4891 191.486 49.4132L191.44 50.4122C193.178 50.4919 194.782 50.3447 196.249 49.9639L195.998 48.996ZM207.525 50.0034L207.156 50.3403L207.525 50.0034ZM208.721 23.9628L209.058 24.3322L209.058 24.3322L208.721 23.9628ZM214.111 24.2102L213.742 24.5472L213.742 24.5472L214.111 24.2102ZM213.948 33.5606L213.449 33.5377L213.388 34.8609L214.308 33.9078L213.948 33.5606ZM222.176 25.0369L222.535 25.3842L222.559 25.3601L222.579 25.3331L222.176 25.0369ZM222.69 24.6041L222.948 25.0325L222.958 25.0264L222.69 24.6041ZM228.84 24.8864L228.445 25.194L228.457 25.2091L228.47 25.2233L228.84 24.8864ZM228.87 25.8768L229.236 26.218L229.241 26.2124L229.246 26.2067L228.87 25.8768ZM218.588 36.8929L218.223 36.5517L217.936 36.8592L218.189 37.1946L218.588 36.8929ZM228.487 49.9766L228.088 50.2782L228.102 50.2966L228.117 50.3135L228.487 49.9766ZM228.364 50.998L228.701 51.3674L228.715 51.3545L228.728 51.3405L228.364 50.998ZM222.028 50.6311L221.679 50.9892L222.028 50.6311ZM221.591 50.1926L221.198 50.5016L221.21 50.516L221.222 50.5296L221.591 50.1926ZM213.648 40.0897L214.041 39.7807L213.211 38.7239L213.149 40.0668L213.648 40.0897ZM208.219 49.801C208.057 49.7935 207.964 49.7424 207.895 49.6664L207.156 50.3403C207.425 50.6349 207.779 50.7818 208.174 50.7999L208.219 49.801ZM207.895 49.6664C207.825 49.5904 207.783 49.4928 207.79 49.3308L206.792 49.285C206.773 49.6797 206.887 50.0458 207.156 50.3403L207.895 49.6664ZM207.79 49.3308L208.923 24.6568L207.924 24.6109L206.792 49.285L207.79 49.3308ZM208.923 24.6568C208.931 24.4948 208.982 24.4015 209.058 24.3322L208.384 23.5934C208.089 23.8621 207.942 24.2162 207.924 24.6109L208.923 24.6568ZM209.058 24.3322C209.134 24.2629 209.231 24.2205 209.393 24.2279L209.439 23.229C209.044 23.2108 208.678 23.3247 208.384 23.5934L209.058 24.3322ZM209.393 24.2279L213.417 24.4126L213.463 23.4137L209.439 23.229L209.393 24.2279ZM213.417 24.4126C213.579 24.4201 213.672 24.4712 213.742 24.5472L214.48 23.8733C214.212 23.5787 213.858 23.4318 213.463 23.4137L213.417 24.4126ZM213.742 24.5472C213.811 24.6232 213.853 24.7207 213.846 24.8828L214.845 24.9286C214.863 24.5339 214.749 24.1678 214.48 23.8733L213.742 24.5472ZM213.846 24.8828L213.449 33.5377L214.448 33.5835L214.845 24.9286L213.846 24.8828ZM214.308 33.9078L222.535 25.3842L221.816 24.6897L213.588 33.2133L214.308 33.9078ZM222.579 25.3331C222.633 25.2588 222.744 25.1551 222.948 25.0324L222.432 24.1758C222.166 24.3358 221.935 24.5207 221.773 24.7408L222.579 25.3331ZM222.958 25.0264C223.109 24.9306 223.332 24.8678 223.666 24.8831L223.712 23.8842C223.236 23.8623 222.794 23.9465 222.422 24.1817L222.958 25.0264ZM223.666 24.8831L228.259 25.094L228.305 24.095L223.712 23.8842L223.666 24.8831ZM228.259 25.094C228.337 25.0976 228.389 25.1217 228.445 25.194L229.234 24.5787C229.003 24.2828 228.683 24.1124 228.305 24.095L228.259 25.094ZM228.47 25.2233C228.532 25.2908 228.546 25.344 228.543 25.4053L229.542 25.4512C229.558 25.1076 229.437 24.7996 229.209 24.5494L228.47 25.2233ZM228.543 25.4053C228.54 25.4803 228.52 25.5184 228.495 25.5469L229.246 26.2067C229.435 25.9914 229.53 25.7305 229.542 25.4512L228.543 25.4053ZM228.505 25.5356L218.223 36.5517L218.954 37.2341L229.236 26.218L228.505 25.5356ZM218.189 37.1946L228.088 50.2782L228.885 49.6749L218.987 36.5912L218.189 37.1946ZM228.117 50.3135C228.107 50.3027 228.108 50.2965 228.111 50.3078C228.115 50.3216 228.121 50.355 228.118 50.4161L229.117 50.462C229.13 50.1826 229.073 49.878 228.856 49.6396L228.117 50.3135ZM228.118 50.4161C228.115 50.4814 228.091 50.5583 227.999 50.6556L228.728 51.3405C228.956 51.0974 229.101 50.8016 229.117 50.462L228.118 50.4161ZM228.027 50.6286C227.972 50.6783 227.911 50.7049 227.807 50.7002L227.761 51.6991C228.112 51.7152 228.437 51.6075 228.701 51.3674L228.027 50.6286ZM227.807 50.7002L223.062 50.4823L223.016 51.4813L227.761 51.6991L227.807 50.7002ZM223.062 50.4823C222.67 50.4643 222.473 50.3667 222.377 50.273L221.679 50.9892C222.02 51.3213 222.497 51.4575 223.016 51.4813L223.062 50.4823ZM222.377 50.273C222.157 50.0588 222.022 49.9225 221.961 49.8556L221.222 50.5296C221.306 50.6215 221.462 50.7775 221.679 50.9892L222.377 50.273ZM221.985 49.8836L214.041 39.7807L213.255 40.3988L221.198 50.5016L221.985 49.8836ZM213.149 40.0668L212.713 49.5568L213.712 49.6027L214.148 40.1127L213.149 40.0668ZM212.713 49.5568C212.706 49.7188 212.655 49.8121 212.579 49.8814L213.253 50.6202C213.547 50.3515 213.694 49.9974 213.712 49.6027L212.713 49.5568ZM212.579 49.8814C212.503 49.9507 212.405 49.9931 212.243 49.9857L212.197 50.9846C212.592 51.0028 212.958 50.8889 213.253 50.6202L212.579 49.8814ZM212.243 49.9857L208.219 49.801L208.174 50.7999L212.197 50.9846L212.243 49.9857ZM234.644 50.8298L234.422 51.2782L234.425 51.2795L234.644 50.8298ZM231.089 47.8897L231.505 47.6128L231.089 47.8897ZM229.927 44.1845L229.428 44.1616L229.427 44.1714L229.427 44.1812L229.927 44.1845ZM230.179 43.6636L230.516 44.033L230.531 44.02L230.544 44.006L230.179 43.6636ZM235.572 43.8731L235.229 44.2374L235.245 44.2525L235.263 44.2662L235.572 43.8731ZM236.042 44.3892L236.513 44.2202L236.491 44.1604L236.456 44.1078L236.042 44.3892ZM236.82 45.6802L236.44 46.0051L236.445 46.0112L236.451 46.0172L236.82 45.6802ZM238.405 46.7801L238.196 47.234L238.203 47.2373L238.21 47.2405L238.405 46.7801ZM244.65 46.6483L244.401 46.2145L244.395 46.2181L244.65 46.6483ZM245.392 42.9164L245.033 43.2644L245.038 43.2695L245.043 43.2745L245.392 42.9164ZM243.354 41.7197L243.167 42.1833L243.171 42.1849L243.354 41.7197ZM239.645 40.4843L239.785 40.004L239.772 40.0006L239.645 40.4843ZM234.858 38.7049L234.614 39.1415L234.624 39.1468L234.858 38.7049ZM231.974 36.0619L231.54 36.31L231.543 36.3162L231.547 36.3223L231.974 36.0619ZM232.6 28.2163L232.993 28.5261L232.996 28.5221L232.6 28.2163ZM236.258 25.6073L236.435 26.0748L236.442 26.0722L236.258 25.6073ZM246.181 25.7205L245.993 26.1839L245.996 26.185L246.181 25.7205ZM249.364 27.6545L249.022 28.0197L249.027 28.0245L249.364 27.6545ZM251.268 30.1004L250.818 30.3194L250.818 30.3194L251.268 30.1004ZM251.877 32.5629L252.377 32.5858L252.377 32.5778L252.377 32.5697L251.877 32.5629ZM251.623 33.1219L251.96 33.4912L251.975 33.4783L251.988 33.4643L251.623 33.1219ZM246.116 32.9451L246.36 32.5086L246.116 32.9451ZM245.647 32.391L245.155 32.481L245.166 32.5395L245.19 32.5939L245.647 32.391ZM244.359 30.6201L244.056 31.0182L244.064 31.0241L244.072 31.0298L244.359 30.6201ZM238.516 30.2758L238.272 29.8393L238.265 29.8432L238.516 30.2758ZM237.817 33.8956L237.417 34.1954L237.427 34.2082L237.437 34.2204L237.817 33.8956ZM239.627 35.0818L239.427 35.5401L239.435 35.5436L239.443 35.5468L239.627 35.0818ZM243.072 36.267L242.923 36.7442L242.936 36.7484L242.95 36.7518L243.072 36.267ZM248.426 38.1485L248.653 37.7033L248.426 38.1485ZM251.387 40.757L250.956 41.01L250.959 41.015L251.387 40.757ZM250.559 48.8596L250.181 48.5315L250.177 48.5365L250.559 48.8596ZM246.52 51.4891L246.678 51.9636L246.682 51.9622L246.52 51.4891ZM240.729 51.6738C238.345 51.5643 236.396 51.1259 234.862 50.3802L234.425 51.2795C236.116 52.1019 238.209 52.5591 240.683 52.6727L240.729 51.6738ZM234.865 50.3814C233.337 49.6278 232.228 48.7003 231.505 47.6128L230.672 48.1666C231.515 49.4334 232.776 50.466 234.422 51.2782L234.865 50.3814ZM231.505 47.6128C230.772 46.5106 230.419 45.3719 230.427 44.1879L229.427 44.1812C229.418 45.5831 229.84 46.9146 230.672 48.1666L231.505 47.6128ZM230.427 44.2075C230.43 44.1462 230.449 44.0945 230.516 44.033L229.842 43.2942C229.592 43.5224 229.444 43.818 229.428 44.1616L230.427 44.2075ZM230.544 44.006C230.607 43.9392 230.66 43.9199 230.738 43.9235L230.784 42.9245C230.406 42.9072 230.072 43.0476 229.815 43.3211L230.544 44.006ZM230.738 43.9235L234.8 44.1099L234.846 43.111L230.784 42.9245L230.738 43.9235ZM234.8 44.1099C235.058 44.1218 235.176 44.1871 235.229 44.2374L235.914 43.5087C235.627 43.239 235.246 43.1293 234.846 43.111L234.8 44.1099ZM235.263 44.2662C235.388 44.3645 235.511 44.4968 235.629 44.6705L236.456 44.1078C236.289 43.8628 236.098 43.651 235.88 43.4799L235.263 44.2662ZM235.572 44.5582C235.753 45.0634 236.047 45.5454 236.44 46.0051L237.2 45.3553C236.871 44.9704 236.646 44.5917 236.513 44.2202L235.572 44.5582ZM236.451 46.0172C236.893 46.5019 237.481 46.904 238.196 47.234L238.615 46.3262C237.988 46.0366 237.52 45.7055 237.189 45.3432L236.451 46.0172ZM238.21 47.2405C238.953 47.5551 239.858 47.7277 240.908 47.7759L240.954 46.7769C239.98 46.7322 239.201 46.5739 238.6 46.3196L238.21 47.2405ZM240.908 47.7759C242.59 47.8531 243.946 47.6462 244.905 47.0785L244.395 46.2181C243.685 46.6389 242.562 46.8508 240.954 46.7769L240.908 47.7759ZM244.899 47.082C245.891 46.5126 246.451 45.6637 246.501 44.565L245.502 44.5191C245.469 45.2425 245.128 45.7978 244.401 46.2146L244.899 47.082ZM246.501 44.565C246.537 43.7771 246.289 43.0924 245.741 42.5583L245.043 43.2745C245.369 43.592 245.527 43.9911 245.502 44.5191L246.501 44.565ZM245.751 42.5684C245.266 42.0683 244.51 41.6376 243.538 41.2545L243.171 42.1849C244.092 42.5481 244.694 42.9151 245.033 43.2644L245.751 42.5684ZM243.542 41.2561C242.598 40.8752 241.344 40.458 239.785 40.0042L239.505 40.9644C241.05 41.4138 242.268 41.8203 243.167 42.1833L243.542 41.2561ZM239.772 40.0006C237.919 39.5155 236.361 38.9346 235.092 38.2629L234.624 39.1468C235.979 39.8636 237.613 40.469 239.519 40.968L239.772 40.0006ZM235.102 38.2684C233.876 37.5834 232.984 36.7579 232.401 35.8014L231.547 36.3223C232.237 37.453 233.268 38.3896 234.614 39.1414L235.102 38.2684ZM232.408 35.8137C231.855 34.8458 231.596 33.6515 231.662 32.2055L230.664 32.1597C230.59 33.7504 230.872 35.1424 231.54 36.31L232.408 35.8137ZM231.662 32.2055C231.728 30.7849 232.173 29.5647 232.993 28.5261L232.208 27.9066C231.251 29.1195 230.738 30.5434 230.664 32.1597L231.662 32.2055ZM232.996 28.5221C233.822 27.4537 234.961 26.6349 236.435 26.0747L236.08 25.1399C234.458 25.7563 233.158 26.6768 232.205 27.9106L232.996 28.5221ZM236.442 26.0722C237.911 25.4905 239.663 25.2371 241.71 25.3311L241.756 24.3321C239.603 24.2333 237.704 24.4969 236.074 25.1424L236.442 26.0722ZM241.71 25.3311C243.362 25.4069 244.787 25.6948 245.993 26.1839L246.369 25.2571C245.036 24.7167 243.495 24.4119 241.756 24.3321L241.71 25.3311ZM245.996 26.185C247.246 26.683 248.25 27.2974 249.022 28.0196L249.705 27.2893C248.824 26.4648 247.706 25.7898 246.366 25.256L245.996 26.185ZM249.027 28.0245C249.842 28.765 250.434 29.531 250.818 30.3194L251.717 29.8813C251.267 28.9577 250.59 28.093 249.7 27.2845L249.027 28.0245ZM250.818 30.3194C251.208 31.1198 251.387 31.8635 251.377 32.5561L252.377 32.5697C252.389 31.691 252.161 30.7929 251.717 29.8813L250.818 30.3194ZM251.378 32.54C251.375 32.6053 251.351 32.6821 251.259 32.7794L251.988 33.4643C252.216 33.2212 252.361 32.9255 252.377 32.5858L251.378 32.54ZM251.286 32.7525C251.232 32.8021 251.171 32.8288 251.067 32.824L251.021 33.8229C251.372 33.8391 251.697 33.7313 251.96 33.4912L251.286 32.7525ZM251.067 32.824L246.815 32.6288L246.769 33.6278L251.021 33.8229L251.067 32.824ZM246.815 32.6288C246.63 32.6203 246.482 32.577 246.36 32.5086L245.872 33.3816C246.145 33.5342 246.448 33.613 246.769 33.6278L246.815 32.6288ZM246.36 32.5086C246.278 32.4628 246.186 32.3732 246.104 32.1881L245.19 32.5939C245.337 32.9265 245.558 33.2063 245.872 33.3816L246.36 32.5086ZM246.139 32.301C245.986 31.4683 245.453 30.7757 244.645 30.2104L244.072 31.0298C244.738 31.4958 245.064 31.9838 245.155 32.481L246.139 32.301ZM244.661 30.2219C243.847 29.6033 242.789 29.2867 241.531 29.229L241.485 30.2279C242.607 30.2794 243.449 30.5572 244.056 31.0182L244.661 30.2219ZM241.531 29.229C240.237 29.1695 239.136 29.3563 238.272 29.8393L238.76 30.7122C239.405 30.3516 240.3 30.1735 241.485 30.2279L241.531 29.229ZM238.265 29.8432C237.37 30.3623 236.908 31.208 236.858 32.2919L237.857 32.3377C237.893 31.5489 238.203 31.0353 238.767 30.7083L238.265 29.8432ZM236.858 32.2919C236.825 33.0039 237.007 33.6475 237.417 34.1954L238.218 33.5957C237.959 33.2506 237.834 32.8404 237.857 32.3377L236.858 32.2919ZM237.437 34.2204C237.87 34.7263 238.553 35.1589 239.427 35.5401L239.827 34.6234C239.011 34.2677 238.487 33.9095 238.198 33.5707L237.437 34.2204ZM239.443 35.5468C240.331 35.8974 241.492 36.2966 242.923 36.7442L243.222 35.7898C241.802 35.3458 240.667 34.9548 239.811 34.6167L239.443 35.5468ZM242.95 36.7518C245.135 37.3043 246.88 37.9203 248.198 38.5937L248.653 37.7033C247.245 36.9836 245.421 36.3452 243.195 35.7823L242.95 36.7518ZM248.198 38.5937C249.498 39.2584 250.404 40.0691 250.956 41.01L251.818 40.5041C251.147 39.3601 250.078 38.4317 248.653 37.7033L248.198 38.5937ZM250.959 41.015C251.508 41.9268 251.768 43.0902 251.702 44.5375L252.701 44.5833C252.774 42.9938 252.492 41.6216 251.815 40.4991L250.959 41.015ZM251.702 44.5375C251.629 46.1318 251.118 47.4542 250.181 48.5316L250.936 49.1876C252.034 47.9238 252.618 46.3801 252.701 44.5833L251.702 44.5375ZM250.177 48.5365C249.253 49.6283 247.988 50.4589 246.358 51.016L246.682 51.9622C248.453 51.3568 249.88 50.4344 250.94 49.1827L250.177 48.5365ZM246.362 51.0147C244.759 51.5483 242.884 51.7727 240.729 51.6738L240.683 52.6727C242.932 52.7759 244.933 52.5442 246.678 51.9635L246.362 51.0147Z" fill="#50470C"/>
</g>
</g>
<g id="frame-com">
<g id=".com" filter="url(#filter2_d_2390_97)">
<path d="M256.465 53.7448C256.319 53.7434 256.199 53.6957 256.107 53.6015C256.014 53.5073 255.969 53.3868 255.97 53.2402L255.991 51.0003C255.992 50.8536 256.04 50.734 256.134 50.6416C256.229 50.5491 256.349 50.5036 256.496 50.5049L258.736 50.5258C258.882 50.5272 259.002 50.575 259.094 50.6692C259.187 50.7634 259.232 50.8838 259.231 51.0305L259.21 53.2704C259.209 53.417 259.161 53.5366 259.067 53.629C258.972 53.7215 258.852 53.767 258.705 53.7657L256.465 53.7448ZM266.113 54.0347C265.14 54.0256 264.282 53.8376 263.538 53.4707C262.809 53.1039 262.233 52.5785 261.813 51.8946C261.393 51.1973 261.167 50.3685 261.136 49.4081C261.125 49.1947 261.121 48.928 261.124 48.608C261.127 48.2747 261.136 48.0014 261.151 47.7882C261.2 46.8153 261.435 45.9908 261.854 45.3146C262.288 44.6253 262.879 44.1041 263.629 43.7511C264.379 43.3981 265.241 43.2261 266.214 43.2352C267.107 43.2435 267.866 43.3772 268.49 43.6364C269.115 43.8822 269.625 44.1937 270.022 44.5707C270.418 44.9478 270.708 45.3438 270.891 45.7589C271.087 46.1607 271.19 46.515 271.201 46.8218C271.213 46.9553 271.165 47.0748 271.057 47.1805C270.963 47.2729 270.849 47.3186 270.716 47.3173L268.576 47.2974C268.443 47.2961 268.337 47.2618 268.257 47.1944C268.191 47.1138 268.126 47.0065 268.06 46.8725C267.878 46.4042 267.641 46.0686 267.349 45.8659C267.058 45.6632 266.692 45.5597 266.252 45.5556C265.652 45.55 265.177 45.739 264.827 46.1224C264.477 46.5058 264.284 47.104 264.25 47.9171C264.232 48.4369 264.228 48.9103 264.237 49.337C264.269 50.164 264.45 50.7657 264.78 51.1422C265.123 51.5187 265.595 51.7098 266.195 51.7154C266.662 51.7197 267.036 51.6232 267.318 51.4258C267.6 51.2284 267.836 50.8973 268.027 50.4324C268.082 50.2996 268.149 50.2002 268.23 50.1343C268.311 50.055 268.418 50.016 268.551 50.0173L270.691 50.0372C270.824 50.0384 270.937 50.0928 271.029 50.2004C271.135 50.2947 271.181 50.4084 271.166 50.5416C271.151 50.7682 271.082 51.0342 270.959 51.3397C270.849 51.6454 270.666 51.957 270.41 52.2747C270.167 52.5924 269.851 52.8895 269.462 53.1659C269.072 53.4289 268.597 53.6445 268.035 53.8126C267.487 53.9675 266.847 54.0415 266.113 54.0347ZM277.854 54.1441C276.748 54.1338 275.823 53.9452 275.08 53.5782C274.336 53.198 273.768 52.666 273.374 51.9823C272.994 51.2987 272.788 50.5034 272.757 49.5964C272.746 49.3296 272.742 49.0296 272.745 48.6963C272.748 48.3496 272.758 48.0497 272.773 47.7965C272.822 46.8769 273.056 46.0857 273.475 45.4229C273.895 44.7468 274.48 44.2322 275.23 43.8792C275.98 43.5129 276.888 43.3346 277.955 43.3446C279.008 43.3544 279.907 43.5494 280.65 43.9297C281.393 44.2967 281.968 44.822 282.375 45.5059C282.782 46.1764 283.001 46.9718 283.033 47.8921C283.057 48.1457 283.068 48.4458 283.064 48.7924C283.061 49.1258 283.045 49.4256 283.016 49.692C282.968 50.5983 282.74 51.3895 282.334 52.0658C281.941 52.7421 281.369 53.2635 280.619 53.6299C279.869 53.9829 278.948 54.1543 277.854 54.1441ZM277.875 51.9442C278.528 51.9503 279.023 51.7549 279.36 51.358C279.698 50.9478 279.883 50.3495 279.917 49.5631C279.932 49.3633 279.942 49.0967 279.945 48.7634C279.948 48.43 279.944 48.1633 279.932 47.9632C279.913 47.1897 279.738 46.5947 279.409 46.1783C279.079 45.7618 278.588 45.5506 277.935 45.5445C277.281 45.5384 276.779 45.7404 276.429 46.1505C276.092 46.5607 275.906 47.1523 275.872 47.9254C275.857 48.1252 275.848 48.3918 275.845 48.7252C275.842 49.0585 275.846 49.3252 275.857 49.5253C275.877 50.3122 276.051 50.9138 276.381 51.3303C276.723 51.7335 277.222 51.9381 277.875 51.9442ZM285.588 54.0162C285.454 54.0149 285.341 53.9672 285.249 53.873C285.156 53.7788 285.111 53.6584 285.112 53.5117L285.2 44.1121C285.201 43.9655 285.249 43.8459 285.343 43.7534C285.437 43.661 285.551 43.6154 285.685 43.6166L287.544 43.634C287.678 43.6352 287.791 43.6829 287.883 43.7771C287.989 43.8714 288.041 43.9919 288.04 44.1386L288.033 44.8186C288.304 44.4477 288.673 44.1312 289.142 43.8688C289.625 43.6067 290.193 43.472 290.846 43.4647C292.393 43.4525 293.448 44.049 294.01 45.2543C294.321 44.7371 294.765 44.3213 295.341 44.0066C295.931 43.6788 296.573 43.5181 297.266 43.5245C297.959 43.531 298.584 43.6968 299.141 44.022C299.698 44.3339 300.134 44.818 300.448 45.4743C300.775 46.1173 300.934 46.9455 300.925 47.9588L300.872 53.6586C300.87 53.8052 300.822 53.9248 300.728 54.0172C300.634 54.1097 300.52 54.1553 300.387 54.1541L298.407 54.1356C298.274 54.1344 298.161 54.0867 298.068 53.9925C297.976 53.8983 297.93 53.7778 297.932 53.6312L297.983 48.0914C297.988 47.5448 297.912 47.1174 297.755 46.8092C297.598 46.4878 297.387 46.2591 297.122 46.1233C296.87 45.9876 296.584 45.9183 296.264 45.9153C295.984 45.9127 295.71 45.9768 295.442 46.1076C295.187 46.2386 294.972 46.4633 294.795 46.7817C294.633 47.0868 294.549 47.5127 294.544 48.0594L294.492 53.5991C294.491 53.7458 294.443 53.8653 294.349 53.9578C294.254 54.0503 294.134 54.0958 293.987 54.0944L292.027 54.0762C291.881 54.0748 291.761 54.027 291.669 53.9328C291.576 53.8386 291.531 53.7182 291.532 53.5715L291.584 48.0318C291.589 47.4851 291.513 47.0577 291.356 46.7496C291.199 46.4281 290.987 46.1995 290.722 46.0637C290.47 45.928 290.191 45.8587 289.884 45.8558C289.604 45.8532 289.33 45.924 289.062 46.0682C288.794 46.199 288.572 46.417 288.396 46.722C288.233 47.0272 288.149 47.4464 288.144 47.9797L288.092 53.5395C288.091 53.6861 288.043 53.8057 287.949 53.8982C287.855 53.9906 287.741 54.0362 287.608 54.035L285.588 54.0162Z" fill="white"/>
<path d="M256.107 53.6015L255.75 53.9517L256.107 53.6015ZM256.134 50.6416L255.784 50.2848L256.134 50.6416ZM256.47 53.2448C256.46 53.2447 256.454 53.2439 256.451 53.2434C256.449 53.2429 256.449 53.2428 256.451 53.2436C256.454 53.2446 256.457 53.246 256.459 53.248C256.462 53.2498 256.464 53.2512 256.464 53.2512L255.75 53.9517C255.946 54.1515 256.198 54.2423 256.461 54.2448L256.47 53.2448ZM256.464 53.2512C256.464 53.2512 256.465 53.2526 256.467 53.2555C256.469 53.2584 256.47 53.2613 256.471 53.2636C256.472 53.2659 256.472 53.2662 256.471 53.2636C256.471 53.261 256.47 53.255 256.47 53.2448L255.47 53.2355C255.468 53.4986 255.554 53.7519 255.75 53.9517L256.464 53.2512ZM256.47 53.2448L256.491 51.0049L255.491 50.9956L255.47 53.2355L256.47 53.2448ZM256.491 51.0049C256.491 50.9948 256.492 50.9887 256.492 50.9861C256.493 50.9836 256.493 50.9839 256.492 50.9862C256.491 50.9885 256.49 50.9914 256.488 50.9942C256.486 50.997 256.485 50.9984 256.485 50.9984L255.784 50.2848C255.584 50.4808 255.493 50.7325 255.491 50.9956L256.491 51.0049ZM256.485 50.9984C256.485 50.9984 256.483 50.9998 256.48 51.0016C256.477 51.0035 256.475 51.0049 256.472 51.0057C256.47 51.0066 256.47 51.0064 256.472 51.006C256.475 51.0056 256.481 51.0048 256.491 51.0049L256.5 50.005C256.237 50.0025 255.984 50.0887 255.784 50.2848L256.485 50.9984ZM256.491 51.0049L258.731 51.0258L258.74 50.0258L256.5 50.005L256.491 51.0049ZM258.731 51.0258C258.741 51.0259 258.747 51.0267 258.75 51.0272C258.752 51.0277 258.752 51.0279 258.75 51.027C258.747 51.026 258.744 51.0246 258.742 51.0227C258.739 51.0208 258.737 51.0194 258.737 51.0194L259.451 50.3189C259.255 50.1191 259.003 50.0283 258.74 50.0258L258.731 51.0258ZM258.737 51.0194C258.737 51.0194 258.736 51.018 258.734 51.0152C258.732 51.0123 258.731 51.0093 258.73 51.007C258.729 51.0047 258.729 51.0045 258.73 51.007C258.73 51.0096 258.731 51.0156 258.731 51.0258L259.731 51.0351C259.733 50.772 259.647 50.5187 259.451 50.3189L258.737 51.0194ZM258.731 51.0258L258.71 53.2657L259.71 53.275L259.731 51.0351L258.731 51.0258ZM258.71 53.2657C258.71 53.2758 258.709 53.2819 258.709 53.2845C258.708 53.287 258.708 53.2867 258.709 53.2845C258.71 53.2821 258.711 53.2793 258.713 53.2764C258.715 53.2736 258.716 53.2722 258.716 53.2722L259.417 53.9859C259.617 53.7898 259.708 53.5381 259.71 53.275L258.71 53.2657ZM258.716 53.2722C258.716 53.2722 258.718 53.2709 258.721 53.269C258.724 53.2672 258.726 53.2658 258.729 53.2649C258.731 53.264 258.731 53.2642 258.729 53.2646C258.726 53.265 258.72 53.2658 258.71 53.2657L258.701 54.2657C258.964 54.2681 259.217 54.1819 259.417 53.9859L258.716 53.2722ZM258.71 53.2657L256.47 53.2448L256.461 54.2448L258.701 54.2657L258.71 53.2657ZM263.538 53.4707L263.314 53.9175L263.317 53.919L263.538 53.4707ZM261.813 51.8946L261.385 52.1526L261.387 52.1563L261.813 51.8946ZM261.136 49.4081L261.636 49.392L261.636 49.3816L261.136 49.4081ZM261.151 47.7882L261.65 47.8241L261.651 47.8134L261.151 47.7882ZM261.854 45.3146L261.431 45.0486L261.43 45.051L261.854 45.3146ZM263.629 43.7511L263.416 43.2987L263.629 43.7511ZM268.49 43.6364L268.299 44.0983L268.307 44.1016L268.49 43.6364ZM270.022 44.5707L270.366 44.2084L270.022 44.5707ZM270.891 45.7589L270.433 45.9604L270.437 45.9694L270.441 45.9783L270.891 45.7589ZM271.201 46.8218L270.701 46.8389L270.702 46.8529L270.703 46.8669L271.201 46.8218ZM271.057 47.1805L271.408 47.5373L271.408 47.5373L271.057 47.1805ZM268.257 47.1944L267.87 47.5109L267.899 47.5461L267.934 47.5755L268.257 47.1944ZM268.06 46.8725L267.594 47.0539L267.602 47.0733L267.611 47.092L268.06 46.8725ZM267.349 45.8659L267.635 45.4554L267.635 45.4554L267.349 45.8659ZM264.827 46.1224L265.196 46.4596L264.827 46.1224ZM264.25 47.9171L263.751 47.896L263.751 47.8996L264.25 47.9171ZM264.237 49.337L263.737 49.348L263.737 49.3565L264.237 49.337ZM264.78 51.1422L264.404 51.4717L264.411 51.479L264.78 51.1422ZM267.318 51.4258L267.031 51.0163L267.318 51.4258ZM268.027 50.4324L267.564 50.2424L268.027 50.4324ZM268.23 50.1343L268.546 50.5213L268.564 50.507L268.58 50.4911L268.23 50.1343ZM271.029 50.2004L270.65 50.5261L270.672 50.5514L270.697 50.5736L271.029 50.2004ZM271.166 50.5416L270.669 50.4873L270.668 50.4974L270.667 50.5076L271.166 50.5416ZM270.959 51.3397L270.495 51.1532L270.491 51.1621L270.488 51.1711L270.959 51.3397ZM270.41 52.2747L270.021 51.9606L270.013 51.971L270.41 52.2747ZM269.462 53.1659L269.742 53.5802L269.751 53.5736L269.462 53.1659ZM268.035 53.8126L268.171 54.2938L268.179 54.2916L268.035 53.8126ZM266.118 53.5347C265.207 53.5262 264.425 53.3507 263.76 53.0224L263.317 53.919C264.139 54.3246 265.073 54.525 266.109 54.5347L266.118 53.5347ZM263.763 53.0239C263.115 52.6981 262.61 52.2361 262.239 51.6328L261.387 52.1563C261.857 52.9209 262.503 53.5097 263.314 53.9175L263.763 53.0239ZM262.241 51.6365C261.873 51.0246 261.665 50.2823 261.636 49.392L260.636 49.4243C260.67 50.4546 260.913 51.37 261.385 52.1526L262.241 51.6365ZM261.636 49.3816C261.625 49.1823 261.621 48.9268 261.624 48.6126L260.624 48.6033C260.621 48.9292 260.625 49.2071 260.637 49.4347L261.636 49.3816ZM261.624 48.6126C261.627 48.2847 261.636 48.0228 261.65 47.824L260.653 47.7524C260.636 47.98 260.627 48.2647 260.624 48.6033L261.624 48.6126ZM261.651 47.8134C261.696 46.9062 261.913 46.1681 262.279 45.5783L261.43 45.051C260.956 45.8134 260.704 46.7244 260.652 47.763L261.651 47.8134ZM262.278 45.5807C262.659 44.9738 263.177 44.5166 263.842 44.2035L263.416 43.2987C262.581 43.6917 261.916 44.2768 261.431 45.0486L262.278 45.5807ZM263.842 44.2035C264.513 43.8876 265.298 43.7267 266.209 43.7352L266.219 42.7352C265.183 42.7256 264.245 42.9086 263.416 43.2987L263.842 44.2035ZM266.209 43.7352C267.058 43.7431 267.749 43.8702 268.299 44.0982L268.682 43.1746C267.983 42.8843 267.157 42.7439 266.219 42.7352L266.209 43.7352ZM268.307 44.1016C268.885 44.3291 269.337 44.6092 269.677 44.9331L270.366 44.2084C269.914 43.7782 269.345 43.4354 268.673 43.1712L268.307 44.1016ZM269.677 44.9331C270.035 45.2737 270.282 45.617 270.433 45.9604L271.348 45.5573C271.134 45.0706 270.801 44.6218 270.366 44.2084L269.677 44.9331ZM270.441 45.9783C270.62 46.3435 270.694 46.6268 270.701 46.8389L271.7 46.8047C271.687 46.4032 271.554 45.9779 271.34 45.5394L270.441 45.9783ZM270.703 46.8669C270.703 46.8638 270.702 46.8577 270.704 46.8494C270.705 46.8411 270.707 46.833 270.71 46.826C270.716 46.8113 270.72 46.8111 270.707 46.8237L271.408 47.5373C271.607 47.3415 271.726 47.0795 271.699 46.7767L270.703 46.8669ZM270.707 46.8236C270.705 46.8258 270.705 46.8257 270.707 46.8245C270.708 46.8232 270.712 46.8215 270.715 46.8199C270.719 46.8184 270.722 46.8176 270.724 46.8173C270.726 46.817 270.725 46.8174 270.721 46.8173L270.711 47.8173C270.976 47.8198 271.218 47.7237 271.408 47.5373L270.707 46.8236ZM270.721 46.8173L268.581 46.7974L268.572 47.7973L270.711 47.8173L270.721 46.8173ZM268.581 46.7974C268.555 46.7972 268.547 46.7938 268.55 46.7949C268.552 46.7954 268.556 46.797 268.562 46.8002C268.568 46.8035 268.574 46.8079 268.581 46.8133L267.934 47.5755C268.125 47.7378 268.355 47.7953 268.572 47.7973L268.581 46.7974ZM268.644 46.8779C268.611 46.8369 268.565 46.7659 268.509 46.6531L267.611 47.092C267.687 47.247 267.772 47.3907 267.87 47.5109L268.644 46.8779ZM268.526 46.6912C268.322 46.1671 268.035 45.7339 267.635 45.4554L267.064 46.2763C267.246 46.4033 267.434 46.6412 267.594 47.0539L268.526 46.6912ZM267.635 45.4554C267.243 45.1829 266.773 45.0605 266.257 45.0557L266.248 46.0556C266.611 46.059 266.873 46.1434 267.064 46.2763L267.635 45.4554ZM266.257 45.0557C265.539 45.049 264.919 45.2801 264.458 45.7852L265.196 46.4596C265.435 46.1978 265.765 46.0511 266.248 46.0556L266.257 45.0557ZM264.458 45.7852C263.994 46.2927 263.787 47.0286 263.751 47.896L264.75 47.9381C264.782 47.1795 264.959 46.7189 265.196 46.4596L264.458 45.7852ZM263.751 47.8996C263.732 48.427 263.728 48.91 263.737 49.348L264.737 49.3261C264.728 48.9105 264.732 48.4469 264.75 47.9346L263.751 47.8996ZM263.737 49.3565C263.771 50.229 263.963 50.9686 264.404 51.4717L265.156 50.8126C264.937 50.5629 264.767 50.099 264.737 49.3175L263.737 49.3565ZM264.411 51.479C264.864 51.9766 265.478 52.2087 266.19 52.2153L266.2 51.2154C265.712 51.2108 265.383 51.0608 265.15 50.8054L264.411 51.479ZM266.19 52.2153C266.725 52.2203 267.212 52.1105 267.605 51.8354L267.031 51.0163C266.86 51.1359 266.598 51.2191 266.2 51.2154L266.19 52.2153ZM267.605 51.8354C267.993 51.5633 268.278 51.1373 268.489 50.6224L267.564 50.2424C267.394 50.6573 267.206 50.8935 267.031 51.0163L267.605 51.8354ZM268.489 50.6224C268.524 50.5387 268.55 50.5186 268.546 50.5213L267.913 49.7472C267.749 49.8818 267.639 50.0604 267.564 50.2424L268.489 50.6224ZM268.58 50.4911C268.575 50.4958 268.569 50.5008 268.562 50.5055C268.554 50.5101 268.547 50.5133 268.542 50.5154C268.53 50.5196 268.529 50.5171 268.546 50.5172L268.556 49.5173C268.315 49.515 268.072 49.5888 267.88 49.7774L268.58 50.4911ZM268.546 50.5172L270.686 50.5372L270.695 49.5372L268.556 49.5173L268.546 50.5172ZM270.686 50.5372C270.686 50.5372 270.682 50.5371 270.677 50.5358C270.671 50.5345 270.664 50.5323 270.658 50.5293C270.645 50.5229 270.643 50.5177 270.65 50.5261L271.409 49.8746C271.229 49.6655 270.983 49.5399 270.695 49.5372L270.686 50.5372ZM270.697 50.5736C270.701 50.5774 270.689 50.5677 270.679 50.5425C270.668 50.5162 270.668 50.4945 270.669 50.4873L271.663 50.596C271.696 50.2915 271.58 50.0217 271.362 49.8271L270.697 50.5736ZM270.667 50.5076C270.657 50.664 270.606 50.8765 270.495 51.1532L271.423 51.5263C271.557 51.1919 271.645 50.8723 271.665 50.5757L270.667 50.5076ZM270.488 51.1711C270.401 51.4125 270.251 51.6759 270.021 51.9607L270.799 52.5887C271.082 52.2382 271.297 51.8783 271.429 51.5084L270.488 51.1711ZM270.013 51.971C269.805 52.242 269.528 52.5054 269.172 52.7582L269.751 53.5736C270.174 53.2736 270.528 52.9428 270.807 52.5784L270.013 51.971ZM269.182 52.7516C268.843 52.9803 268.417 53.1766 267.892 53.3336L268.179 54.2916C268.778 54.1124 269.302 53.8776 269.742 53.5801L269.182 52.7516ZM267.9 53.3315C267.408 53.4703 266.817 53.5412 266.118 53.5347L266.109 54.5347C266.877 54.5418 267.567 54.4647 268.171 54.2938L267.9 53.3315ZM275.08 53.5782L274.852 54.0234L274.858 54.0266L275.08 53.5782ZM273.374 51.9823L272.937 52.2254L272.941 52.2318L273.374 51.9823ZM272.757 49.5964L273.256 49.579L273.256 49.5761L272.757 49.5964ZM272.773 47.7965L273.272 47.8274L273.273 47.8229L272.773 47.7965ZM273.475 45.4229L273.898 45.6904L273.9 45.6866L273.475 45.4229ZM275.23 43.8792L275.443 44.3317L275.449 44.3285L275.23 43.8792ZM280.65 43.9297L280.422 44.3749L280.428 44.3781L280.65 43.9297ZM282.375 45.5059L281.945 45.7616L281.948 45.7654L282.375 45.5059ZM283.033 47.8921L282.533 47.9092L282.534 47.9245L282.535 47.9398L283.033 47.8921ZM283.016 49.692L282.519 49.6376L282.518 49.6515L282.517 49.6653L283.016 49.692ZM282.334 52.0658L281.905 51.8082L281.902 51.8146L282.334 52.0658ZM280.619 53.6299L280.832 54.0823L280.839 54.0791L280.619 53.6299ZM279.36 51.358L279.742 51.6817L279.747 51.6755L279.36 51.358ZM279.917 49.5631L279.419 49.5252L279.418 49.5334L279.418 49.5415L279.917 49.5631ZM279.932 47.9632L279.432 47.9758L279.432 47.9838L279.433 47.9918L279.932 47.9632ZM279.409 46.1783L279.801 45.868L279.409 46.1783ZM276.429 46.1505L276.049 45.8256L276.043 45.833L276.429 46.1505ZM275.872 47.9254L276.371 47.9633L276.371 47.9553L276.372 47.9473L275.872 47.9254ZM275.857 49.5253L276.357 49.513L276.357 49.5049L276.357 49.4967L275.857 49.5253ZM276.381 51.3303L275.988 51.6405L275.994 51.6474L276 51.6542L276.381 51.3303ZM277.859 53.6441C276.804 53.6343 275.958 53.4543 275.301 53.1299L274.858 54.0266C275.688 54.436 276.692 54.6333 277.85 54.6441L277.859 53.6441ZM275.307 53.1331C274.645 52.7942 274.15 52.3278 273.808 51.7328L272.941 52.2318C273.386 53.0041 274.028 53.6018 274.852 54.0233L275.307 53.1331ZM273.811 51.7392C273.475 51.1351 273.285 50.4196 273.256 49.579L272.257 49.6138C272.291 50.5872 272.513 51.4623 272.937 52.2254L273.811 51.7392ZM273.256 49.5761C273.246 49.3194 273.242 49.0279 273.245 48.7009L272.245 48.6916C272.242 49.0313 272.246 49.3399 272.257 49.6167L273.256 49.5761ZM273.245 48.7009C273.248 48.3601 273.257 48.0694 273.272 47.8274L272.274 47.7656C272.258 48.03 272.248 48.3391 272.245 48.6916L273.245 48.7009ZM273.273 47.8229C273.317 46.9739 273.532 46.269 273.898 45.6904L273.053 45.1555C272.58 45.9024 272.326 46.7799 272.274 47.7701L273.273 47.8229ZM273.9 45.6866C274.267 45.0961 274.776 44.6453 275.443 44.3316L275.017 43.4268C274.183 43.8192 273.523 44.3976 273.051 45.1593L273.9 45.6866ZM275.449 44.3285C276.113 44.0043 276.94 43.8352 277.95 43.8446L277.96 42.8446C276.836 42.8341 275.847 43.0214 275.01 43.4299L275.449 44.3285ZM277.95 43.8446C278.946 43.8538 279.764 44.0379 280.422 44.3748L280.877 43.4846C280.049 43.0609 279.071 42.855 277.96 42.8446L277.95 43.8446ZM280.428 44.3781C281.089 44.7041 281.59 45.1643 281.945 45.7616L282.805 45.2501C282.346 44.4798 281.697 43.8892 280.871 43.4814L280.428 44.3781ZM281.948 45.7654C282.303 46.3507 282.504 47.0595 282.533 47.9092L283.533 47.875C283.499 46.884 283.261 46.002 282.802 45.2464L281.948 45.7654ZM282.535 47.9398C282.557 48.171 282.568 48.4528 282.564 48.7878L283.564 48.7971C283.568 48.4387 283.557 48.1203 283.531 47.8444L282.535 47.9398ZM282.564 48.7878C282.562 49.1083 282.546 49.3911 282.519 49.6376L283.513 49.7464C283.544 49.4601 283.561 49.1432 283.564 48.7971L282.564 48.7878ZM282.517 49.6653C282.472 50.5024 282.264 51.2119 281.905 51.8083L282.763 52.3233C283.217 51.5671 283.463 50.6942 283.515 49.7187L282.517 49.6653ZM281.902 51.8146C281.562 52.3994 281.067 52.8546 280.4 53.1806L280.839 54.0791C281.672 53.6724 282.32 53.0848 282.766 52.317L281.902 51.8146ZM280.406 53.1775C279.742 53.49 278.9 53.6538 277.859 53.6441L277.85 54.6441C278.995 54.6548 279.996 54.4758 280.832 54.0822L280.406 53.1775ZM277.87 52.4442C278.631 52.4513 279.285 52.2197 279.742 51.6817L278.979 51.0344C278.762 51.2902 278.426 51.4493 277.88 51.4442L277.87 52.4442ZM279.747 51.6755C280.179 51.1498 280.38 50.4295 280.417 49.5847L279.418 49.5415C279.386 50.2695 279.216 50.7458 278.974 51.0405L279.747 51.6755ZM280.416 49.601C280.432 49.3853 280.441 49.1062 280.445 48.768L279.445 48.7587C279.442 49.0871 279.433 49.3413 279.419 49.5252L280.416 49.601ZM280.445 48.768C280.448 48.4298 280.444 48.1506 280.431 47.9346L279.433 47.9918C279.443 48.176 279.448 48.4303 279.445 48.7587L280.445 48.768ZM280.432 47.9506C280.411 47.1164 280.222 46.4004 279.801 45.868L279.017 46.4885C279.254 46.789 279.414 47.2629 279.432 47.9758L280.432 47.9506ZM279.801 45.868C279.356 45.3059 278.705 45.0517 277.939 45.0445L277.93 46.0445C278.47 46.0495 278.802 46.2178 279.017 46.4885L279.801 45.868ZM277.939 45.0445C277.172 45.0374 276.516 45.2795 276.049 45.8256L276.809 46.4753C277.043 46.2013 277.39 46.0394 277.93 46.0445L277.939 45.0445ZM276.043 45.833C275.612 46.3574 275.409 47.0698 275.373 47.9035L276.372 47.9473C276.403 47.2348 276.572 46.764 276.815 46.468L276.043 45.833ZM275.374 47.8875C275.357 48.1032 275.348 48.3823 275.345 48.7205L276.345 48.7298C276.348 48.4014 276.357 48.1473 276.371 47.9633L275.374 47.8875ZM275.345 48.7205C275.342 49.0587 275.346 49.3379 275.358 49.5539L276.357 49.4967C276.346 49.3125 276.342 49.0583 276.345 48.7298L275.345 48.7205ZM275.357 49.5376C275.378 50.3829 275.566 51.1068 275.988 51.6405L276.773 51.02C276.536 50.7209 276.375 50.2415 276.357 49.513L275.357 49.5376ZM276 51.6542C276.458 52.1932 277.109 52.4371 277.87 52.4442L277.88 51.4442C277.334 51.4392 276.989 51.2738 276.761 51.0063L276 51.6542ZM285.249 53.873L284.892 54.2232L284.892 54.2233L285.249 53.873ZM285.343 43.7534L285.693 44.1103L285.693 44.1103L285.343 43.7534ZM287.883 43.7771L287.526 44.1274L287.538 44.1392L287.55 44.1503L287.883 43.7771ZM288.033 44.8186L287.533 44.8139L287.519 46.3741L288.438 45.113L288.033 44.8186ZM289.142 43.8688L288.904 43.4295L288.898 43.4324L289.142 43.8688ZM290.846 43.4647L290.842 42.9647L290.841 42.9647L290.846 43.4647ZM294.01 45.2543L293.556 45.4656L293.953 46.3166L294.438 45.5123L294.01 45.2543ZM295.341 44.0066L295.581 44.4455L295.584 44.4436L295.341 44.0066ZM299.141 44.022L298.889 44.4539L298.897 44.4583L299.141 44.022ZM300.448 45.4743L299.997 45.6901L300.002 45.7011L300.448 45.4743ZM300.728 54.0172L301.079 54.3741L301.079 54.3741L300.728 54.0172ZM298.068 53.9925L297.712 54.3427L297.712 54.3427L298.068 53.9925ZM297.755 46.8092L297.306 47.0287L297.31 47.0364L297.755 46.8092ZM297.122 46.1233L296.885 46.5637L296.894 46.5684L297.122 46.1233ZM295.442 46.1076L295.222 45.6583L295.213 45.663L295.442 46.1076ZM294.795 46.7817L294.358 46.5394L294.354 46.5462L294.795 46.7817ZM294.349 53.9578L294.699 54.3146L294.699 54.3146L294.349 53.9578ZM291.669 53.9328L292.026 53.5826L292.026 53.5826L291.669 53.9328ZM291.356 46.7496L290.906 46.9691L290.91 46.9767L291.356 46.7496ZM290.722 46.0637L290.485 46.504L290.494 46.5088L290.722 46.0637ZM289.062 46.0682L289.281 46.5175L289.29 46.5132L289.299 46.5085L289.062 46.0682ZM288.396 46.722L287.963 46.4719L287.959 46.4792L287.955 46.4866L288.396 46.722ZM285.592 53.5162C285.588 53.5162 285.587 53.5158 285.589 53.5161C285.591 53.5165 285.594 53.5173 285.598 53.5189C285.601 53.5205 285.604 53.5223 285.606 53.5236C285.608 53.5249 285.608 53.525 285.606 53.5228L284.892 54.2233C285.079 54.4132 285.319 54.5137 285.583 54.5161L285.592 53.5162ZM285.606 53.5228C285.606 53.5227 285.607 53.5242 285.609 53.527C285.611 53.5299 285.612 53.5328 285.613 53.5352C285.614 53.5374 285.614 53.5377 285.613 53.5352C285.613 53.5326 285.612 53.5265 285.612 53.5164L284.612 53.5071C284.61 53.7702 284.696 54.0235 284.892 54.2232L285.606 53.5228ZM285.612 53.5164L285.7 44.1168L284.7 44.1075L284.612 53.5071L285.612 53.5164ZM285.7 44.1168C285.7 44.1066 285.701 44.1006 285.701 44.098C285.702 44.0955 285.702 44.0958 285.701 44.098C285.7 44.1003 285.699 44.1032 285.697 44.1061C285.695 44.1089 285.693 44.1103 285.693 44.1103L284.993 43.3966C284.793 43.5927 284.702 43.8444 284.7 44.1075L285.7 44.1168ZM285.693 44.1103C285.696 44.1081 285.696 44.1082 285.694 44.1094C285.692 44.1107 285.689 44.1124 285.685 44.114C285.681 44.1155 285.678 44.1163 285.677 44.1166C285.675 44.1169 285.676 44.1166 285.68 44.1166L285.689 43.1166C285.425 43.1142 285.183 43.2102 284.993 43.3966L285.693 44.1103ZM285.68 44.1166L287.54 44.1339L287.549 43.134L285.689 43.1166L285.68 44.1166ZM287.54 44.1339C287.544 44.134 287.545 44.1343 287.543 44.134C287.541 44.1336 287.538 44.1328 287.534 44.1312C287.531 44.1296 287.528 44.1278 287.526 44.1265C287.524 44.1252 287.524 44.1251 287.526 44.1274L288.24 43.4269C288.054 43.237 287.814 43.1364 287.549 43.134L287.54 44.1339ZM287.55 44.1503C287.553 44.1522 287.552 44.1519 287.55 44.149C287.547 44.1461 287.545 44.1419 287.543 44.137C287.541 44.1322 287.54 44.1285 287.54 44.127C287.539 44.1256 287.54 44.1276 287.54 44.1339L288.54 44.1432C288.542 43.8581 288.433 43.5979 288.216 43.4039L287.55 44.1503ZM287.54 44.1339L287.533 44.8139L288.533 44.8232L288.54 44.1432L287.54 44.1339ZM288.438 45.113C288.659 44.8096 288.97 44.5383 289.386 44.3053L288.898 43.4324C288.377 43.724 287.949 44.0858 287.629 44.5242L288.438 45.113ZM289.381 44.3082C289.779 44.0917 290.264 43.9712 290.852 43.9647L290.841 42.9647C290.121 42.9727 289.47 43.1217 288.904 43.4295L289.381 44.3082ZM290.85 43.9647C291.56 43.9591 292.118 44.0934 292.551 44.3381C292.979 44.5801 293.315 44.9476 293.556 45.4656L294.463 45.0429C294.142 44.3556 293.67 43.8222 293.043 43.4677C292.422 43.1159 291.679 42.9581 290.842 42.9647L290.85 43.9647ZM294.438 45.5123C294.7 45.0777 295.075 44.7215 295.581 44.4455L295.102 43.5678C294.455 43.9211 293.943 44.3966 293.581 44.9963L294.438 45.5123ZM295.584 44.4436C296.096 44.159 296.652 44.0188 297.261 44.0245L297.271 43.0245C296.493 43.0173 295.766 43.1985 295.098 43.5696L295.584 44.4436ZM297.261 44.0245C297.874 44.0302 298.413 44.1758 298.889 44.4538L299.393 43.5902C298.756 43.2179 298.044 43.0318 297.271 43.0245L297.261 44.0245ZM298.897 44.4583C299.352 44.7129 299.721 45.1134 299.997 45.69L300.899 45.2585C300.547 44.5226 300.045 43.9548 299.386 43.5857L298.897 44.4583ZM300.002 45.7011C300.281 46.2495 300.434 46.9907 300.425 47.9542L301.425 47.9635C301.435 46.9004 301.269 45.9852 300.893 45.2474L300.002 45.7011ZM300.425 47.9542L300.372 53.6539L301.372 53.6632L301.425 47.9635L300.425 47.9542ZM300.372 53.6539C300.372 53.6641 300.371 53.6701 300.37 53.6727C300.37 53.6752 300.37 53.6749 300.37 53.6727C300.371 53.6704 300.373 53.6675 300.375 53.6646C300.377 53.6618 300.378 53.6604 300.378 53.6604L301.079 54.3741C301.278 54.178 301.369 53.9263 301.372 53.6632L300.372 53.6539ZM300.378 53.6604C300.376 53.6626 300.376 53.6625 300.377 53.6613C300.379 53.66 300.382 53.6582 300.386 53.6567C300.39 53.6552 300.393 53.6544 300.395 53.6541C300.397 53.6538 300.396 53.6541 300.392 53.6541L300.382 54.654C300.647 54.6565 300.889 54.5605 301.079 54.3741L300.378 53.6604ZM300.392 53.6541L298.412 53.6356L298.402 54.6356L300.382 54.654L300.392 53.6541ZM298.412 53.6356C298.408 53.6356 298.407 53.6353 298.408 53.6356C298.41 53.6359 298.413 53.6367 298.417 53.6384C298.421 53.64 298.424 53.6417 298.426 53.6431C298.428 53.6443 298.427 53.6444 298.425 53.6422L297.712 54.3427C297.898 54.5326 298.138 54.6331 298.402 54.6356L298.412 53.6356ZM298.425 53.6422C298.425 53.6422 298.427 53.6436 298.428 53.6465C298.43 53.6494 298.432 53.6523 298.433 53.6546C298.433 53.6569 298.433 53.6572 298.433 53.6547C298.432 53.652 298.432 53.646 298.432 53.6358L297.432 53.6265C297.429 53.8896 297.515 54.1429 297.712 54.3427L298.425 53.6422ZM298.432 53.6358L298.483 48.0961L297.483 48.0868L297.432 53.6265L298.432 53.6358ZM298.483 48.0961C298.489 47.5109 298.41 46.9919 298.201 46.5821L297.31 47.0364C297.415 47.2429 297.488 47.5786 297.483 48.0868L298.483 48.0961ZM298.205 46.5898C298.01 46.1911 297.729 45.8725 297.349 45.6782L296.894 46.5684C297.045 46.6457 297.187 46.7844 297.306 47.0287L298.205 46.5898ZM297.359 45.683C297.027 45.5045 296.66 45.419 296.268 45.4153L296.259 46.4153C296.507 46.4176 296.712 46.4707 296.885 46.5636L297.359 45.683ZM296.268 45.4153C295.906 45.4119 295.555 45.4957 295.222 45.6584L295.661 46.5569C295.864 46.4579 296.062 46.4134 296.259 46.4153L296.268 45.4153ZM295.213 45.663C294.849 45.8502 294.569 46.1578 294.358 46.5394L295.233 47.0239C295.374 46.7687 295.525 46.627 295.67 46.5523L295.213 45.663ZM294.354 46.5462C294.138 46.9521 294.049 47.4696 294.044 48.0547L295.043 48.064C295.048 47.5559 295.127 47.2216 295.237 47.0171L294.354 46.5462ZM294.044 48.0547L293.992 53.5945L294.992 53.6038L295.043 48.064L294.044 48.0547ZM293.992 53.5945C293.992 53.6046 293.991 53.6106 293.99 53.6133C293.99 53.6158 293.99 53.6155 293.991 53.6132C293.992 53.6109 293.993 53.608 293.995 53.6052C293.997 53.6023 293.998 53.6009 293.998 53.601L294.699 54.3146C294.899 54.1185 294.989 53.8669 294.992 53.6038L293.992 53.5945ZM293.998 53.601C293.998 53.601 294 53.5996 294.003 53.5978C294.005 53.5959 294.008 53.5945 294.011 53.5936C294.013 53.5928 294.013 53.593 294.011 53.5934C294.008 53.5938 294.002 53.5946 293.992 53.5945L293.983 54.5944C294.246 54.5969 294.499 54.5107 294.699 54.3146L293.998 53.601ZM293.992 53.5945L292.032 53.5762L292.023 54.5762L293.983 54.5944L293.992 53.5945ZM292.032 53.5762C292.022 53.5761 292.016 53.5752 292.013 53.5748C292.011 53.5743 292.011 53.5741 292.013 53.575C292.016 53.5759 292.018 53.5774 292.021 53.5793C292.024 53.5812 292.026 53.5826 292.026 53.5826L291.312 54.2831C291.508 54.4828 291.76 54.5737 292.023 54.5762L292.032 53.5762ZM292.026 53.5826C292.025 53.5826 292.027 53.584 292.029 53.5868C292.031 53.5897 292.032 53.5926 292.033 53.595C292.034 53.5972 292.034 53.5975 292.033 53.595C292.033 53.5924 292.032 53.5863 292.032 53.5762L291.032 53.5669C291.03 53.83 291.116 54.0833 291.312 54.2831L292.026 53.5826ZM292.032 53.5762L292.084 48.0364L291.084 48.0271L291.032 53.5669L292.032 53.5762ZM292.084 48.0364C292.089 47.4513 292.01 46.9322 291.801 46.5225L290.91 46.9767C291.015 47.1832 291.088 47.519 291.084 48.0271L292.084 48.0364ZM291.805 46.5302C291.61 46.1315 291.33 45.8129 290.95 45.6186L290.494 46.5088C290.645 46.5861 290.787 46.7248 290.906 46.969L291.805 46.5302ZM290.959 45.6234C290.63 45.4465 290.27 45.3594 289.889 45.3559L289.879 46.3558C290.111 46.358 290.309 46.4094 290.485 46.5039L290.959 45.6234ZM289.889 45.3559C289.517 45.3524 289.161 45.4473 288.825 45.6279L289.299 46.5085C289.499 46.4007 289.691 46.3541 289.879 46.3558L289.889 45.3559ZM288.842 45.6189C288.47 45.8009 288.179 46.0967 287.963 46.4719L288.829 46.9721C288.964 46.7373 289.118 46.5972 289.281 46.5175L288.842 45.6189ZM287.955 46.4866C287.739 46.8911 287.649 47.4009 287.644 47.9751L288.644 47.9844C288.649 47.492 288.727 47.1633 288.837 46.9574L287.955 46.4866ZM287.644 47.9751L287.592 53.5348L288.592 53.5441L288.644 47.9844L287.644 47.9751ZM287.592 53.5348C287.592 53.545 287.591 53.551 287.591 53.5536C287.59 53.5561 287.59 53.5558 287.591 53.5536C287.592 53.5513 287.593 53.5484 287.595 53.5455C287.597 53.5427 287.599 53.5413 287.599 53.5413L288.299 54.255C288.499 54.0589 288.59 53.8073 288.592 53.5441L287.592 53.5348ZM287.599 53.5413C287.596 53.5435 287.596 53.5434 287.598 53.5422C287.6 53.5409 287.603 53.5392 287.607 53.5376C287.611 53.5361 287.614 53.5353 287.616 53.535C287.617 53.5347 287.616 53.5351 287.612 53.535L287.603 54.535C287.867 54.5374 288.109 54.4414 288.299 54.255L287.599 53.5413ZM287.612 53.535L285.592 53.5162L285.583 54.5161L287.603 54.535L287.612 53.535Z" fill="#414141"/>
</g>
</g>
</g>
<g id="logo-outline" filter="url(#filter3_d_2390_97)">
<path fill-rule="evenodd" clip-rule="evenodd" d="M6.50261 12.1745C2.64857 12.4467 -0.254811 15.7877 0.0177196 19.637L3.5098 68.9588C3.60064 70.2419 4.71572 71.2085 6.0004 71.1178L2.4672 21.2151C2.35365 19.6112 4.34447 18.164 6.91383 17.9825L179.047 5.82571C181.616 5.64425 183.791 6.79732 183.904 8.40115L185.294 16.5441C186.579 16.4534 188.326 17.4595 188.235 16.1765L186.107 6.49447C185.835 2.64526 182.489 -0.254492 178.635 0.0176974L6.50261 12.1745Z" fill="url(#paint3_linear_2390_97)" shape-rendering="crispEdges"/>
<path fill-rule="evenodd" clip-rule="evenodd" d="M130.445 8.82575C126.585 8.66407 123.324 11.6584 123.162 15.5139L121.086 64.9618C121.032 66.247 122.031 67.3325 123.318 67.3863L125.419 17.3567C125.486 15.7503 127.627 14.5354 130.201 14.6432L302.612 21.8644C305.185 21.9722 307.217 23.3618 307.149 24.9683L305.049 74.9979C306.335 75.0518 307.422 74.0537 307.476 72.7685L309.553 23.3206C309.714 19.4652 306.716 16.2087 302.856 16.047L130.445 8.82575Z" fill="url(#paint4_linear_2390_97)" shape-rendering="crispEdges"/>
</g>
</g>
<defs>
<filter id="filter0_d_2390_97" x="20.2041" y="20.6028" width="95.5144" height="35.7517" filterUnits="userSpaceOnUse" color-interpolation-filters="sRGB">
<feFlood flood-opacity="0" result="BackgroundImageFix"/>
<feColorMatrix in="SourceAlpha" type="matrix" values="0 0 0 0 0 0 0 0 0 0 0 0 0 0 0 0 0 0 127 0" result="hardAlpha"/>
<feOffset dx="2" dy="3"/>
<feGaussianBlur stdDeviation="0.5"/>
<feComposite in2="hardAlpha" operator="out"/>
<feColorMatrix type="matrix" values="0 0 0 0 0 0 0 0 0 0 0 0 0 0 0 0 0 0 0.25 0"/>
<feBlend mode="normal" in2="BackgroundImageFix" result="effect1_dropShadow_2390_97"/>
<feBlend mode="normal" in="SourceGraphic" in2="effect1_dropShadow_2390_97" result="shape"/>
</filter>
<filter id="filter1_d_2390_97" x="130.309" y="19.774" width="122.774" height="36.9098" filterUnits="userSpaceOnUse" color-interpolation-filters="sRGB">
<feFlood flood-opacity="0" result="BackgroundImageFix"/>
<feColorMatrix in="SourceAlpha" type="matrix" values="0 0 0 0 0 0 0 0 0 0 0 0 0 0 0 0 0 0 127 0" result="hardAlpha"/>
<feOffset dy="4"/>
<feComposite in2="hardAlpha" operator="out"/>
<feColorMatrix type="matrix" values="0 0 0 0 0 0 0 0 0 0 0 0 0 0 0 0 0 0 0.25 0"/>
<feBlend mode="normal" in2="BackgroundImageFix" result="effect1_dropShadow_2390_97"/>
<feBlend mode="normal" in="SourceGraphic" in2="effect1_dropShadow_2390_97" result="shape"/>
</filter>
<filter id="filter2_d_2390_97" x="255.964" y="43.1006" width="47.0024" height="13.2579" filterUnits="userSpaceOnUse" color-interpolation-filters="sRGB">
<feFlood flood-opacity="0" result="BackgroundImageFix"/>
<feColorMatrix in="SourceAlpha" type="matrix" values="0 0 0 0 0 0 0 0 0 0 0 0 0 0 0 0 0 0 127 0" result="hardAlpha"/>
<feOffset dx="2" dy="2"/>
<feComposite in2="hardAlpha" operator="out"/>
<feColorMatrix type="matrix" values="0 0 0 0 0 0 0 0 0 0 0 0 0 0 0 0 0 0 0.25 0"/>
<feBlend mode="normal" in2="BackgroundImageFix" result="effect1_dropShadow_2390_97"/>
<feBlend mode="normal" in="SourceGraphic" in2="effect1_dropShadow_2390_97" result="shape"/>
</filter>
<filter id="filter3_d_2390_97" x="-4" y="0" width="317.559" height="83" filterUnits="userSpaceOnUse" color-interpolation-filters="sRGB">
<feFlood flood-opacity="0" result="BackgroundImageFix"/>
<feColorMatrix in="SourceAlpha" type="matrix" values="0 0 0 0 0 0 0 0 0 0 0 0 0 0 0 0 0 0 127 0" result="hardAlpha"/>
<feOffset dy="4"/>
<feGaussianBlur stdDeviation="2"/>
<feComposite in2="hardAlpha" operator="out"/>
<feColorMatrix type="matrix" values="0 0 0 0 0 0 0 0 0 0 0 0 0 0 0 0 0 0 0.25 0"/>
<feBlend mode="normal" in2="BackgroundImageFix" result="effect1_dropShadow_2390_97"/>
<feBlend mode="normal" in="SourceGraphic" in2="effect1_dropShadow_2390_97" result="shape"/>
</filter>
<linearGradient id="paint0_linear_2390_97" x1="30.0602" y1="29.781" x2="132.764" y2="39.3763" gradientUnits="userSpaceOnUse">
<stop offset="0.226035" stop-color="#FFFEFE"/>
<stop offset="1" stop-color="#EEEBEB"/>
</linearGradient>
<linearGradient id="paint1_linear_2390_97" x1="26" y1="24" x2="113.5" y2="47.5" gradientUnits="userSpaceOnUse">
<stop stop-color="#7B7777"/>
<stop offset="1" stop-color="#4D4B4B"/>
</linearGradient>
<linearGradient id="paint2_linear_2390_97" x1="165.666" y1="36.4701" x2="233.477" y2="49.9656" gradientUnits="userSpaceOnUse">
<stop offset="0.182292" stop-color="#FFDE00"/>
<stop offset="1" stop-color="#E2C70C"/>
</linearGradient>
<linearGradient id="paint3_linear_2390_97" x1="158.123" y1="-7.38582" x2="161.342" y2="70.4839" gradientUnits="userSpaceOnUse">
<stop offset="0.593646" stop-color="white"/>
<stop offset="0.953125" stop-opacity="0"/>
</linearGradient>
<linearGradient id="paint4_linear_2390_97" x1="216.528" y1="15.3451" x2="214.189" y2="71.1924" gradientUnits="userSpaceOnUse">
<stop offset="0.724544" stop-color="#F7FBF4"/>
<stop offset="1" stop-color="#FEFFFD" stop-opacity="0"/>
</linearGradient>
<clipPath id="clip0_2390_97">
<rect width="312.559" height="78" fill="white"/>
</clipPath>
</defs>
</svg>
