<svg width="132" height="51" viewBox="0 0 132 51" fill="none" xmlns="http://www.w3.org/2000/svg">
<g filter="url(#filter0_d_1617_94)">
<path d="M7.65176 42.3372C7.30049 42.36 7.00585 42.2668 6.76784 42.0578C6.52982 41.8487 6.39943 41.5686 6.37667 41.2173L4.35928 10.0826C4.33652 9.73134 4.42967 9.4367 4.63871 9.19869C4.84776 8.96067 5.12792 8.83028 5.47918 8.80752L18.5558 7.96022C21.1423 7.79262 23.4035 8.04695 25.3393 8.72319C27.307 9.39737 28.8705 10.5146 30.0298 12.0749C31.219 13.6012 31.8912 15.5619 32.0464 17.9568C32.2036 20.3837 31.7911 22.4307 30.8088 24.0977C29.8564 25.7307 28.4471 26.9925 26.5808 27.883C24.7464 28.7715 22.5359 29.2995 19.9493 29.4671L13.5308 29.883L14.2322 40.7083C14.255 41.0596 14.1618 41.3542 13.9528 41.5922C13.7437 41.8302 13.4636 41.9606 13.1123 41.9834L7.65176 42.3372ZM13.0022 23.9528L19.325 23.5431C20.9535 23.4376 22.189 22.9567 23.0314 22.1004C23.9058 21.2421 24.2912 20.0146 24.1877 18.4179C24.0967 17.0129 23.6071 15.8902 22.7189 15.0499C21.8626 14.2075 20.5244 13.8452 18.7042 13.9632L12.3815 14.3729L13.0022 23.9528ZM51.75 39.9608C48.8441 40.1491 46.3063 39.8326 44.1367 39.0111C41.967 38.1897 40.2293 36.8593 38.9237 35.0199C37.6159 33.1485 36.819 30.747 36.5328 27.8154C36.4119 26.4443 36.308 25.0882 36.2211 23.747C36.1321 22.3739 36.0581 20.9838 35.999 19.5766C35.9086 16.6965 36.391 14.2441 37.4463 12.2197C38.5315 10.1612 40.0958 8.56872 42.1392 7.44223C44.2146 6.31367 46.6733 5.65732 49.5154 5.47317C52.3255 5.29109 54.8164 5.62673 56.9881 6.48009C59.1918 7.33138 60.9645 8.70764 62.3062 10.6089C63.6459 12.4781 64.4407 14.8477 64.6908 17.7175C64.8457 19.1185 64.9677 20.5055 65.0567 21.8786C65.1436 23.2198 65.1996 24.579 65.2247 25.9563C65.3192 28.9003 64.8389 31.3846 63.7835 33.409C62.7262 35.4016 61.1747 36.9451 59.1292 38.0397C57.0837 39.1342 54.624 39.7746 51.75 39.9608ZM51.3496 33.7818C53.2017 33.6618 54.6824 33.0047 55.7915 31.8105C56.9304 30.5823 57.4511 28.7207 57.3536 26.2258C57.3264 24.8166 57.2735 23.5053 57.1949 22.2918C57.1142 21.0464 56.9975 19.7392 56.8446 18.3702C56.7051 16.7118 56.3138 15.3743 55.6707 14.3578C55.0276 13.3412 54.2116 12.6245 53.2226 12.2076C52.2634 11.7566 51.1611 11.5715 49.9157 11.6522C48.6703 11.7329 47.5852 12.0598 46.6603 12.6328C45.7334 13.1738 45.0166 13.9899 44.5101 15.0809C44.0355 16.1699 43.8201 17.5467 43.8638 19.2113C43.9209 20.5865 43.9897 21.8968 44.0704 23.1422C44.1491 24.3557 44.2499 25.6639 44.3728 27.0669C44.63 29.5514 45.3866 31.3302 46.6426 32.4033C47.8966 33.4444 49.4656 33.9039 51.3496 33.7818ZM73.2798 38.0848C72.9285 38.1076 72.6338 38.0144 72.3958 37.8054C72.1578 37.5963 72.0274 37.3162 72.0047 36.9649L69.9873 5.8302C69.9645 5.47894 70.0577 5.1843 70.2667 4.94628C70.4758 4.70827 70.7559 4.57788 71.1072 4.55512L76.1845 4.22613C76.5358 4.20337 76.8304 4.29651 77.0684 4.50556C77.3065 4.71461 77.4368 4.99476 77.4596 5.34603L78.1672 16.2671L87.3083 4.41927C87.4236 4.2194 87.6188 4.01435 87.8937 3.80413C88.1986 3.55991 88.6065 3.42124 89.1174 3.38814L94.9133 3.01259C95.2006 2.99397 95.4474 3.09022 95.6535 3.30133C95.8575 3.48052 95.9678 3.69784 95.9843 3.9533C95.9988 4.17684 95.9474 4.37257 95.83 4.54051L84.4571 19.8038L98.7078 34.8499C98.8438 34.9693 98.9201 35.1568 98.9366 35.4122C98.9532 35.6677 98.8729 35.9134 98.6958 36.1494C98.5166 36.3534 98.2833 36.4647 97.9959 36.4833L92.0085 36.8713C91.4337 36.9085 90.9943 36.8087 90.6904 36.5719C90.3864 36.335 90.1834 36.1718 90.0814 36.0822L78.7011 24.5058L79.477 36.4807C79.4998 36.832 79.4066 37.1266 79.1976 37.3647C78.9885 37.6027 78.7084 37.7331 78.3571 37.7558L73.2798 38.0848ZM104.293 36.0753C103.942 36.0981 103.647 36.0049 103.409 35.7959C103.171 35.5868 103.041 35.3067 103.018 34.9554L101 3.82069C100.978 3.46943 101.071 3.17479 101.28 2.93677C101.489 2.69876 101.769 2.56837 102.12 2.54561L123.819 1.13964C124.17 1.11688 124.465 1.21002 124.703 1.41907C124.941 1.62812 125.071 1.90827 125.094 2.25954L125.342 6.0915C125.363 6.41083 125.269 6.68951 125.06 6.92752C124.851 7.16554 124.57 7.29592 124.219 7.31868L108.7 8.32428L109.187 15.8445L123.653 14.9072C124.004 14.8844 124.299 14.9776 124.537 15.1866C124.775 15.3957 124.905 15.6758 124.928 16.0271L125.157 19.5717C125.178 19.891 125.084 20.1697 124.875 20.4077C124.666 20.6457 124.386 20.7761 124.034 20.7988L109.569 21.7362L110.072 29.4959L125.974 28.4655C126.325 28.4427 126.62 28.5358 126.858 28.7449C127.096 28.9539 127.226 29.2341 127.249 29.5854L127.494 33.3694C127.517 33.7207 127.424 34.0153 127.215 34.2533C127.006 34.4914 126.726 34.6217 126.375 34.6445L104.293 36.0753Z" fill="url(#paint0_linear_1617_94)"/>
<path d="M6.76784 42.0578L6.10793 42.8091L6.10793 42.8091L6.76784 42.0578ZM4.63871 9.19869L5.39006 9.8586L5.39006 9.85859L4.63871 9.19869ZM25.3393 8.72319L25.0095 9.66726L25.0152 9.66921L25.3393 8.72319ZM30.0298 12.0749L29.2271 12.6713L29.234 12.6805L29.241 12.6895L30.0298 12.0749ZM30.8088 24.0977L29.9473 23.59L29.945 23.5939L30.8088 24.0977ZM26.5808 27.883L26.1501 26.9805L26.1449 26.983L26.5808 27.883ZM13.5308 29.883L13.4661 28.8851L12.4682 28.9498L12.5329 29.9477L13.5308 29.883ZM13.9528 41.5922L14.7041 42.2521L13.9528 41.5922ZM13.0022 23.9528L12.0043 24.0174L12.069 25.0153L13.0669 24.9507L13.0022 23.9528ZM23.0314 22.1004L22.3309 21.3868L22.3247 21.3929L22.3186 21.3991L23.0314 22.1004ZM22.7189 15.0499L22.0176 15.7627L22.0245 15.7696L22.0316 15.7763L22.7189 15.0499ZM12.3815 14.3729L12.3168 13.375L11.3189 13.4396L11.3836 14.4375L12.3815 14.3729ZM7.5871 41.3393C7.46826 41.347 7.44347 41.3202 7.42774 41.3064L6.10793 42.8091C6.56824 43.2134 7.13272 43.3729 7.71642 43.3351L7.5871 41.3393ZM7.42774 41.3064C7.41202 41.2926 7.38228 41.2715 7.37458 41.1527L5.37877 41.282C5.41659 41.8657 5.64762 42.4048 6.10793 42.8091L7.42774 41.3064ZM7.37458 41.1527L5.35719 10.0179L3.36138 10.1473L5.37877 41.282L7.37458 41.1527ZM5.35719 10.0179C5.34949 9.89911 5.37625 9.87432 5.39006 9.8586L3.88737 8.53878C3.48308 8.99909 3.32355 9.56357 3.36138 10.1473L5.35719 10.0179ZM5.39006 9.85859C5.40387 9.84287 5.42501 9.81313 5.54384 9.80543L5.41452 7.80962C4.83082 7.84744 4.29165 8.07848 3.88736 8.53878L5.39006 9.85859ZM5.54384 9.80543L18.6204 8.95813L18.4911 6.96231L5.41452 7.80962L5.54384 9.80543ZM18.6204 8.95813C21.1073 8.79699 23.2289 9.04521 25.0095 9.66725L25.6691 7.77914C23.5781 7.04868 21.1774 6.78825 18.4911 6.96231L18.6204 8.95813ZM25.0152 9.66921C26.8058 10.2827 28.1969 11.2848 29.2271 12.6713L30.8325 11.4785C29.5441 9.74443 27.8082 8.51203 25.6634 7.77718L25.0152 9.66921ZM29.241 12.6895C30.2801 14.0232 30.9031 15.7782 31.0485 18.0215L33.0443 17.8922C32.8793 15.3455 32.1579 13.1792 30.8187 11.4603L29.241 12.6895ZM31.0485 18.0215C31.1961 20.2998 30.8044 22.1355 29.9473 23.59L31.6704 24.6054C32.7779 22.7259 33.2112 20.4677 33.0443 17.8922L31.0485 18.0215ZM29.945 23.5939C29.1032 25.0373 27.8531 26.1679 26.1501 26.9805L27.0114 28.7855C29.0411 27.817 30.6097 26.4241 31.6727 24.6015L29.945 23.5939ZM26.1449 26.983C24.4536 27.8022 22.3759 28.3078 19.8846 28.4692L20.014 30.465C22.6959 30.2913 25.0391 29.7408 27.0167 28.783L26.1449 26.983ZM19.8846 28.4692L13.4661 28.8851L13.5954 30.8809L20.014 30.465L19.8846 28.4692ZM12.5329 29.9477L13.2343 40.773L15.2301 40.6436L14.5287 29.8184L12.5329 29.9477ZM13.2343 40.773C13.242 40.8918 13.2152 40.9166 13.2014 40.9323L14.7041 42.2521C15.1084 41.7918 15.2679 41.2273 15.2301 40.6436L13.2343 40.773ZM13.2014 40.9323C13.1876 40.948 13.1665 40.9778 13.0476 40.9855L13.177 42.9813C13.7607 42.9435 14.2998 42.7124 14.7041 42.2521L13.2014 40.9323ZM13.0476 40.9855L7.5871 41.3393L7.71642 43.3351L13.177 42.9813L13.0476 40.9855ZM13.0669 24.9507L19.3896 24.541L19.2603 22.5452L12.9376 22.9549L13.0669 24.9507ZM19.3896 24.541C21.1746 24.4253 22.676 23.8876 23.7443 22.8017L22.3186 21.3991C21.702 22.0258 20.7325 22.4498 19.2603 22.5452L19.3896 24.541ZM23.732 22.814C24.8732 21.6937 25.3018 20.1456 25.1856 18.3533L23.1898 18.4826C23.2806 19.8836 22.9383 20.7905 22.3309 21.3868L23.732 22.814ZM25.1856 18.3533C25.0809 16.7373 24.5055 15.3635 23.4061 14.3235L22.0316 15.7763C22.7087 16.4169 23.1125 17.2885 23.1898 18.4826L25.1856 18.3533ZM23.4202 14.337C22.2751 13.2105 20.5965 12.8385 18.6396 12.9653L18.7689 14.9611C20.4524 14.852 21.4502 15.2045 22.0176 15.7627L23.4202 14.337ZM18.6396 12.9653L12.3168 13.375L12.4461 15.3708L18.7689 14.9611L18.6396 12.9653ZM11.3836 14.4375L12.0043 24.0174L14.0001 23.8881L13.3794 14.3082L11.3836 14.4375ZM44.1367 39.0111L44.4907 38.0759L44.1367 39.0111ZM38.9237 35.0199L38.104 35.5927L38.1082 35.5987L38.9237 35.0199ZM36.5328 27.8154L35.5367 27.9032L35.5376 27.9125L36.5328 27.8154ZM35.999 19.5766L34.9994 19.608L34.9999 19.6186L35.999 19.5766ZM37.4463 12.2197L36.5617 11.7533L36.5596 11.7574L37.4463 12.2197ZM42.1392 7.44223L41.6615 6.5637L41.6565 6.56648L42.1392 7.44223ZM56.9881 6.48009L56.6224 7.41083L56.6277 7.4129L56.9881 6.48009ZM62.3062 10.6089L61.4891 11.1855L61.4934 11.1914L62.3062 10.6089ZM64.6908 17.7175L63.6946 17.8044L63.6956 17.8159L63.6969 17.8275L64.6908 17.7175ZM65.2247 25.9563L64.2247 25.9745L64.2252 25.9884L65.2247 25.9563ZM63.7835 33.409L64.6669 33.8778L64.6703 33.8713L63.7835 33.409ZM59.1292 38.0397L58.6574 37.158L59.1292 38.0397ZM55.7915 31.8105L56.5242 32.491L56.5247 32.4904L55.7915 31.8105ZM57.3536 26.2258L56.3538 26.2451L56.354 26.2549L56.3544 26.2648L57.3536 26.2258ZM56.8446 18.3702L55.8481 18.4541L55.8493 18.4677L55.8508 18.4812L56.8446 18.3702ZM53.2226 12.2076L52.7971 13.1125L52.8154 13.1212L52.8341 13.129L53.2226 12.2076ZM46.6603 12.6328L47.1644 13.4964L47.1758 13.4898L47.187 13.4828L46.6603 12.6328ZM44.5101 15.0809L43.6031 14.6598L43.5981 14.6706L43.5934 14.6814L44.5101 15.0809ZM43.8638 19.2113L42.8642 19.2376L42.8644 19.2452L42.8647 19.2528L43.8638 19.2113ZM44.3728 27.0669L43.3767 27.1542L43.3773 27.162L43.3782 27.1698L44.3728 27.0669ZM46.6426 32.4033L45.993 33.1637L46.0039 33.1727L46.6426 32.4033ZM51.6853 38.9629C48.8866 39.1443 46.4974 38.8356 44.4907 38.0759L43.7826 39.9464C46.1152 40.8295 48.8016 41.154 51.8147 40.9588L51.6853 38.9629ZM44.4907 38.0759C42.5012 37.3227 40.9264 36.1136 39.7391 34.441L38.1082 35.5987C39.5323 37.6049 41.4328 39.0567 43.7826 39.9464L44.4907 38.0759ZM39.7434 34.447C38.5586 32.7516 37.8023 30.5273 37.5281 27.7182L35.5376 27.9125C35.8357 30.9667 36.6733 33.5453 38.104 35.5927L39.7434 34.447ZM37.529 27.7275C37.4087 26.364 37.3054 25.0156 37.219 23.6824L35.2232 23.8117C35.3106 25.1608 35.4151 26.5246 35.5367 27.9032L37.529 27.7275ZM37.219 23.6824C37.1306 22.317 37.0569 20.9344 36.9981 19.5347L34.9999 19.6186C35.0593 21.0331 35.1337 22.4308 35.2232 23.8117L37.219 23.6824ZM36.9985 19.5453C36.9121 16.7924 37.3753 14.5193 38.3331 12.6819L36.5596 11.7574C35.4068 13.9689 34.9051 16.6005 34.9995 19.608L36.9985 19.5453ZM38.3309 12.686C39.3248 10.8008 40.7491 9.35044 42.622 8.31797L41.6565 6.56648C39.4425 7.78699 37.7382 9.52157 36.5617 11.7533L38.3309 12.686ZM42.617 8.32074C44.5415 7.27422 46.8534 6.64775 49.58 6.47108L49.4507 4.47526C46.4932 4.66689 43.8877 5.35313 41.6615 6.56372L42.617 8.32074ZM49.58 6.47108C52.2733 6.29656 54.6128 6.62116 56.6224 7.41081L57.3538 5.54936C55.02 4.6323 52.3776 4.28561 49.4507 4.47526L49.58 6.47108ZM56.6277 7.4129C58.6503 8.19425 60.263 9.44801 61.4892 11.1855L63.1232 10.0323C61.6659 7.96727 59.7332 6.46851 57.3485 5.54727L56.6277 7.4129ZM61.4934 11.1914C62.7052 12.8823 63.4562 15.0685 63.6946 17.8044L65.6871 17.6307C65.4253 14.6269 64.5865 12.074 63.119 10.0263L61.4934 11.1914ZM63.6969 17.8275C63.8502 19.2137 63.9708 20.5856 64.0587 21.9433L66.0546 21.8139C65.9646 20.4253 65.8413 19.0232 65.6848 17.6076L63.6969 17.8275ZM64.0587 21.9433C64.1446 23.2686 64.2 24.6123 64.2248 25.9745L66.2245 25.938C66.1991 24.5457 66.1425 23.171 66.0546 21.8139L64.0587 21.9433ZM64.2252 25.9884C64.3158 28.8093 63.8529 31.1127 62.8968 32.9468L64.6703 33.8713C65.8248 31.6565 66.3227 28.9913 66.2241 25.9242L64.2252 25.9884ZM62.9002 32.9403C61.9387 34.7521 60.5331 36.1543 58.6574 37.158L59.601 38.9214C61.8164 37.7359 63.5136 36.051 64.6669 33.8778L62.9002 32.9403ZM58.6574 37.158C56.7643 38.171 54.4503 38.7838 51.6853 38.9629L51.8147 40.9588C54.7976 40.7655 57.4031 40.0975 59.601 38.9214L58.6574 37.158ZM51.4143 34.7797C53.4833 34.6456 55.2168 33.8988 56.5242 32.491L55.0587 31.13C54.148 32.1106 52.9202 32.6779 51.285 32.7839L51.4143 34.7797ZM56.5247 32.4904C57.9165 30.9896 58.4557 28.818 58.3529 26.1867L56.3544 26.2648C56.4466 28.6233 55.9444 30.1749 55.0582 31.1305L56.5247 32.4904ZM58.3534 26.2065C58.326 24.7845 58.2726 23.4579 58.1928 22.2271L56.197 22.3565C56.2745 23.5527 56.3269 24.8487 56.3538 26.2451L58.3534 26.2065ZM58.1928 22.2271C58.111 20.9648 57.9928 19.6421 57.8384 18.2593L55.8508 18.4812C56.0021 19.8363 56.1174 21.128 56.197 22.3565L58.1928 22.2271ZM57.8411 18.2864C57.693 16.5259 57.2714 15.0176 56.5158 13.8231L54.8256 14.8924C55.3562 15.731 55.7172 16.8977 55.8481 18.4541L57.8411 18.2864ZM56.5158 13.8231C55.7773 12.6557 54.8105 11.7917 53.611 11.2861L52.8341 13.129C53.6127 13.4572 54.278 14.0267 54.8256 14.8924L56.5158 13.8231ZM53.648 11.3026C52.5109 10.768 51.235 10.5646 49.8511 10.6543L49.9804 12.6501C51.0872 12.5784 52.0159 12.7453 52.7971 13.1125L53.648 11.3026ZM49.8511 10.6543C48.4662 10.744 47.2174 11.1113 46.1337 11.7827L47.187 13.4828C47.953 13.0082 48.8745 12.7218 49.9804 12.6501L49.8511 10.6543ZM46.1562 11.7691C45.032 12.4253 44.1848 13.4069 43.6031 14.6598L45.4171 15.502C45.8485 14.5729 46.4347 13.9223 47.1644 13.4964L46.1562 11.7691ZM43.5934 14.6814C43.0418 15.9471 42.8181 17.4816 42.8642 19.2376L44.8635 19.1851C44.8222 17.6118 45.0293 16.3926 45.4268 15.4804L43.5934 14.6814ZM42.8647 19.2528C42.922 20.6349 42.9913 21.953 43.0725 23.2069L45.0683 23.0776C44.9882 21.8406 44.9197 20.5381 44.863 19.1699L42.8647 19.2528ZM43.0725 23.2069C43.1517 24.429 43.2531 25.7448 43.3767 27.1542L45.369 26.9796C45.2466 25.583 45.1464 24.2824 45.0683 23.0776L43.0725 23.2069ZM43.3782 27.1698C43.6485 29.7819 44.4623 31.8558 45.9931 33.1636L47.2922 31.643C46.311 30.8047 45.6115 29.321 45.3675 26.9639L43.3782 27.1698ZM46.0039 33.1727C47.4855 34.4028 49.3185 34.9155 51.4143 34.7797L51.285 32.7839C49.6126 32.8923 48.3077 32.4859 47.2814 31.6339L46.0039 33.1727ZM72.3958 37.8054L71.7359 38.5567L72.3958 37.8054ZM70.2667 4.94628L71.0181 5.60619L71.0181 5.60619L70.2667 4.94628ZM77.0684 4.50556L76.4085 5.25691L76.4085 5.25691L77.0684 4.50556ZM78.1672 16.2671L77.1693 16.3318L77.3406 18.9755L78.959 16.878L78.1672 16.2671ZM87.3083 4.41927L88.1 5.03013L88.141 4.97706L88.1745 4.91901L87.3083 4.41927ZM87.8937 3.80413L88.5011 4.59857L88.5101 4.59167L88.519 4.58457L87.8937 3.80413ZM95.6535 3.30133L94.9379 3.99985L94.9647 4.02734L94.9936 4.05269L95.6535 3.30133ZM95.83 4.54051L96.6318 5.138L96.6409 5.12584L96.6496 5.11341L95.83 4.54051ZM84.4571 19.8038L83.6552 19.2063L83.1527 19.8808L83.7311 20.4915L84.4571 19.8038ZM98.7078 34.8499L97.9818 35.5375L98.0134 35.5709L98.0479 35.6012L98.7078 34.8499ZM98.6958 36.1494L99.4471 36.8093L99.4725 36.7804L99.4955 36.7497L98.6958 36.1494ZM90.0814 36.0822L89.3683 36.7833L89.394 36.8094L89.4215 36.8336L90.0814 36.0822ZM78.7011 24.5058L79.4142 23.8048L77.5293 21.8875L77.7032 24.5705L78.7011 24.5058ZM79.1976 37.3647L79.9489 38.0246L79.1976 37.3647ZM73.2151 37.0869C73.0963 37.0946 73.0715 37.0678 73.0557 37.054L71.7359 38.5567C72.1962 38.961 72.7607 39.1205 73.3444 39.0827L73.2151 37.0869ZM73.0557 37.054C73.04 37.0402 73.0103 37.0191 73.0026 36.9002L71.0068 37.0296C71.0446 37.6133 71.2756 38.1524 71.7359 38.5567L73.0557 37.054ZM73.0026 36.9002L70.9852 5.76554L68.9894 5.89486L71.0068 37.0296L73.0026 36.9002ZM70.9852 5.76554C70.9775 5.64671 71.0043 5.62191 71.0181 5.60619L69.5154 4.28638C69.1111 4.74668 68.9516 5.31117 68.9894 5.89486L70.9852 5.76554ZM71.0181 5.60619C71.0319 5.59047 71.053 5.56073 71.1718 5.55303L71.0425 3.55721C70.4588 3.59503 69.9196 3.82607 69.5154 4.28638L71.0181 5.60619ZM71.1718 5.55303L76.2492 5.22404L76.1199 3.22822L71.0425 3.55721L71.1718 5.55303ZM76.2492 5.22404C76.368 5.21634 76.3928 5.2431 76.4085 5.25691L77.7284 3.75421C77.268 3.34993 76.7036 3.1904 76.1199 3.22822L76.2492 5.22404ZM76.4085 5.25691C76.4243 5.27072 76.454 5.29185 76.4617 5.41069L78.4575 5.28137C78.4197 4.69767 78.1887 4.1585 77.7283 3.75421L76.4085 5.25691ZM76.4617 5.41069L77.1693 16.3318L79.1652 16.2025L78.4575 5.28137L76.4617 5.41069ZM78.959 16.878L88.1 5.03013L86.5166 3.80841L77.3755 15.6563L78.959 16.878ZM88.1745 4.91901C88.1994 4.87586 88.2835 4.76491 88.5011 4.59857L87.2864 3.00969C86.954 3.26378 86.6479 3.56293 86.4421 3.91953L88.1745 4.91901ZM88.519 4.58457C88.6206 4.50316 88.8128 4.40997 89.1821 4.38604L89.0527 2.39023C88.4001 2.43251 87.7766 2.61666 87.2685 3.02369L88.519 4.58457ZM89.1821 4.38604L94.9779 4.0105L94.8486 2.01468L89.0527 2.39023L89.1821 4.38604ZM94.9779 4.0105C94.9848 4.01005 94.9841 4.01074 94.9774 4.00977C94.9704 4.00875 94.9609 4.0065 94.9504 4.00244C94.9401 3.9984 94.933 3.99417 94.9297 3.99193C94.9266 3.98986 94.9296 3.99138 94.9379 3.99985L96.3691 2.60281C95.9648 2.18865 95.4354 1.97666 94.8486 2.01468L94.9779 4.0105ZM94.9936 4.05269C95.0028 4.06076 95.0058 4.06479 95.0052 4.06406C95.0045 4.06315 95.0013 4.05883 94.9974 4.05124C94.9936 4.04357 94.9905 4.03544 94.9885 4.02797C94.9865 4.02062 94.9863 4.01681 94.9864 4.01796L96.9822 3.88864C96.9474 3.35122 96.7032 2.8924 96.3134 2.54998L94.9936 4.05269ZM94.9864 4.01796C94.9874 4.03384 94.9851 4.03009 94.9894 4.01353C94.9915 4.00572 94.9945 3.99704 94.9986 3.98826C95.0027 3.9795 95.0069 3.97252 95.0103 3.96761L96.6496 5.11341C96.9094 4.74167 97.0099 4.31626 96.9822 3.88864L94.9864 4.01796ZM95.0281 3.94302L83.6552 19.2063L85.259 20.4013L96.6318 5.138L95.0281 3.94302ZM83.7311 20.4915L97.9818 35.5375L99.4338 34.1622L85.1831 19.1162L83.7311 20.4915ZM98.0479 35.6012C97.9861 35.5469 97.9542 35.4899 97.9408 35.457C97.9293 35.4288 97.9356 35.4294 97.9387 35.4769L99.9345 35.3476C99.908 34.9383 99.7733 34.4547 99.3677 34.0985L98.0479 35.6012ZM97.9387 35.4769C97.9388 35.478 97.9387 35.4773 97.9389 35.4759C97.9391 35.4744 97.9392 35.4747 97.9383 35.4775C97.9366 35.4826 97.928 35.5065 97.896 35.549L99.4955 36.7497C99.7928 36.3537 99.9688 35.8771 99.9345 35.3476L97.9387 35.4769ZM97.9444 35.4894C97.9411 35.4932 97.9408 35.4929 97.9439 35.4905C97.9471 35.4881 97.9514 35.4854 97.9558 35.4833C97.9601 35.4813 97.9618 35.4811 97.9592 35.4817C97.9564 35.4824 97.9476 35.4843 97.9313 35.4854L98.0606 37.4812C98.5948 37.4466 99.0815 37.2256 99.4471 36.8093L97.9444 35.4894ZM97.9313 35.4854L91.9438 35.8734L92.0731 37.8692L98.0606 37.4812L97.9313 35.4854ZM91.9438 35.8734C91.4958 35.9024 91.3395 35.81 91.305 35.7831L90.0757 37.3607C90.6491 37.8074 91.3716 37.9146 92.0731 37.8692L91.9438 35.8734ZM91.305 35.7831C90.9982 35.544 90.8179 35.3981 90.7413 35.3309L89.4215 36.8336C89.549 36.9455 89.7747 37.1261 90.0757 37.3607L91.305 35.7831ZM90.7945 35.3812L79.4142 23.8048L77.988 25.2069L89.3683 36.7833L90.7945 35.3812ZM77.7032 24.5705L78.4791 36.5454L80.4749 36.4161L79.699 24.4412L77.7032 24.5705ZM78.4791 36.5454C78.4868 36.6642 78.46 36.689 78.4462 36.7047L79.9489 38.0246C80.3532 37.5643 80.5127 36.9998 80.4749 36.4161L78.4791 36.5454ZM78.4462 36.7047C78.4324 36.7205 78.4113 36.7502 78.2924 36.7579L78.4218 38.7537C79.0055 38.7159 79.5446 38.4849 79.9489 38.0246L78.4462 36.7047ZM78.2924 36.7579L73.2151 37.0869L73.3444 39.0827L78.4218 38.7537L78.2924 36.7579ZM103.409 35.7959L102.749 36.5472L103.409 35.7959ZM101.28 2.93677L102.031 3.59668L102.031 3.59668L101.28 2.93677ZM125.06 6.92752L125.811 7.58743L125.811 7.58742L125.06 6.92752ZM108.7 8.32428L108.635 7.32637L107.637 7.39103L107.702 8.38894L108.7 8.32428ZM109.187 15.8445L108.189 15.9092L108.254 16.9071L109.252 16.8424L109.187 15.8445ZM124.537 15.1866L125.196 14.4353L125.196 14.4353L124.537 15.1866ZM124.875 20.4077L125.626 21.0676L125.626 21.0676L124.875 20.4077ZM109.569 21.7362L109.504 20.7382L108.506 20.8029L108.571 21.8008L109.569 21.7362ZM110.072 29.4959L109.074 29.5605L109.138 30.5584L110.136 30.4938L110.072 29.4959ZM126.858 28.7449L126.198 29.4962L126.198 29.4962L126.858 28.7449ZM127.215 34.2533L126.464 33.5934L126.464 33.5934L127.215 34.2533ZM104.228 35.0774C104.109 35.0851 104.085 35.0583 104.069 35.0445L102.749 36.5472C103.209 36.9515 103.774 37.111 104.357 37.0732L104.228 35.0774ZM104.069 35.0445C104.053 35.0307 104.023 35.0096 104.016 34.8907L102.02 35.0201C102.058 35.6038 102.289 36.1429 102.749 36.5472L104.069 35.0445ZM104.016 34.8907L101.998 3.75603L100.002 3.88535L102.02 35.0201L104.016 34.8907ZM101.998 3.75603C101.991 3.6372 102.017 3.6124 102.031 3.59668L100.528 2.27687C100.124 2.73717 99.9646 3.30166 100.002 3.88535L101.998 3.75603ZM102.031 3.59668C102.045 3.58095 102.066 3.55121 102.185 3.54352L102.056 1.5477C101.472 1.58552 100.933 1.81656 100.528 2.27687L102.031 3.59668ZM102.185 3.54352L123.883 2.13755L123.754 0.141734L102.056 1.5477L102.185 3.54352ZM123.883 2.13755C124.002 2.12985 124.027 2.15661 124.043 2.17042L125.363 0.667725C124.902 0.263439 124.338 0.103913 123.754 0.141734L123.883 2.13755ZM124.043 2.17042C124.058 2.18423 124.088 2.20536 124.096 2.3242L126.092 2.19488C126.054 1.61119 125.823 1.07201 125.363 0.667725L124.043 2.17042ZM124.096 2.3242L124.344 6.15616L126.34 6.02684L126.092 2.19488L124.096 2.3242ZM124.344 6.15616C124.347 6.19701 124.341 6.21474 124.34 6.21984C124.338 6.22474 124.332 6.2401 124.308 6.26762L125.811 7.58742C126.197 7.14788 126.378 6.60781 126.34 6.02684L124.344 6.15616ZM124.308 6.26761C124.294 6.28334 124.273 6.31308 124.154 6.32078L124.284 8.31659C124.867 8.27877 125.407 8.04773 125.811 7.58743L124.308 6.26761ZM124.154 6.32078L108.635 7.32637L108.764 9.32218L124.284 8.31659L124.154 6.32078ZM107.702 8.38894L108.189 15.9092L110.185 15.7798L109.698 8.25962L107.702 8.38894ZM109.252 16.8424L123.717 15.9051L123.588 13.9093L109.122 14.8466L109.252 16.8424ZM123.717 15.9051C123.836 15.8974 123.861 15.9242 123.877 15.938L125.196 14.4353C124.736 14.031 124.172 13.8715 123.588 13.9093L123.717 15.9051ZM123.877 15.938C123.892 15.9518 123.922 15.9729 123.93 16.0918L125.926 15.9624C125.888 15.3787 125.657 14.8396 125.196 14.4353L123.877 15.938ZM123.93 16.0918L124.159 19.6363L126.155 19.507L125.926 15.9624L123.93 16.0918ZM124.159 19.6363C124.162 19.6772 124.157 19.6949 124.155 19.7C124.153 19.7049 124.148 19.7203 124.123 19.7478L125.626 21.0676C126.012 20.628 126.193 20.088 126.155 19.507L124.159 19.6363ZM124.123 19.7478C124.11 19.7635 124.089 19.7932 123.97 19.8009L124.099 21.7967C124.683 21.7589 125.222 21.5279 125.626 21.0676L124.123 19.7478ZM123.97 19.8009L109.504 20.7382L109.633 22.7341L124.099 21.7967L123.97 19.8009ZM108.571 21.8008L109.074 29.5605L111.069 29.4312L110.567 21.6715L108.571 21.8008ZM110.136 30.4938L126.039 29.4634L125.909 27.4675L110.007 28.498L110.136 30.4938ZM126.039 29.4634C126.158 29.4557 126.182 29.4824 126.198 29.4962L127.518 27.9935C127.058 27.5893 126.493 27.4297 125.909 27.4675L126.039 29.4634ZM126.198 29.4962C126.214 29.51 126.244 29.5312 126.251 29.65L128.247 29.5207C128.209 28.937 127.978 28.3978 127.518 27.9935L126.198 29.4962ZM126.251 29.65L126.497 33.4341L128.492 33.3048L128.247 29.5207L126.251 29.65ZM126.497 33.4341C126.504 33.5529 126.477 33.5777 126.464 33.5934L127.966 34.9132C128.371 34.4529 128.53 33.8885 128.492 33.3048L126.497 33.4341ZM126.464 33.5934C126.45 33.6092 126.429 33.6389 126.31 33.6466L126.439 35.6424C127.023 35.6046 127.562 35.3735 127.966 34.9132L126.464 33.5934ZM126.31 33.6466L104.228 35.0774L104.357 37.0732L126.439 35.6424L126.31 33.6466Z" fill="#282222"/>
</g>
<defs>
<filter id="filter0_d_1617_94" x="0.25061" y="0.558228" width="131.352" height="50.3356" filterUnits="userSpaceOnUse" color-interpolation-filters="sRGB">
<feFlood flood-opacity="0" result="BackgroundImageFix"/>
<feColorMatrix in="SourceAlpha" type="matrix" values="0 0 0 0 0 0 0 0 0 0 0 0 0 0 0 0 0 0 127 0" result="hardAlpha"/>
<feOffset dy="4"/>
<feGaussianBlur stdDeviation="2"/>
<feComposite in2="hardAlpha" operator="out"/>
<feColorMatrix type="matrix" values="0 0 0 0 0 0 0 0 0 0 0 0 0 0 0 0 0 0 0.25 0"/>
<feBlend mode="normal" in2="BackgroundImageFix" result="effect1_dropShadow_1617_94"/>
<feBlend mode="normal" in="SourceGraphic" in2="effect1_dropShadow_1617_94" result="shape"/>
</filter>
<linearGradient id="paint0_linear_1617_94" x1="13.0602" y1="9.28101" x2="115.764" y2="18.8763" gradientUnits="userSpaceOnUse">
<stop offset="0.226035" stop-color="#FFFEFE"/>
<stop offset="1" stop-color="#EEEBEB"/>
</linearGradient>
</defs>
</svg>
