<svg width="939" height="280" viewBox="0 0 939 280" fill="none" xmlns="http://www.w3.org/2000/svg">
<text fill="url(#paint0_linear_704_67)" fill-opacity="0.8" xml:space="preserve" style="white-space: pre" font-family="Work Sans" font-size="200" font-weight="bold" letter-spacing="-0.02em"><tspan x="289" y="188.2">SHINY&#10;</tspan></text>
<g filter="url(#filter0_d_704_67)">
<mask id="path-2-inside-1_704_67" fill="white">
<path d="M168.5 272L194.629 202.707L195.372 200.736L197.353 199.996L267 174L197.353 148.004L195.372 147.265L194.629 145.294L168.5 76L142.371 145.294L141.628 147.265L139.647 148.004L70 174L139.647 199.996L141.628 200.736L142.371 202.707L168.5 272Z"/>
</mask>
<path d="M168.5 272L194.629 202.707L195.372 200.736L197.353 199.996L267 174L197.353 148.004L195.372 147.265L194.629 145.294L168.5 76L142.371 145.294L141.628 147.265L139.647 148.004L70 174L139.647 199.996L141.628 200.736L142.371 202.707L168.5 272Z" fill="url(#paint1_linear_704_67)"/>
<path d="M168.5 272L194.629 202.707L195.372 200.736L197.353 199.996L267 174L197.353 148.004L195.372 147.265L194.629 145.294L168.5 76L142.371 145.294L141.628 147.265L139.647 148.004L70 174L139.647 199.996L141.628 200.736L142.371 202.707L168.5 272Z" stroke="url(#paint2_radial_704_67)" stroke-width="2" mask="url(#path-2-inside-1_704_67)"/>
</g>
<g filter="url(#filter1_d_704_67)">
<path d="M238.5 77L247.805 51.5656L248.544 49.5441L250.565 48.8046L276 39.5L250.565 30.1955L248.544 29.456L247.805 27.4345L238.5 2L229.195 27.4345L228.456 29.456L226.435 30.1955L201 39.5L226.435 48.8046L228.456 49.5441L229.195 51.5656L238.5 77Z" fill="url(#paint3_linear_704_67)"/>
<path d="M238.5 77L247.805 51.5656L248.544 49.5441L250.565 48.8046L276 39.5L250.565 30.1955L248.544 29.456L247.805 27.4345L238.5 2L229.195 27.4345L228.456 29.456L226.435 30.1955L201 39.5L226.435 48.8046L228.456 49.5441L229.195 51.5656L238.5 77Z" stroke="#919191"/>
</g>
<g filter="url(#filter2_d_704_67)">
<path d="M58 125L71.7041 89.025L72.4439 87.0831L74.3675 86.3359L110 72.5L74.3675 58.6641L72.4439 57.9172L71.7041 55.9751L58 20L44.2959 55.9751L43.5561 57.9172L41.6325 58.6641L6 72.5L41.6325 86.3359L43.5561 87.0831L44.2959 89.025L58 125Z" fill="url(#paint4_linear_704_67)"/>
<path d="M58 125L71.7041 89.025L72.4439 87.0831L74.3675 86.3359L110 72.5L74.3675 58.6641L72.4439 57.9172L71.7041 55.9751L58 20L44.2959 55.9751L43.5561 57.9172L41.6325 58.6641L6 72.5L41.6325 86.3359L43.5561 87.0831L44.2959 89.025L58 125Z" stroke="#969595"/>
</g>
<defs>
    
</defs>
<filter id="filter0_d_704_67" x="66" y="76" width="205" height="204" filterUnits="userSpaceOnUse" color-interpolation-filters="sRGB">
<feFlood flood-opacity="0" result="BackgroundImageFix"/>
<feColorMatrix in="SourceAlpha" type="matrix" values="0 0 0 0 0 0 0 0 0 0 0 0 0 0 0 0 0 0 127 0" result="hardAlpha"/>
<feOffset dy="4"/>
<feGaussianBlur stdDeviation="2"/>
<feComposite in2="hardAlpha" operator="out"/>
<feColorMatrix type="matrix" values="0 0 0 0 0 0 0 0 0 0 0 0 0 0 0 0 0 0 0.25 0"/>
<feBlend mode="normal" in2="BackgroundImageFix" result="effect1_dropShadow_704_67"/>
<feBlend mode="normal" in="SourceGraphic" in2="effect1_dropShadow_704_67" result="shape"/>
</filter>
<filter id="filter1_d_704_67" x="195.544" y="0.544922" width="85.9111" height="85.9102" filterUnits="userSpaceOnUse" color-interpolation-filters="sRGB">
<feFlood flood-opacity="0" result="BackgroundImageFix"/>
<feColorMatrix in="SourceAlpha" type="matrix" values="0 0 0 0 0 0 0 0 0 0 0 0 0 0 0 0 0 0 127 0" result="hardAlpha"/>
<feOffset dy="4"/>
<feGaussianBlur stdDeviation="2"/>
<feComposite in2="hardAlpha" operator="out"/>
<feColorMatrix type="matrix" values="0 0 0 0 0 0 0 0 0 0 0 0 0 0 0 0 0 0 0.25 0"/>
<feBlend mode="normal" in2="BackgroundImageFix" result="effect1_dropShadow_704_67"/>
<feBlend mode="normal" in="SourceGraphic" in2="effect1_dropShadow_704_67" result="shape"/>
</filter>
<filter id="filter2_d_704_67" x="0.618652" y="18.5952" width="114.763" height="115.81" filterUnits="userSpaceOnUse" color-interpolation-filters="sRGB">
<feFlood flood-opacity="0" result="BackgroundImageFix"/>
<feColorMatrix in="SourceAlpha" type="matrix" values="0 0 0 0 0 0 0 0 0 0 0 0 0 0 0 0 0 0 127 0" result="hardAlpha"/>
<feOffset dy="4"/>
<feGaussianBlur stdDeviation="2"/>
<feComposite in2="hardAlpha" operator="out"/>
<feColorMatrix type="matrix" values="0 0 0 0 0 0 0 0 0 0 0 0 0 0 0 0 0 0 0.25 0"/>
<feBlend mode="normal" in2="BackgroundImageFix" result="effect1_dropShadow_704_67"/>
<feBlend mode="normal" in="SourceGraphic" in2="effect1_dropShadow_704_67" result="shape"/>
</filter>
<linearGradient id="paint0_linear_704_67" x1="273.5" y1="103.5" x2="851.395" y2="44.6295" gradientUnits="userSpaceOnUse">
<stop stop-color="#6F6F6F" stop-opacity="0.74335"/>
<stop stop-color="#2E2E2E"/>
<stop offset="0.0001" stop-color="#4F4D4D"/>
<stop offset="0.648546" stop-color="#1C1C1C"/>
<stop offset="0.913538"/>
</linearGradient>
<linearGradient id="paint1_linear_704_67" x1="192.39" y1="130.491" x2="139.367" y2="232.234" gradientUnits="userSpaceOnUse">
<stop stop-color="#DADADA"/>
<stop offset="0.276042" stop-color="#BAB9B4"/>
<stop offset="0.604167" stop-color="#E9E9E9"/>
<stop offset="0.828125" stop-color="#D1D0CD"/>
</linearGradient>
<radialGradient id="paint2_radial_704_67" cx="0" cy="0" r="1" gradientUnits="userSpaceOnUse" gradientTransform="translate(168.5 174) rotate(90) scale(98 98.5)">
<stop/>
<stop offset="0.510417" stop-color="#2F2F2F"/>
<stop offset="1" stop-color="#848484"/>
</radialGradient>
<linearGradient id="paint3_linear_704_67" x1="258.858" y1="7.85591" x2="205.646" y2="64.2918" gradientUnits="userSpaceOnUse">
<stop stop-color="#F3F3F3"/>
<stop offset="0.291667" stop-color="#B3B3B3"/>
<stop offset="0.375" stop-color="#F0F0F0"/>
<stop offset="0.640625" stop-color="#BBBBBB"/>
<stop offset="0.671875" stop-color="#B3B2B2"/>
<stop offset="0.890625" stop-color="#797575"/>
</linearGradient>
<linearGradient id="paint4_linear_704_67" x1="70.612" y1="49.1915" x2="41.9694" y2="103.353" gradientUnits="userSpaceOnUse">
<stop offset="0.0208333" stop-color="#DADADA"/>
<stop offset="0.229167" stop-color="#ECECEC"/>
<stop offset="0.619792" stop-color="#BAB9B4"/>
<stop offset="1" stop-color="#EDEDED"/>
</linearGradient>
</defs>
</svg>
