<svg width="808" height="808" viewBox="0 0 808 808" fill="none" xmlns="http://www.w3.org/2000/svg">
<g id="Poison">
<g id="OuterCircle" filter="url(#filter0_d_719_146)">
<circle cx="404" cy="400" r="400" fill="url(#paint0_linear_719_146)"/>
<circle cx="404" cy="400" r="385" stroke="url(#paint1_linear_719_146)" stroke-width="30"/>
</g>
<g id="InnerCircle" filter="url(#filter1_d_719_146)">
<circle cx="407" cy="402" r="300" fill="white"/>
<circle cx="407" cy="402" r="300" stroke="url(#paint2_linear_719_146)" stroke-width="30"/>
</g>
<g id="POIISON" filter="url(#filter2_d_719_146)">
<mask id="path-4-inside-1_719_146" fill="white">
<path fill-rule="evenodd" clip-rule="evenodd" d="M538.235 507.382C578.628 475.084 604 428.419 604 376.523C604 279.032 514.457 200 404 200C293.543 200 204 279.032 204 376.523C204 426.545 227.573 471.708 265.449 503.829C263.154 511.755 261.895 520.376 261.895 529.391C261.895 568.387 285.459 600 314.527 600C333.414 600 349.978 586.652 359.263 566.605C368.548 586.652 385.113 600 404 600C421.217 600 436.503 588.909 446.105 571.763C455.708 588.909 470.994 600 488.21 600C517.278 600 540.842 568.387 540.842 529.391C540.842 521.706 539.927 514.308 538.235 507.382ZM519.79 380.024C519.79 429.52 466.77 469.644 401.369 469.644C335.966 469.644 282.948 429.52 282.948 380.024C282.948 330.529 335.966 290.405 401.369 290.405C466.77 290.405 519.79 330.529 519.79 380.024Z"/>
</mask>
<path fill-rule="evenodd" clip-rule="evenodd" d="M538.235 507.382C578.628 475.084 604 428.419 604 376.523C604 279.032 514.457 200 404 200C293.543 200 204 279.032 204 376.523C204 426.545 227.573 471.708 265.449 503.829C263.154 511.755 261.895 520.376 261.895 529.391C261.895 568.387 285.459 600 314.527 600C333.414 600 349.978 586.652 359.263 566.605C368.548 586.652 385.113 600 404 600C421.217 600 436.503 588.909 446.105 571.763C455.708 588.909 470.994 600 488.21 600C517.278 600 540.842 568.387 540.842 529.391C540.842 521.706 539.927 514.308 538.235 507.382ZM519.79 380.024C519.79 429.52 466.77 469.644 401.369 469.644C335.966 469.644 282.948 429.52 282.948 380.024C282.948 330.529 335.966 290.405 401.369 290.405C466.77 290.405 519.79 330.529 519.79 380.024Z" fill="url(#paint3_linear_719_146)"/>
<path fill-rule="evenodd" clip-rule="evenodd" d="M538.235 507.382C578.628 475.084 604 428.419 604 376.523C604 279.032 514.457 200 404 200C293.543 200 204 279.032 204 376.523C204 426.545 227.573 471.708 265.449 503.829C263.154 511.755 261.895 520.376 261.895 529.391C261.895 568.387 285.459 600 314.527 600C333.414 600 349.978 586.652 359.263 566.605C368.548 586.652 385.113 600 404 600C421.217 600 436.503 588.909 446.105 571.763C455.708 588.909 470.994 600 488.21 600C517.278 600 540.842 568.387 540.842 529.391C540.842 521.706 539.927 514.308 538.235 507.382ZM519.79 380.024C519.79 429.52 466.77 469.644 401.369 469.644C335.966 469.644 282.948 429.52 282.948 380.024C282.948 330.529 335.966 290.405 401.369 290.405C466.77 290.405 519.79 330.529 519.79 380.024Z" stroke="url(#paint4_linear_719_146)" stroke-width="60" mask="url(#path-4-inside-1_719_146)"/>
</g>
</g>
<defs>
<filter id="filter0_d_719_146" x="0" y="0" width="808" height="808" filterUnits="userSpaceOnUse" color-interpolation-filters="sRGB">
<feFlood flood-opacity="0" result="BackgroundImageFix"/>
<feColorMatrix in="SourceAlpha" type="matrix" values="0 0 0 0 0 0 0 0 0 0 0 0 0 0 0 0 0 0 127 0" result="hardAlpha"/>
<feOffset dy="4"/>
<feGaussianBlur stdDeviation="2"/>
<feComposite in2="hardAlpha" operator="out"/>
<feColorMatrix type="matrix" values="0 0 0 0 0 0 0 0 0 0 0 0 0 0 0 0 0 0 0.25 0"/>
<feBlend mode="normal" in2="BackgroundImageFix" result="effect1_dropShadow_719_146"/>
<feBlend mode="normal" in="SourceGraphic" in2="effect1_dropShadow_719_146" result="shape"/>
</filter>
<filter id="filter1_d_719_146" x="88" y="87" width="638" height="638" filterUnits="userSpaceOnUse" color-interpolation-filters="sRGB">
<feFlood flood-opacity="0" result="BackgroundImageFix"/>
<feColorMatrix in="SourceAlpha" type="matrix" values="0 0 0 0 0 0 0 0 0 0 0 0 0 0 0 0 0 0 127 0" result="hardAlpha"/>
<feOffset dy="4"/>
<feGaussianBlur stdDeviation="2"/>
<feComposite in2="hardAlpha" operator="out"/>
<feColorMatrix type="matrix" values="0 0 0 0 0 0 0 0 0 0 0 0 0 0 0 0 0 0 0.25 0"/>
<feBlend mode="normal" in2="BackgroundImageFix" result="effect1_dropShadow_719_146"/>
<feBlend mode="normal" in="SourceGraphic" in2="effect1_dropShadow_719_146" result="shape"/>
</filter>
<filter id="filter2_d_719_146" x="200" y="200" width="408" height="408" filterUnits="userSpaceOnUse" color-interpolation-filters="sRGB">
<feFlood flood-opacity="0" result="BackgroundImageFix"/>
<feColorMatrix in="SourceAlpha" type="matrix" values="0 0 0 0 0 0 0 0 0 0 0 0 0 0 0 0 0 0 127 0" result="hardAlpha"/>
<feOffset dy="4"/>
<feGaussianBlur stdDeviation="2"/>
<feComposite in2="hardAlpha" operator="out"/>
<feColorMatrix type="matrix" values="0 0 0 0 0 0 0 0 0 0 0 0 0 0 0 0 0 0 0.25 0"/>
<feBlend mode="normal" in2="BackgroundImageFix" result="effect1_dropShadow_719_146"/>
<feBlend mode="normal" in="SourceGraphic" in2="effect1_dropShadow_719_146" result="shape"/>
</filter>
<linearGradient id="paint0_linear_719_146" x1="80.0173" y1="166.831" x2="725.019" y2="621.618" gradientUnits="userSpaceOnUse">
<stop stop-color="#A040A0"/>
<stop offset="0.466667" stop-color="#C183C1"/>
<stop offset="0.84375" stop-color="#682A68"/>
</linearGradient>
<linearGradient id="paint1_linear_719_146" x1="80.0173" y1="166.831" x2="725.019" y2="621.618" gradientUnits="userSpaceOnUse">
<stop stop-color="#682A68"/>
<stop offset="0.642708" stop-color="#C183C1"/>
<stop offset="1" stop-color="#A040A0"/>
</linearGradient>
<linearGradient id="paint2_linear_719_146" x1="164.013" y1="227.124" x2="647.764" y2="568.214" gradientUnits="userSpaceOnUse">
<stop stop-color="#682A68"/>
<stop offset="0.642708" stop-color="#C183C1"/>
<stop offset="1" stop-color="#A040A0"/>
</linearGradient>
<linearGradient id="paint3_linear_719_146" x1="242.009" y1="283.416" x2="564.509" y2="510.809" gradientUnits="userSpaceOnUse">
<stop stop-color="#A040A0"/>
<stop offset="0.466667" stop-color="#C183C1"/>
<stop offset="0.84375" stop-color="#682A68"/>
</linearGradient>
<linearGradient id="paint4_linear_719_146" x1="266.069" y1="248.485" x2="460.797" y2="580.866" gradientUnits="userSpaceOnUse">
<stop stop-color="#682A68"/>
<stop offset="1" stop-color="#C183C1" stop-opacity="0"/>
</linearGradient>
</defs>
</svg>
