<svg width="1358" height="1358" viewBox="0 0 1358 1358" fill="none" xmlns="http://www.w3.org/2000/svg">
<g filter="url(#filter0_d_717_171)">
<mask id="path-1-inside-1_717_171" fill="white">
<path fill-rule="evenodd" clip-rule="evenodd" d="M1015.87 971.475C1015.87 971.475 902.377 1062.5 676.523 1024.83C505.17 996.254 413.778 807.363 413.778 705.832C413.778 465.108 591.945 410.327 712.398 410.327C832.849 410.327 911.427 527.762 911.427 618.686C911.427 709.61 847.119 789.138 747.041 789.138C646.965 789.138 617.325 718.88 617.325 654.285C617.325 589.693 669.585 566.935 717.247 566.935C764.908 566.935 781.227 607.626 781.227 642.598C781.227 677.572 754.093 690.096 731.46 690.096C708.828 690.096 706.59 678.678 697.928 666.677C689.265 654.679 708.975 609.259 676.523 609.259C644.07 609.259 638.021 661.474 638.021 661.474C638.021 661.474 649.852 762.265 747.041 760.527C844.233 758.786 890.34 683.649 876.94 609.259C863.541 534.868 791.345 455.819 664.638 471.792C537.932 487.765 486.199 615.79 509.002 752.605C531.806 889.422 695.709 968.693 824.58 940.173C953.452 911.653 1081.81 818.356 1081.81 581.812C1081.81 345.265 876.94 203.079 632.657 226.512C388.373 249.945 236.734 463.514 246.44 720.121C256.146 976.728 499.636 1116.48 705.531 1123.69C911.427 1130.89 1037.65 1011.7 1037.65 1011.7C1037.65 1011.7 1066.04 986.39 1054.91 966.623C1043.78 946.856 1015.87 971.475 1015.87 971.475Z"/>
</mask>
<path fill-rule="evenodd" clip-rule="evenodd" d="M1015.87 971.475C1015.87 971.475 902.377 1062.5 676.523 1024.83C505.17 996.254 413.778 807.363 413.778 705.832C413.778 465.108 591.945 410.327 712.398 410.327C832.849 410.327 911.427 527.762 911.427 618.686C911.427 709.61 847.119 789.138 747.041 789.138C646.965 789.138 617.325 718.88 617.325 654.285C617.325 589.693 669.585 566.935 717.247 566.935C764.908 566.935 781.227 607.626 781.227 642.598C781.227 677.572 754.093 690.096 731.46 690.096C708.828 690.096 706.59 678.678 697.928 666.677C689.265 654.679 708.975 609.259 676.523 609.259C644.07 609.259 638.021 661.474 638.021 661.474C638.021 661.474 649.852 762.265 747.041 760.527C844.233 758.786 890.34 683.649 876.94 609.259C863.541 534.868 791.345 455.819 664.638 471.792C537.932 487.765 486.199 615.79 509.002 752.605C531.806 889.422 695.709 968.693 824.58 940.173C953.452 911.653 1081.81 818.356 1081.81 581.812C1081.81 345.265 876.94 203.079 632.657 226.512C388.373 249.945 236.734 463.514 246.44 720.121C256.146 976.728 499.636 1116.48 705.531 1123.69C911.427 1130.89 1037.65 1011.7 1037.65 1011.7C1037.65 1011.7 1066.04 986.39 1054.91 966.623C1043.78 946.856 1015.87 971.475 1015.87 971.475Z" fill="url(#paint0_linear_717_171)"/>
<path fill-rule="evenodd" clip-rule="evenodd" d="M1015.87 971.475C1015.87 971.475 902.377 1062.5 676.523 1024.83C505.17 996.254 413.778 807.363 413.778 705.832C413.778 465.108 591.945 410.327 712.398 410.327C832.849 410.327 911.427 527.762 911.427 618.686C911.427 709.61 847.119 789.138 747.041 789.138C646.965 789.138 617.325 718.88 617.325 654.285C617.325 589.693 669.585 566.935 717.247 566.935C764.908 566.935 781.227 607.626 781.227 642.598C781.227 677.572 754.093 690.096 731.46 690.096C708.828 690.096 706.59 678.678 697.928 666.677C689.265 654.679 708.975 609.259 676.523 609.259C644.07 609.259 638.021 661.474 638.021 661.474C638.021 661.474 649.852 762.265 747.041 760.527C844.233 758.786 890.34 683.649 876.94 609.259C863.541 534.868 791.345 455.819 664.638 471.792C537.932 487.765 486.199 615.79 509.002 752.605C531.806 889.422 695.709 968.693 824.58 940.173C953.452 911.653 1081.81 818.356 1081.81 581.812C1081.81 345.265 876.94 203.079 632.657 226.512C388.373 249.945 236.734 463.514 246.44 720.121C256.146 976.728 499.636 1116.48 705.531 1123.69C911.427 1130.89 1037.65 1011.7 1037.65 1011.7C1037.65 1011.7 1066.04 986.39 1054.91 966.623C1043.78 946.856 1015.87 971.475 1015.87 971.475Z" stroke="url(#paint1_linear_717_171)" stroke-width="60" mask="url(#path-1-inside-1_717_171)"/>
</g>
<g filter="url(#filter1_d_717_171)">
<circle cx="679" cy="675" r="615.5" stroke="url(#paint2_linear_717_171)" stroke-width="119" shape-rendering="crispEdges"/>
</g>
<defs>
<filter id="filter0_d_717_171" x="242" y="224" width="843.805" height="908" filterUnits="userSpaceOnUse" color-interpolation-filters="sRGB">
<feFlood flood-opacity="0" result="BackgroundImageFix"/>
<feColorMatrix in="SourceAlpha" type="matrix" values="0 0 0 0 0 0 0 0 0 0 0 0 0 0 0 0 0 0 127 0" result="hardAlpha"/>
<feOffset dy="4"/>
<feGaussianBlur stdDeviation="2"/>
<feComposite in2="hardAlpha" operator="out"/>
<feColorMatrix type="matrix" values="0 0 0 0 0 0 0 0 0 0 0 0 0 0 0 0 0 0 0.25 0"/>
<feBlend mode="normal" in2="BackgroundImageFix" result="effect1_dropShadow_717_171"/>
<feBlend mode="normal" in="SourceGraphic" in2="effect1_dropShadow_717_171" result="shape"/>
</filter>
<filter id="filter1_d_717_171" x="0" y="0" width="1358" height="1358" filterUnits="userSpaceOnUse" color-interpolation-filters="sRGB">
<feFlood flood-opacity="0" result="BackgroundImageFix"/>
<feColorMatrix in="SourceAlpha" type="matrix" values="0 0 0 0 0 0 0 0 0 0 0 0 0 0 0 0 0 0 127 0" result="hardAlpha"/>
<feOffset dy="4"/>
<feGaussianBlur stdDeviation="2"/>
<feComposite in2="hardAlpha" operator="out"/>
<feColorMatrix type="matrix" values="0 0 0 0 0 0 0 0 0 0 0 0 0 0 0 0 0 0 0.25 0"/>
<feBlend mode="normal" in2="BackgroundImageFix" result="effect1_dropShadow_717_171"/>
<feBlend mode="normal" in="SourceGraphic" in2="effect1_dropShadow_717_171" result="shape"/>
</filter>
<linearGradient id="paint0_linear_717_171" x1="325.42" y1="411.685" x2="1031.55" y2="874.058" gradientUnits="userSpaceOnUse">
<stop stop-color="#F85888"/>
<stop offset="0.442708" stop-color="#FA92B2"/>
<stop offset="0.84375" stop-color="#F85888"/>
</linearGradient>
<linearGradient id="paint1_linear_717_171" x1="375.694" y1="333.091" x2="829.008" y2="1051.66" gradientUnits="userSpaceOnUse">
<stop stop-color="#F85888"/>
<stop offset="1" stop-color="#FA92B2" stop-opacity="0"/>
</linearGradient>
<linearGradient id="paint2_linear_717_171" x1="132.279" y1="281.528" x2="1220.72" y2="1048.98" gradientUnits="userSpaceOnUse">
<stop stop-color="#F85888"/>
<stop offset="0.442708" stop-color="#FA92B2"/>
<stop offset="0.84375" stop-color="#F85888"/>
</linearGradient>
</defs>
</svg>
