<?xml version="1.0" encoding="UTF-8" standalone="no"?>
<svg
   width="50.379364"
   height="48.475597"
   viewBox="0 0 50.379364 48.475597"
   fill="none"
   version="1.1"
   id="svg394"
   sodipodi:docname="type_c21_rock.svg"
   inkscape:version="1.1.2 (b8e25be833, 2022-02-05)"
   xmlns:inkscape="http://www.inkscape.org/namespaces/inkscape"
   xmlns:sodipodi="http://sodipodi.sourceforge.net/DTD/sodipodi-0.dtd"
   xmlns="http://www.w3.org/2000/svg"
   xmlns:svg="http://www.w3.org/2000/svg">
  <sodipodi:namedview
     id="namedview396"
     pagecolor="#ffffff"
     bordercolor="#cccccc"
     borderopacity="1"
     inkscape:pageshadow="0"
     inkscape:pageopacity="1"
     inkscape:pagecheckerboard="0"
     showgrid="false"
     inkscape:zoom="1.0804455"
     inkscape:cx="-152.252"
     inkscape:cy="21.750286"
     inkscape:window-width="3840"
     inkscape:window-height="2071"
     inkscape:window-x="-9"
     inkscape:window-y="-9"
     inkscape:window-maximized="1"
     inkscape:current-layer="svg394" />
  <g
     filter="url(#filter0_d_719_77)"
     id="g291"
     transform="scale(0.0623507,0.05999455)">
    <circle
       cx="404"
       cy="400"
       r="400"
       fill="url(#paint0_linear_719_77)"
       id="circle287"
       style="fill:url(#paint0_linear_719_77)" />
    <circle
       cx="404"
       cy="400"
       r="385"
       stroke="url(#paint1_linear_719_77)"
       stroke-width="30"
       id="circle289"
       style="stroke:url(#paint1_linear_719_77)" />
  </g>
  <g
     filter="url(#filter1_d_719_77)"
     id="g297"
     transform="scale(0.0623507,0.05999455)">
    <circle
       cx="407"
       cy="402"
       r="300"
       fill="#ffffff"
       id="circle293" />
    <circle
       cx="407"
       cy="402"
       r="300"
       stroke="url(#paint2_linear_719_77)"
       stroke-width="30"
       id="circle295"
       style="stroke:url(#paint2_linear_719_77)" />
  </g>
  <g
     filter="url(#filter2_d_719_77)"
     id="g306"
     transform="scale(0.0623507,0.05999455)">
    <mask
       id="path-4-inside-1_719_77"
       fill="#ffffff">
      <path
         fill-rule="evenodd"
         clip-rule="evenodd"
         d="m 524.473,389.28 c -0.025,-0.04 -0.035,-0.089 -0.028,-0.138 l 28.239,-188.991 c 0.013,-0.087 0.079,-0.151 0.155,-0.151 h 8.938 c 0.069,0 0.13,0.051 0.15,0.127 l 63.621,231.199 c 0.02,0.072 -10e-4,0.151 -0.053,0.197 l -46.909,42.036 c -0.07,0.062 -0.171,0.046 -0.224,-0.036 z M 182,514.568 c 0,0.078 0.044,0.147 0.109,0.172 l 96.697,36.288 c 0.046,0.018 0.098,0.009 0.139,-0.023 l 216.14,-171.263 c 0.037,-0.029 0.061,-0.074 0.067,-0.123 L 518.33,201.12 c 0.015,-0.11 -0.06,-0.208 -0.156,-0.208 H 326.728 c -0.048,0 -0.092,0.024 -0.122,0.065 l -144.57,200.168 c -0.023,0.032 -0.036,0.073 -0.036,0.116 z m 137.1,45.706 105.639,39.717 c 0.048,0.018 0.101,0.009 0.141,-0.025 L 550.651,496.421 c 0.07,-0.056 0.088,-0.167 0.04,-0.248 l -47.148,-80.527 c -0.049,-0.084 -0.148,-0.106 -0.22,-0.048 z"
         id="path299" />
    </mask>
    <path
       fill-rule="evenodd"
       clip-rule="evenodd"
       d="m 524.473,389.28 c -0.025,-0.04 -0.035,-0.089 -0.028,-0.138 l 28.239,-188.991 c 0.013,-0.087 0.079,-0.151 0.155,-0.151 h 8.938 c 0.069,0 0.13,0.051 0.15,0.127 l 63.621,231.199 c 0.02,0.072 -10e-4,0.151 -0.053,0.197 l -46.909,42.036 c -0.07,0.062 -0.171,0.046 -0.224,-0.036 z M 182,514.568 c 0,0.078 0.044,0.147 0.109,0.172 l 96.697,36.288 c 0.046,0.018 0.098,0.009 0.139,-0.023 l 216.14,-171.263 c 0.037,-0.029 0.061,-0.074 0.067,-0.123 L 518.33,201.12 c 0.015,-0.11 -0.06,-0.208 -0.156,-0.208 H 326.728 c -0.048,0 -0.092,0.024 -0.122,0.065 l -144.57,200.168 c -0.023,0.032 -0.036,0.073 -0.036,0.116 z m 137.1,45.706 105.639,39.717 c 0.048,0.018 0.101,0.009 0.141,-0.025 L 550.651,496.421 c 0.07,-0.056 0.088,-0.167 0.04,-0.248 l -47.148,-80.527 c -0.049,-0.084 -0.148,-0.106 -0.22,-0.048 z"
       fill="url(#paint3_linear_719_77)"
       id="path302"
       style="fill:url(#paint3_linear_719_77)" />
    <path
       fill-rule="evenodd"
       clip-rule="evenodd"
       d="m 524.473,389.28 c -0.025,-0.04 -0.035,-0.089 -0.028,-0.138 l 28.239,-188.991 c 0.013,-0.087 0.079,-0.151 0.155,-0.151 h 8.938 c 0.069,0 0.13,0.051 0.15,0.127 l 63.621,231.199 c 0.02,0.072 -10e-4,0.151 -0.053,0.197 l -46.909,42.036 c -0.07,0.062 -0.171,0.046 -0.224,-0.036 z M 182,514.568 c 0,0.078 0.044,0.147 0.109,0.172 l 96.697,36.288 c 0.046,0.018 0.098,0.009 0.139,-0.023 l 216.14,-171.263 c 0.037,-0.029 0.061,-0.074 0.067,-0.123 L 518.33,201.12 c 0.015,-0.11 -0.06,-0.208 -0.156,-0.208 H 326.728 c -0.048,0 -0.092,0.024 -0.122,0.065 l -144.57,200.168 c -0.023,0.032 -0.036,0.073 -0.036,0.116 z m 137.1,45.706 105.639,39.717 c 0.048,0.018 0.101,0.009 0.141,-0.025 L 550.651,496.421 c 0.07,-0.056 0.088,-0.167 0.04,-0.248 l -47.148,-80.527 c -0.049,-0.084 -0.148,-0.106 -0.22,-0.048 z"
       stroke="url(#paint4_linear_719_77)"
       stroke-width="60"
       mask="url(#path-4-inside-1_719_77)"
       id="path304"
       style="stroke:url(#paint4_linear_719_77)" />
  </g>
  <defs
     id="defs392">
    <filter
       id="filter0_d_719_77"
       x="0"
       y="0"
       width="808"
       height="808"
       filterUnits="userSpaceOnUse"
       color-interpolation-filters="sRGB">
      <feFlood
         flood-opacity="0"
         result="BackgroundImageFix"
         id="feFlood308" />
      <feColorMatrix
         in="SourceAlpha"
         type="matrix"
         values="0 0 0 0 0 0 0 0 0 0 0 0 0 0 0 0 0 0 127 0"
         result="hardAlpha"
         id="feColorMatrix310" />
      <feOffset
         dy="4"
         id="feOffset312" />
      <feGaussianBlur
         stdDeviation="2"
         id="feGaussianBlur314" />
      <feComposite
         in2="hardAlpha"
         operator="out"
         id="feComposite316" />
      <feColorMatrix
         type="matrix"
         values="0 0 0 0 0 0 0 0 0 0 0 0 0 0 0 0 0 0 0.25 0"
         id="feColorMatrix318" />
      <feBlend
         mode="normal"
         in2="BackgroundImageFix"
         result="effect1_dropShadow_719_77"
         id="feBlend320" />
      <feBlend
         mode="normal"
         in="SourceGraphic"
         in2="effect1_dropShadow_719_77"
         result="shape"
         id="feBlend322" />
    </filter>
    <filter
       id="filter1_d_719_77"
       x="88"
       y="87"
       width="638"
       height="638"
       filterUnits="userSpaceOnUse"
       color-interpolation-filters="sRGB">
      <feFlood
         flood-opacity="0"
         result="BackgroundImageFix"
         id="feFlood325" />
      <feColorMatrix
         in="SourceAlpha"
         type="matrix"
         values="0 0 0 0 0 0 0 0 0 0 0 0 0 0 0 0 0 0 127 0"
         result="hardAlpha"
         id="feColorMatrix327" />
      <feOffset
         dy="4"
         id="feOffset329" />
      <feGaussianBlur
         stdDeviation="2"
         id="feGaussianBlur331" />
      <feComposite
         in2="hardAlpha"
         operator="out"
         id="feComposite333" />
      <feColorMatrix
         type="matrix"
         values="0 0 0 0 0 0 0 0 0 0 0 0 0 0 0 0 0 0 0.25 0"
         id="feColorMatrix335" />
      <feBlend
         mode="normal"
         in2="BackgroundImageFix"
         result="effect1_dropShadow_719_77"
         id="feBlend337" />
      <feBlend
         mode="normal"
         in="SourceGraphic"
         in2="effect1_dropShadow_719_77"
         result="shape"
         id="feBlend339" />
    </filter>
    <filter
       id="filter2_d_719_77"
       x="178"
       y="200"
       width="451.556"
       height="408"
       filterUnits="userSpaceOnUse"
       color-interpolation-filters="sRGB">
      <feFlood
         flood-opacity="0"
         result="BackgroundImageFix"
         id="feFlood342" />
      <feColorMatrix
         in="SourceAlpha"
         type="matrix"
         values="0 0 0 0 0 0 0 0 0 0 0 0 0 0 0 0 0 0 127 0"
         result="hardAlpha"
         id="feColorMatrix344" />
      <feOffset
         dy="4"
         id="feOffset346" />
      <feGaussianBlur
         stdDeviation="2"
         id="feGaussianBlur348" />
      <feComposite
         in2="hardAlpha"
         operator="out"
         id="feComposite350" />
      <feColorMatrix
         type="matrix"
         values="0 0 0 0 0 0 0 0 0 0 0 0 0 0 0 0 0 0 0.25 0"
         id="feColorMatrix352" />
      <feBlend
         mode="normal"
         in2="BackgroundImageFix"
         result="effect1_dropShadow_719_77"
         id="feBlend354" />
      <feBlend
         mode="normal"
         in="SourceGraphic"
         in2="effect1_dropShadow_719_77"
         result="shape"
         id="feBlend356" />
    </filter>
    <linearGradient
       id="paint0_linear_719_77"
       x1="80.017303"
       y1="166.83099"
       x2="725.01898"
       y2="621.61798"
       gradientUnits="userSpaceOnUse">
      <stop
         stop-color="#E0C068"
         id="stop359" />
      <stop
         offset="0.442708"
         stop-color="#EBD69D"
         id="stop361" />
      <stop
         offset="0.84375"
         stop-color="#927D44"
         id="stop363" />
    </linearGradient>
    <linearGradient
       id="paint1_linear_719_77"
       x1="80.017303"
       y1="166.83099"
       x2="725.01898"
       y2="621.61798"
       gradientUnits="userSpaceOnUse">
      <stop
         offset="0.0760415"
         stop-color="#927D44"
         id="stop366" />
      <stop
         offset="0.711458"
         stop-color="#EBD69D"
         id="stop368" />
      <stop
         offset="1"
         stop-color="#E0C068"
         id="stop370" />
    </linearGradient>
    <linearGradient
       id="paint2_linear_719_77"
       x1="164.013"
       y1="227.12399"
       x2="647.76398"
       y2="568.21399"
       gradientUnits="userSpaceOnUse">
      <stop
         stop-color="#927D44"
         id="stop373" />
      <stop
         offset="0.628125"
         stop-color="#EBD69D"
         id="stop375" />
      <stop
         offset="1"
         stop-color="#E0C068"
         id="stop377" />
    </linearGradient>
    <linearGradient
       id="paint3_linear_719_77"
       x1="224.147"
       y1="283.41599"
       x2="556.427"
       y2="543.216"
       gradientUnits="userSpaceOnUse">
      <stop
         stop-color="#B8A038"
         id="stop380" />
      <stop
         offset="0.442708"
         stop-color="#D1C17D"
         id="stop382" />
      <stop
         offset="0.84375"
         stop-color="#786824"
         id="stop384" />
    </linearGradient>
    <linearGradient
       id="paint4_linear_719_77"
       x1="250.828"
       y1="248.485"
       x2="435.23401"
       y2="597.52197"
       gradientUnits="userSpaceOnUse">
      <stop
         stop-color="#786824"
         id="stop387" />
      <stop
         offset="1"
         stop-color="#D1C17D"
         stop-opacity="0"
         id="stop389" />
    </linearGradient>
  </defs>
</svg>
