<svg width="808" height="808" viewBox="0 0 808 808" fill="none" xmlns="http://www.w3.org/2000/svg">
<g filter="url(#filter0_d_719_104)">
<circle cx="404" cy="400" r="400" fill="url(#paint0_linear_719_104)"/>
<circle cx="404" cy="400" r="385" stroke="url(#paint1_linear_719_104)" stroke-width="30"/>
</g>
<g filter="url(#filter1_d_719_104)">
<circle cx="407" cy="402" r="300" fill="white"/>
<circle cx="407" cy="402" r="300" stroke="url(#paint2_linear_719_104)" stroke-width="30"/>
</g>
<g filter="url(#filter2_d_719_104)">
<mask id="path-4-inside-1_719_104" fill="white">
<path fill-rule="evenodd" clip-rule="evenodd" d="M481.506 198.392C481.797 197.976 482.368 197.875 482.784 198.166L511.167 218.054C511.583 218.344 511.684 218.917 511.393 219.332L471.887 275.788C491.093 281.928 504.178 288.551 504.178 288.551C504.178 288.551 472.195 343.6 417.949 343.6C363.702 343.6 325.155 292.293 325.155 292.293C325.155 292.293 338.823 283.565 359.084 276.079L315.752 224.405C315.426 224.016 315.477 223.437 315.865 223.111L342.409 200.824C342.797 200.498 343.376 200.549 343.701 200.937L398.567 266.365C403.265 265.834 408.051 265.537 412.881 265.537C419.822 265.537 426.756 266.065 433.524 266.961L481.506 198.392ZM492.238 346.207C506.714 335.862 528.619 308.86 528.619 308.86C528.619 308.86 584.571 353.227 584.571 447.304C584.571 541.38 487.838 598 487.838 598C487.838 598 441.621 551.295 430.275 492.091C418.93 432.886 447.058 367.146 447.058 367.146C447.058 367.146 477.761 356.552 492.238 346.207V346.207ZM336.333 346.207C321.857 335.862 299.952 308.86 299.952 308.86C299.952 308.86 244 353.227 244 447.304C244 541.38 340.733 598 340.733 598C340.733 598 386.95 551.295 398.296 492.091C409.641 432.886 381.513 367.146 381.513 367.146C381.513 367.146 350.81 356.552 336.333 346.207V346.207Z"/>
</mask>
<path fill-rule="evenodd" clip-rule="evenodd" d="M481.506 198.392C481.797 197.976 482.368 197.875 482.784 198.166L511.167 218.054C511.583 218.344 511.684 218.917 511.393 219.332L471.887 275.788C491.093 281.928 504.178 288.551 504.178 288.551C504.178 288.551 472.195 343.6 417.949 343.6C363.702 343.6 325.155 292.293 325.155 292.293C325.155 292.293 338.823 283.565 359.084 276.079L315.752 224.405C315.426 224.016 315.477 223.437 315.865 223.111L342.409 200.824C342.797 200.498 343.376 200.549 343.701 200.937L398.567 266.365C403.265 265.834 408.051 265.537 412.881 265.537C419.822 265.537 426.756 266.065 433.524 266.961L481.506 198.392ZM492.238 346.207C506.714 335.862 528.619 308.86 528.619 308.86C528.619 308.86 584.571 353.227 584.571 447.304C584.571 541.38 487.838 598 487.838 598C487.838 598 441.621 551.295 430.275 492.091C418.93 432.886 447.058 367.146 447.058 367.146C447.058 367.146 477.761 356.552 492.238 346.207V346.207ZM336.333 346.207C321.857 335.862 299.952 308.86 299.952 308.86C299.952 308.86 244 353.227 244 447.304C244 541.38 340.733 598 340.733 598C340.733 598 386.95 551.295 398.296 492.091C409.641 432.886 381.513 367.146 381.513 367.146C381.513 367.146 350.81 356.552 336.333 346.207V346.207Z" fill="url(#paint3_linear_719_104)"/>
<path fill-rule="evenodd" clip-rule="evenodd" d="M481.506 198.392C481.797 197.976 482.368 197.875 482.784 198.166L511.167 218.054C511.583 218.344 511.684 218.917 511.393 219.332L471.887 275.788C491.093 281.928 504.178 288.551 504.178 288.551C504.178 288.551 472.195 343.6 417.949 343.6C363.702 343.6 325.155 292.293 325.155 292.293C325.155 292.293 338.823 283.565 359.084 276.079L315.752 224.405C315.426 224.016 315.477 223.437 315.865 223.111L342.409 200.824C342.797 200.498 343.376 200.549 343.701 200.937L398.567 266.365C403.265 265.834 408.051 265.537 412.881 265.537C419.822 265.537 426.756 266.065 433.524 266.961L481.506 198.392ZM492.238 346.207C506.714 335.862 528.619 308.86 528.619 308.86C528.619 308.86 584.571 353.227 584.571 447.304C584.571 541.38 487.838 598 487.838 598C487.838 598 441.621 551.295 430.275 492.091C418.93 432.886 447.058 367.146 447.058 367.146C447.058 367.146 477.761 356.552 492.238 346.207V346.207ZM336.333 346.207C321.857 335.862 299.952 308.86 299.952 308.86C299.952 308.86 244 353.227 244 447.304C244 541.38 340.733 598 340.733 598C340.733 598 386.95 551.295 398.296 492.091C409.641 432.886 381.513 367.146 381.513 367.146C381.513 367.146 350.81 356.552 336.333 346.207V346.207Z" stroke="url(#paint4_linear_719_104)" stroke-width="60" mask="url(#path-4-inside-1_719_104)"/>
</g>
<defs>
<filter id="filter0_d_719_104" x="0" y="0" width="808" height="808" filterUnits="userSpaceOnUse" color-interpolation-filters="sRGB">
<feFlood flood-opacity="0" result="BackgroundImageFix"/>
<feColorMatrix in="SourceAlpha" type="matrix" values="0 0 0 0 0 0 0 0 0 0 0 0 0 0 0 0 0 0 127 0" result="hardAlpha"/>
<feOffset dy="4"/>
<feGaussianBlur stdDeviation="2"/>
<feComposite in2="hardAlpha" operator="out"/>
<feColorMatrix type="matrix" values="0 0 0 0 0 0 0 0 0 0 0 0 0 0 0 0 0 0 0.25 0"/>
<feBlend mode="normal" in2="BackgroundImageFix" result="effect1_dropShadow_719_104"/>
<feBlend mode="normal" in="SourceGraphic" in2="effect1_dropShadow_719_104" result="shape"/>
</filter>
<filter id="filter1_d_719_104" x="88" y="87" width="638" height="638" filterUnits="userSpaceOnUse" color-interpolation-filters="sRGB">
<feFlood flood-opacity="0" result="BackgroundImageFix"/>
<feColorMatrix in="SourceAlpha" type="matrix" values="0 0 0 0 0 0 0 0 0 0 0 0 0 0 0 0 0 0 127 0" result="hardAlpha"/>
<feOffset dy="4"/>
<feGaussianBlur stdDeviation="2"/>
<feComposite in2="hardAlpha" operator="out"/>
<feColorMatrix type="matrix" values="0 0 0 0 0 0 0 0 0 0 0 0 0 0 0 0 0 0 0.25 0"/>
<feBlend mode="normal" in2="BackgroundImageFix" result="effect1_dropShadow_719_104"/>
<feBlend mode="normal" in="SourceGraphic" in2="effect1_dropShadow_719_104" result="shape"/>
</filter>
<filter id="filter2_d_719_104" x="240" y="198" width="348.571" height="408" filterUnits="userSpaceOnUse" color-interpolation-filters="sRGB">
<feFlood flood-opacity="0" result="BackgroundImageFix"/>
<feColorMatrix in="SourceAlpha" type="matrix" values="0 0 0 0 0 0 0 0 0 0 0 0 0 0 0 0 0 0 127 0" result="hardAlpha"/>
<feOffset dy="4"/>
<feGaussianBlur stdDeviation="2"/>
<feComposite in2="hardAlpha" operator="out"/>
<feColorMatrix type="matrix" values="0 0 0 0 0 0 0 0 0 0 0 0 0 0 0 0 0 0 0.25 0"/>
<feBlend mode="normal" in2="BackgroundImageFix" result="effect1_dropShadow_719_104"/>
<feBlend mode="normal" in="SourceGraphic" in2="effect1_dropShadow_719_104" result="shape"/>
</filter>
<linearGradient id="paint0_linear_719_104" x1="80.0173" y1="166.831" x2="725.019" y2="621.618" gradientUnits="userSpaceOnUse">
<stop stop-color="#A8B820"/>
<stop offset="0.453125" stop-color="#D1DE68"/>
<stop offset="0.932292" stop-color="#6D7815"/>
</linearGradient>
<linearGradient id="paint1_linear_719_104" x1="404" y1="0" x2="404" y2="800" gradientUnits="userSpaceOnUse">
<stop offset="0.00312487" stop-color="#6D7815"/>
<stop offset="0.654167" stop-color="#C6D16E"/>
<stop offset="1" stop-color="#A8B820"/>
</linearGradient>
<linearGradient id="paint2_linear_719_104" x1="407" y1="102" x2="407" y2="702" gradientUnits="userSpaceOnUse">
<stop offset="0.00312487" stop-color="#6D7815"/>
<stop offset="0.654167" stop-color="#C6D16E"/>
<stop offset="1" stop-color="#A8B820"/>
</linearGradient>
<linearGradient id="paint3_linear_719_104" x1="276.362" y1="281.416" x2="578.55" y2="462.831" gradientUnits="userSpaceOnUse">
<stop stop-color="#A8B820"/>
<stop offset="0.453125" stop-color="#D1DE68"/>
<stop offset="0.932292" stop-color="#6D7815"/>
</linearGradient>
<linearGradient id="paint4_linear_719_104" x1="296.847" y1="246.485" x2="505.34" y2="549.488" gradientUnits="userSpaceOnUse">
<stop stop-color="#6D7815"/>
<stop offset="1" stop-color="#C6D16E" stop-opacity="0"/>
</linearGradient>
</defs>
</svg>
