<svg width="808" height="808" viewBox="0 0 808 808" fill="none" xmlns="http://www.w3.org/2000/svg">
<g filter="url(#filter0_d_719_81)">
<circle cx="404" cy="400" r="400" fill="url(#paint0_linear_719_81)"/>
<circle cx="404" cy="400" r="385" stroke="url(#paint1_linear_719_81)" stroke-width="30"/>
</g>
<g filter="url(#filter1_d_719_81)">
<circle cx="407" cy="402" r="300" fill="white"/>
<circle cx="407" cy="402" r="300" stroke="url(#paint2_linear_719_81)" stroke-width="30"/>
</g>
<g filter="url(#filter2_d_719_81)">
<mask id="path-4-inside-1_719_81" fill="white">
<path fill-rule="evenodd" clip-rule="evenodd" d="M302.907 152.572C302.81 152.292 303.018 152 303.314 152H479.256C479.445 152 479.612 152.123 479.668 152.304L560.481 413.784C560.566 414.061 560.359 414.342 560.069 414.342H442.937C442.794 414.342 442.692 414.479 442.731 414.617L509.909 651.448C510.04 651.908 509.438 652.208 509.152 651.826L248.087 304.136C247.874 303.852 248.076 303.447 248.431 303.447H354.738C354.885 303.447 354.989 303.301 354.94 303.16L302.907 152.572Z"/>
</mask>
<path fill-rule="evenodd" clip-rule="evenodd" d="M302.907 152.572C302.81 152.292 303.018 152 303.314 152H479.256C479.445 152 479.612 152.123 479.668 152.304L560.481 413.784C560.566 414.061 560.359 414.342 560.069 414.342H442.937C442.794 414.342 442.692 414.479 442.731 414.617L509.909 651.448C510.04 651.908 509.438 652.208 509.152 651.826L248.087 304.136C247.874 303.852 248.076 303.447 248.431 303.447H354.738C354.885 303.447 354.989 303.301 354.94 303.16L302.907 152.572Z" fill="url(#paint3_linear_719_81)"/>
<path fill-rule="evenodd" clip-rule="evenodd" d="M302.907 152.572C302.81 152.292 303.018 152 303.314 152H479.256C479.445 152 479.612 152.123 479.668 152.304L560.481 413.784C560.566 414.061 560.359 414.342 560.069 414.342H442.937C442.794 414.342 442.692 414.479 442.731 414.617L509.909 651.448C510.04 651.908 509.438 652.208 509.152 651.826L248.087 304.136C247.874 303.852 248.076 303.447 248.431 303.447H354.738C354.885 303.447 354.989 303.301 354.94 303.16L302.907 152.572Z" stroke="url(#paint4_linear_719_81)" stroke-width="60" mask="url(#path-4-inside-1_719_81)"/>
</g>
<defs>
<filter id="filter0_d_719_81" x="0" y="0" width="808" height="808" filterUnits="userSpaceOnUse" color-interpolation-filters="sRGB">
<feFlood flood-opacity="0" result="BackgroundImageFix"/>
<feColorMatrix in="SourceAlpha" type="matrix" values="0 0 0 0 0 0 0 0 0 0 0 0 0 0 0 0 0 0 127 0" result="hardAlpha"/>
<feOffset dy="4"/>
<feGaussianBlur stdDeviation="2"/>
<feComposite in2="hardAlpha" operator="out"/>
<feColorMatrix type="matrix" values="0 0 0 0 0 0 0 0 0 0 0 0 0 0 0 0 0 0 0.25 0"/>
<feBlend mode="normal" in2="BackgroundImageFix" result="effect1_dropShadow_719_81"/>
<feBlend mode="normal" in="SourceGraphic" in2="effect1_dropShadow_719_81" result="shape"/>
</filter>
<filter id="filter1_d_719_81" x="88" y="87" width="638" height="638" filterUnits="userSpaceOnUse" color-interpolation-filters="sRGB">
<feFlood flood-opacity="0" result="BackgroundImageFix"/>
<feColorMatrix in="SourceAlpha" type="matrix" values="0 0 0 0 0 0 0 0 0 0 0 0 0 0 0 0 0 0 127 0" result="hardAlpha"/>
<feOffset dy="4"/>
<feGaussianBlur stdDeviation="2"/>
<feComposite in2="hardAlpha" operator="out"/>
<feColorMatrix type="matrix" values="0 0 0 0 0 0 0 0 0 0 0 0 0 0 0 0 0 0 0.25 0"/>
<feBlend mode="normal" in2="BackgroundImageFix" result="effect1_dropShadow_719_81"/>
<feBlend mode="normal" in="SourceGraphic" in2="effect1_dropShadow_719_81" result="shape"/>
</filter>
<filter id="filter2_d_719_81" x="244" y="152" width="320.5" height="508" filterUnits="userSpaceOnUse" color-interpolation-filters="sRGB">
<feFlood flood-opacity="0" result="BackgroundImageFix"/>
<feColorMatrix in="SourceAlpha" type="matrix" values="0 0 0 0 0 0 0 0 0 0 0 0 0 0 0 0 0 0 127 0" result="hardAlpha"/>
<feOffset dy="4"/>
<feGaussianBlur stdDeviation="2"/>
<feComposite in2="hardAlpha" operator="out"/>
<feColorMatrix type="matrix" values="0 0 0 0 0 0 0 0 0 0 0 0 0 0 0 0 0 0 0.25 0"/>
<feBlend mode="normal" in2="BackgroundImageFix" result="effect1_dropShadow_719_81"/>
<feBlend mode="normal" in="SourceGraphic" in2="effect1_dropShadow_719_81" result="shape"/>
</filter>
<linearGradient id="paint0_linear_719_81" x1="80.0173" y1="166.831" x2="725.019" y2="621.618" gradientUnits="userSpaceOnUse">
<stop stop-color="#F8D030"/>
<stop offset="0.440625" stop-color="#F8D030"/>
<stop offset="0.84375" stop-color="#A1871F"/>
</linearGradient>
<linearGradient id="paint1_linear_719_81" x1="80.0173" y1="166.831" x2="725.019" y2="621.618" gradientUnits="userSpaceOnUse">
<stop stop-color="#A1871F"/>
<stop offset="0.586458" stop-color="#F8D030"/>
<stop offset="1" stop-color="#F8D030"/>
</linearGradient>
<linearGradient id="paint2_linear_719_81" x1="164.013" y1="227.124" x2="647.764" y2="568.214" gradientUnits="userSpaceOnUse">
<stop offset="0.00833321" stop-color="#A1871F"/>
<stop offset="0.591667" stop-color="#F8D030"/>
<stop offset="0.966667" stop-color="#F8D030"/>
</linearGradient>
<linearGradient id="paint3_linear_719_81" x1="277.694" y1="256.27" x2="593.566" y2="395.469" gradientUnits="userSpaceOnUse">
<stop stop-color="#F8D030"/>
<stop offset="0.440625" stop-color="#F8D030"/>
<stop offset="0.84375" stop-color="#A1871F"/>
</linearGradient>
<linearGradient id="paint4_linear_719_81" x1="296.491" y1="212.606" x2="574.949" y2="509.668" gradientUnits="userSpaceOnUse">
<stop stop-color="#A1871F"/>
<stop offset="1" stop-color="#FAE078" stop-opacity="0"/>
</linearGradient>
</defs>
</svg>
