<svg width="1358" height="1358" viewBox="0 0 1358 1358" fill="none" xmlns="http://www.w3.org/2000/svg">
<g filter="url(#filter0_d_717_155)">
<mask id="path-1-inside-1_717_155" fill="white">
<path fill-rule="evenodd" clip-rule="evenodd" d="M981.029 916.61C1071.91 843.94 1129 738.942 1129 622.178C1129 402.822 927.528 225 679 225C430.472 225 229 402.822 229 622.178C229 734.727 282.04 836.343 367.261 908.615C362.096 926.448 359.263 945.846 359.263 966.129C359.263 1053.87 412.282 1125 477.685 1125C520.182 1125 557.451 1094.97 578.342 1049.86C599.234 1094.97 636.503 1125 679 1125C717.739 1125 752.132 1100.05 773.737 1061.47C795.343 1100.05 829.736 1125 868.473 1125C933.876 1125 986.895 1053.87 986.895 966.129C986.895 948.839 984.835 932.193 981.029 916.61ZM939.527 630.054C939.527 741.419 820.233 831.698 673.08 831.698C525.924 831.698 406.632 741.419 406.632 630.054C406.632 518.69 525.924 428.411 673.08 428.411C820.233 428.411 939.527 518.69 939.527 630.054Z"/>
</mask>
<path fill-rule="evenodd" clip-rule="evenodd" d="M981.029 916.61C1071.91 843.94 1129 738.942 1129 622.178C1129 402.822 927.528 225 679 225C430.472 225 229 402.822 229 622.178C229 734.727 282.04 836.343 367.261 908.615C362.096 926.448 359.263 945.846 359.263 966.129C359.263 1053.87 412.282 1125 477.685 1125C520.182 1125 557.451 1094.97 578.342 1049.86C599.234 1094.97 636.503 1125 679 1125C717.739 1125 752.132 1100.05 773.737 1061.47C795.343 1100.05 829.736 1125 868.473 1125C933.876 1125 986.895 1053.87 986.895 966.129C986.895 948.839 984.835 932.193 981.029 916.61ZM939.527 630.054C939.527 741.419 820.233 831.698 673.08 831.698C525.924 831.698 406.632 741.419 406.632 630.054C406.632 518.69 525.924 428.411 673.08 428.411C820.233 428.411 939.527 518.69 939.527 630.054Z" fill="url(#paint0_linear_717_155)"/>
<path fill-rule="evenodd" clip-rule="evenodd" d="M981.029 916.61C1071.91 843.94 1129 738.942 1129 622.178C1129 402.822 927.528 225 679 225C430.472 225 229 402.822 229 622.178C229 734.727 282.04 836.343 367.261 908.615C362.096 926.448 359.263 945.846 359.263 966.129C359.263 1053.87 412.282 1125 477.685 1125C520.182 1125 557.451 1094.97 578.342 1049.86C599.234 1094.97 636.503 1125 679 1125C717.739 1125 752.132 1100.05 773.737 1061.47C795.343 1100.05 829.736 1125 868.473 1125C933.876 1125 986.895 1053.87 986.895 966.129C986.895 948.839 984.835 932.193 981.029 916.61ZM939.527 630.054C939.527 741.419 820.233 831.698 673.08 831.698C525.924 831.698 406.632 741.419 406.632 630.054C406.632 518.69 525.924 428.411 673.08 428.411C820.233 428.411 939.527 518.69 939.527 630.054Z" stroke="url(#paint1_linear_717_155)" stroke-width="60" mask="url(#path-1-inside-1_717_155)"/>
</g>
<g filter="url(#filter1_d_717_155)">
<circle cx="679" cy="675" r="615.5" stroke="url(#paint2_linear_717_155)" stroke-width="119" shape-rendering="crispEdges"/>
</g>
<defs>
<filter id="filter0_d_717_155" x="225" y="225" width="908" height="908" filterUnits="userSpaceOnUse" color-interpolation-filters="sRGB">
<feFlood flood-opacity="0" result="BackgroundImageFix"/>
<feColorMatrix in="SourceAlpha" type="matrix" values="0 0 0 0 0 0 0 0 0 0 0 0 0 0 0 0 0 0 127 0" result="hardAlpha"/>
<feOffset dy="4"/>
<feGaussianBlur stdDeviation="2"/>
<feComposite in2="hardAlpha" operator="out"/>
<feColorMatrix type="matrix" values="0 0 0 0 0 0 0 0 0 0 0 0 0 0 0 0 0 0 0.25 0"/>
<feBlend mode="normal" in2="BackgroundImageFix" result="effect1_dropShadow_717_155"/>
<feBlend mode="normal" in="SourceGraphic" in2="effect1_dropShadow_717_155" result="shape"/>
</filter>
<filter id="filter1_d_717_155" x="0" y="0" width="1358" height="1358" filterUnits="userSpaceOnUse" color-interpolation-filters="sRGB">
<feFlood flood-opacity="0" result="BackgroundImageFix"/>
<feColorMatrix in="SourceAlpha" type="matrix" values="0 0 0 0 0 0 0 0 0 0 0 0 0 0 0 0 0 0 127 0" result="hardAlpha"/>
<feOffset dy="4"/>
<feGaussianBlur stdDeviation="2"/>
<feComposite in2="hardAlpha" operator="out"/>
<feColorMatrix type="matrix" values="0 0 0 0 0 0 0 0 0 0 0 0 0 0 0 0 0 0 0.25 0"/>
<feBlend mode="normal" in2="BackgroundImageFix" result="effect1_dropShadow_717_155"/>
<feBlend mode="normal" in="SourceGraphic" in2="effect1_dropShadow_717_155" result="shape"/>
</filter>
<linearGradient id="paint0_linear_717_155" x1="314.52" y1="412.685" x2="1040.15" y2="924.32" gradientUnits="userSpaceOnUse">
<stop stop-color="#A040A0"/>
<stop offset="0.466667" stop-color="#C183C1"/>
<stop offset="0.84375" stop-color="#682A68"/>
</linearGradient>
<linearGradient id="paint1_linear_717_155" x1="368.655" y1="334.091" x2="806.794" y2="1081.95" gradientUnits="userSpaceOnUse">
<stop stop-color="#682A68"/>
<stop offset="1" stop-color="#C183C1" stop-opacity="0"/>
</linearGradient>
<linearGradient id="paint2_linear_717_155" x1="132.279" y1="281.528" x2="1220.72" y2="1048.98" gradientUnits="userSpaceOnUse">
<stop stop-color="#A040A0"/>
<stop offset="0.466667" stop-color="#C183C1"/>
<stop offset="0.84375" stop-color="#682A68"/>
</linearGradient>
</defs>
</svg>
