<?xml version="1.0" encoding="UTF-8" standalone="no"?>
<svg
   width="50"
   height="50"
   viewBox="0 0 50 50"
   fill="none"
   version="1.1"
   id="svg111"
   sodipodi:docname="type_c21_psychic.svg"
   inkscape:version="1.1.2 (b8e25be833, 2022-02-05)"
   xmlns:inkscape="http://www.inkscape.org/namespaces/inkscape"
   xmlns:sodipodi="http://sodipodi.sourceforge.net/DTD/sodipodi-0.dtd"
   xmlns="http://www.w3.org/2000/svg"
   xmlns:svg="http://www.w3.org/2000/svg">
  <sodipodi:namedview
     id="namedview113"
     pagecolor="#ffffff"
     bordercolor="#cccccc"
     borderopacity="1"
     inkscape:pageshadow="0"
     inkscape:pageopacity="1"
     inkscape:pagecheckerboard="0"
     showgrid="false"
     inkscape:zoom="1.0804455"
     inkscape:cx="-152.252"
     inkscape:cy="-262.39175"
     inkscape:window-width="3840"
     inkscape:window-height="2071"
     inkscape:window-x="-9"
     inkscape:window-y="-9"
     inkscape:window-maximized="1"
     inkscape:current-layer="svg111" />
  <g
     filter="url(#filter0_d_719_136)"
     id="g6"
     transform="scale(0.06188119)">
    <circle
       cx="404"
       cy="400"
       r="400"
       fill="url(#paint0_linear_719_136)"
       id="circle2"
       style="fill:url(#paint0_linear_719_136)" />
    <circle
       cx="404"
       cy="400"
       r="385"
       stroke="url(#paint1_linear_719_136)"
       stroke-width="30"
       id="circle4"
       style="stroke:url(#paint1_linear_719_136)" />
  </g>
  <g
     filter="url(#filter1_d_719_136)"
     id="g12"
     transform="scale(0.06188119)">
    <circle
       cx="407"
       cy="402"
       r="300"
       fill="#ffffff"
       id="circle8" />
    <circle
       cx="407"
       cy="402"
       r="300"
       stroke="url(#paint2_linear_719_136)"
       stroke-width="30"
       id="circle10"
       style="stroke:url(#paint2_linear_719_136)" />
  </g>
  <g
     filter="url(#filter2_d_719_136)"
     id="g21"
     transform="scale(0.06188119)">
    <mask
       id="path-4-inside-1_719_136"
       fill="#ffffff">
      <path
         fill-rule="evenodd"
         clip-rule="evenodd"
         d="m 563.166,534.211 c 0,0 -50.443,40.457 -150.823,23.715 -76.156,-12.702 -116.775,-96.653 -116.775,-141.779 0,-106.988 79.185,-131.335 132.72,-131.335 53.534,0 88.457,52.193 88.457,92.604 0,40.41 -28.581,75.757 -73.06,75.757 -44.478,0 -57.652,-31.227 -57.652,-59.935 0,-28.708 23.227,-38.822 44.41,-38.822 21.183,0 28.436,18.085 28.436,33.628 0,15.543 -12.06,21.11 -22.119,21.11 -10.059,0 -11.053,-5.075 -14.903,-10.408 -3.851,-5.333 4.91,-25.52 -9.514,-25.52 -14.423,0 -17.112,23.207 -17.112,23.207 0,0 5.259,44.796 48.454,44.023 43.196,-0.773 63.688,-34.167 57.733,-67.23 -5.955,-33.063 -38.043,-68.195 -94.356,-61.096 -56.314,7.099 -79.307,63.999 -69.172,124.806 10.135,60.807 82.981,96.039 140.257,83.363 57.276,-12.675 114.322,-54.141 114.322,-159.272 0,-105.131 -91.051,-168.325 -199.621,-157.91 -108.571,10.414 -175.966,105.334 -171.653,219.381 4.314,114.048 112.532,176.161 204.041,179.362 91.509,3.202 147.608,-49.77 147.608,-49.77 0,0 12.617,-11.25 7.67,-20.036 -4.946,-8.785 -17.348,2.157 -17.348,2.157 z"
         id="path14" />
    </mask>
    <path
       fill-rule="evenodd"
       clip-rule="evenodd"
       d="m 563.166,534.211 c 0,0 -50.443,40.457 -150.823,23.715 -76.156,-12.702 -116.775,-96.653 -116.775,-141.779 0,-106.988 79.185,-131.335 132.72,-131.335 53.534,0 88.457,52.193 88.457,92.604 0,40.41 -28.581,75.757 -73.06,75.757 -44.478,0 -57.652,-31.227 -57.652,-59.935 0,-28.708 23.227,-38.822 44.41,-38.822 21.183,0 28.436,18.085 28.436,33.628 0,15.543 -12.06,21.11 -22.119,21.11 -10.059,0 -11.053,-5.075 -14.903,-10.408 -3.851,-5.333 4.91,-25.52 -9.514,-25.52 -14.423,0 -17.112,23.207 -17.112,23.207 0,0 5.259,44.796 48.454,44.023 43.196,-0.773 63.688,-34.167 57.733,-67.23 -5.955,-33.063 -38.043,-68.195 -94.356,-61.096 -56.314,7.099 -79.307,63.999 -69.172,124.806 10.135,60.807 82.981,96.039 140.257,83.363 57.276,-12.675 114.322,-54.141 114.322,-159.272 0,-105.131 -91.051,-168.325 -199.621,-157.91 -108.571,10.414 -175.966,105.334 -171.653,219.381 4.314,114.048 112.532,176.161 204.041,179.362 91.509,3.202 147.608,-49.77 147.608,-49.77 0,0 12.617,-11.25 7.67,-20.036 -4.946,-8.785 -17.348,2.157 -17.348,2.157 z"
       fill="url(#paint3_linear_719_136)"
       id="path17"
       style="fill:url(#paint3_linear_719_136)" />
    <path
       fill-rule="evenodd"
       clip-rule="evenodd"
       d="m 563.166,534.211 c 0,0 -50.443,40.457 -150.823,23.715 -76.156,-12.702 -116.775,-96.653 -116.775,-141.779 0,-106.988 79.185,-131.335 132.72,-131.335 53.534,0 88.457,52.193 88.457,92.604 0,40.41 -28.581,75.757 -73.06,75.757 -44.478,0 -57.652,-31.227 -57.652,-59.935 0,-28.708 23.227,-38.822 44.41,-38.822 21.183,0 28.436,18.085 28.436,33.628 0,15.543 -12.06,21.11 -22.119,21.11 -10.059,0 -11.053,-5.075 -14.903,-10.408 -3.851,-5.333 4.91,-25.52 -9.514,-25.52 -14.423,0 -17.112,23.207 -17.112,23.207 0,0 5.259,44.796 48.454,44.023 43.196,-0.773 63.688,-34.167 57.733,-67.23 -5.955,-33.063 -38.043,-68.195 -94.356,-61.096 -56.314,7.099 -79.307,63.999 -69.172,124.806 10.135,60.807 82.981,96.039 140.257,83.363 57.276,-12.675 114.322,-54.141 114.322,-159.272 0,-105.131 -91.051,-168.325 -199.621,-157.91 -108.571,10.414 -175.966,105.334 -171.653,219.381 4.314,114.048 112.532,176.161 204.041,179.362 91.509,3.202 147.608,-49.77 147.608,-49.77 0,0 12.617,-11.25 7.67,-20.036 -4.946,-8.785 -17.348,2.157 -17.348,2.157 z"
       stroke="url(#paint4_linear_719_136)"
       stroke-width="60"
       mask="url(#path-4-inside-1_719_136)"
       id="path19"
       style="stroke:url(#paint4_linear_719_136)" />
  </g>
  <defs
     id="defs109">
    <filter
       id="filter0_d_719_136"
       x="0"
       y="0"
       width="808"
       height="808"
       filterUnits="userSpaceOnUse"
       color-interpolation-filters="sRGB">
      <feFlood
         flood-opacity="0"
         result="BackgroundImageFix"
         id="feFlood23" />
      <feColorMatrix
         in="SourceAlpha"
         type="matrix"
         values="0 0 0 0 0 0 0 0 0 0 0 0 0 0 0 0 0 0 127 0"
         result="hardAlpha"
         id="feColorMatrix25" />
      <feOffset
         dy="4"
         id="feOffset27" />
      <feGaussianBlur
         stdDeviation="2"
         id="feGaussianBlur29" />
      <feComposite
         in2="hardAlpha"
         operator="out"
         id="feComposite31" />
      <feColorMatrix
         type="matrix"
         values="0 0 0 0 0 0 0 0 0 0 0 0 0 0 0 0 0 0 0.25 0"
         id="feColorMatrix33" />
      <feBlend
         mode="normal"
         in2="BackgroundImageFix"
         result="effect1_dropShadow_719_136"
         id="feBlend35" />
      <feBlend
         mode="normal"
         in="SourceGraphic"
         in2="effect1_dropShadow_719_136"
         result="shape"
         id="feBlend37" />
    </filter>
    <filter
       id="filter1_d_719_136"
       x="88"
       y="87"
       width="638"
       height="638"
       filterUnits="userSpaceOnUse"
       color-interpolation-filters="sRGB">
      <feFlood
         flood-opacity="0"
         result="BackgroundImageFix"
         id="feFlood40" />
      <feColorMatrix
         in="SourceAlpha"
         type="matrix"
         values="0 0 0 0 0 0 0 0 0 0 0 0 0 0 0 0 0 0 127 0"
         result="hardAlpha"
         id="feColorMatrix42" />
      <feOffset
         dy="4"
         id="feOffset44" />
      <feGaussianBlur
         stdDeviation="2"
         id="feGaussianBlur46" />
      <feComposite
         in2="hardAlpha"
         operator="out"
         id="feComposite48" />
      <feColorMatrix
         type="matrix"
         values="0 0 0 0 0 0 0 0 0 0 0 0 0 0 0 0 0 0 0.25 0"
         id="feColorMatrix50" />
      <feBlend
         mode="normal"
         in2="BackgroundImageFix"
         result="effect1_dropShadow_719_136"
         id="feBlend52" />
      <feBlend
         mode="normal"
         in="SourceGraphic"
         in2="effect1_dropShadow_719_136"
         result="shape"
         id="feBlend54" />
    </filter>
    <filter
       id="filter2_d_719_136"
       x="217"
       y="202"
       width="379.46899"
       height="408"
       filterUnits="userSpaceOnUse"
       color-interpolation-filters="sRGB">
      <feFlood
         flood-opacity="0"
         result="BackgroundImageFix"
         id="feFlood57" />
      <feColorMatrix
         in="SourceAlpha"
         type="matrix"
         values="0 0 0 0 0 0 0 0 0 0 0 0 0 0 0 0 0 0 127 0"
         result="hardAlpha"
         id="feColorMatrix59" />
      <feOffset
         dy="4"
         id="feOffset61" />
      <feGaussianBlur
         stdDeviation="2"
         id="feGaussianBlur63" />
      <feComposite
         in2="hardAlpha"
         operator="out"
         id="feComposite65" />
      <feColorMatrix
         type="matrix"
         values="0 0 0 0 0 0 0 0 0 0 0 0 0 0 0 0 0 0 0.25 0"
         id="feColorMatrix67" />
      <feBlend
         mode="normal"
         in2="BackgroundImageFix"
         result="effect1_dropShadow_719_136"
         id="feBlend69" />
      <feBlend
         mode="normal"
         in="SourceGraphic"
         in2="effect1_dropShadow_719_136"
         result="shape"
         id="feBlend71" />
    </filter>
    <linearGradient
       id="paint0_linear_719_136"
       x1="80.017303"
       y1="166.83099"
       x2="725.01898"
       y2="621.61798"
       gradientUnits="userSpaceOnUse">
      <stop
         stop-color="#F85888"
         id="stop74" />
      <stop
         offset="0.442708"
         stop-color="#FA92B2"
         id="stop76" />
      <stop
         offset="1"
         stop-color="#F95587"
         id="stop78" />
    </linearGradient>
    <linearGradient
       id="paint1_linear_719_136"
       x1="80.017303"
       y1="166.83099"
       x2="725.01898"
       y2="621.61798"
       gradientUnits="userSpaceOnUse">
      <stop
         stop-color="#F95587"
         id="stop81" />
      <stop
         offset="0.673958"
         stop-color="#FA92B2"
         id="stop83" />
      <stop
         offset="1"
         stop-color="#F85888"
         id="stop85" />
    </linearGradient>
    <linearGradient
       id="paint2_linear_719_136"
       x1="164.013"
       y1="227.12399"
       x2="647.76398"
       y2="568.21399"
       gradientUnits="userSpaceOnUse">
      <stop
         stop-color="#F95587"
         id="stop88" />
      <stop
         offset="0.673958"
         stop-color="#FA92B2"
         id="stop90" />
      <stop
         offset="1"
         stop-color="#F85888"
         id="stop92" />
    </linearGradient>
    <linearGradient
       id="paint3_linear_719_136"
       x1="256.298"
       y1="285.41599"
       x2="570.13202"
       y2="490.91501"
       gradientUnits="userSpaceOnUse">
      <stop
         stop-color="#F85888"
         id="stop95" />
      <stop
         offset="0.442708"
         stop-color="#FA92B2"
         id="stop97" />
      <stop
         offset="1"
         stop-color="#F95587"
         id="stop99" />
    </linearGradient>
    <linearGradient
       id="paint4_linear_719_136"
       x1="256.298"
       y1="285.41599"
       x2="570.13202"
       y2="490.91501"
       gradientUnits="userSpaceOnUse">
      <stop
         stop-color="#F95587"
         id="stop102" />
      <stop
         offset="0.673958"
         stop-color="#FA92B2"
         id="stop104" />
      <stop
         offset="1"
         stop-color="#F85888"
         id="stop106" />
    </linearGradient>
  </defs>
</svg>
