<svg width="1358" height="1358" viewBox="0 0 1358 1358" fill="none" xmlns="http://www.w3.org/2000/svg">
<g filter="url(#filter0_d_717_162)">
<mask id="path-1-inside-1_717_162" fill="white">
<path fill-rule="evenodd" clip-rule="evenodd" d="M214.093 675.567C213.969 675.356 213.969 675.094 214.093 674.882L447.944 275.335C448.066 275.128 448.289 275 448.529 275H912.034C912.276 275 912.499 275.129 912.621 275.338L1143.91 674.886C1144.03 675.094 1144.03 675.354 1143.91 675.563L912.621 1074.66C912.499 1074.87 912.276 1075 912.034 1075H448.529C448.289 1075 448.066 1074.87 447.944 1074.67L214.093 675.567ZM894.457 675C894.457 793.953 798.026 890.384 679.073 890.384C560.12 890.384 463.689 793.953 463.689 675C463.689 556.045 560.12 459.616 679.073 459.616C798.026 459.616 894.457 556.045 894.457 675Z"/>
</mask>
<path fill-rule="evenodd" clip-rule="evenodd" d="M214.093 675.567C213.969 675.356 213.969 675.094 214.093 674.882L447.944 275.335C448.066 275.128 448.289 275 448.529 275H912.034C912.276 275 912.499 275.129 912.621 275.338L1143.91 674.886C1144.03 675.094 1144.03 675.354 1143.91 675.563L912.621 1074.66C912.499 1074.87 912.276 1075 912.034 1075H448.529C448.289 1075 448.066 1074.87 447.944 1074.67L214.093 675.567ZM894.457 675C894.457 793.953 798.026 890.384 679.073 890.384C560.12 890.384 463.689 793.953 463.689 675C463.689 556.045 560.12 459.616 679.073 459.616C798.026 459.616 894.457 556.045 894.457 675Z" fill="url(#paint0_linear_717_162)"/>
<path fill-rule="evenodd" clip-rule="evenodd" d="M214.093 675.567C213.969 675.356 213.969 675.094 214.093 674.882L447.944 275.335C448.066 275.128 448.289 275 448.529 275H912.034C912.276 275 912.499 275.129 912.621 275.338L1143.91 674.886C1144.03 675.094 1144.03 675.354 1143.91 675.563L912.621 1074.66C912.499 1074.87 912.276 1075 912.034 1075H448.529C448.289 1075 448.066 1074.87 447.944 1074.67L214.093 675.567ZM894.457 675C894.457 793.953 798.026 890.384 679.073 890.384C560.12 890.384 463.689 793.953 463.689 675C463.689 556.045 560.12 459.616 679.073 459.616C798.026 459.616 894.457 556.045 894.457 675Z" stroke="url(#paint1_linear_717_162)" stroke-width="60" mask="url(#path-1-inside-1_717_162)"/>
</g>
<g filter="url(#filter1_d_717_162)">
<circle cx="679" cy="675" r="615.5" stroke="url(#paint2_linear_717_162)" stroke-width="119" shape-rendering="crispEdges"/>
</g>
<defs>
<filter id="filter0_d_717_162" x="210" y="275" width="937.999" height="808" filterUnits="userSpaceOnUse" color-interpolation-filters="sRGB">
<feFlood flood-opacity="0" result="BackgroundImageFix"/>
<feColorMatrix in="SourceAlpha" type="matrix" values="0 0 0 0 0 0 0 0 0 0 0 0 0 0 0 0 0 0 127 0" result="hardAlpha"/>
<feOffset dy="4"/>
<feGaussianBlur stdDeviation="2"/>
<feComposite in2="hardAlpha" operator="out"/>
<feColorMatrix type="matrix" values="0 0 0 0 0 0 0 0 0 0 0 0 0 0 0 0 0 0 0.25 0"/>
<feBlend mode="normal" in2="BackgroundImageFix" result="effect1_dropShadow_717_162"/>
<feBlend mode="normal" in="SourceGraphic" in2="effect1_dropShadow_717_162" result="shape"/>
</filter>
<filter id="filter1_d_717_162" x="0" y="0" width="1358" height="1358" filterUnits="userSpaceOnUse" color-interpolation-filters="sRGB">
<feFlood flood-opacity="0" result="BackgroundImageFix"/>
<feColorMatrix in="SourceAlpha" type="matrix" values="0 0 0 0 0 0 0 0 0 0 0 0 0 0 0 0 0 0 127 0" result="hardAlpha"/>
<feOffset dy="4"/>
<feGaussianBlur stdDeviation="2"/>
<feComposite in2="hardAlpha" operator="out"/>
<feColorMatrix type="matrix" values="0 0 0 0 0 0 0 0 0 0 0 0 0 0 0 0 0 0 0.25 0"/>
<feBlend mode="normal" in2="BackgroundImageFix" result="effect1_dropShadow_717_162"/>
<feBlend mode="normal" in="SourceGraphic" in2="effect1_dropShadow_717_162" result="shape"/>
</filter>
<linearGradient id="paint0_linear_717_162" x1="302.37" y1="441.831" x2="973.831" y2="992.208" gradientUnits="userSpaceOnUse">
<stop stop-color="#B8B8D0"/>
<stop offset="0.442708" stop-color="#D1D1E0"/>
<stop offset="0.84375" stop-color="#787887"/>
</linearGradient>
<linearGradient id="paint1_linear_717_162" x1="358.31" y1="371.97" x2="717.171" y2="1084.05" gradientUnits="userSpaceOnUse">
<stop stop-color="#787887"/>
<stop offset="1" stop-color="#D1D1E0" stop-opacity="0"/>
</linearGradient>
<linearGradient id="paint2_linear_717_162" x1="132.279" y1="281.528" x2="1220.72" y2="1048.98" gradientUnits="userSpaceOnUse">
<stop stop-color="#B8B8D0"/>
<stop offset="0.442708" stop-color="#D1D1E0"/>
<stop offset="0.84375" stop-color="#787887"/>
</linearGradient>
</defs>
</svg>
