<svg width="808" height="808" viewBox="0 0 808 808" fill="none" xmlns="http://www.w3.org/2000/svg">
<g filter="url(#filter0_d_719_125)">
<circle cx="404" cy="400" r="400" fill="url(#paint0_linear_719_125)"/>
<circle cx="404" cy="400" r="385" stroke="url(#paint1_linear_719_125)" stroke-width="30"/>
</g>
<g filter="url(#filter1_d_719_125)">
<circle cx="407" cy="402" r="300" fill="white"/>
<circle cx="407" cy="402" r="300" stroke="url(#paint2_linear_719_125)" stroke-width="30"/>
</g>
<g filter="url(#filter2_d_719_125)">
<mask id="path-4-inside-1_719_125" fill="white">
<path fill-rule="evenodd" clip-rule="evenodd" d="M284.257 517.181L348.417 498.577L403.833 599.902C403.906 600.033 404.094 600.033 404.166 599.902L459.582 498.577L523.743 517.181C523.886 517.222 524.02 517.089 523.977 516.945L505.37 454.055L603.901 400.166C604.033 400.094 604.033 399.906 603.902 399.834L504.558 345.501L523.977 279.866C524.02 279.722 523.886 279.589 523.743 279.63L458.077 298.67L404.166 200.099C404.094 199.967 403.906 199.967 403.834 200.099L349.923 298.67L284.257 279.63C284.114 279.589 283.98 279.722 284.023 279.866L303.442 345.501L204.099 399.834C203.967 399.906 203.967 400.094 204.099 400.166L302.629 454.055L284.023 516.945C283.98 517.089 284.114 517.222 284.257 517.181ZM334.045 400.691L379.499 425.55L404.358 471.004C404.43 471.136 404.619 471.136 404.691 471.004L429.551 425.55L475.004 400.691C475.135 400.619 475.135 400.43 475.004 400.358L429.551 375.499L404.691 330.046C404.619 329.914 404.43 329.914 404.358 330.046L379.499 375.499L334.045 400.358C333.914 400.43 333.914 400.619 334.045 400.691Z"/>
</mask>
<path fill-rule="evenodd" clip-rule="evenodd" d="M284.257 517.181L348.417 498.577L403.833 599.902C403.906 600.033 404.094 600.033 404.166 599.902L459.582 498.577L523.743 517.181C523.886 517.222 524.02 517.089 523.977 516.945L505.37 454.055L603.901 400.166C604.033 400.094 604.033 399.906 603.902 399.834L504.558 345.501L523.977 279.866C524.02 279.722 523.886 279.589 523.743 279.63L458.077 298.67L404.166 200.099C404.094 199.967 403.906 199.967 403.834 200.099L349.923 298.67L284.257 279.63C284.114 279.589 283.98 279.722 284.023 279.866L303.442 345.501L204.099 399.834C203.967 399.906 203.967 400.094 204.099 400.166L302.629 454.055L284.023 516.945C283.98 517.089 284.114 517.222 284.257 517.181ZM334.045 400.691L379.499 425.55L404.358 471.004C404.43 471.136 404.619 471.136 404.691 471.004L429.551 425.55L475.004 400.691C475.135 400.619 475.135 400.43 475.004 400.358L429.551 375.499L404.691 330.046C404.619 329.914 404.43 329.914 404.358 330.046L379.499 375.499L334.045 400.358C333.914 400.43 333.914 400.619 334.045 400.691Z" fill="url(#paint3_linear_719_125)"/>
<path fill-rule="evenodd" clip-rule="evenodd" d="M284.257 517.181L348.417 498.577L403.833 599.902C403.906 600.033 404.094 600.033 404.166 599.902L459.582 498.577L523.743 517.181C523.886 517.222 524.02 517.089 523.977 516.945L505.37 454.055L603.901 400.166C604.033 400.094 604.033 399.906 603.902 399.834L504.558 345.501L523.977 279.866C524.02 279.722 523.886 279.589 523.743 279.63L458.077 298.67L404.166 200.099C404.094 199.967 403.906 199.967 403.834 200.099L349.923 298.67L284.257 279.63C284.114 279.589 283.98 279.722 284.023 279.866L303.442 345.501L204.099 399.834C203.967 399.906 203.967 400.094 204.099 400.166L302.629 454.055L284.023 516.945C283.98 517.089 284.114 517.222 284.257 517.181ZM334.045 400.691L379.499 425.55L404.358 471.004C404.43 471.136 404.619 471.136 404.691 471.004L429.551 425.55L475.004 400.691C475.135 400.619 475.135 400.43 475.004 400.358L429.551 375.499L404.691 330.046C404.619 329.914 404.43 329.914 404.358 330.046L379.499 375.499L334.045 400.358C333.914 400.43 333.914 400.619 334.045 400.691Z" stroke="url(#paint4_linear_719_125)" stroke-width="50" mask="url(#path-4-inside-1_719_125)"/>
</g>
<defs>
<filter id="filter0_d_719_125" x="0" y="0" width="808" height="808" filterUnits="userSpaceOnUse" color-interpolation-filters="sRGB">
<feFlood flood-opacity="0" result="BackgroundImageFix"/>
<feColorMatrix in="SourceAlpha" type="matrix" values="0 0 0 0 0 0 0 0 0 0 0 0 0 0 0 0 0 0 127 0" result="hardAlpha"/>
<feOffset dy="4"/>
<feGaussianBlur stdDeviation="2"/>
<feComposite in2="hardAlpha" operator="out"/>
<feColorMatrix type="matrix" values="0 0 0 0 0 0 0 0 0 0 0 0 0 0 0 0 0 0 0.25 0"/>
<feBlend mode="normal" in2="BackgroundImageFix" result="effect1_dropShadow_719_125"/>
<feBlend mode="normal" in="SourceGraphic" in2="effect1_dropShadow_719_125" result="shape"/>
</filter>
<filter id="filter1_d_719_125" x="88" y="87" width="638" height="638" filterUnits="userSpaceOnUse" color-interpolation-filters="sRGB">
<feFlood flood-opacity="0" result="BackgroundImageFix"/>
<feColorMatrix in="SourceAlpha" type="matrix" values="0 0 0 0 0 0 0 0 0 0 0 0 0 0 0 0 0 0 127 0" result="hardAlpha"/>
<feOffset dy="4"/>
<feGaussianBlur stdDeviation="2"/>
<feComposite in2="hardAlpha" operator="out"/>
<feColorMatrix type="matrix" values="0 0 0 0 0 0 0 0 0 0 0 0 0 0 0 0 0 0 0.25 0"/>
<feBlend mode="normal" in2="BackgroundImageFix" result="effect1_dropShadow_719_125"/>
<feBlend mode="normal" in="SourceGraphic" in2="effect1_dropShadow_719_125" result="shape"/>
</filter>
<filter id="filter2_d_719_125" x="200" y="200" width="408" height="408" filterUnits="userSpaceOnUse" color-interpolation-filters="sRGB">
<feFlood flood-opacity="0" result="BackgroundImageFix"/>
<feColorMatrix in="SourceAlpha" type="matrix" values="0 0 0 0 0 0 0 0 0 0 0 0 0 0 0 0 0 0 127 0" result="hardAlpha"/>
<feOffset dy="4"/>
<feGaussianBlur stdDeviation="2"/>
<feComposite in2="hardAlpha" operator="out"/>
<feColorMatrix type="matrix" values="0 0 0 0 0 0 0 0 0 0 0 0 0 0 0 0 0 0 0.25 0"/>
<feBlend mode="normal" in2="BackgroundImageFix" result="effect1_dropShadow_719_125"/>
<feBlend mode="normal" in="SourceGraphic" in2="effect1_dropShadow_719_125" result="shape"/>
</filter>
<linearGradient id="paint0_linear_719_125" x1="80.0173" y1="166.831" x2="725.019" y2="621.618" gradientUnits="userSpaceOnUse">
<stop stop-color="#EE99AC"/>
<stop offset="0.442708" stop-color="#F4BDC9"/>
<stop offset="0.84375" stop-color="#9B6470"/>
</linearGradient>
<linearGradient id="paint1_linear_719_125" x1="80.0173" y1="166.831" x2="725.019" y2="621.618" gradientUnits="userSpaceOnUse">
<stop offset="0.00833321" stop-color="#9B6470"/>
<stop offset="0.648958" stop-color="#F4BDC9"/>
<stop offset="1" stop-color="#EE99AC"/>
</linearGradient>
<linearGradient id="paint2_linear_719_125" x1="164.013" y1="227.124" x2="647.764" y2="568.214" gradientUnits="userSpaceOnUse">
<stop offset="0.00833321" stop-color="#9B6470"/>
<stop offset="0.648958" stop-color="#F4BDC9"/>
<stop offset="1" stop-color="#EE99AC"/>
</linearGradient>
<linearGradient id="paint3_linear_719_125" x1="242.009" y1="283.416" x2="564.509" y2="510.809" gradientUnits="userSpaceOnUse">
<stop stop-color="#EE99AC"/>
<stop offset="0.442708" stop-color="#F4BDC9"/>
<stop offset="0.84375" stop-color="#9B6470"/>
</linearGradient>
<linearGradient id="paint4_linear_719_125" x1="266.069" y1="248.485" x2="460.797" y2="580.866" gradientUnits="userSpaceOnUse">
<stop stop-color="#9B6470"/>
<stop offset="0.930208" stop-color="#EE99AC" stop-opacity="0"/>
</linearGradient>
</defs>
</svg>
