<svg width="25" height="23" viewBox="0 0 25 23" fill="none" xmlns="http://www.w3.org/2000/svg">
<path d="M24.9599 22.0241C24.6747 21.0957 24.4726 20.3426 24.0201 19.4787C23.5876 18.6531 23.2435 17.786 22.716 17.004C22.3214 16.4193 22.0462 15.7542 21.7171 15.1253C21.5397 14.7863 21.3753 14.4378 20.9755 14.2941C20.6258 14.1685 20.2769 14.0414 19.9278 13.914C19.763 13.8379 19.5906 13.7748 19.4122 13.7255C19.2817 13.6778 19.1512 13.6301 19.0206 13.5824C18.3209 13.327 17.6468 13.0163 17.0351 12.5895C16.6449 12.3171 16.2786 12.0108 15.8997 11.7218C15.7374 11.598 15.6738 11.4603 15.7445 11.2477C15.7942 11.0984 15.7765 10.9275 15.7942 10.7668C15.8151 10.5772 15.8278 10.3846 15.8733 10.2006C15.8919 10.1254 15.9762 10.0464 16.0504 10.009C16.2333 9.91736 16.4316 9.85699 16.6167 9.76915C16.9206 9.62492 17.0533 9.64118 17.3141 9.86098C17.3696 9.90762 17.4686 9.96795 17.5156 9.94771C17.7086 9.86439 17.7504 9.68095 17.7533 9.48937C17.7535 9.48051 17.7522 9.47276 17.7518 9.46426C17.761 9.36844 17.7296 9.26904 17.6575 9.19715L17.5395 9.0791C17.486 9.02559 17.4176 8.99507 17.3468 8.98639C17.2927 8.96579 17.2386 8.94608 17.1831 8.94103C17.1433 8.93726 17.1043 8.9327 17.0661 8.92712L17.0064 8.90364C16.9676 8.88827 16.9275 8.88428 16.8879 8.88845C16.8794 8.88592 16.8707 8.8834 16.8624 8.88069C16.8387 8.86803 16.8136 8.85793 16.7874 8.85124C16.6534 8.79126 16.5404 8.69345 16.4605 8.52827C16.4131 8.43033 16.3154 8.32836 16.2165 8.28845C15.6927 8.07751 15.1614 8.06776 14.6689 8.36504C14.414 8.51884 14.193 8.73212 13.9675 8.93057C13.5532 9.29456 13.1189 9.36556 12.7465 9.08526C12.4358 8.85159 12.1087 8.62098 11.8593 8.32889C11.4595 7.86063 11.0693 7.37067 10.7628 6.83933C10.2642 5.97489 9.83781 5.06894 9.37659 4.18279C9.32348 4.08086 9.26182 3.96445 9.1711 3.90394C8.73266 3.61078 8.29961 3.30195 7.83299 3.05991C7.16846 2.71529 6.45404 2.46333 5.80142 2.09917C5.07833 1.69545 4.29233 1.49084 3.519 1.24181C3.03156 1.08491 2.51578 1.00938 2.03901 0.8283C1.40464 0.587371 0.795964 0.279245 0.176211 0H0C0.0285712 0.0571425 0.0526242 0.116943 0.0865997 0.17063C0.176079 0.31198 0.274373 0.447705 0.360573 0.590827C0.420019 0.689519 0.460684 0.799375 0.518535 0.89913C0.551801 0.956406 0.609254 0.999417 0.645046 1.05563C0.853771 1.38365 1.04464 1.72544 1.39308 1.93611C1.43029 1.95853 1.44243 2.0189 1.47529 2.05235C1.67932 2.25983 1.88716 2.46368 2.09159 2.67099C2.17562 2.75613 2.23981 2.86908 2.33757 2.93088C2.58226 3.0856 2.83856 3.22275 3.095 3.35776C3.18448 3.40476 3.36538 3.41269 3.3726 3.45916C3.4118 3.70895 3.66336 3.68237 3.78141 3.72556C4.1613 3.86451 4.48369 4.13654 4.91744 4.16746C5.20626 4.18806 5.48803 4.33136 5.76851 4.43204C5.86122 4.46526 5.94384 4.53162 6.02534 4.59053C6.24421 4.74903 6.44501 4.94132 6.68213 5.06331C6.86737 5.15855 6.94489 5.29826 7.01413 5.46614C7.0738 5.61073 7.13271 5.75549 7.19287 5.89972C7.21727 5.9581 7.24531 6.01507 7.26968 6.0734C7.31286 6.17679 7.3425 6.28793 7.3996 6.38282C7.46631 6.4936 7.57475 6.58109 7.63295 6.69493C7.78586 6.99495 7.9122 7.3087 8.06652 7.60797C8.08624 7.64593 8.10719 7.68332 8.12761 7.72092C8.19122 7.92283 8.29425 8.10497 8.43396 8.25607C8.46829 8.31534 8.50227 8.37461 8.53536 8.43445C8.63294 8.61119 8.67742 8.84291 8.81908 8.96415C9.0853 9.19152 9.06271 9.60251 9.40463 9.78177C9.50727 9.83564 9.51418 10.0601 9.58213 10.198C9.61265 10.2602 9.68534 10.3017 9.73881 10.3527C9.75559 10.4212 9.79683 10.4774 9.83205 10.5372C9.90868 10.6672 9.99165 10.7948 10.054 10.9314C10.1033 11.0399 10.1141 11.1658 10.1635 11.2745C10.2212 11.4011 10.1687 11.8629 10.0932 11.9822C9.88605 12.309 9.65655 12.6285 9.50111 12.9797C9.08853 13.9126 8.56783 14.7315 7.56642 15.1309C7.51326 15.1521 7.45129 15.2536 7.45926 15.3078C7.48996 15.5155 7.54764 15.7193 7.59552 15.9265C7.36367 16.0647 7.13882 16.1988 6.91597 16.3318C7.16066 16.8364 7.16066 16.8364 7.41244 16.7137C7.53173 16.8367 7.6396 16.9481 7.77102 17.0837C7.93457 16.9886 8.12615 16.9144 8.26909 16.7858C8.28845 16.7684 8.30812 16.7527 8.32783 16.7377C8.42741 16.6944 8.52353 16.6457 8.61647 16.5921C8.75782 16.5489 8.90727 16.5346 9.0616 16.5252C9.28641 16.5114 9.48539 16.4594 9.58496 16.2105C9.7245 15.8621 9.96268 15.595 10.3294 15.4726C10.726 15.3403 11.1213 15.2001 11.5262 15.0988C12.018 14.9759 12.4886 14.812 12.8705 14.4733C13.0606 14.3047 13.2627 14.3369 13.4467 14.3934C14.0653 14.5839 14.6731 14.8095 15.2883 15.0112C15.6317 15.1238 15.9841 15.2081 16.328 15.3189C16.7504 15.455 17.1674 15.6076 17.5885 15.7476C17.7101 15.7881 17.8417 15.8001 17.9621 15.8432C18.1401 15.9072 18.3058 16.0181 18.4878 16.0549C18.942 16.1466 19.3799 16.286 19.7868 16.4989C19.9495 16.584 20.0979 16.7396 20.1946 16.8985C20.4145 17.2594 20.6014 17.6406 20.7961 18.0165C20.9869 18.3846 21.1653 18.7593 21.3614 19.1247C21.4179 19.2299 21.5132 19.3158 21.597 19.4047C21.6787 19.4913 21.7696 19.569 21.8543 19.6532C21.9777 19.776 22.0973 19.9025 22.222 20.024C22.2632 20.0641 22.3355 20.0839 22.3576 20.1301C22.4653 20.3565 22.6025 20.5339 22.8607 20.6143C22.9619 20.6458 23.0373 20.7672 23.1186 20.8532C23.194 20.933 23.2513 21.0326 23.3346 21.1014C23.6344 21.349 23.9419 21.5872 24.2377 21.822C24.2357 21.8316 24.2435 21.7933 24.2549 21.737C24.3834 21.9989 24.359 21.708 24.4237 21.697C24.4825 21.9581 24.6052 22.1612 24.864 22.2538C25.0416 22.2948 24.9928 22.1661 24.9966 22.0768C24.9844 22.0595 24.966 22.0436 24.9599 22.0241Z" fill="url(#paint0_radial_417_67)"/>
<defs>
<radialGradient id="paint0_radial_417_67" cx="0" cy="0" r="1" gradientUnits="userSpaceOnUse" gradientTransform="translate(16 9) rotate(141.34) scale(12.8062 14.3815)">
<stop offset="0.229167" stop-color="#A890F0"/>
<stop offset="0.442708" stop-color="#C6B7F5"/>
<stop offset="0.802083" stop-color="#6D5E9C"/>
</radialGradient>
</defs>
</svg>
