<svg width="844" height="908" viewBox="0 0 844 908" fill="none" xmlns="http://www.w3.org/2000/svg">
<g filter="url(#filter0_d_714_108)">
<mask id="path-1-inside-1_714_108" fill="white">
<path fill-rule="evenodd" clip-rule="evenodd" d="M773.873 747.475C773.873 747.475 660.377 838.502 434.523 800.834C263.17 772.254 171.778 583.363 171.778 481.832C171.778 241.108 349.945 186.327 470.398 186.327C590.849 186.327 669.427 303.762 669.427 394.686C669.427 485.61 605.119 565.138 505.041 565.138C404.965 565.138 375.325 494.88 375.325 430.285C375.325 365.693 427.585 342.935 475.247 342.935C522.908 342.935 539.227 383.626 539.227 418.598C539.227 453.572 512.093 466.096 489.46 466.096C466.828 466.096 464.59 454.678 455.928 442.677C447.265 430.679 466.975 385.259 434.523 385.259C402.07 385.259 396.021 437.474 396.021 437.474C396.021 437.474 407.852 538.265 505.041 536.527C602.233 534.786 648.34 459.649 634.94 385.259C621.541 310.868 549.345 231.819 422.638 247.792C295.932 263.765 244.199 391.79 267.002 528.605C289.806 665.422 453.709 744.693 582.58 716.173C711.452 687.653 839.805 594.356 839.805 357.812C839.805 121.265 634.94 -20.9206 390.657 2.51243C146.373 25.9453 -5.26646 239.514 4.43982 496.121C14.1461 752.728 257.636 892.483 463.531 899.686C669.427 906.89 795.65 787.703 795.65 787.703C795.65 787.703 824.036 762.39 812.906 742.623C801.778 722.856 773.873 747.475 773.873 747.475Z"/>
</mask>
<path fill-rule="evenodd" clip-rule="evenodd" d="M773.873 747.475C773.873 747.475 660.377 838.502 434.523 800.834C263.17 772.254 171.778 583.363 171.778 481.832C171.778 241.108 349.945 186.327 470.398 186.327C590.849 186.327 669.427 303.762 669.427 394.686C669.427 485.61 605.119 565.138 505.041 565.138C404.965 565.138 375.325 494.88 375.325 430.285C375.325 365.693 427.585 342.935 475.247 342.935C522.908 342.935 539.227 383.626 539.227 418.598C539.227 453.572 512.093 466.096 489.46 466.096C466.828 466.096 464.59 454.678 455.928 442.677C447.265 430.679 466.975 385.259 434.523 385.259C402.07 385.259 396.021 437.474 396.021 437.474C396.021 437.474 407.852 538.265 505.041 536.527C602.233 534.786 648.34 459.649 634.94 385.259C621.541 310.868 549.345 231.819 422.638 247.792C295.932 263.765 244.199 391.79 267.002 528.605C289.806 665.422 453.709 744.693 582.58 716.173C711.452 687.653 839.805 594.356 839.805 357.812C839.805 121.265 634.94 -20.9206 390.657 2.51243C146.373 25.9453 -5.26646 239.514 4.43982 496.121C14.1461 752.728 257.636 892.483 463.531 899.686C669.427 906.89 795.65 787.703 795.65 787.703C795.65 787.703 824.036 762.39 812.906 742.623C801.778 722.856 773.873 747.475 773.873 747.475Z" fill="url(#paint0_linear_714_108)"/>
<path fill-rule="evenodd" clip-rule="evenodd" d="M773.873 747.475C773.873 747.475 660.377 838.502 434.523 800.834C263.17 772.254 171.778 583.363 171.778 481.832C171.778 241.108 349.945 186.327 470.398 186.327C590.849 186.327 669.427 303.762 669.427 394.686C669.427 485.61 605.119 565.138 505.041 565.138C404.965 565.138 375.325 494.88 375.325 430.285C375.325 365.693 427.585 342.935 475.247 342.935C522.908 342.935 539.227 383.626 539.227 418.598C539.227 453.572 512.093 466.096 489.46 466.096C466.828 466.096 464.59 454.678 455.928 442.677C447.265 430.679 466.975 385.259 434.523 385.259C402.07 385.259 396.021 437.474 396.021 437.474C396.021 437.474 407.852 538.265 505.041 536.527C602.233 534.786 648.34 459.649 634.94 385.259C621.541 310.868 549.345 231.819 422.638 247.792C295.932 263.765 244.199 391.79 267.002 528.605C289.806 665.422 453.709 744.693 582.58 716.173C711.452 687.653 839.805 594.356 839.805 357.812C839.805 121.265 634.94 -20.9206 390.657 2.51243C146.373 25.9453 -5.26646 239.514 4.43982 496.121C14.1461 752.728 257.636 892.483 463.531 899.686C669.427 906.89 795.65 787.703 795.65 787.703C795.65 787.703 824.036 762.39 812.906 742.623C801.778 722.856 773.873 747.475 773.873 747.475Z" stroke="url(#paint1_linear_714_108)" stroke-width="6" mask="url(#path-1-inside-1_714_108)"/>
</g>
<defs>
<filter id="filter0_d_714_108" x="0" y="0" width="843.805" height="908" filterUnits="userSpaceOnUse" color-interpolation-filters="sRGB">
<feFlood flood-opacity="0" result="BackgroundImageFix"/>
<feColorMatrix in="SourceAlpha" type="matrix" values="0 0 0 0 0 0 0 0 0 0 0 0 0 0 0 0 0 0 127 0" result="hardAlpha"/>
<feOffset dy="4"/>
<feGaussianBlur stdDeviation="2"/>
<feComposite in2="hardAlpha" operator="out"/>
<feColorMatrix type="matrix" values="0 0 0 0 0 0 0 0 0 0 0 0 0 0 0 0 0 0 0.25 0"/>
<feBlend mode="normal" in2="BackgroundImageFix" result="effect1_dropShadow_714_108"/>
<feBlend mode="normal" in="SourceGraphic" in2="effect1_dropShadow_714_108" result="shape"/>
</filter>
<linearGradient id="paint0_linear_714_108" x1="83.4196" y1="187.685" x2="789.546" y2="650.058" gradientUnits="userSpaceOnUse">
<stop stop-color="#F85888"/>
<stop offset="0.442708" stop-color="#FA92B2"/>
<stop offset="0.84375" stop-color="#F85888"/>
</linearGradient>
<linearGradient id="paint1_linear_714_108" x1="133.694" y1="109.091" x2="587.008" y2="827.661" gradientUnits="userSpaceOnUse">
<stop stop-color="#F85888"/>
<stop offset="1" stop-color="#FA92B2" stop-opacity="0"/>
</linearGradient>
</defs>
</svg>
