<svg width="1358" height="1358" viewBox="0 0 1358 1358" fill="none" xmlns="http://www.w3.org/2000/svg">
<g filter="url(#filter0_d_717_159)">
<mask id="path-1-inside-1_717_159" fill="white">
<path fill-rule="evenodd" clip-rule="evenodd" d="M440.194 972.313C439.977 972.313 439.826 972.059 439.898 971.816L644.14 286.249C644.186 286.1 644.305 286 644.437 286H862.472C862.605 286 862.726 286.1 862.769 286.25L1063.98 971.817C1064.05 972.061 1063.9 972.313 1063.69 972.313H446.332H440.194ZM264.315 974.995C264.095 974.995 263.943 974.735 264.02 974.492L416.114 492.135C416.16 491.988 416.277 491.892 416.408 491.892H548.56C548.779 491.892 548.931 492.15 548.856 492.393L401.785 974.75C401.74 974.897 401.622 974.995 401.49 974.995H264.315Z"/>
</mask>
<path fill-rule="evenodd" clip-rule="evenodd" d="M440.194 972.313C439.977 972.313 439.826 972.059 439.898 971.816L644.14 286.249C644.186 286.1 644.305 286 644.437 286H862.472C862.605 286 862.726 286.1 862.769 286.25L1063.98 971.817C1064.05 972.061 1063.9 972.313 1063.69 972.313H446.332H440.194ZM264.315 974.995C264.095 974.995 263.943 974.735 264.02 974.492L416.114 492.135C416.16 491.988 416.277 491.892 416.408 491.892H548.56C548.779 491.892 548.931 492.15 548.856 492.393L401.785 974.75C401.74 974.897 401.622 974.995 401.49 974.995H264.315Z" fill="url(#paint0_linear_717_159)"/>
<path fill-rule="evenodd" clip-rule="evenodd" d="M440.194 972.313C439.977 972.313 439.826 972.059 439.898 971.816L644.14 286.249C644.186 286.1 644.305 286 644.437 286H862.472C862.605 286 862.726 286.1 862.769 286.25L1063.98 971.817C1064.05 972.061 1063.9 972.313 1063.69 972.313H446.332H440.194ZM264.315 974.995C264.095 974.995 263.943 974.735 264.02 974.492L416.114 492.135C416.16 491.988 416.277 491.892 416.408 491.892H548.56C548.779 491.892 548.931 492.15 548.856 492.393L401.785 974.75C401.74 974.897 401.622 974.995 401.49 974.995H264.315Z" stroke="url(#paint1_linear_717_159)" stroke-width="60" mask="url(#path-1-inside-1_717_159)"/>
</g>
<g filter="url(#filter1_d_717_159)">
<circle cx="679" cy="675" r="615.5" stroke="url(#paint2_linear_717_159)" stroke-width="119" shape-rendering="crispEdges"/>
</g>
<defs>
<filter id="filter0_d_717_159" x="260" y="286" width="808" height="696.995" filterUnits="userSpaceOnUse" color-interpolation-filters="sRGB">
<feFlood flood-opacity="0" result="BackgroundImageFix"/>
<feColorMatrix in="SourceAlpha" type="matrix" values="0 0 0 0 0 0 0 0 0 0 0 0 0 0 0 0 0 0 127 0" result="hardAlpha"/>
<feOffset dy="4"/>
<feGaussianBlur stdDeviation="2"/>
<feComposite in2="hardAlpha" operator="out"/>
<feColorMatrix type="matrix" values="0 0 0 0 0 0 0 0 0 0 0 0 0 0 0 0 0 0 0.25 0"/>
<feBlend mode="normal" in2="BackgroundImageFix" result="effect1_dropShadow_717_159"/>
<feBlend mode="normal" in="SourceGraphic" in2="effect1_dropShadow_717_159" result="shape"/>
</filter>
<filter id="filter1_d_717_159" x="0" y="0" width="1358" height="1358" filterUnits="userSpaceOnUse" color-interpolation-filters="sRGB">
<feFlood flood-opacity="0" result="BackgroundImageFix"/>
<feColorMatrix in="SourceAlpha" type="matrix" values="0 0 0 0 0 0 0 0 0 0 0 0 0 0 0 0 0 0 127 0" result="hardAlpha"/>
<feOffset dy="4"/>
<feGaussianBlur stdDeviation="2"/>
<feComposite in2="hardAlpha" operator="out"/>
<feColorMatrix type="matrix" values="0 0 0 0 0 0 0 0 0 0 0 0 0 0 0 0 0 0 0.25 0"/>
<feBlend mode="normal" in2="BackgroundImageFix" result="effect1_dropShadow_717_159"/>
<feBlend mode="normal" in="SourceGraphic" in2="effect1_dropShadow_717_159" result="shape"/>
</filter>
<linearGradient id="paint0_linear_717_159" x1="340.017" y1="429.683" x2="918.173" y2="903.014" gradientUnits="userSpaceOnUse">
<stop stop-color="#E0C068"/>
<stop offset="0.442708" stop-color="#EBD69D"/>
<stop offset="0.84375" stop-color="#927D44"/>
</linearGradient>
<linearGradient id="paint1_linear_717_159" x1="388.138" y1="369.515" x2="697.425" y2="982.489" gradientUnits="userSpaceOnUse">
<stop stop-color="#927D44"/>
<stop offset="1" stop-color="#EBD69D" stop-opacity="0"/>
</linearGradient>
<linearGradient id="paint2_linear_717_159" x1="132.279" y1="281.528" x2="1220.72" y2="1048.98" gradientUnits="userSpaceOnUse">
<stop stop-color="#E0C068"/>
<stop offset="0.442708" stop-color="#EBD69D"/>
<stop offset="0.84375" stop-color="#927D44"/>
</linearGradient>
</defs>
</svg>
