<svg width="1358" height="1358" viewBox="0 0 1358 1358" fill="none" xmlns="http://www.w3.org/2000/svg">
<g filter="url(#filter0_d_717_161)">
<mask id="path-1-inside-1_717_161" fill="white">
<path fill-rule="evenodd" clip-rule="evenodd" d="M848.155 920.029C859.285 879.369 837.681 795.78 837.681 795.78C837.681 795.78 822.012 863.875 797.529 889.044C776.642 910.512 751.051 925.402 714.351 929.315C744.357 914.754 764.993 884.391 764.993 849.296C764.993 800.032 724.33 760.094 674.17 760.094C624.01 760.094 583.346 800.032 583.346 849.296C583.346 862.75 586.381 875.51 591.812 886.95C560.439 861.979 555.505 821.943 555.505 821.943C555.505 821.943 520.473 967.261 617.003 1035.62C713.531 1103.98 902.627 1045.22 902.627 1045.22C902.627 1045.22 632.019 1235.46 431.496 1028.41C258.761 850.05 386.412 615.24 386.412 615.24C386.412 615.24 380.899 637.023 380.899 662.309C380.899 687.595 394.621 706.834 394.621 706.834C394.621 706.834 435.553 620.633 467.408 585.577C497.557 552.4 535.35 525.491 567.993 502.249C593.121 484.358 615.198 468.64 628.382 453.908C701.004 372.777 656.476 225 656.476 225C656.476 225 738.34 297.106 761.194 390.231C769.907 425.728 764.301 466.117 759.291 502.235C751.155 560.869 744.58 608.247 803.352 605.173C898.327 600.203 815.797 453.908 815.797 453.908C815.797 453.908 1031.24 567.041 1015.14 764.904C999.045 962.766 779.655 1007.75 779.655 1007.75C779.655 1007.75 837.023 960.689 848.155 920.029Z"/>
</mask>
<path fill-rule="evenodd" clip-rule="evenodd" d="M848.155 920.029C859.285 879.369 837.681 795.78 837.681 795.78C837.681 795.78 822.012 863.875 797.529 889.044C776.642 910.512 751.051 925.402 714.351 929.315C744.357 914.754 764.993 884.391 764.993 849.296C764.993 800.032 724.33 760.094 674.17 760.094C624.01 760.094 583.346 800.032 583.346 849.296C583.346 862.75 586.381 875.51 591.812 886.95C560.439 861.979 555.505 821.943 555.505 821.943C555.505 821.943 520.473 967.261 617.003 1035.62C713.531 1103.98 902.627 1045.22 902.627 1045.22C902.627 1045.22 632.019 1235.46 431.496 1028.41C258.761 850.05 386.412 615.24 386.412 615.24C386.412 615.24 380.899 637.023 380.899 662.309C380.899 687.595 394.621 706.834 394.621 706.834C394.621 706.834 435.553 620.633 467.408 585.577C497.557 552.4 535.35 525.491 567.993 502.249C593.121 484.358 615.198 468.64 628.382 453.908C701.004 372.777 656.476 225 656.476 225C656.476 225 738.34 297.106 761.194 390.231C769.907 425.728 764.301 466.117 759.291 502.235C751.155 560.869 744.58 608.247 803.352 605.173C898.327 600.203 815.797 453.908 815.797 453.908C815.797 453.908 1031.24 567.041 1015.14 764.904C999.045 962.766 779.655 1007.75 779.655 1007.75C779.655 1007.75 837.023 960.689 848.155 920.029Z" fill="url(#paint0_linear_717_161)"/>
<path fill-rule="evenodd" clip-rule="evenodd" d="M848.155 920.029C859.285 879.369 837.681 795.78 837.681 795.78C837.681 795.78 822.012 863.875 797.529 889.044C776.642 910.512 751.051 925.402 714.351 929.315C744.357 914.754 764.993 884.391 764.993 849.296C764.993 800.032 724.33 760.094 674.17 760.094C624.01 760.094 583.346 800.032 583.346 849.296C583.346 862.75 586.381 875.51 591.812 886.95C560.439 861.979 555.505 821.943 555.505 821.943C555.505 821.943 520.473 967.261 617.003 1035.62C713.531 1103.98 902.627 1045.22 902.627 1045.22C902.627 1045.22 632.019 1235.46 431.496 1028.41C258.761 850.05 386.412 615.24 386.412 615.24C386.412 615.24 380.899 637.023 380.899 662.309C380.899 687.595 394.621 706.834 394.621 706.834C394.621 706.834 435.553 620.633 467.408 585.577C497.557 552.4 535.35 525.491 567.993 502.249C593.121 484.358 615.198 468.64 628.382 453.908C701.004 372.777 656.476 225 656.476 225C656.476 225 738.34 297.106 761.194 390.231C769.907 425.728 764.301 466.117 759.291 502.235C751.155 560.869 744.58 608.247 803.352 605.173C898.327 600.203 815.797 453.908 815.797 453.908C815.797 453.908 1031.24 567.041 1015.14 764.904C999.045 962.766 779.655 1007.75 779.655 1007.75C779.655 1007.75 837.023 960.689 848.155 920.029Z" stroke="url(#paint1_linear_717_161)" stroke-width="60" mask="url(#path-1-inside-1_717_161)"/>
</g>
<g filter="url(#filter1_d_717_161)">
<circle cx="679" cy="675" r="615.5" stroke="url(#paint2_linear_717_161)" stroke-width="119" shape-rendering="crispEdges"/>
</g>
<defs>
<filter id="filter0_d_717_161" x="337" y="225" width="683" height="908" filterUnits="userSpaceOnUse" color-interpolation-filters="sRGB">
<feFlood flood-opacity="0" result="BackgroundImageFix"/>
<feColorMatrix in="SourceAlpha" type="matrix" values="0 0 0 0 0 0 0 0 0 0 0 0 0 0 0 0 0 0 127 0" result="hardAlpha"/>
<feOffset dy="4"/>
<feGaussianBlur stdDeviation="2"/>
<feComposite in2="hardAlpha" operator="out"/>
<feColorMatrix type="matrix" values="0 0 0 0 0 0 0 0 0 0 0 0 0 0 0 0 0 0 0.25 0"/>
<feBlend mode="normal" in2="BackgroundImageFix" result="effect1_dropShadow_717_161"/>
<feBlend mode="normal" in="SourceGraphic" in2="effect1_dropShadow_717_161" result="shape"/>
</filter>
<filter id="filter1_d_717_161" x="0" y="0" width="1358" height="1358" filterUnits="userSpaceOnUse" color-interpolation-filters="sRGB">
<feFlood flood-opacity="0" result="BackgroundImageFix"/>
<feColorMatrix in="SourceAlpha" type="matrix" values="0 0 0 0 0 0 0 0 0 0 0 0 0 0 0 0 0 0 127 0" result="hardAlpha"/>
<feOffset dy="4"/>
<feGaussianBlur stdDeviation="2"/>
<feComposite in2="hardAlpha" operator="out"/>
<feColorMatrix type="matrix" values="0 0 0 0 0 0 0 0 0 0 0 0 0 0 0 0 0 0 0.25 0"/>
<feBlend mode="normal" in2="BackgroundImageFix" result="effect1_dropShadow_717_161"/>
<feBlend mode="normal" in="SourceGraphic" in2="effect1_dropShadow_717_161" result="shape"/>
</filter>
<linearGradient id="paint0_linear_717_161" x1="405.14" y1="412.685" x2="1041.86" y2="749.397" gradientUnits="userSpaceOnUse">
<stop stop-color="#EB9800"/>
<stop offset="0.442708" stop-color="#F5AC78"/>
<stop offset="0.84375" stop-color="#9C531F"/>
</linearGradient>
<linearGradient id="paint1_linear_717_161" x1="445.741" y1="334.091" x2="933.073" y2="957.96" gradientUnits="userSpaceOnUse">
<stop stop-color="#DD7700"/>
<stop offset="1" stop-color="#D29700" stop-opacity="0"/>
</linearGradient>
<linearGradient id="paint2_linear_717_161" x1="132.279" y1="281.528" x2="1220.72" y2="1048.98" gradientUnits="userSpaceOnUse">
<stop stop-color="#EB9800"/>
<stop offset="0.442708" stop-color="#F5AC78"/>
<stop offset="0.84375" stop-color="#9C531F"/>
</linearGradient>
</defs>
</svg>
