<svg width="808" height="808" viewBox="0 0 808 808" fill="none" xmlns="http://www.w3.org/2000/svg">
<g filter="url(#filter0_d_719_69)">
<circle cx="404" cy="400" r="400" fill="url(#paint0_linear_719_69)"/>
<circle cx="404" cy="400" r="385" stroke="url(#paint1_linear_719_69)" stroke-width="30"/>
</g>
<g filter="url(#filter1_d_719_69)">
<circle cx="407" cy="402" r="300" fill="white"/>
<circle cx="407" cy="402" r="300" stroke="url(#paint2_linear_719_69)" stroke-width="30"/>
</g>
<g filter="url(#filter2_dd_719_69)">
<mask id="path-4-inside-1_719_69" fill="white">
<path fill-rule="evenodd" clip-rule="evenodd" d="M492.244 600.615C456.163 602.462 414.856 602.462 400.819 600.615C291.32 586.209 204 506.151 204 397.938C204 289.724 293.543 202 404 202C514.457 202 604 289.724 604 397.938C604 448.266 584.63 494.163 552.797 528.865C544.152 538.287 556.013 544.897 568.064 551.612C579.883 558.199 591.884 564.888 584.909 574.431C577.223 584.948 535.556 598.398 492.244 600.615ZM375.875 373.445C375.875 390.353 361.884 404.06 344.625 404.06C327.366 404.06 313.375 390.353 313.375 373.445C313.375 362.105 319.668 352.206 329.019 346.915C329.557 361.658 341.679 373.445 356.554 373.445H375.875V373.445ZM472.731 346.915C472.193 361.658 460.071 373.445 445.196 373.445H425.875V373.445C425.875 390.353 439.866 404.06 457.125 404.06C474.384 404.06 488.375 390.353 488.375 373.445C488.375 362.105 482.082 352.206 472.731 346.915Z"/>
</mask>
<path fill-rule="evenodd" clip-rule="evenodd" d="M492.244 600.615C456.163 602.462 414.856 602.462 400.819 600.615C291.32 586.209 204 506.151 204 397.938C204 289.724 293.543 202 404 202C514.457 202 604 289.724 604 397.938C604 448.266 584.63 494.163 552.797 528.865C544.152 538.287 556.013 544.897 568.064 551.612C579.883 558.199 591.884 564.888 584.909 574.431C577.223 584.948 535.556 598.398 492.244 600.615ZM375.875 373.445C375.875 390.353 361.884 404.06 344.625 404.06C327.366 404.06 313.375 390.353 313.375 373.445C313.375 362.105 319.668 352.206 329.019 346.915C329.557 361.658 341.679 373.445 356.554 373.445H375.875V373.445ZM472.731 346.915C472.193 361.658 460.071 373.445 445.196 373.445H425.875V373.445C425.875 390.353 439.866 404.06 457.125 404.06C474.384 404.06 488.375 390.353 488.375 373.445C488.375 362.105 482.082 352.206 472.731 346.915Z" fill="url(#paint3_linear_719_69)"/>
<path fill-rule="evenodd" clip-rule="evenodd" d="M492.244 600.615C456.163 602.462 414.856 602.462 400.819 600.615C291.32 586.209 204 506.151 204 397.938C204 289.724 293.543 202 404 202C514.457 202 604 289.724 604 397.938C604 448.266 584.63 494.163 552.797 528.865C544.152 538.287 556.013 544.897 568.064 551.612C579.883 558.199 591.884 564.888 584.909 574.431C577.223 584.948 535.556 598.398 492.244 600.615ZM375.875 373.445C375.875 390.353 361.884 404.06 344.625 404.06C327.366 404.06 313.375 390.353 313.375 373.445C313.375 362.105 319.668 352.206 329.019 346.915C329.557 361.658 341.679 373.445 356.554 373.445H375.875V373.445ZM472.731 346.915C472.193 361.658 460.071 373.445 445.196 373.445H425.875V373.445C425.875 390.353 439.866 404.06 457.125 404.06C474.384 404.06 488.375 390.353 488.375 373.445C488.375 362.105 482.082 352.206 472.731 346.915Z" stroke="url(#paint4_linear_719_69)" stroke-width="60" mask="url(#path-4-inside-1_719_69)"/>
</g>
<defs>
<filter id="filter0_d_719_69" x="0" y="0" width="808" height="808" filterUnits="userSpaceOnUse" color-interpolation-filters="sRGB">
<feFlood flood-opacity="0" result="BackgroundImageFix"/>
<feColorMatrix in="SourceAlpha" type="matrix" values="0 0 0 0 0 0 0 0 0 0 0 0 0 0 0 0 0 0 127 0" result="hardAlpha"/>
<feOffset dy="4"/>
<feGaussianBlur stdDeviation="2"/>
<feComposite in2="hardAlpha" operator="out"/>
<feColorMatrix type="matrix" values="0 0 0 0 0 0 0 0 0 0 0 0 0 0 0 0 0 0 0.25 0"/>
<feBlend mode="normal" in2="BackgroundImageFix" result="effect1_dropShadow_719_69"/>
<feBlend mode="normal" in="SourceGraphic" in2="effect1_dropShadow_719_69" result="shape"/>
</filter>
<filter id="filter1_d_719_69" x="88" y="87" width="638" height="638" filterUnits="userSpaceOnUse" color-interpolation-filters="sRGB">
<feFlood flood-opacity="0" result="BackgroundImageFix"/>
<feColorMatrix in="SourceAlpha" type="matrix" values="0 0 0 0 0 0 0 0 0 0 0 0 0 0 0 0 0 0 127 0" result="hardAlpha"/>
<feOffset dy="4"/>
<feGaussianBlur stdDeviation="2"/>
<feComposite in2="hardAlpha" operator="out"/>
<feColorMatrix type="matrix" values="0 0 0 0 0 0 0 0 0 0 0 0 0 0 0 0 0 0 0.25 0"/>
<feBlend mode="normal" in2="BackgroundImageFix" result="effect1_dropShadow_719_69"/>
<feBlend mode="normal" in="SourceGraphic" in2="effect1_dropShadow_719_69" result="shape"/>
</filter>
<filter id="filter2_dd_719_69" x="200" y="202" width="408" height="408" filterUnits="userSpaceOnUse" color-interpolation-filters="sRGB">
<feFlood flood-opacity="0" result="BackgroundImageFix"/>
<feColorMatrix in="SourceAlpha" type="matrix" values="0 0 0 0 0 0 0 0 0 0 0 0 0 0 0 0 0 0 127 0" result="hardAlpha"/>
<feOffset dy="4"/>
<feGaussianBlur stdDeviation="2"/>
<feComposite in2="hardAlpha" operator="out"/>
<feColorMatrix type="matrix" values="0 0 0 0 0 0 0 0 0 0 0 0 0 0 0 0 0 0 0.25 0"/>
<feBlend mode="normal" in2="BackgroundImageFix" result="effect1_dropShadow_719_69"/>
<feColorMatrix in="SourceAlpha" type="matrix" values="0 0 0 0 0 0 0 0 0 0 0 0 0 0 0 0 0 0 127 0" result="hardAlpha"/>
<feOffset dy="4"/>
<feGaussianBlur stdDeviation="2"/>
<feComposite in2="hardAlpha" operator="out"/>
<feColorMatrix type="matrix" values="0 0 0 0 0 0 0 0 0 0 0 0 0 0 0 0 0 0 0.25 0"/>
<feBlend mode="normal" in2="effect1_dropShadow_719_69" result="effect2_dropShadow_719_69"/>
<feBlend mode="normal" in="SourceGraphic" in2="effect2_dropShadow_719_69" result="shape"/>
</filter>
<linearGradient id="paint0_linear_719_69" x1="80.0173" y1="166.831" x2="725.019" y2="621.618" gradientUnits="userSpaceOnUse">
<stop stop-color="#705898"/>
<stop offset="0.442708" stop-color="#A292BC"/>
<stop offset="0.84375" stop-color="#493963"/>
</linearGradient>
<linearGradient id="paint1_linear_719_69" x1="80.0173" y1="166.831" x2="725.019" y2="621.618" gradientUnits="userSpaceOnUse">
<stop offset="0.194792" stop-color="#493963"/>
<stop offset="0.653125" stop-color="#A292BC"/>
<stop offset="0.913542" stop-color="#705898"/>
</linearGradient>
<linearGradient id="paint2_linear_719_69" x1="164.013" y1="227.124" x2="647.764" y2="568.214" gradientUnits="userSpaceOnUse">
<stop offset="0.194792" stop-color="#493963"/>
<stop offset="0.653125" stop-color="#A292BC"/>
<stop offset="0.913542" stop-color="#705898"/>
</linearGradient>
<linearGradient id="paint3_linear_719_69" x1="242.009" y1="285.416" x2="564.509" y2="512.809" gradientUnits="userSpaceOnUse">
<stop stop-color="#705898"/>
<stop offset="0.442708" stop-color="#A292BC"/>
<stop offset="0.84375" stop-color="#493963"/>
</linearGradient>
<linearGradient id="paint4_linear_719_69" x1="242.009" y1="285.416" x2="564.509" y2="512.809" gradientUnits="userSpaceOnUse">
<stop offset="0.194792" stop-color="#493963"/>
<stop offset="0.653125" stop-color="#A292BC"/>
<stop offset="0.913542" stop-color="#705898"/>
</linearGradient>
</defs>
</svg>
