<svg width="1358" height="1358" viewBox="0 0 1358 1358" fill="none" xmlns="http://www.w3.org/2000/svg">
<g filter="url(#filter0_d_717_167)">
<mask id="path-1-inside-1_717_167" fill="white">
<path fill-rule="evenodd" clip-rule="evenodd" d="M722.908 673.033C729.003 669.313 734.175 661.519 738.346 652.857C793.236 675.304 831.808 728.348 831.808 790.207C831.808 872.385 763.734 939.004 679.762 939.004C645.291 939.004 613.499 927.777 587.996 908.858C579.63 904.894 572.747 901.086 567.115 897.97C558.379 893.138 552.65 889.968 549.063 890.464C538.577 891.911 541.621 901.564 544.388 910.334C546.266 916.291 548.018 921.841 545.307 924.129C542.472 926.527 533.287 917.764 522.555 907.527C507.946 893.589 490.47 876.916 482.229 881.924C475.713 885.885 482.039 896.627 489.783 909.775L490.358 910.751C493.629 916.309 497.42 921.969 500.879 927.134C507.911 937.63 513.575 946.088 510.741 947.519C507.315 949.249 483.448 933.129 463.335 910.751C455.572 902.115 448.053 892.753 441.065 884.053V884.051C425.769 865.007 413.025 849.143 405.872 851.022C397.266 853.283 403.776 871.044 413.342 888.135C417.814 896.128 423.076 904.266 427.631 911.313V911.315C434.716 922.273 440.093 930.589 438.143 931.613C435.512 932.989 412.356 910.396 396.629 881.924C387.287 865.013 379.443 846.323 373.093 831.194C366.206 814.785 361.076 802.563 357.698 801.332C345.962 797.059 345.962 821.002 350.669 855.559C351.283 860.068 352.198 864.796 353.324 869.611C398.971 1017.4 539.197 1125 705.103 1125C908.037 1125 1072.55 964.005 1072.55 765.408C1072.55 576.387 923.523 421.43 734.182 406.923C734.421 398.019 739.066 380.361 739.066 380.361C739.066 380.361 772.492 299.438 774.259 282.146C774.375 280.999 774.514 279.751 774.663 278.423C776.745 259.739 780.619 225 750.75 225C734.799 225 727.382 236.873 718.899 250.453V250.453C715.642 255.666 712.226 261.131 708.112 266.272C678.479 303.299 628.651 349.539 600.397 374.173C540.678 426.241 482.087 469.034 447.914 493.991L447.913 493.993C432.371 505.343 421.881 513.005 418.635 516.171C394.17 540.035 306.452 698.354 306.452 698.354C306.452 698.354 278.085 749.148 288.167 759.451C298.25 769.751 322.565 767.391 322.565 767.391C322.565 767.391 649.217 692.408 678.462 686.494C686.335 684.902 691.894 683.982 696.161 683.278C707.747 681.363 709.827 681.019 722.908 673.033ZM491.953 576.675C474.419 593.351 445.339 633.157 445.339 633.157C445.339 633.157 499.384 636.488 529.148 608.179C558.915 579.867 552.095 531.621 552.095 531.621C552.095 531.621 509.485 559.999 491.953 576.675Z"/>
</mask>
<path fill-rule="evenodd" clip-rule="evenodd" d="M722.908 673.033C729.003 669.313 734.175 661.519 738.346 652.857C793.236 675.304 831.808 728.348 831.808 790.207C831.808 872.385 763.734 939.004 679.762 939.004C645.291 939.004 613.499 927.777 587.996 908.858C579.63 904.894 572.747 901.086 567.115 897.97C558.379 893.138 552.65 889.968 549.063 890.464C538.577 891.911 541.621 901.564 544.388 910.334C546.266 916.291 548.018 921.841 545.307 924.129C542.472 926.527 533.287 917.764 522.555 907.527C507.946 893.589 490.47 876.916 482.229 881.924C475.713 885.885 482.039 896.627 489.783 909.775L490.358 910.751C493.629 916.309 497.42 921.969 500.879 927.134C507.911 937.63 513.575 946.088 510.741 947.519C507.315 949.249 483.448 933.129 463.335 910.751C455.572 902.115 448.053 892.753 441.065 884.053V884.051C425.769 865.007 413.025 849.143 405.872 851.022C397.266 853.283 403.776 871.044 413.342 888.135C417.814 896.128 423.076 904.266 427.631 911.313V911.315C434.716 922.273 440.093 930.589 438.143 931.613C435.512 932.989 412.356 910.396 396.629 881.924C387.287 865.013 379.443 846.323 373.093 831.194C366.206 814.785 361.076 802.563 357.698 801.332C345.962 797.059 345.962 821.002 350.669 855.559C351.283 860.068 352.198 864.796 353.324 869.611C398.971 1017.4 539.197 1125 705.103 1125C908.037 1125 1072.55 964.005 1072.55 765.408C1072.55 576.387 923.523 421.43 734.182 406.923C734.421 398.019 739.066 380.361 739.066 380.361C739.066 380.361 772.492 299.438 774.259 282.146C774.375 280.999 774.514 279.751 774.663 278.423C776.745 259.739 780.619 225 750.75 225C734.799 225 727.382 236.873 718.899 250.453V250.453C715.642 255.666 712.226 261.131 708.112 266.272C678.479 303.299 628.651 349.539 600.397 374.173C540.678 426.241 482.087 469.034 447.914 493.991L447.913 493.993C432.371 505.343 421.881 513.005 418.635 516.171C394.17 540.035 306.452 698.354 306.452 698.354C306.452 698.354 278.085 749.148 288.167 759.451C298.25 769.751 322.565 767.391 322.565 767.391C322.565 767.391 649.217 692.408 678.462 686.494C686.335 684.902 691.894 683.982 696.161 683.278C707.747 681.363 709.827 681.019 722.908 673.033ZM491.953 576.675C474.419 593.351 445.339 633.157 445.339 633.157C445.339 633.157 499.384 636.488 529.148 608.179C558.915 579.867 552.095 531.621 552.095 531.621C552.095 531.621 509.485 559.999 491.953 576.675Z" fill="url(#paint0_linear_717_167)"/>
<path fill-rule="evenodd" clip-rule="evenodd" d="M722.908 673.033C729.003 669.313 734.175 661.519 738.346 652.857C793.236 675.304 831.808 728.348 831.808 790.207C831.808 872.385 763.734 939.004 679.762 939.004C645.291 939.004 613.499 927.777 587.996 908.858C579.63 904.894 572.747 901.086 567.115 897.97C558.379 893.138 552.65 889.968 549.063 890.464C538.577 891.911 541.621 901.564 544.388 910.334C546.266 916.291 548.018 921.841 545.307 924.129C542.472 926.527 533.287 917.764 522.555 907.527C507.946 893.589 490.47 876.916 482.229 881.924C475.713 885.885 482.039 896.627 489.783 909.775L490.358 910.751C493.629 916.309 497.42 921.969 500.879 927.134C507.911 937.63 513.575 946.088 510.741 947.519C507.315 949.249 483.448 933.129 463.335 910.751C455.572 902.115 448.053 892.753 441.065 884.053V884.051C425.769 865.007 413.025 849.143 405.872 851.022C397.266 853.283 403.776 871.044 413.342 888.135C417.814 896.128 423.076 904.266 427.631 911.313V911.315C434.716 922.273 440.093 930.589 438.143 931.613C435.512 932.989 412.356 910.396 396.629 881.924C387.287 865.013 379.443 846.323 373.093 831.194C366.206 814.785 361.076 802.563 357.698 801.332C345.962 797.059 345.962 821.002 350.669 855.559C351.283 860.068 352.198 864.796 353.324 869.611C398.971 1017.4 539.197 1125 705.103 1125C908.037 1125 1072.55 964.005 1072.55 765.408C1072.55 576.387 923.523 421.43 734.182 406.923C734.421 398.019 739.066 380.361 739.066 380.361C739.066 380.361 772.492 299.438 774.259 282.146C774.375 280.999 774.514 279.751 774.663 278.423C776.745 259.739 780.619 225 750.75 225C734.799 225 727.382 236.873 718.899 250.453V250.453C715.642 255.666 712.226 261.131 708.112 266.272C678.479 303.299 628.651 349.539 600.397 374.173C540.678 426.241 482.087 469.034 447.914 493.991L447.913 493.993C432.371 505.343 421.881 513.005 418.635 516.171C394.17 540.035 306.452 698.354 306.452 698.354C306.452 698.354 278.085 749.148 288.167 759.451C298.25 769.751 322.565 767.391 322.565 767.391C322.565 767.391 649.217 692.408 678.462 686.494C686.335 684.902 691.894 683.982 696.161 683.278C707.747 681.363 709.827 681.019 722.908 673.033ZM491.953 576.675C474.419 593.351 445.339 633.157 445.339 633.157C445.339 633.157 499.384 636.488 529.148 608.179C558.915 579.867 552.095 531.621 552.095 531.621C552.095 531.621 509.485 559.999 491.953 576.675Z" stroke="url(#paint1_linear_717_167)" stroke-width="60" mask="url(#path-1-inside-1_717_167)"/>
</g>
<g filter="url(#filter1_d_717_167)">
<circle cx="679" cy="675" r="615.5" stroke="url(#paint2_linear_717_167)" stroke-width="119" shape-rendering="crispEdges"/>
</g>
<defs>
<filter id="filter0_d_717_167" x="282" y="225" width="794.547" height="908" filterUnits="userSpaceOnUse" color-interpolation-filters="sRGB">
<feFlood flood-opacity="0" result="BackgroundImageFix"/>
<feColorMatrix in="SourceAlpha" type="matrix" values="0 0 0 0 0 0 0 0 0 0 0 0 0 0 0 0 0 0 127 0" result="hardAlpha"/>
<feOffset dy="4"/>
<feGaussianBlur stdDeviation="2"/>
<feComposite in2="hardAlpha" operator="out"/>
<feColorMatrix type="matrix" values="0 0 0 0 0 0 0 0 0 0 0 0 0 0 0 0 0 0 0.25 0"/>
<feBlend mode="normal" in2="BackgroundImageFix" result="effect1_dropShadow_717_167"/>
<feBlend mode="normal" in="SourceGraphic" in2="effect1_dropShadow_717_167" result="shape"/>
</filter>
<filter id="filter1_d_717_167" x="0" y="0" width="1358" height="1358" filterUnits="userSpaceOnUse" color-interpolation-filters="sRGB">
<feFlood flood-opacity="0" result="BackgroundImageFix"/>
<feColorMatrix in="SourceAlpha" type="matrix" values="0 0 0 0 0 0 0 0 0 0 0 0 0 0 0 0 0 0 127 0" result="hardAlpha"/>
<feOffset dy="4"/>
<feGaussianBlur stdDeviation="2"/>
<feComposite in2="hardAlpha" operator="out"/>
<feColorMatrix type="matrix" values="0 0 0 0 0 0 0 0 0 0 0 0 0 0 0 0 0 0 0.25 0"/>
<feBlend mode="normal" in2="BackgroundImageFix" result="effect1_dropShadow_717_167"/>
<feBlend mode="normal" in="SourceGraphic" in2="effect1_dropShadow_717_167" result="shape"/>
</filter>
<linearGradient id="paint0_linear_717_167" x1="360.739" y1="412.685" x2="1048.87" y2="836.721" gradientUnits="userSpaceOnUse">
<stop stop-color="#7038F8"/>
<stop offset="0.442708" stop-color="#A27DFA"/>
<stop offset="0.84375" stop-color="#4924A1"/>
</linearGradient>
<linearGradient id="paint1_linear_717_167" x1="408.05" y1="334.091" x2="872.668" y2="1027.17" gradientUnits="userSpaceOnUse">
<stop stop-color="#4924A1"/>
<stop offset="1" stop-color="#A27DFA" stop-opacity="0"/>
</linearGradient>
<linearGradient id="paint2_linear_717_167" x1="132.279" y1="281.528" x2="1220.72" y2="1048.98" gradientUnits="userSpaceOnUse">
<stop stop-color="#7038F8"/>
<stop offset="0.442708" stop-color="#A27DFA"/>
<stop offset="0.84375" stop-color="#4924A1"/>
</linearGradient>
</defs>
</svg>
