<svg width="808" height="808" viewBox="0 0 808 808" fill="none" xmlns="http://www.w3.org/2000/svg">
<g filter="url(#filter0_d_719_85)">
<circle cx="404" cy="400" r="400" fill="url(#paint0_linear_719_85)"/>
<circle cx="404" cy="400" r="385" stroke="url(#paint1_linear_719_85)" stroke-width="30"/>
</g>
<g filter="url(#filter1_d_719_85)">
<circle cx="407" cy="402" r="300" fill="white" shape-rendering="crispEdges"/>
<circle cx="407" cy="402" r="300" stroke="url(#paint2_linear_719_85)" stroke-width="30" shape-rendering="crispEdges"/>
</g>
<g filter="url(#filter2_d_719_85)">
<mask id="path-4-inside-1_719_85" fill="white">
<path fill-rule="evenodd" clip-rule="evenodd" d="M478.402 505.902C483.349 487.831 473.747 450.68 473.747 450.68C473.747 450.68 466.783 480.945 455.902 492.131C446.618 501.672 435.245 508.29 418.934 510.029C432.27 503.557 441.441 490.063 441.441 474.465C441.441 452.57 423.369 434.82 401.076 434.82C378.782 434.82 360.709 452.57 360.709 474.465C360.709 480.445 362.058 486.116 364.472 491.2C350.528 480.102 348.336 462.308 348.336 462.308C348.336 462.308 332.766 526.894 375.668 557.275C418.569 587.656 502.612 561.542 502.612 561.542C502.612 561.542 382.342 646.092 293.22 554.07C216.449 474.8 273.183 370.44 273.183 370.44C273.183 370.44 270.733 380.121 270.733 391.359C270.733 402.598 276.831 411.149 276.831 411.149C276.831 411.149 295.023 372.837 309.181 357.256C322.581 342.511 339.378 330.552 353.886 320.222C365.054 312.27 374.866 305.284 380.725 298.737C413.002 262.679 393.212 197 393.212 197C393.212 197 429.596 229.047 439.753 270.436C443.625 286.213 441.134 304.163 438.907 320.216C435.291 346.275 432.369 367.332 458.49 365.966C500.701 363.757 464.021 298.737 464.021 298.737C464.021 298.737 559.772 349.018 552.618 436.957C545.464 524.896 447.958 544.888 447.958 544.888C447.958 544.888 473.455 523.973 478.402 505.902Z"/>
</mask>
<path fill-rule="evenodd" clip-rule="evenodd" d="M478.402 505.902C483.349 487.831 473.747 450.68 473.747 450.68C473.747 450.68 466.783 480.945 455.902 492.131C446.618 501.672 435.245 508.29 418.934 510.029C432.27 503.557 441.441 490.063 441.441 474.465C441.441 452.57 423.369 434.82 401.076 434.82C378.782 434.82 360.709 452.57 360.709 474.465C360.709 480.445 362.058 486.116 364.472 491.2C350.528 480.102 348.336 462.308 348.336 462.308C348.336 462.308 332.766 526.894 375.668 557.275C418.569 587.656 502.612 561.542 502.612 561.542C502.612 561.542 382.342 646.092 293.22 554.07C216.449 474.8 273.183 370.44 273.183 370.44C273.183 370.44 270.733 380.121 270.733 391.359C270.733 402.598 276.831 411.149 276.831 411.149C276.831 411.149 295.023 372.837 309.181 357.256C322.581 342.511 339.378 330.552 353.886 320.222C365.054 312.27 374.866 305.284 380.725 298.737C413.002 262.679 393.212 197 393.212 197C393.212 197 429.596 229.047 439.753 270.436C443.625 286.213 441.134 304.163 438.907 320.216C435.291 346.275 432.369 367.332 458.49 365.966C500.701 363.757 464.021 298.737 464.021 298.737C464.021 298.737 559.772 349.018 552.618 436.957C545.464 524.896 447.958 544.888 447.958 544.888C447.958 544.888 473.455 523.973 478.402 505.902Z" fill="url(#paint3_linear_719_85)"/>
<path fill-rule="evenodd" clip-rule="evenodd" d="M478.402 505.902C483.349 487.831 473.747 450.68 473.747 450.68C473.747 450.68 466.783 480.945 455.902 492.131C446.618 501.672 435.245 508.29 418.934 510.029C432.27 503.557 441.441 490.063 441.441 474.465C441.441 452.57 423.369 434.82 401.076 434.82C378.782 434.82 360.709 452.57 360.709 474.465C360.709 480.445 362.058 486.116 364.472 491.2C350.528 480.102 348.336 462.308 348.336 462.308C348.336 462.308 332.766 526.894 375.668 557.275C418.569 587.656 502.612 561.542 502.612 561.542C502.612 561.542 382.342 646.092 293.22 554.07C216.449 474.8 273.183 370.44 273.183 370.44C273.183 370.44 270.733 380.121 270.733 391.359C270.733 402.598 276.831 411.149 276.831 411.149C276.831 411.149 295.023 372.837 309.181 357.256C322.581 342.511 339.378 330.552 353.886 320.222C365.054 312.27 374.866 305.284 380.725 298.737C413.002 262.679 393.212 197 393.212 197C393.212 197 429.596 229.047 439.753 270.436C443.625 286.213 441.134 304.163 438.907 320.216C435.291 346.275 432.369 367.332 458.49 365.966C500.701 363.757 464.021 298.737 464.021 298.737C464.021 298.737 559.772 349.018 552.618 436.957C545.464 524.896 447.958 544.888 447.958 544.888C447.958 544.888 473.455 523.973 478.402 505.902Z" stroke="url(#paint4_linear_719_85)" stroke-width="60" mask="url(#path-4-inside-1_719_85)"/>
</g>
<defs>
<filter id="filter0_d_719_85" x="0" y="0" width="808" height="808" filterUnits="userSpaceOnUse" color-interpolation-filters="sRGB">
<feFlood flood-opacity="0" result="BackgroundImageFix"/>
<feColorMatrix in="SourceAlpha" type="matrix" values="0 0 0 0 0 0 0 0 0 0 0 0 0 0 0 0 0 0 127 0" result="hardAlpha"/>
<feOffset dy="4"/>
<feGaussianBlur stdDeviation="2"/>
<feComposite in2="hardAlpha" operator="out"/>
<feColorMatrix type="matrix" values="0 0 0 0 0 0 0 0 0 0 0 0 0 0 0 0 0 0 0.25 0"/>
<feBlend mode="normal" in2="BackgroundImageFix" result="effect1_dropShadow_719_85"/>
<feBlend mode="normal" in="SourceGraphic" in2="effect1_dropShadow_719_85" result="shape"/>
</filter>
<filter id="filter1_d_719_85" x="88" y="87" width="638" height="638" filterUnits="userSpaceOnUse" color-interpolation-filters="sRGB">
<feFlood flood-opacity="0" result="BackgroundImageFix"/>
<feColorMatrix in="SourceAlpha" type="matrix" values="0 0 0 0 0 0 0 0 0 0 0 0 0 0 0 0 0 0 127 0" result="hardAlpha"/>
<feOffset dy="4"/>
<feGaussianBlur stdDeviation="2"/>
<feComposite in2="hardAlpha" operator="out"/>
<feColorMatrix type="matrix" values="0 0 0 0 0 0 0 0 0 0 0 0 0 0 0 0 0 0 0.25 0"/>
<feBlend mode="normal" in2="BackgroundImageFix" result="effect1_dropShadow_719_85"/>
<feBlend mode="normal" in="SourceGraphic" in2="effect1_dropShadow_719_85" result="shape"/>
</filter>
<filter id="filter2_d_719_85" x="249" y="197" width="308" height="408" filterUnits="userSpaceOnUse" color-interpolation-filters="sRGB">
<feFlood flood-opacity="0" result="BackgroundImageFix"/>
<feColorMatrix in="SourceAlpha" type="matrix" values="0 0 0 0 0 0 0 0 0 0 0 0 0 0 0 0 0 0 127 0" result="hardAlpha"/>
<feOffset dy="4"/>
<feGaussianBlur stdDeviation="2"/>
<feComposite in2="hardAlpha" operator="out"/>
<feColorMatrix type="matrix" values="0 0 0 0 0 0 0 0 0 0 0 0 0 0 0 0 0 0 0.25 0"/>
<feBlend mode="normal" in2="BackgroundImageFix" result="effect1_dropShadow_719_85"/>
<feBlend mode="normal" in="SourceGraphic" in2="effect1_dropShadow_719_85" result="shape"/>
</filter>
<linearGradient id="paint0_linear_719_85" x1="80.0173" y1="166.831" x2="725.019" y2="621.618" gradientUnits="userSpaceOnUse">
<stop stop-color="#EB9800"/>
<stop offset="0.442708" stop-color="#F5AC78"/>
<stop offset="0.84375" stop-color="#9C531F"/>
</linearGradient>
<linearGradient id="paint1_linear_719_85" x1="128.138" y1="96.9697" x2="517.595" y2="761.732" gradientUnits="userSpaceOnUse">
<stop stop-color="#DD7700"/>
<stop offset="1" stop-color="#D29700" stop-opacity="0"/>
</linearGradient>
<linearGradient id="paint2_linear_719_85" x1="200.103" y1="174.727" x2="492.196" y2="673.299" gradientUnits="userSpaceOnUse">
<stop stop-color="#DD7700"/>
<stop offset="1" stop-color="#D29700" stop-opacity="0"/>
</linearGradient>
<linearGradient id="paint3_linear_719_85" x1="281.507" y1="280.416" x2="564.494" y2="430.066" gradientUnits="userSpaceOnUse">
<stop stop-color="#EB9800"/>
<stop offset="0.442708" stop-color="#F5AC78"/>
<stop offset="0.84375" stop-color="#9C531F"/>
</linearGradient>
<linearGradient id="paint4_linear_719_85" x1="299.552" y1="245.485" x2="516.144" y2="522.76" gradientUnits="userSpaceOnUse">
<stop stop-color="#DD7700"/>
<stop offset="1" stop-color="#D29700" stop-opacity="0"/>
</linearGradient>
</defs>
</svg>
