<svg width="1358" height="1358" viewBox="0 0 1358 1358" fill="none" xmlns="http://www.w3.org/2000/svg">
<g filter="url(#filter0_d_717_165)">
<mask id="path-1-inside-1_717_165" fill="white">
<path fill-rule="evenodd" clip-rule="evenodd" d="M846.388 225.881C847.043 224.946 848.329 224.719 849.263 225.374L913.127 270.121C914.061 270.775 914.288 272.063 913.635 272.998L824.747 400.023C867.96 413.838 897.401 428.739 897.401 428.739C897.401 428.739 825.439 552.6 703.384 552.6C581.33 552.6 494.599 437.159 494.599 437.159C494.599 437.159 525.352 417.52 570.939 400.677L473.442 284.411C472.709 283.537 472.823 282.234 473.696 281.5L533.419 231.354C534.294 230.621 535.596 230.735 536.328 231.609L659.776 378.822C670.346 377.626 681.115 376.957 691.982 376.957C707.601 376.957 723.2 378.145 738.429 380.162L846.388 225.881ZM870.535 558.466C903.107 535.188 952.393 474.434 952.393 474.434C952.393 474.434 1078.29 574.262 1078.29 785.934C1078.29 997.604 860.636 1125 860.636 1125C860.636 1125 756.648 1019.91 731.119 886.704C705.593 753.493 768.882 605.578 768.882 605.578C768.882 605.578 837.963 581.743 870.535 558.466V558.466ZM519.75 558.466C487.179 535.188 437.893 474.434 437.893 474.434C437.893 474.434 312 574.262 312 785.934C312 997.604 529.649 1125 529.649 1125C529.649 1125 633.638 1019.91 659.166 886.704C684.693 753.493 621.404 605.578 621.404 605.578C621.404 605.578 552.323 581.743 519.75 558.466V558.466Z"/>
</mask>
<path fill-rule="evenodd" clip-rule="evenodd" d="M846.388 225.881C847.043 224.946 848.329 224.719 849.263 225.374L913.127 270.121C914.061 270.775 914.288 272.063 913.635 272.998L824.747 400.023C867.96 413.838 897.401 428.739 897.401 428.739C897.401 428.739 825.439 552.6 703.384 552.6C581.33 552.6 494.599 437.159 494.599 437.159C494.599 437.159 525.352 417.52 570.939 400.677L473.442 284.411C472.709 283.537 472.823 282.234 473.696 281.5L533.419 231.354C534.294 230.621 535.596 230.735 536.328 231.609L659.776 378.822C670.346 377.626 681.115 376.957 691.982 376.957C707.601 376.957 723.2 378.145 738.429 380.162L846.388 225.881ZM870.535 558.466C903.107 535.188 952.393 474.434 952.393 474.434C952.393 474.434 1078.29 574.262 1078.29 785.934C1078.29 997.604 860.636 1125 860.636 1125C860.636 1125 756.648 1019.91 731.119 886.704C705.593 753.493 768.882 605.578 768.882 605.578C768.882 605.578 837.963 581.743 870.535 558.466V558.466ZM519.75 558.466C487.179 535.188 437.893 474.434 437.893 474.434C437.893 474.434 312 574.262 312 785.934C312 997.604 529.649 1125 529.649 1125C529.649 1125 633.638 1019.91 659.166 886.704C684.693 753.493 621.404 605.578 621.404 605.578C621.404 605.578 552.323 581.743 519.75 558.466V558.466Z" fill="url(#paint0_linear_717_165)"/>
<path fill-rule="evenodd" clip-rule="evenodd" d="M846.388 225.881C847.043 224.946 848.329 224.719 849.263 225.374L913.127 270.121C914.061 270.775 914.288 272.063 913.635 272.998L824.747 400.023C867.96 413.838 897.401 428.739 897.401 428.739C897.401 428.739 825.439 552.6 703.384 552.6C581.33 552.6 494.599 437.159 494.599 437.159C494.599 437.159 525.352 417.52 570.939 400.677L473.442 284.411C472.709 283.537 472.823 282.234 473.696 281.5L533.419 231.354C534.294 230.621 535.596 230.735 536.328 231.609L659.776 378.822C670.346 377.626 681.115 376.957 691.982 376.957C707.601 376.957 723.2 378.145 738.429 380.162L846.388 225.881ZM870.535 558.466C903.107 535.188 952.393 474.434 952.393 474.434C952.393 474.434 1078.29 574.262 1078.29 785.934C1078.29 997.604 860.636 1125 860.636 1125C860.636 1125 756.648 1019.91 731.119 886.704C705.593 753.493 768.882 605.578 768.882 605.578C768.882 605.578 837.963 581.743 870.535 558.466V558.466ZM519.75 558.466C487.179 535.188 437.893 474.434 437.893 474.434C437.893 474.434 312 574.262 312 785.934C312 997.604 529.649 1125 529.649 1125C529.649 1125 633.638 1019.91 659.166 886.704C684.693 753.493 621.404 605.578 621.404 605.578C621.404 605.578 552.323 581.743 519.75 558.466V558.466Z" stroke="url(#paint1_linear_717_165)" stroke-width="60" mask="url(#path-1-inside-1_717_165)"/>
</g>
<g filter="url(#filter1_d_717_165)">
<circle cx="679" cy="675" r="615.5" stroke="url(#paint2_linear_717_165)" stroke-width="119" shape-rendering="crispEdges"/>
</g>
<defs>
<filter id="filter0_d_717_165" x="308" y="225" width="774.286" height="908" filterUnits="userSpaceOnUse" color-interpolation-filters="sRGB">
<feFlood flood-opacity="0" result="BackgroundImageFix"/>
<feColorMatrix in="SourceAlpha" type="matrix" values="0 0 0 0 0 0 0 0 0 0 0 0 0 0 0 0 0 0 127 0" result="hardAlpha"/>
<feOffset dy="4"/>
<feGaussianBlur stdDeviation="2"/>
<feComposite in2="hardAlpha" operator="out"/>
<feColorMatrix type="matrix" values="0 0 0 0 0 0 0 0 0 0 0 0 0 0 0 0 0 0 0.25 0"/>
<feBlend mode="normal" in2="BackgroundImageFix" result="effect1_dropShadow_717_165"/>
<feBlend mode="normal" in="SourceGraphic" in2="effect1_dropShadow_717_165" result="shape"/>
</filter>
<filter id="filter1_d_717_165" x="0" y="0" width="1358" height="1358" filterUnits="userSpaceOnUse" color-interpolation-filters="sRGB">
<feFlood flood-opacity="0" result="BackgroundImageFix"/>
<feColorMatrix in="SourceAlpha" type="matrix" values="0 0 0 0 0 0 0 0 0 0 0 0 0 0 0 0 0 0 127 0" result="hardAlpha"/>
<feOffset dy="4"/>
<feGaussianBlur stdDeviation="2"/>
<feComposite in2="hardAlpha" operator="out"/>
<feColorMatrix type="matrix" values="0 0 0 0 0 0 0 0 0 0 0 0 0 0 0 0 0 0 0.25 0"/>
<feBlend mode="normal" in2="BackgroundImageFix" result="effect1_dropShadow_717_165"/>
<feBlend mode="normal" in="SourceGraphic" in2="effect1_dropShadow_717_165" result="shape"/>
</filter>
<linearGradient id="paint0_linear_717_165" x1="384.814" y1="412.685" x2="1064.74" y2="820.869" gradientUnits="userSpaceOnUse">
<stop stop-color="#A8B820"/>
<stop offset="0.453125" stop-color="#D1DE68"/>
<stop offset="0.932292" stop-color="#6D7815"/>
</linearGradient>
<linearGradient id="paint1_linear_717_165" x1="430.906" y1="334.091" x2="900.016" y2="1015.85" gradientUnits="userSpaceOnUse">
<stop stop-color="#6D7815"/>
<stop offset="1" stop-color="#C6D16E" stop-opacity="0"/>
</linearGradient>
<linearGradient id="paint2_linear_717_165" x1="132.279" y1="281.528" x2="1220.72" y2="1048.98" gradientUnits="userSpaceOnUse">
<stop stop-color="#A8B820"/>
<stop offset="0.453125" stop-color="#D1DE68"/>
<stop offset="0.932292" stop-color="#6D7815"/>
</linearGradient>
</defs>
</svg>
