<?xml version="1.0" encoding="UTF-8" standalone="no"?>
<svg
   width="50"
   height="50"
   viewBox="0 0 50 50"
   fill="none"
   version="1.1"
   id="svg1579"
   sodipodi:docname="type_c21_ghost.svg"
   inkscape:version="1.1.2 (b8e25be833, 2022-02-05)"
   xmlns:inkscape="http://www.inkscape.org/namespaces/inkscape"
   xmlns:sodipodi="http://sodipodi.sourceforge.net/DTD/sodipodi-0.dtd"
   xmlns="http://www.w3.org/2000/svg"
   xmlns:svg="http://www.w3.org/2000/svg">
  <sodipodi:namedview
     id="namedview1581"
     pagecolor="#ffffff"
     bordercolor="#cccccc"
     borderopacity="1"
     inkscape:pageshadow="0"
     inkscape:pageopacity="1"
     inkscape:pagecheckerboard="0"
     showgrid="false"
     inkscape:zoom="1.0804455"
     inkscape:cx="-152.252"
     inkscape:cy="25.452463"
     inkscape:window-width="3840"
     inkscape:window-height="2071"
     inkscape:window-x="-9"
     inkscape:window-y="-9"
     inkscape:window-maximized="1"
     inkscape:current-layer="svg1579" />
  <g
     filter="url(#filter0_d_719_69)"
     id="g1462"
     transform="scale(0.06188119)">
    <circle
       cx="404"
       cy="400"
       r="400"
       fill="url(#paint0_linear_719_69)"
       id="circle1458"
       style="fill:url(#paint0_linear_719_69)" />
    <circle
       cx="404"
       cy="400"
       r="385"
       stroke="url(#paint1_linear_719_69)"
       stroke-width="30"
       id="circle1460"
       style="stroke:url(#paint1_linear_719_69)" />
  </g>
  <g
     filter="url(#filter1_d_719_69)"
     id="g1468"
     transform="scale(0.06188119)">
    <circle
       cx="407"
       cy="402"
       r="300"
       fill="#ffffff"
       id="circle1464" />
    <circle
       cx="407"
       cy="402"
       r="300"
       stroke="url(#paint2_linear_719_69)"
       stroke-width="30"
       id="circle1466"
       style="stroke:url(#paint2_linear_719_69)" />
  </g>
  <g
     filter="url(#filter2_dd_719_69)"
     id="g1477"
     transform="scale(0.06188119)">
    <mask
       id="path-4-inside-1_719_69"
       fill="#ffffff">
      <path
         fill-rule="evenodd"
         clip-rule="evenodd"
         d="m 492.244,600.615 c -36.081,1.847 -77.388,1.847 -91.425,0 C 291.32,586.209 204,506.151 204,397.938 204,289.724 293.543,202 404,202 c 110.457,0 200,87.724 200,195.938 0,50.328 -19.37,96.225 -51.203,130.927 -8.645,9.422 3.216,16.032 15.267,22.747 11.819,6.587 23.82,13.276 16.845,22.819 -7.686,10.517 -49.353,23.967 -92.665,26.184 z M 375.875,373.445 c 0,16.908 -13.991,30.615 -31.25,30.615 -17.259,0 -31.25,-13.707 -31.25,-30.615 0,-11.34 6.293,-21.239 15.644,-26.53 0.538,14.743 12.66,26.53 27.535,26.53 z m 96.856,-26.53 c -0.538,14.743 -12.66,26.53 -27.535,26.53 h -19.321 v 0 c 0,16.908 13.991,30.615 31.25,30.615 17.259,0 31.25,-13.707 31.25,-30.615 0,-11.34 -6.293,-21.239 -15.644,-26.53 z"
         id="path1470" />
    </mask>
    <path
       fill-rule="evenodd"
       clip-rule="evenodd"
       d="m 492.244,600.615 c -36.081,1.847 -77.388,1.847 -91.425,0 C 291.32,586.209 204,506.151 204,397.938 204,289.724 293.543,202 404,202 c 110.457,0 200,87.724 200,195.938 0,50.328 -19.37,96.225 -51.203,130.927 -8.645,9.422 3.216,16.032 15.267,22.747 11.819,6.587 23.82,13.276 16.845,22.819 -7.686,10.517 -49.353,23.967 -92.665,26.184 z M 375.875,373.445 c 0,16.908 -13.991,30.615 -31.25,30.615 -17.259,0 -31.25,-13.707 -31.25,-30.615 0,-11.34 6.293,-21.239 15.644,-26.53 0.538,14.743 12.66,26.53 27.535,26.53 z m 96.856,-26.53 c -0.538,14.743 -12.66,26.53 -27.535,26.53 h -19.321 v 0 c 0,16.908 13.991,30.615 31.25,30.615 17.259,0 31.25,-13.707 31.25,-30.615 0,-11.34 -6.293,-21.239 -15.644,-26.53 z"
       fill="url(#paint3_linear_719_69)"
       id="path1473"
       style="fill:url(#paint3_linear_719_69)" />
    <path
       fill-rule="evenodd"
       clip-rule="evenodd"
       d="m 492.244,600.615 c -36.081,1.847 -77.388,1.847 -91.425,0 C 291.32,586.209 204,506.151 204,397.938 204,289.724 293.543,202 404,202 c 110.457,0 200,87.724 200,195.938 0,50.328 -19.37,96.225 -51.203,130.927 -8.645,9.422 3.216,16.032 15.267,22.747 11.819,6.587 23.82,13.276 16.845,22.819 -7.686,10.517 -49.353,23.967 -92.665,26.184 z M 375.875,373.445 c 0,16.908 -13.991,30.615 -31.25,30.615 -17.259,0 -31.25,-13.707 -31.25,-30.615 0,-11.34 6.293,-21.239 15.644,-26.53 0.538,14.743 12.66,26.53 27.535,26.53 z m 96.856,-26.53 c -0.538,14.743 -12.66,26.53 -27.535,26.53 h -19.321 v 0 c 0,16.908 13.991,30.615 31.25,30.615 17.259,0 31.25,-13.707 31.25,-30.615 0,-11.34 -6.293,-21.239 -15.644,-26.53 z"
       stroke="url(#paint4_linear_719_69)"
       stroke-width="60"
       mask="url(#path-4-inside-1_719_69)"
       id="path1475"
       style="stroke:url(#paint4_linear_719_69)" />
  </g>
  <defs
     id="defs1577">
    <filter
       id="filter0_d_719_69"
       x="0"
       y="0"
       width="808"
       height="808"
       filterUnits="userSpaceOnUse"
       color-interpolation-filters="sRGB">
      <feFlood
         flood-opacity="0"
         result="BackgroundImageFix"
         id="feFlood1479" />
      <feColorMatrix
         in="SourceAlpha"
         type="matrix"
         values="0 0 0 0 0 0 0 0 0 0 0 0 0 0 0 0 0 0 127 0"
         result="hardAlpha"
         id="feColorMatrix1481" />
      <feOffset
         dy="4"
         id="feOffset1483" />
      <feGaussianBlur
         stdDeviation="2"
         id="feGaussianBlur1485" />
      <feComposite
         in2="hardAlpha"
         operator="out"
         id="feComposite1487" />
      <feColorMatrix
         type="matrix"
         values="0 0 0 0 0 0 0 0 0 0 0 0 0 0 0 0 0 0 0.25 0"
         id="feColorMatrix1489" />
      <feBlend
         mode="normal"
         in2="BackgroundImageFix"
         result="effect1_dropShadow_719_69"
         id="feBlend1491" />
      <feBlend
         mode="normal"
         in="SourceGraphic"
         in2="effect1_dropShadow_719_69"
         result="shape"
         id="feBlend1493" />
    </filter>
    <filter
       id="filter1_d_719_69"
       x="88"
       y="87"
       width="638"
       height="638"
       filterUnits="userSpaceOnUse"
       color-interpolation-filters="sRGB">
      <feFlood
         flood-opacity="0"
         result="BackgroundImageFix"
         id="feFlood1496" />
      <feColorMatrix
         in="SourceAlpha"
         type="matrix"
         values="0 0 0 0 0 0 0 0 0 0 0 0 0 0 0 0 0 0 127 0"
         result="hardAlpha"
         id="feColorMatrix1498" />
      <feOffset
         dy="4"
         id="feOffset1500" />
      <feGaussianBlur
         stdDeviation="2"
         id="feGaussianBlur1502" />
      <feComposite
         in2="hardAlpha"
         operator="out"
         id="feComposite1504" />
      <feColorMatrix
         type="matrix"
         values="0 0 0 0 0 0 0 0 0 0 0 0 0 0 0 0 0 0 0.25 0"
         id="feColorMatrix1506" />
      <feBlend
         mode="normal"
         in2="BackgroundImageFix"
         result="effect1_dropShadow_719_69"
         id="feBlend1508" />
      <feBlend
         mode="normal"
         in="SourceGraphic"
         in2="effect1_dropShadow_719_69"
         result="shape"
         id="feBlend1510" />
    </filter>
    <filter
       id="filter2_dd_719_69"
       x="200"
       y="202"
       width="408"
       height="408"
       filterUnits="userSpaceOnUse"
       color-interpolation-filters="sRGB">
      <feFlood
         flood-opacity="0"
         result="BackgroundImageFix"
         id="feFlood1513" />
      <feColorMatrix
         in="SourceAlpha"
         type="matrix"
         values="0 0 0 0 0 0 0 0 0 0 0 0 0 0 0 0 0 0 127 0"
         result="hardAlpha"
         id="feColorMatrix1515" />
      <feOffset
         dy="4"
         id="feOffset1517" />
      <feGaussianBlur
         stdDeviation="2"
         id="feGaussianBlur1519" />
      <feComposite
         in2="hardAlpha"
         operator="out"
         id="feComposite1521" />
      <feColorMatrix
         type="matrix"
         values="0 0 0 0 0 0 0 0 0 0 0 0 0 0 0 0 0 0 0.25 0"
         id="feColorMatrix1523" />
      <feBlend
         mode="normal"
         in2="BackgroundImageFix"
         result="effect1_dropShadow_719_69"
         id="feBlend1525" />
      <feColorMatrix
         in="SourceAlpha"
         type="matrix"
         values="0 0 0 0 0 0 0 0 0 0 0 0 0 0 0 0 0 0 127 0"
         result="hardAlpha"
         id="feColorMatrix1527" />
      <feOffset
         dy="4"
         id="feOffset1529" />
      <feGaussianBlur
         stdDeviation="2"
         id="feGaussianBlur1531" />
      <feComposite
         in2="hardAlpha"
         operator="out"
         id="feComposite1533" />
      <feColorMatrix
         type="matrix"
         values="0 0 0 0 0 0 0 0 0 0 0 0 0 0 0 0 0 0 0.25 0"
         id="feColorMatrix1535" />
      <feBlend
         mode="normal"
         in2="effect1_dropShadow_719_69"
         result="effect2_dropShadow_719_69"
         id="feBlend1537" />
      <feBlend
         mode="normal"
         in="SourceGraphic"
         in2="effect2_dropShadow_719_69"
         result="shape"
         id="feBlend1539" />
    </filter>
    <linearGradient
       id="paint0_linear_719_69"
       x1="80.017303"
       y1="166.83099"
       x2="725.01898"
       y2="621.61798"
       gradientUnits="userSpaceOnUse">
      <stop
         stop-color="#705898"
         id="stop1542" />
      <stop
         offset="0.442708"
         stop-color="#A292BC"
         id="stop1544" />
      <stop
         offset="0.84375"
         stop-color="#493963"
         id="stop1546" />
    </linearGradient>
    <linearGradient
       id="paint1_linear_719_69"
       x1="80.017303"
       y1="166.83099"
       x2="725.01898"
       y2="621.61798"
       gradientUnits="userSpaceOnUse">
      <stop
         offset="0.194792"
         stop-color="#493963"
         id="stop1549" />
      <stop
         offset="0.653125"
         stop-color="#A292BC"
         id="stop1551" />
      <stop
         offset="0.913542"
         stop-color="#705898"
         id="stop1553" />
    </linearGradient>
    <linearGradient
       id="paint2_linear_719_69"
       x1="164.013"
       y1="227.12399"
       x2="647.76398"
       y2="568.21399"
       gradientUnits="userSpaceOnUse">
      <stop
         offset="0.194792"
         stop-color="#493963"
         id="stop1556" />
      <stop
         offset="0.653125"
         stop-color="#A292BC"
         id="stop1558" />
      <stop
         offset="0.913542"
         stop-color="#705898"
         id="stop1560" />
    </linearGradient>
    <linearGradient
       id="paint3_linear_719_69"
       x1="242.009"
       y1="285.41599"
       x2="564.50897"
       y2="512.80902"
       gradientUnits="userSpaceOnUse">
      <stop
         stop-color="#705898"
         id="stop1563" />
      <stop
         offset="0.442708"
         stop-color="#A292BC"
         id="stop1565" />
      <stop
         offset="0.84375"
         stop-color="#493963"
         id="stop1567" />
    </linearGradient>
    <linearGradient
       id="paint4_linear_719_69"
       x1="242.009"
       y1="285.41599"
       x2="564.50897"
       y2="512.80902"
       gradientUnits="userSpaceOnUse">
      <stop
         offset="0.194792"
         stop-color="#493963"
         id="stop1570" />
      <stop
         offset="0.653125"
         stop-color="#A292BC"
         id="stop1572" />
      <stop
         offset="0.913542"
         stop-color="#705898"
         id="stop1574" />
    </linearGradient>
  </defs>
</svg>
