<svg width="17" height="25" viewBox="0 0 17 25" fill="none" xmlns="http://www.w3.org/2000/svg">
<path d="M2.51303 5.0656C1.28793 5.0656 0.295319 6.05821 0.295319 7.28332V22.7807C0.295319 24.005 1.28793 24.9992 2.51303 24.9992H14.4854C15.7097 24.9992 16.7039 24.005 16.7039 22.7807V7.28332C16.7039 6.05821 15.7113 5.0656 14.4854 5.0656H2.51303ZM14.1723 20.2968C14.1723 21.0076 13.5946 21.5854 12.8838 21.5854H4.11624C3.40466 21.5854 2.82851 21.0084 2.82851 20.2968V9.87913C2.82851 9.16677 3.40466 8.59062 4.11624 8.59062H12.8822C13.5938 8.59062 14.1707 9.16755 14.1707 9.87913V20.2968H14.1723Z" fill="url(#paint0_radial_419_196)"/>
<path d="M5.62708 17.0834L6.13121 16.1174V18.3508C6.13121 18.6232 6.30108 18.8721 6.54297 18.9927C6.97665 19.2048 7.75947 19.4898 8.82253 19.4898C9.776 19.4898 10.479 19.2604 10.915 19.0584C11.2226 18.9167 11.4183 18.6107 11.4183 18.2756V16.1174L11.4457 16.1667L11.924 17.0599C12.7225 16.3397 13.2126 15.3487 13.2126 14.2543C13.2126 12.0561 11.2226 10.2729 8.76852 10.2729C6.31282 10.2729 4.31586 12.0561 4.31586 14.2543C4.31821 15.3612 4.81373 16.3624 5.62708 17.0834ZM9.3251 14.7381C9.3251 14.6011 9.44565 14.5369 9.58343 14.5369H11.1702C11.308 14.5369 11.4168 14.6011 11.4168 14.7381C11.4168 15.4254 10.944 15.9867 10.3686 15.9867C9.79635 15.9867 9.3251 15.4254 9.3251 14.7381ZM8.77165 15.8919C8.84836 15.8919 8.92116 15.924 8.97283 15.9812L9.59673 16.6834L9.29379 16.9511L8.94778 16.7757C8.83975 16.7194 8.71215 16.7209 8.60491 16.7773L8.27534 16.9503L7.96926 16.6857L8.57281 15.9843C8.6237 15.9256 8.69493 15.8919 8.77165 15.8919ZM6.24315 14.7381C6.24315 14.6011 6.33396 14.5369 6.47095 14.5369H8.05928C8.19706 14.5369 8.33405 14.6011 8.33405 14.7389C8.33405 15.4262 7.8628 15.9867 7.28743 15.9867C6.71362 15.9867 6.24237 15.4254 6.24315 14.7381Z" fill="url(#paint1_radial_419_196)"/>
<path d="M12.411 1.28851C12.411 0.576152 11.8332 0 11.1224 0H5.87914C5.16756 0 4.59141 0.576935 4.59141 1.28851V4.29531H12.4117L12.411 1.28851Z" fill="url(#paint2_radial_419_196)"/>
<defs>
<radialGradient id="paint0_radial_419_196" cx="0" cy="0" r="1" gradientUnits="userSpaceOnUse" gradientTransform="translate(8.74766) rotate(90.5685) scale(25.0004 16.4092)">
<stop offset="0.166667" stop-color="#A040A0"/>
<stop offset="0.520833" stop-color="#C183C1"/>
<stop offset="1" stop-color="#682A68"/>
</radialGradient>
<radialGradient id="paint1_radial_419_196" cx="0" cy="0" r="1" gradientUnits="userSpaceOnUse" gradientTransform="translate(8.74766) rotate(90.5685) scale(25.0004 16.4092)">
<stop offset="0.166667" stop-color="#A040A0"/>
<stop offset="0.520833" stop-color="#C183C1"/>
<stop offset="1" stop-color="#682A68"/>
</radialGradient>
<radialGradient id="paint2_radial_419_196" cx="0" cy="0" r="1" gradientUnits="userSpaceOnUse" gradientTransform="translate(8.74766) rotate(90.5685) scale(25.0004 16.4092)">
<stop offset="0.166667" stop-color="#A040A0"/>
<stop offset="0.520833" stop-color="#C183C1"/>
<stop offset="1" stop-color="#682A68"/>
</radialGradient>
</defs>
</svg>
