<svg width="1047" height="908" viewBox="0 0 1047 908" fill="none" xmlns="http://www.w3.org/2000/svg">
<g filter="url(#filter0_d_714_86)">
<mask id="path-1-inside-1_714_86" fill="white">
<path fill-rule="evenodd" clip-rule="evenodd" d="M366.528 900C518.676 900 648.934 815.452 702.709 695.599C703.366 694.137 486.812 751.869 493.717 731.461C496.8 722.348 629.549 673.861 726.265 617.305C781.853 584.798 807.452 515.986 807.452 515.986C807.452 515.986 713.799 561.449 666.455 572.982C571.047 596.225 487.063 593.723 487.063 591.301C487.063 586.064 626.516 559.571 820.341 441.476C911.511 385.929 936.274 290.248 936.274 290.248C936.274 290.248 836.04 349.944 775.447 369.652C631.752 416.389 500.622 430.473 500.622 424.149C500.622 410.608 616.021 378.881 738.371 319.605C801.987 288.786 857.081 248.521 920.925 203.743C1025.39 130.481 1042.62 0 1042.62 0C1042.62 0 939.586 66.4456 889.304 88.5115C681.825 179.563 498.622 227.324 366.528 237.664C167.129 253.273 4 392.377 4 572.982C4 753.589 166.309 900 366.528 900Z"/>
</mask>
<path fill-rule="evenodd" clip-rule="evenodd" d="M366.528 900C518.676 900 648.934 815.452 702.709 695.599C703.366 694.137 486.812 751.869 493.717 731.461C496.8 722.348 629.549 673.861 726.265 617.305C781.853 584.798 807.452 515.986 807.452 515.986C807.452 515.986 713.799 561.449 666.455 572.982C571.047 596.225 487.063 593.723 487.063 591.301C487.063 586.064 626.516 559.571 820.341 441.476C911.511 385.929 936.274 290.248 936.274 290.248C936.274 290.248 836.04 349.944 775.447 369.652C631.752 416.389 500.622 430.473 500.622 424.149C500.622 410.608 616.021 378.881 738.371 319.605C801.987 288.786 857.081 248.521 920.925 203.743C1025.39 130.481 1042.62 0 1042.62 0C1042.62 0 939.586 66.4456 889.304 88.5115C681.825 179.563 498.622 227.324 366.528 237.664C167.129 253.273 4 392.377 4 572.982C4 753.589 166.309 900 366.528 900Z" fill="url(#paint0_linear_714_86)"/>
<path fill-rule="evenodd" clip-rule="evenodd" d="M366.528 900C518.676 900 648.934 815.452 702.709 695.599C703.366 694.137 486.812 751.869 493.717 731.461C496.8 722.348 629.549 673.861 726.265 617.305C781.853 584.798 807.452 515.986 807.452 515.986C807.452 515.986 713.799 561.449 666.455 572.982C571.047 596.225 487.063 593.723 487.063 591.301C487.063 586.064 626.516 559.571 820.341 441.476C911.511 385.929 936.274 290.248 936.274 290.248C936.274 290.248 836.04 349.944 775.447 369.652C631.752 416.389 500.622 430.473 500.622 424.149C500.622 410.608 616.021 378.881 738.371 319.605C801.987 288.786 857.081 248.521 920.925 203.743C1025.39 130.481 1042.62 0 1042.62 0C1042.62 0 939.586 66.4456 889.304 88.5115C681.825 179.563 498.622 227.324 366.528 237.664C167.129 253.273 4 392.377 4 572.982C4 753.589 166.309 900 366.528 900Z" stroke="url(#paint1_linear_714_86)" stroke-width="6" mask="url(#path-1-inside-1_714_86)"/>
</g>
<defs>
<filter id="filter0_d_714_86" x="0" y="0" width="1046.62" height="908" filterUnits="userSpaceOnUse" color-interpolation-filters="sRGB">
<feFlood flood-opacity="0" result="BackgroundImageFix"/>
<feColorMatrix in="SourceAlpha" type="matrix" values="0 0 0 0 0 0 0 0 0 0 0 0 0 0 0 0 0 0 127 0" result="hardAlpha"/>
<feOffset dy="4"/>
<feGaussianBlur stdDeviation="2"/>
<feComposite in2="hardAlpha" operator="out"/>
<feColorMatrix type="matrix" values="0 0 0 0 0 0 0 0 0 0 0 0 0 0 0 0 0 0 0.25 0"/>
<feBlend mode="normal" in2="BackgroundImageFix" result="effect1_dropShadow_714_86"/>
<feBlend mode="normal" in="SourceGraphic" in2="effect1_dropShadow_714_86" result="shape"/>
</filter>
<linearGradient id="paint0_linear_714_86" x1="102.691" y1="187.685" x2="856.982" y2="801.447" gradientUnits="userSpaceOnUse">
<stop stop-color="#A890F0"/>
<stop offset="0.442708" stop-color="#C6B7F5"/>
<stop offset="0.84375" stop-color="#6D5E9C"/>
</linearGradient>
<linearGradient id="paint1_linear_714_86" x1="165.165" y1="109.091" x2="570.639" y2="907.791" gradientUnits="userSpaceOnUse">
<stop stop-color="#6D5E9C"/>
<stop offset="1" stop-color="#C6B7F5" stop-opacity="0"/>
</linearGradient>
</defs>
</svg>
