<?xml version="1.0" encoding="UTF-8" standalone="no"?>
<svg
   width="50"
   height="50"
   viewBox="0 0 50 50"
   fill="none"
   version="1.1"
   id="svg968"
   sodipodi:docname="type_c21_flying.svg"
   inkscape:version="1.1.2 (b8e25be833, 2022-02-05)"
   xmlns:inkscape="http://www.inkscape.org/namespaces/inkscape"
   xmlns:sodipodi="http://sodipodi.sourceforge.net/DTD/sodipodi-0.dtd"
   xmlns="http://www.w3.org/2000/svg"
   xmlns:svg="http://www.w3.org/2000/svg">
  <sodipodi:namedview
     id="namedview970"
     pagecolor="#ffffff"
     bordercolor="#cccccc"
     borderopacity="1"
     inkscape:pageshadow="0"
     inkscape:pageopacity="1"
     inkscape:pagecheckerboard="0"
     showgrid="false"
     inkscape:zoom="1.0804455"
     inkscape:cx="-78.208477"
     inkscape:cy="25.452463"
     inkscape:window-width="3840"
     inkscape:window-height="2071"
     inkscape:window-x="-9"
     inkscape:window-y="-9"
     inkscape:window-maximized="1"
     inkscape:current-layer="svg968" />
  <g
     filter="url(#filter0_d_719_163)"
     id="g865"
     transform="scale(0.06188119)">
    <circle
       cx="404"
       cy="400"
       r="400"
       fill="url(#paint0_linear_719_163)"
       id="circle861"
       style="fill:url(#paint0_linear_719_163)" />
    <circle
       cx="404"
       cy="400"
       r="385"
       stroke="url(#paint1_linear_719_163)"
       stroke-width="30"
       id="circle863"
       style="stroke:url(#paint1_linear_719_163)" />
  </g>
  <g
     filter="url(#filter1_d_719_163)"
     id="g871"
     transform="scale(0.06188119)">
    <circle
       cx="407"
       cy="402"
       r="300"
       fill="#ffffff"
       id="circle867" />
    <circle
       cx="407"
       cy="402"
       r="300"
       stroke="url(#paint2_linear_719_163)"
       stroke-width="30"
       id="circle869"
       style="stroke:url(#paint2_linear_719_163)" />
  </g>
  <g
     filter="url(#filter2_d_719_163)"
     id="g880"
     transform="scale(0.06188119)">
    <mask
       id="path-4-inside-1_719_163"
       fill="#ffffff">
      <path
         fill-rule="evenodd"
         clip-rule="evenodd"
         d="m 331.124,602 c 67.621,0 125.513,-37.577 149.413,-90.845 0.293,-0.65 -95.954,25.009 -92.885,15.939 1.37,-4.05 60.37,-25.6 103.355,-50.736 24.706,-14.448 36.083,-45.031 36.083,-45.031 0,0 -41.624,20.206 -62.666,25.332 -42.403,10.33 -79.729,9.218 -79.729,8.141 0,-2.327 61.979,-14.102 148.123,-66.588 40.52,-24.688 51.526,-67.213 51.526,-67.213 0,0 -44.548,26.531 -71.479,35.291 -63.864,20.772 -122.144,27.031 -122.144,24.221 0,-6.018 51.288,-20.12 105.666,-46.464 28.274,-13.698 52.76,-31.593 81.135,-51.494 46.43,-32.561 54.087,-90.553 54.087,-90.553 0,0 -45.793,29.531 -68.14,39.338 -92.213,40.468 -173.637,61.695 -232.345,66.29 C 242.502,314.566 170,376.39 170,456.659 170,536.928 242.137,602 331.124,602 Z"
         id="path873" />
    </mask>
    <path
       fill-rule="evenodd"
       clip-rule="evenodd"
       d="m 331.124,602 c 67.621,0 125.513,-37.577 149.413,-90.845 0.293,-0.65 -95.954,25.009 -92.885,15.939 1.37,-4.05 60.37,-25.6 103.355,-50.736 24.706,-14.448 36.083,-45.031 36.083,-45.031 0,0 -41.624,20.206 -62.666,25.332 -42.403,10.33 -79.729,9.218 -79.729,8.141 0,-2.327 61.979,-14.102 148.123,-66.588 40.52,-24.688 51.526,-67.213 51.526,-67.213 0,0 -44.548,26.531 -71.479,35.291 -63.864,20.772 -122.144,27.031 -122.144,24.221 0,-6.018 51.288,-20.12 105.666,-46.464 28.274,-13.698 52.76,-31.593 81.135,-51.494 46.43,-32.561 54.087,-90.553 54.087,-90.553 0,0 -45.793,29.531 -68.14,39.338 -92.213,40.468 -173.637,61.695 -232.345,66.29 C 242.502,314.566 170,376.39 170,456.659 170,536.928 242.137,602 331.124,602 Z"
       fill="url(#paint3_linear_719_163)"
       id="path876"
       style="fill:url(#paint3_linear_719_163)" />
    <path
       fill-rule="evenodd"
       clip-rule="evenodd"
       d="m 331.124,602 c 67.621,0 125.513,-37.577 149.413,-90.845 0.293,-0.65 -95.954,25.009 -92.885,15.939 1.37,-4.05 60.37,-25.6 103.355,-50.736 24.706,-14.448 36.083,-45.031 36.083,-45.031 0,0 -41.624,20.206 -62.666,25.332 -42.403,10.33 -79.729,9.218 -79.729,8.141 0,-2.327 61.979,-14.102 148.123,-66.588 40.52,-24.688 51.526,-67.213 51.526,-67.213 0,0 -44.548,26.531 -71.479,35.291 -63.864,20.772 -122.144,27.031 -122.144,24.221 0,-6.018 51.288,-20.12 105.666,-46.464 28.274,-13.698 52.76,-31.593 81.135,-51.494 46.43,-32.561 54.087,-90.553 54.087,-90.553 0,0 -45.793,29.531 -68.14,39.338 -92.213,40.468 -173.637,61.695 -232.345,66.29 C 242.502,314.566 170,376.39 170,456.659 170,536.928 242.137,602 331.124,602 Z"
       stroke="url(#paint4_linear_719_163)"
       stroke-width="60"
       mask="url(#path-4-inside-1_719_163)"
       id="path878"
       style="stroke:url(#paint4_linear_719_163)" />
  </g>
  <defs
     id="defs966">
    <filter
       id="filter0_d_719_163"
       x="0"
       y="0"
       width="808"
       height="808"
       filterUnits="userSpaceOnUse"
       color-interpolation-filters="sRGB">
      <feFlood
         flood-opacity="0"
         result="BackgroundImageFix"
         id="feFlood882" />
      <feColorMatrix
         in="SourceAlpha"
         type="matrix"
         values="0 0 0 0 0 0 0 0 0 0 0 0 0 0 0 0 0 0 127 0"
         result="hardAlpha"
         id="feColorMatrix884" />
      <feOffset
         dy="4"
         id="feOffset886" />
      <feGaussianBlur
         stdDeviation="2"
         id="feGaussianBlur888" />
      <feComposite
         in2="hardAlpha"
         operator="out"
         id="feComposite890" />
      <feColorMatrix
         type="matrix"
         values="0 0 0 0 0 0 0 0 0 0 0 0 0 0 0 0 0 0 0.25 0"
         id="feColorMatrix892" />
      <feBlend
         mode="normal"
         in2="BackgroundImageFix"
         result="effect1_dropShadow_719_163"
         id="feBlend894" />
      <feBlend
         mode="normal"
         in="SourceGraphic"
         in2="effect1_dropShadow_719_163"
         result="shape"
         id="feBlend896" />
    </filter>
    <filter
       id="filter1_d_719_163"
       x="88"
       y="87"
       width="638"
       height="638"
       filterUnits="userSpaceOnUse"
       color-interpolation-filters="sRGB">
      <feFlood
         flood-opacity="0"
         result="BackgroundImageFix"
         id="feFlood899" />
      <feColorMatrix
         in="SourceAlpha"
         type="matrix"
         values="0 0 0 0 0 0 0 0 0 0 0 0 0 0 0 0 0 0 127 0"
         result="hardAlpha"
         id="feColorMatrix901" />
      <feOffset
         dy="4"
         id="feOffset903" />
      <feGaussianBlur
         stdDeviation="2"
         id="feGaussianBlur905" />
      <feComposite
         in2="hardAlpha"
         operator="out"
         id="feComposite907" />
      <feColorMatrix
         type="matrix"
         values="0 0 0 0 0 0 0 0 0 0 0 0 0 0 0 0 0 0 0.25 0"
         id="feColorMatrix909" />
      <feBlend
         mode="normal"
         in2="BackgroundImageFix"
         result="effect1_dropShadow_719_163"
         id="feBlend911" />
      <feBlend
         mode="normal"
         in="SourceGraphic"
         in2="effect1_dropShadow_719_163"
         result="shape"
         id="feBlend913" />
    </filter>
    <filter
       id="filter2_d_719_163"
       x="166"
       y="202"
       width="469.60901"
       height="408"
       filterUnits="userSpaceOnUse"
       color-interpolation-filters="sRGB">
      <feFlood
         flood-opacity="0"
         result="BackgroundImageFix"
         id="feFlood916" />
      <feColorMatrix
         in="SourceAlpha"
         type="matrix"
         values="0 0 0 0 0 0 0 0 0 0 0 0 0 0 0 0 0 0 127 0"
         result="hardAlpha"
         id="feColorMatrix918" />
      <feOffset
         dy="4"
         id="feOffset920" />
      <feGaussianBlur
         stdDeviation="2"
         id="feGaussianBlur922" />
      <feComposite
         in2="hardAlpha"
         operator="out"
         id="feComposite924" />
      <feColorMatrix
         type="matrix"
         values="0 0 0 0 0 0 0 0 0 0 0 0 0 0 0 0 0 0 0.25 0"
         id="feColorMatrix926" />
      <feBlend
         mode="normal"
         in2="BackgroundImageFix"
         result="effect1_dropShadow_719_163"
         id="feBlend928" />
      <feBlend
         mode="normal"
         in="SourceGraphic"
         in2="effect1_dropShadow_719_163"
         result="shape"
         id="feBlend930" />
    </filter>
    <linearGradient
       id="paint0_linear_719_163"
       x1="80.017303"
       y1="166.83099"
       x2="725.01898"
       y2="621.61798"
       gradientUnits="userSpaceOnUse">
      <stop
         stop-color="#A890F0"
         id="stop933" />
      <stop
         offset="0.442708"
         stop-color="#C6B7F5"
         id="stop935" />
      <stop
         offset="0.84375"
         stop-color="#6D5E9C"
         id="stop937" />
    </linearGradient>
    <linearGradient
       id="paint1_linear_719_163"
       x1="80.017303"
       y1="166.83099"
       x2="725.01898"
       y2="621.61798"
       gradientUnits="userSpaceOnUse">
      <stop
         stop-color="#6D5E9C"
         id="stop940" />
      <stop
         offset="0.60625"
         stop-color="#C6B7F5"
         id="stop942" />
      <stop
         offset="0.986458"
         stop-color="#A890F0"
         id="stop944" />
    </linearGradient>
    <linearGradient
       id="paint2_linear_719_163"
       x1="164.013"
       y1="227.12399"
       x2="647.76398"
       y2="568.21399"
       gradientUnits="userSpaceOnUse">
      <stop
         stop-color="#6D5E9C"
         id="stop947" />
      <stop
         offset="0.60625"
         stop-color="#C6B7F5"
         id="stop949" />
      <stop
         offset="0.986458"
         stop-color="#A890F0"
         id="stop951" />
    </linearGradient>
    <linearGradient
       id="paint3_linear_719_163"
       x1="213.86301"
       y1="285.41599"
       x2="549.10303"
       y2="558.19897"
       gradientUnits="userSpaceOnUse">
      <stop
         stop-color="#A890F0"
         id="stop954" />
      <stop
         offset="0.442708"
         stop-color="#C6B7F5"
         id="stop956" />
      <stop
         offset="0.84375"
         stop-color="#6D5E9C"
         id="stop958" />
    </linearGradient>
    <linearGradient
       id="paint4_linear_719_163"
       x1="241.629"
       y1="250.485"
       x2="421.83899"
       y2="605.46301"
       gradientUnits="userSpaceOnUse">
      <stop
         stop-color="#6D5E9C"
         id="stop961" />
      <stop
         offset="1"
         stop-color="#C6B7F5"
         stop-opacity="0"
         id="stop963" />
    </linearGradient>
  </defs>
</svg>
