<svg width="25" height="13" viewBox="0 0 25 13" fill="none" xmlns="http://www.w3.org/2000/svg">
<path d="M24.2188 2.91602V0.542969H7.8125V1.32422H0.878906C0.878906 1.32422 1.92383 5.28906 7.45117 5.28906C10.4102 5.28906 10.8105 6.5293 10.8105 7.1543C10.8105 7.97461 10.3125 9.29297 7.22656 10.3574V12.6523H11.0059C11.6699 12.1445 12.5 11.8516 13.3984 11.8516C14.2969 11.8516 15.127 12.1543 15.791 12.6523H19.6289C19.6289 12.6523 19.6289 11.1777 19.6289 10.416C17.3438 9.66406 15.8496 8.42383 15.8496 7.01758C15.8496 4.80078 19.541 3.0332 24.2188 2.91602ZM7.8125 2.49609C2.73438 2.49609 2.73438 2.10547 2.73438 2.10547H7.8125C7.8125 2.10547 7.8125 2.33984 7.8125 2.49609ZM8.59375 1.71484V1.32422H23.4375V1.71484H8.59375Z" fill="url(#paint0_linear_418_69)"/>
<defs>
<linearGradient id="paint0_linear_418_69" x1="12.5488" y1="0.542969" x2="12.5488" y2="12.6523" gradientUnits="userSpaceOnUse">
<stop stop-color="#D1D1E0"/>
<stop offset="0.1875" stop-color="#838394"/>
<stop offset="0.598958" stop-color="#B8B8D0"/>
<stop offset="0.869792" stop-color="#787887"/>
</linearGradient>
</defs>
</svg>
