<svg width="1358" height="1358" viewBox="0 0 1358 1358" fill="none" xmlns="http://www.w3.org/2000/svg">
<g filter="url(#filter0_d_717_166)">
<mask id="path-1-inside-1_717_166" fill="white">
<path fill-rule="evenodd" clip-rule="evenodd" d="M929.292 251.104L932.362 520.641L697.147 633.496L694.246 379.001L929.292 251.104Z"/>
<path fill-rule="evenodd" clip-rule="evenodd" d="M1165.08 675.827L932.235 808.943L699.25 675.616L932.114 553.361L1165.08 675.827Z"/>
<path fill-rule="evenodd" clip-rule="evenodd" d="M657.832 675.827L424.986 808.943L192 675.616L424.865 553.361L657.832 675.827Z"/>
<path fill-rule="evenodd" clip-rule="evenodd" d="M422.37 250L664.049 369.632L657.869 630.336L429.68 517.382L422.37 250Z"/>
<path fill-rule="evenodd" clip-rule="evenodd" d="M935.868 1097.57L694.19 977.942L700.369 717.236L928.559 830.192L935.868 1097.57Z"/>
<path fill-rule="evenodd" clip-rule="evenodd" d="M430.717 1100L427.645 830.463L662.861 717.608L665.762 972.101L430.717 1100Z"/>
</mask>
<path fill-rule="evenodd" clip-rule="evenodd" d="M929.292 251.104L932.362 520.641L697.147 633.496L694.246 379.001L929.292 251.104Z" fill="url(#paint0_linear_717_166)"/>
<path fill-rule="evenodd" clip-rule="evenodd" d="M1165.08 675.827L932.235 808.943L699.25 675.616L932.114 553.361L1165.08 675.827Z" fill="url(#paint1_linear_717_166)"/>
<path fill-rule="evenodd" clip-rule="evenodd" d="M657.832 675.827L424.986 808.943L192 675.616L424.865 553.361L657.832 675.827Z" fill="url(#paint2_linear_717_166)"/>
<path fill-rule="evenodd" clip-rule="evenodd" d="M422.37 250L664.049 369.632L657.869 630.336L429.68 517.382L422.37 250Z" fill="url(#paint3_linear_717_166)"/>
<path fill-rule="evenodd" clip-rule="evenodd" d="M935.868 1097.57L694.19 977.942L700.369 717.236L928.559 830.192L935.868 1097.57Z" fill="url(#paint4_linear_717_166)"/>
<path fill-rule="evenodd" clip-rule="evenodd" d="M430.717 1100L427.645 830.463L662.861 717.608L665.762 972.101L430.717 1100Z" fill="url(#paint5_linear_717_166)"/>
<path fill-rule="evenodd" clip-rule="evenodd" d="M929.292 251.104L932.362 520.641L697.147 633.496L694.246 379.001L929.292 251.104Z" stroke="url(#paint6_linear_717_166)" stroke-width="60" mask="url(#path-1-inside-1_717_166)"/>
<path fill-rule="evenodd" clip-rule="evenodd" d="M1165.08 675.827L932.235 808.943L699.25 675.616L932.114 553.361L1165.08 675.827Z" stroke="url(#paint7_linear_717_166)" stroke-width="60" mask="url(#path-1-inside-1_717_166)"/>
<path fill-rule="evenodd" clip-rule="evenodd" d="M657.832 675.827L424.986 808.943L192 675.616L424.865 553.361L657.832 675.827Z" stroke="url(#paint8_linear_717_166)" stroke-width="60" mask="url(#path-1-inside-1_717_166)"/>
<path fill-rule="evenodd" clip-rule="evenodd" d="M422.37 250L664.049 369.632L657.869 630.336L429.68 517.382L422.37 250Z" stroke="url(#paint9_linear_717_166)" stroke-width="60" mask="url(#path-1-inside-1_717_166)"/>
<path fill-rule="evenodd" clip-rule="evenodd" d="M935.868 1097.57L694.19 977.942L700.369 717.236L928.559 830.192L935.868 1097.57Z" stroke="url(#paint10_linear_717_166)" stroke-width="60" mask="url(#path-1-inside-1_717_166)"/>
<path fill-rule="evenodd" clip-rule="evenodd" d="M430.717 1100L427.645 830.463L662.861 717.608L665.762 972.101L430.717 1100Z" stroke="url(#paint11_linear_717_166)" stroke-width="60" mask="url(#path-1-inside-1_717_166)"/>
</g>
<g filter="url(#filter1_d_717_166)">
<circle cx="679" cy="675" r="615.5" stroke="url(#paint12_linear_717_166)" stroke-width="119" shape-rendering="crispEdges"/>
</g>
<defs>
<filter id="filter0_d_717_166" x="188" y="250" width="981.082" height="858" filterUnits="userSpaceOnUse" color-interpolation-filters="sRGB">
<feFlood flood-opacity="0" result="BackgroundImageFix"/>
<feColorMatrix in="SourceAlpha" type="matrix" values="0 0 0 0 0 0 0 0 0 0 0 0 0 0 0 0 0 0 127 0" result="hardAlpha"/>
<feOffset dy="4"/>
<feGaussianBlur stdDeviation="2"/>
<feComposite in2="hardAlpha" operator="out"/>
<feColorMatrix type="matrix" values="0 0 0 0 0 0 0 0 0 0 0 0 0 0 0 0 0 0 0.25 0"/>
<feBlend mode="normal" in2="BackgroundImageFix" result="effect1_dropShadow_717_166"/>
<feBlend mode="normal" in="SourceGraphic" in2="effect1_dropShadow_717_166" result="shape"/>
</filter>
<filter id="filter1_d_717_166" x="0" y="0" width="1358" height="1358" filterUnits="userSpaceOnUse" color-interpolation-filters="sRGB">
<feFlood flood-opacity="0" result="BackgroundImageFix"/>
<feColorMatrix in="SourceAlpha" type="matrix" values="0 0 0 0 0 0 0 0 0 0 0 0 0 0 0 0 0 0 127 0" result="hardAlpha"/>
<feOffset dy="4"/>
<feGaussianBlur stdDeviation="2"/>
<feComposite in2="hardAlpha" operator="out"/>
<feColorMatrix type="matrix" values="0 0 0 0 0 0 0 0 0 0 0 0 0 0 0 0 0 0 0.25 0"/>
<feBlend mode="normal" in2="BackgroundImageFix" result="effect1_dropShadow_717_166"/>
<feBlend mode="normal" in="SourceGraphic" in2="effect1_dropShadow_717_166" result="shape"/>
</filter>
<linearGradient id="paint0_linear_717_166" x1="284.464" y1="427.258" x2="995.666" y2="1001.34" gradientUnits="userSpaceOnUse">
<stop stop-color="#98D8D8"/>
<stop offset="0.442708" stop-color="#BCE6E6"/>
<stop offset="0.84375" stop-color="#638D8D"/>
</linearGradient>
<linearGradient id="paint1_linear_717_166" x1="284.464" y1="427.258" x2="995.666" y2="1001.34" gradientUnits="userSpaceOnUse">
<stop stop-color="#98D8D8"/>
<stop offset="0.442708" stop-color="#BCE6E6"/>
<stop offset="0.84375" stop-color="#638D8D"/>
</linearGradient>
<linearGradient id="paint2_linear_717_166" x1="284.464" y1="427.258" x2="995.666" y2="1001.34" gradientUnits="userSpaceOnUse">
<stop stop-color="#98D8D8"/>
<stop offset="0.442708" stop-color="#BCE6E6"/>
<stop offset="0.84375" stop-color="#638D8D"/>
</linearGradient>
<linearGradient id="paint3_linear_717_166" x1="284.464" y1="427.258" x2="995.666" y2="1001.34" gradientUnits="userSpaceOnUse">
<stop stop-color="#98D8D8"/>
<stop offset="0.442708" stop-color="#BCE6E6"/>
<stop offset="0.84375" stop-color="#638D8D"/>
</linearGradient>
<linearGradient id="paint4_linear_717_166" x1="284.464" y1="427.258" x2="995.666" y2="1001.34" gradientUnits="userSpaceOnUse">
<stop stop-color="#98D8D8"/>
<stop offset="0.442708" stop-color="#BCE6E6"/>
<stop offset="0.84375" stop-color="#638D8D"/>
</linearGradient>
<linearGradient id="paint5_linear_717_166" x1="284.464" y1="427.258" x2="995.666" y2="1001.34" gradientUnits="userSpaceOnUse">
<stop stop-color="#98D8D8"/>
<stop offset="0.442708" stop-color="#BCE6E6"/>
<stop offset="0.84375" stop-color="#638D8D"/>
</linearGradient>
<linearGradient id="paint6_linear_717_166" x1="342.995" y1="353.03" x2="727.752" y2="1104.87" gradientUnits="userSpaceOnUse">
<stop stop-color="#638D8D"/>
<stop offset="1" stop-color="#BCE6E6" stop-opacity="0"/>
</linearGradient>
<linearGradient id="paint7_linear_717_166" x1="342.995" y1="353.03" x2="727.752" y2="1104.87" gradientUnits="userSpaceOnUse">
<stop stop-color="#638D8D"/>
<stop offset="1" stop-color="#BCE6E6" stop-opacity="0"/>
</linearGradient>
<linearGradient id="paint8_linear_717_166" x1="342.995" y1="353.03" x2="727.752" y2="1104.87" gradientUnits="userSpaceOnUse">
<stop stop-color="#638D8D"/>
<stop offset="1" stop-color="#BCE6E6" stop-opacity="0"/>
</linearGradient>
<linearGradient id="paint9_linear_717_166" x1="342.995" y1="353.03" x2="727.752" y2="1104.87" gradientUnits="userSpaceOnUse">
<stop stop-color="#638D8D"/>
<stop offset="1" stop-color="#BCE6E6" stop-opacity="0"/>
</linearGradient>
<linearGradient id="paint10_linear_717_166" x1="342.995" y1="353.03" x2="727.752" y2="1104.87" gradientUnits="userSpaceOnUse">
<stop stop-color="#638D8D"/>
<stop offset="1" stop-color="#BCE6E6" stop-opacity="0"/>
</linearGradient>
<linearGradient id="paint11_linear_717_166" x1="342.995" y1="353.03" x2="727.752" y2="1104.87" gradientUnits="userSpaceOnUse">
<stop stop-color="#638D8D"/>
<stop offset="1" stop-color="#BCE6E6" stop-opacity="0"/>
</linearGradient>
<linearGradient id="paint12_linear_717_166" x1="132.279" y1="281.528" x2="1220.72" y2="1048.98" gradientUnits="userSpaceOnUse">
<stop stop-color="#98D8D8"/>
<stop offset="0.442708" stop-color="#BCE6E6"/>
<stop offset="0.84375" stop-color="#638D8D"/>
</linearGradient>
</defs>
</svg>
