<svg width="1006" height="908" viewBox="0 0 1006 908" fill="none" xmlns="http://www.w3.org/2000/svg">
<g filter="url(#filter0_d_714_112)">
<mask id="path-1-inside-1_714_112" fill="white">
<path fill-rule="evenodd" clip-rule="evenodd" d="M774.565 425.88C774.509 425.791 774.485 425.679 774.501 425.57L838.039 0.338902C838.068 0.143104 838.218 0 838.389 0H858.498C858.654 0 858.79 0.115426 858.837 0.285102L1001.98 520.484C1002.03 520.644 1001.98 520.823 1001.86 520.928L896.319 615.507C896.161 615.647 895.934 615.612 895.815 615.426L774.565 425.88ZM4 707.777C4 707.953 4.09881 708.11 4.24488 708.165L221.813 789.813C221.918 789.853 222.035 789.833 222.126 789.762L708.442 404.418C708.524 404.354 708.578 404.253 708.592 404.142L760.743 2.51924C760.776 2.27276 760.608 2.0513 760.392 2.0513H329.637C329.53 2.0513 329.431 2.10533 329.363 2.19887L4.08175 452.575C4.02891 452.649 4 452.74 4 452.836V707.777ZM312.475 810.616L550.164 899.98C550.271 900.02 550.389 900 550.481 899.924L833.466 666.948C833.623 666.82 833.662 666.572 833.555 666.389L727.472 485.204C727.361 485.015 727.139 484.965 726.976 485.095L312.475 810.616Z"/>
</mask>
<path fill-rule="evenodd" clip-rule="evenodd" d="M774.565 425.88C774.509 425.791 774.485 425.679 774.501 425.57L838.039 0.338902C838.068 0.143104 838.218 0 838.389 0H858.498C858.654 0 858.79 0.115426 858.837 0.285102L1001.98 520.484C1002.03 520.644 1001.98 520.823 1001.86 520.928L896.319 615.507C896.161 615.647 895.934 615.612 895.815 615.426L774.565 425.88ZM4 707.777C4 707.953 4.09881 708.11 4.24488 708.165L221.813 789.813C221.918 789.853 222.035 789.833 222.126 789.762L708.442 404.418C708.524 404.354 708.578 404.253 708.592 404.142L760.743 2.51924C760.776 2.27276 760.608 2.0513 760.392 2.0513H329.637C329.53 2.0513 329.431 2.10533 329.363 2.19887L4.08175 452.575C4.02891 452.649 4 452.74 4 452.836V707.777ZM312.475 810.616L550.164 899.98C550.271 900.02 550.389 900 550.481 899.924L833.466 666.948C833.623 666.82 833.662 666.572 833.555 666.389L727.472 485.204C727.361 485.015 727.139 484.965 726.976 485.095L312.475 810.616Z" fill="url(#paint0_linear_714_112)"/>
<path fill-rule="evenodd" clip-rule="evenodd" d="M774.565 425.88C774.509 425.791 774.485 425.679 774.501 425.57L838.039 0.338902C838.068 0.143104 838.218 0 838.389 0H858.498C858.654 0 858.79 0.115426 858.837 0.285102L1001.98 520.484C1002.03 520.644 1001.98 520.823 1001.86 520.928L896.319 615.507C896.161 615.647 895.934 615.612 895.815 615.426L774.565 425.88ZM4 707.777C4 707.953 4.09881 708.11 4.24488 708.165L221.813 789.813C221.918 789.853 222.035 789.833 222.126 789.762L708.442 404.418C708.524 404.354 708.578 404.253 708.592 404.142L760.743 2.51924C760.776 2.27276 760.608 2.0513 760.392 2.0513H329.637C329.53 2.0513 329.431 2.10533 329.363 2.19887L4.08175 452.575C4.02891 452.649 4 452.74 4 452.836V707.777ZM312.475 810.616L550.164 899.98C550.271 900.02 550.389 900 550.481 899.924L833.466 666.948C833.623 666.82 833.662 666.572 833.555 666.389L727.472 485.204C727.361 485.015 727.139 484.965 726.976 485.095L312.475 810.616Z" stroke="url(#paint1_linear_714_112)" stroke-width="6" mask="url(#path-1-inside-1_714_112)"/>
</g>
<defs>
<filter id="filter0_d_714_112" x="0" y="0" width="1006" height="908" filterUnits="userSpaceOnUse" color-interpolation-filters="sRGB">
<feFlood flood-opacity="0" result="BackgroundImageFix"/>
<feColorMatrix in="SourceAlpha" type="matrix" values="0 0 0 0 0 0 0 0 0 0 0 0 0 0 0 0 0 0 127 0" result="hardAlpha"/>
<feOffset dy="4"/>
<feGaussianBlur stdDeviation="2"/>
<feComposite in2="hardAlpha" operator="out"/>
<feColorMatrix type="matrix" values="0 0 0 0 0 0 0 0 0 0 0 0 0 0 0 0 0 0 0.25 0"/>
<feBlend mode="normal" in2="BackgroundImageFix" result="effect1_dropShadow_714_112"/>
<feBlend mode="normal" in="SourceGraphic" in2="effect1_dropShadow_714_112" result="shape"/>
</filter>
<linearGradient id="paint0_linear_714_112" x1="98.8316" y1="187.685" x2="846.461" y2="772.235" gradientUnits="userSpaceOnUse">
<stop stop-color="#B8A038"/>
<stop offset="0.442708" stop-color="#D1C17D"/>
<stop offset="0.84375" stop-color="#786824"/>
</linearGradient>
<linearGradient id="paint1_linear_714_112" x1="158.862" y1="109.091" x2="573.777" y2="894.425" gradientUnits="userSpaceOnUse">
<stop stop-color="#786824"/>
<stop offset="1" stop-color="#D1C17D" stop-opacity="0"/>
</linearGradient>
</defs>
</svg>
