<svg width="23" height="25" viewBox="0 0 23 25" fill="none" xmlns="http://www.w3.org/2000/svg">
<path d="M21.4759 13.2312L16.9289 14.449L15.1762 13.4379V11.5406L16.9089 10.5456L21.4758 11.7693C21.5676 11.7938 21.6598 11.8059 21.7512 11.8059C22.2203 11.8059 22.6496 11.4926 22.7764 11.0181C22.9283 10.451 22.5921 9.86817 22.025 9.71641L19.5214 9.04558L21.8294 7.72048C22.3381 7.4283 22.5141 6.77878 22.2219 6.26986C21.9287 5.76094 21.2805 5.58462 20.7715 5.87751L18.4588 7.20573L19.1294 4.70121C19.2812 4.13427 18.9455 3.55135 18.3781 3.39959C17.8146 3.25177 17.2294 3.58427 17.0774 4.15084L15.8588 8.69802L14.1153 9.6993L12.4625 8.74368V6.73852L15.8049 3.39625C16.2198 2.98112 16.2198 2.30872 15.8049 1.89354C15.3898 1.47847 14.7176 1.47847 14.3023 1.89354L12.4625 3.73323V1.06253C12.4626 0.475788 11.9867 0 11.3999 0C10.8132 0 10.3373 0.475734 10.3373 1.06253V3.72006L8.511 1.89354C8.09592 1.47847 7.42353 1.47847 7.00835 1.89354C6.59327 2.30867 6.59327 2.98107 7.00835 3.39625L10.3373 6.72519V8.75139L8.69708 9.69768L6.95357 8.69732L5.73582 4.15089C5.58411 3.58433 5.00169 3.25091 4.43518 3.39965C3.86818 3.55141 3.53169 4.13432 3.68361 4.70126L4.35422 7.20535L2.04156 5.87751C1.53172 5.58457 0.882744 5.7605 0.59099 6.27013C0.298965 6.77916 0.475065 7.42824 0.983935 7.72043L3.29174 9.04552L0.788029 9.71635C0.220981 9.86811 -0.115406 10.4509 0.036462 11.018C0.163558 11.4926 0.592717 11.8059 1.06187 11.8059C1.15324 11.8059 1.24552 11.7938 1.33759 11.7693L5.90507 10.5451L7.63579 11.5388L7.63757 13.4379L5.88434 14.4508L1.33759 13.2312C0.774537 13.0834 0.188546 13.4163 0.036462 13.9826C-0.115406 14.5495 0.220981 15.1325 0.788029 15.2834L3.28257 15.9525L0.981291 17.281C0.473284 17.5746 0.298965 18.2239 0.592771 18.732C0.789594 19.0739 1.14665 19.2632 1.51348 19.2632C1.69357 19.2632 1.87636 19.2184 2.04383 19.1204L4.35676 17.7857L3.68361 20.2994C3.53169 20.8672 3.86818 21.4484 4.43518 21.6011C4.52698 21.6259 4.61921 21.6377 4.71063 21.6377C5.17957 21.6377 5.60872 21.3239 5.73582 20.8491L6.95961 16.283L8.70021 15.2787L10.3373 16.2234V18.2756L7.00835 21.6046C6.59327 22.0196 6.59327 22.6919 7.00835 23.1072C7.21591 23.3148 7.48732 23.4176 7.75964 23.4176C8.03105 23.4176 8.30343 23.3148 8.511 23.1072L10.3373 21.2808V23.9374C10.3373 24.5252 10.8132 25 11.3999 25C11.9867 25 12.4626 24.5251 12.4626 23.9374V21.2675L14.3023 23.1072C14.5098 23.3148 14.7812 23.4176 15.0536 23.4176C15.326 23.4176 15.5974 23.3148 15.8049 23.1072C16.2198 22.692 16.2198 22.0197 15.8049 21.6046L12.4626 18.2623V16.2316L14.1138 15.2786L15.8539 16.2829L17.0777 20.8489C17.2046 21.3238 17.6337 21.6376 18.1026 21.6376C18.1937 21.6376 18.2862 21.6258 18.3782 21.6009C18.9456 21.4483 19.2812 20.8671 19.1295 20.2993L18.4556 17.7856L20.7694 19.1203C20.937 19.2182 21.1197 19.2631 21.2998 19.2631C21.6667 19.2631 22.0236 19.0738 22.2205 18.7319C22.5142 18.2238 22.34 17.5746 21.832 17.2809L19.5307 15.9526L22.0252 15.2835C22.5922 15.1325 22.9284 14.5495 22.7765 13.9827C22.6255 13.4163 22.042 13.0827 21.4759 13.2312ZM13.0511 13.4379L11.4065 14.3877L9.76318 13.4379L9.76134 11.5371L11.4065 10.588L13.0511 11.5385V13.4379Z" fill="url(#paint0_linear_419_129)"/>
<defs>
<linearGradient id="paint0_linear_419_129" x1="11.4065" y1="0" x2="11.4065" y2="25" gradientUnits="userSpaceOnUse">
<stop offset="0.182292" stop-color="#98D8D8"/>
<stop offset="0.526042" stop-color="#BCE6E6"/>
<stop offset="1" stop-color="#638D8D"/>
</linearGradient>
</defs>
</svg>
