<svg width="683" height="908" viewBox="0 0 683 908" fill="none" xmlns="http://www.w3.org/2000/svg">
<g filter="url(#filter0_d_714_116)">
<mask id="path-1-inside-1_714_116" fill="white">
<path fill-rule="evenodd" clip-rule="evenodd" d="M511.155 695.029C522.285 654.369 500.681 570.78 500.681 570.78C500.681 570.78 485.012 638.875 460.529 664.044C439.642 685.512 414.051 700.402 377.351 704.315C407.357 689.754 427.993 659.391 427.993 624.296C427.993 575.032 387.33 535.094 337.17 535.094C287.01 535.094 246.346 575.032 246.346 624.296C246.346 637.75 249.381 650.51 254.812 661.95C223.439 636.979 218.505 596.943 218.505 596.943C218.505 596.943 183.473 742.261 280.003 810.619C376.531 878.977 565.627 820.22 565.627 820.22C565.627 820.22 295.019 1010.46 94.4956 803.409C-78.2387 625.05 49.4117 390.24 49.4117 390.24C49.4117 390.24 43.8989 412.023 43.8989 437.309C43.8989 462.595 57.6208 481.834 57.6208 481.834C57.6208 481.834 98.5527 395.633 130.408 360.577C160.557 327.4 198.35 300.491 230.993 277.249C256.121 259.358 278.198 243.64 291.382 228.908C364.004 147.777 319.476 0 319.476 0C319.476 0 401.34 72.1055 424.194 165.231C432.907 200.728 427.301 241.117 422.291 277.235C414.155 335.869 407.58 383.247 466.352 380.173C561.327 375.203 478.797 228.908 478.797 228.908C478.797 228.908 694.236 342.041 678.141 539.904C662.045 737.766 442.655 782.749 442.655 782.749C442.655 782.749 500.023 735.689 511.155 695.029Z"/>
</mask>
<path fill-rule="evenodd" clip-rule="evenodd" d="M511.155 695.029C522.285 654.369 500.681 570.78 500.681 570.78C500.681 570.78 485.012 638.875 460.529 664.044C439.642 685.512 414.051 700.402 377.351 704.315C407.357 689.754 427.993 659.391 427.993 624.296C427.993 575.032 387.33 535.094 337.17 535.094C287.01 535.094 246.346 575.032 246.346 624.296C246.346 637.75 249.381 650.51 254.812 661.95C223.439 636.979 218.505 596.943 218.505 596.943C218.505 596.943 183.473 742.261 280.003 810.619C376.531 878.977 565.627 820.22 565.627 820.22C565.627 820.22 295.019 1010.46 94.4956 803.409C-78.2387 625.05 49.4117 390.24 49.4117 390.24C49.4117 390.24 43.8989 412.023 43.8989 437.309C43.8989 462.595 57.6208 481.834 57.6208 481.834C57.6208 481.834 98.5527 395.633 130.408 360.577C160.557 327.4 198.35 300.491 230.993 277.249C256.121 259.358 278.198 243.64 291.382 228.908C364.004 147.777 319.476 0 319.476 0C319.476 0 401.34 72.1055 424.194 165.231C432.907 200.728 427.301 241.117 422.291 277.235C414.155 335.869 407.58 383.247 466.352 380.173C561.327 375.203 478.797 228.908 478.797 228.908C478.797 228.908 694.236 342.041 678.141 539.904C662.045 737.766 442.655 782.749 442.655 782.749C442.655 782.749 500.023 735.689 511.155 695.029Z" fill="url(#paint0_linear_714_116)"/>
<path fill-rule="evenodd" clip-rule="evenodd" d="M511.155 695.029C522.285 654.369 500.681 570.78 500.681 570.78C500.681 570.78 485.012 638.875 460.529 664.044C439.642 685.512 414.051 700.402 377.351 704.315C407.357 689.754 427.993 659.391 427.993 624.296C427.993 575.032 387.33 535.094 337.17 535.094C287.01 535.094 246.346 575.032 246.346 624.296C246.346 637.75 249.381 650.51 254.812 661.95C223.439 636.979 218.505 596.943 218.505 596.943C218.505 596.943 183.473 742.261 280.003 810.619C376.531 878.977 565.627 820.22 565.627 820.22C565.627 820.22 295.019 1010.46 94.4956 803.409C-78.2387 625.05 49.4117 390.24 49.4117 390.24C49.4117 390.24 43.8989 412.023 43.8989 437.309C43.8989 462.595 57.6208 481.834 57.6208 481.834C57.6208 481.834 98.5527 395.633 130.408 360.577C160.557 327.4 198.35 300.491 230.993 277.249C256.121 259.358 278.198 243.64 291.382 228.908C364.004 147.777 319.476 0 319.476 0C319.476 0 401.34 72.1055 424.194 165.231C432.907 200.728 427.301 241.117 422.291 277.235C414.155 335.869 407.58 383.247 466.352 380.173C561.327 375.203 478.797 228.908 478.797 228.908C478.797 228.908 694.236 342.041 678.141 539.904C662.045 737.766 442.655 782.749 442.655 782.749C442.655 782.749 500.023 735.689 511.155 695.029Z" stroke="url(#paint1_linear_714_116)" stroke-width="6" mask="url(#path-1-inside-1_714_116)"/>
</g>
<defs>
<filter id="filter0_d_714_116" x="0" y="0" width="683" height="908" filterUnits="userSpaceOnUse" color-interpolation-filters="sRGB">
<feFlood flood-opacity="0" result="BackgroundImageFix"/>
<feColorMatrix in="SourceAlpha" type="matrix" values="0 0 0 0 0 0 0 0 0 0 0 0 0 0 0 0 0 0 127 0" result="hardAlpha"/>
<feOffset dy="4"/>
<feGaussianBlur stdDeviation="2"/>
<feComposite in2="hardAlpha" operator="out"/>
<feColorMatrix type="matrix" values="0 0 0 0 0 0 0 0 0 0 0 0 0 0 0 0 0 0 0.25 0"/>
<feBlend mode="normal" in2="BackgroundImageFix" result="effect1_dropShadow_714_116"/>
<feBlend mode="normal" in="SourceGraphic" in2="effect1_dropShadow_714_116" result="shape"/>
</filter>
<linearGradient id="paint0_linear_714_116" x1="68.1396" y1="187.685" x2="704.862" y2="524.397" gradientUnits="userSpaceOnUse">
<stop stop-color="#EB9800"/>
<stop offset="0.442708" stop-color="#F5AC78"/>
<stop offset="0.84375" stop-color="#9C531F"/>
</linearGradient>
<linearGradient id="paint1_linear_714_116" x1="108.741" y1="109.091" x2="596.073" y2="732.96" gradientUnits="userSpaceOnUse">
<stop stop-color="#DD7700"/>
<stop offset="1" stop-color="#D29700" stop-opacity="0"/>
</linearGradient>
</defs>
</svg>
