<svg width="1358" height="1358" viewBox="0 0 1358 1358" fill="none" xmlns="http://www.w3.org/2000/svg">
<g filter="url(#filter0_d_717_168)">
<mask id="path-1-inside-1_717_168" fill="white">
<path fill-rule="evenodd" clip-rule="evenodd" d="M409.579 938.657L553.939 896.798L678.625 1124.78C678.788 1125.07 679.212 1125.07 679.374 1124.78L804.059 896.798L948.421 938.657C948.745 938.75 949.045 938.449 948.948 938.126L907.083 796.623L1128.78 675.374C1129.07 675.212 1129.07 674.788 1128.78 674.626L905.257 552.377L948.948 404.698C949.045 404.375 948.745 404.074 948.421 404.167L800.674 447.009L679.374 225.222C679.212 224.926 678.788 224.926 678.627 225.222L557.326 447.009L409.579 404.167C409.256 404.074 408.955 404.375 409.052 404.698L452.744 552.377L229.222 674.626C228.926 674.788 228.926 675.212 229.222 675.374L450.915 796.623L409.052 938.126C408.955 938.449 409.256 938.75 409.579 938.657ZM521.601 676.555L623.872 732.489L679.806 834.758C679.968 835.055 680.393 835.055 680.555 834.758L736.489 732.489L838.758 676.555C839.053 676.393 839.053 675.968 838.758 675.806L736.489 619.872L680.555 517.603C680.393 517.306 679.968 517.306 679.806 517.603L623.872 619.872L521.601 675.806C521.306 675.968 521.306 676.393 521.601 676.555Z"/>
</mask>
<path fill-rule="evenodd" clip-rule="evenodd" d="M409.579 938.657L553.939 896.798L678.625 1124.78C678.788 1125.07 679.212 1125.07 679.374 1124.78L804.059 896.798L948.421 938.657C948.745 938.75 949.045 938.449 948.948 938.126L907.083 796.623L1128.78 675.374C1129.07 675.212 1129.07 674.788 1128.78 674.626L905.257 552.377L948.948 404.698C949.045 404.375 948.745 404.074 948.421 404.167L800.674 447.009L679.374 225.222C679.212 224.926 678.788 224.926 678.627 225.222L557.326 447.009L409.579 404.167C409.256 404.074 408.955 404.375 409.052 404.698L452.744 552.377L229.222 674.626C228.926 674.788 228.926 675.212 229.222 675.374L450.915 796.623L409.052 938.126C408.955 938.449 409.256 938.75 409.579 938.657ZM521.601 676.555L623.872 732.489L679.806 834.758C679.968 835.055 680.393 835.055 680.555 834.758L736.489 732.489L838.758 676.555C839.053 676.393 839.053 675.968 838.758 675.806L736.489 619.872L680.555 517.603C680.393 517.306 679.968 517.306 679.806 517.603L623.872 619.872L521.601 675.806C521.306 675.968 521.306 676.393 521.601 676.555Z" fill="url(#paint0_linear_717_168)"/>
<path fill-rule="evenodd" clip-rule="evenodd" d="M409.579 938.657L553.939 896.798L678.625 1124.78C678.788 1125.07 679.212 1125.07 679.374 1124.78L804.059 896.798L948.421 938.657C948.745 938.75 949.045 938.449 948.948 938.126L907.083 796.623L1128.78 675.374C1129.07 675.212 1129.07 674.788 1128.78 674.626L905.257 552.377L948.948 404.698C949.045 404.375 948.745 404.074 948.421 404.167L800.674 447.009L679.374 225.222C679.212 224.926 678.788 224.926 678.627 225.222L557.326 447.009L409.579 404.167C409.256 404.074 408.955 404.375 409.052 404.698L452.744 552.377L229.222 674.626C228.926 674.788 228.926 675.212 229.222 675.374L450.915 796.623L409.052 938.126C408.955 938.449 409.256 938.75 409.579 938.657ZM521.601 676.555L623.872 732.489L679.806 834.758C679.968 835.055 680.393 835.055 680.555 834.758L736.489 732.489L838.758 676.555C839.053 676.393 839.053 675.968 838.758 675.806L736.489 619.872L680.555 517.603C680.393 517.306 679.968 517.306 679.806 517.603L623.872 619.872L521.601 675.806C521.306 675.968 521.306 676.393 521.601 676.555Z" stroke="url(#paint1_linear_717_168)" stroke-width="60" mask="url(#path-1-inside-1_717_168)"/>
</g>
<g filter="url(#filter1_d_717_168)">
<circle cx="679" cy="675" r="615.5" stroke="url(#paint2_linear_717_168)" stroke-width="119" shape-rendering="crispEdges"/>
</g>
<defs>
<filter id="filter0_d_717_168" x="225" y="225" width="908" height="908" filterUnits="userSpaceOnUse" color-interpolation-filters="sRGB">
<feFlood flood-opacity="0" result="BackgroundImageFix"/>
<feColorMatrix in="SourceAlpha" type="matrix" values="0 0 0 0 0 0 0 0 0 0 0 0 0 0 0 0 0 0 127 0" result="hardAlpha"/>
<feOffset dy="4"/>
<feGaussianBlur stdDeviation="2"/>
<feComposite in2="hardAlpha" operator="out"/>
<feColorMatrix type="matrix" values="0 0 0 0 0 0 0 0 0 0 0 0 0 0 0 0 0 0 0.25 0"/>
<feBlend mode="normal" in2="BackgroundImageFix" result="effect1_dropShadow_717_168"/>
<feBlend mode="normal" in="SourceGraphic" in2="effect1_dropShadow_717_168" result="shape"/>
</filter>
<filter id="filter1_d_717_168" x="0" y="0" width="1358" height="1358" filterUnits="userSpaceOnUse" color-interpolation-filters="sRGB">
<feFlood flood-opacity="0" result="BackgroundImageFix"/>
<feColorMatrix in="SourceAlpha" type="matrix" values="0 0 0 0 0 0 0 0 0 0 0 0 0 0 0 0 0 0 127 0" result="hardAlpha"/>
<feOffset dy="4"/>
<feGaussianBlur stdDeviation="2"/>
<feComposite in2="hardAlpha" operator="out"/>
<feColorMatrix type="matrix" values="0 0 0 0 0 0 0 0 0 0 0 0 0 0 0 0 0 0 0.25 0"/>
<feBlend mode="normal" in2="BackgroundImageFix" result="effect1_dropShadow_717_168"/>
<feBlend mode="normal" in="SourceGraphic" in2="effect1_dropShadow_717_168" result="shape"/>
</filter>
<linearGradient id="paint0_linear_717_168" x1="314.52" y1="412.685" x2="1040.15" y2="924.32" gradientUnits="userSpaceOnUse">
<stop stop-color="#EE99AC"/>
<stop offset="0.442708" stop-color="#F4BDC9"/>
<stop offset="0.84375" stop-color="#9B6470"/>
</linearGradient>
<linearGradient id="paint1_linear_717_168" x1="368.655" y1="334.091" x2="806.794" y2="1081.95" gradientUnits="userSpaceOnUse">
<stop stop-color="#9B6470"/>
<stop offset="0.930208" stop-color="#EE99AC" stop-opacity="0"/>
</linearGradient>
<linearGradient id="paint2_linear_717_168" x1="132.279" y1="281.528" x2="1220.72" y2="1048.98" gradientUnits="userSpaceOnUse">
<stop stop-color="#EE99AC"/>
<stop offset="0.442708" stop-color="#F4BDC9"/>
<stop offset="0.84375" stop-color="#9B6470"/>
</linearGradient>
</defs>
</svg>
