<svg width="808" height="808" viewBox="0 0 808 808" fill="none" xmlns="http://www.w3.org/2000/svg">
<g filter="url(#filter0_d_719_109)">
<circle cx="404" cy="400" r="400" fill="url(#paint0_linear_719_109)"/>
<circle cx="404" cy="400" r="385" stroke="url(#paint1_linear_719_109)" stroke-width="30"/>
</g>
<g filter="url(#filter1_d_719_109)">
<circle cx="407" cy="402" r="300" fill="white"/>
<circle cx="407" cy="402" r="300" stroke="url(#paint2_linear_719_109)" stroke-width="30"/>
</g>
<g filter="url(#filter2_d_719_109)">
<mask id="path-4-inside-1_719_109" fill="white">
<path fill-rule="evenodd" clip-rule="evenodd" d="M528.961 202.519L530.406 329.36L419.716 382.469L418.351 262.706L528.961 202.519Z"/>
<path fill-rule="evenodd" clip-rule="evenodd" d="M639.921 402.389L530.346 465.032L420.706 402.29L530.289 344.758L639.921 402.389Z"/>
<path fill-rule="evenodd" clip-rule="evenodd" d="M401.215 402.389L291.64 465.032L182 402.29L291.584 344.758L401.215 402.389Z"/>
<path fill-rule="evenodd" clip-rule="evenodd" d="M290.409 202L404.141 258.297L401.233 380.982L293.849 327.827L290.409 202Z"/>
<path fill-rule="evenodd" clip-rule="evenodd" d="M532.056 600.859L418.325 544.561L421.232 421.876L528.616 475.032L532.056 600.859Z"/>
<path fill-rule="evenodd" clip-rule="evenodd" d="M294.337 602L292.892 475.159L403.582 422.051L404.947 541.812L294.337 602Z"/>
</mask>
<path fill-rule="evenodd" clip-rule="evenodd" d="M528.961 202.519L530.406 329.36L419.716 382.469L418.351 262.706L528.961 202.519Z" fill="url(#paint3_linear_719_109)"/>
<path fill-rule="evenodd" clip-rule="evenodd" d="M639.921 402.389L530.346 465.032L420.706 402.29L530.289 344.758L639.921 402.389Z" fill="url(#paint4_linear_719_109)"/>
<path fill-rule="evenodd" clip-rule="evenodd" d="M401.215 402.389L291.64 465.032L182 402.29L291.584 344.758L401.215 402.389Z" fill="url(#paint5_linear_719_109)"/>
<path fill-rule="evenodd" clip-rule="evenodd" d="M290.409 202L404.141 258.297L401.233 380.982L293.849 327.827L290.409 202Z" fill="url(#paint6_linear_719_109)"/>
<path fill-rule="evenodd" clip-rule="evenodd" d="M532.056 600.859L418.325 544.561L421.232 421.876L528.616 475.032L532.056 600.859Z" fill="url(#paint7_linear_719_109)"/>
<path fill-rule="evenodd" clip-rule="evenodd" d="M294.337 602L292.892 475.159L403.582 422.051L404.947 541.812L294.337 602Z" fill="url(#paint8_linear_719_109)"/>
<path fill-rule="evenodd" clip-rule="evenodd" d="M528.961 202.519L530.406 329.36L419.716 382.469L418.351 262.706L528.961 202.519Z" stroke="url(#paint9_linear_719_109)" stroke-width="60" mask="url(#path-4-inside-1_719_109)"/>
<path fill-rule="evenodd" clip-rule="evenodd" d="M639.921 402.389L530.346 465.032L420.706 402.29L530.289 344.758L639.921 402.389Z" stroke="url(#paint10_linear_719_109)" stroke-width="60" mask="url(#path-4-inside-1_719_109)"/>
<path fill-rule="evenodd" clip-rule="evenodd" d="M401.215 402.389L291.64 465.032L182 402.29L291.584 344.758L401.215 402.389Z" stroke="url(#paint11_linear_719_109)" stroke-width="60" mask="url(#path-4-inside-1_719_109)"/>
<path fill-rule="evenodd" clip-rule="evenodd" d="M290.409 202L404.141 258.297L401.233 380.982L293.849 327.827L290.409 202Z" stroke="url(#paint12_linear_719_109)" stroke-width="60" mask="url(#path-4-inside-1_719_109)"/>
<path fill-rule="evenodd" clip-rule="evenodd" d="M532.056 600.859L418.325 544.561L421.232 421.876L528.616 475.032L532.056 600.859Z" stroke="url(#paint13_linear_719_109)" stroke-width="60" mask="url(#path-4-inside-1_719_109)"/>
<path fill-rule="evenodd" clip-rule="evenodd" d="M294.337 602L292.892 475.159L403.582 422.051L404.947 541.812L294.337 602Z" stroke="url(#paint14_linear_719_109)" stroke-width="60" mask="url(#path-4-inside-1_719_109)"/>
</g>
<defs>
<filter id="filter0_d_719_109" x="0" y="0" width="808" height="808" filterUnits="userSpaceOnUse" color-interpolation-filters="sRGB">
<feFlood flood-opacity="0" result="BackgroundImageFix"/>
<feColorMatrix in="SourceAlpha" type="matrix" values="0 0 0 0 0 0 0 0 0 0 0 0 0 0 0 0 0 0 127 0" result="hardAlpha"/>
<feOffset dy="4"/>
<feGaussianBlur stdDeviation="2"/>
<feComposite in2="hardAlpha" operator="out"/>
<feColorMatrix type="matrix" values="0 0 0 0 0 0 0 0 0 0 0 0 0 0 0 0 0 0 0.25 0"/>
<feBlend mode="normal" in2="BackgroundImageFix" result="effect1_dropShadow_719_109"/>
<feBlend mode="normal" in="SourceGraphic" in2="effect1_dropShadow_719_109" result="shape"/>
</filter>
<filter id="filter1_d_719_109" x="88" y="87" width="638" height="638" filterUnits="userSpaceOnUse" color-interpolation-filters="sRGB">
<feFlood flood-opacity="0" result="BackgroundImageFix"/>
<feColorMatrix in="SourceAlpha" type="matrix" values="0 0 0 0 0 0 0 0 0 0 0 0 0 0 0 0 0 0 127 0" result="hardAlpha"/>
<feOffset dy="4"/>
<feGaussianBlur stdDeviation="2"/>
<feComposite in2="hardAlpha" operator="out"/>
<feColorMatrix type="matrix" values="0 0 0 0 0 0 0 0 0 0 0 0 0 0 0 0 0 0 0.25 0"/>
<feBlend mode="normal" in2="BackgroundImageFix" result="effect1_dropShadow_719_109"/>
<feBlend mode="normal" in="SourceGraphic" in2="effect1_dropShadow_719_109" result="shape"/>
</filter>
<filter id="filter2_d_719_109" x="178" y="202" width="465.921" height="408" filterUnits="userSpaceOnUse" color-interpolation-filters="sRGB">
<feFlood flood-opacity="0" result="BackgroundImageFix"/>
<feColorMatrix in="SourceAlpha" type="matrix" values="0 0 0 0 0 0 0 0 0 0 0 0 0 0 0 0 0 0 127 0" result="hardAlpha"/>
<feOffset dy="4"/>
<feGaussianBlur stdDeviation="2"/>
<feComposite in2="hardAlpha" operator="out"/>
<feColorMatrix type="matrix" values="0 0 0 0 0 0 0 0 0 0 0 0 0 0 0 0 0 0 0.25 0"/>
<feBlend mode="normal" in2="BackgroundImageFix" result="effect1_dropShadow_719_109"/>
<feBlend mode="normal" in="SourceGraphic" in2="effect1_dropShadow_719_109" result="shape"/>
</filter>
<linearGradient id="paint0_linear_719_109" x1="80.0173" y1="166.831" x2="725.019" y2="621.618" gradientUnits="userSpaceOnUse">
<stop stop-color="#98D8D8"/>
<stop offset="0.442708" stop-color="#BCE6E6"/>
<stop offset="0.84375" stop-color="#638D8D"/>
</linearGradient>
<linearGradient id="paint1_linear_719_109" x1="80.0173" y1="166.831" x2="725.019" y2="621.618" gradientUnits="userSpaceOnUse">
<stop stop-color="#638D8D"/>
<stop offset="0.669792" stop-color="#BCE6E6"/>
<stop offset="1" stop-color="#98D8D8"/>
</linearGradient>
<linearGradient id="paint2_linear_719_109" x1="164.013" y1="227.124" x2="647.764" y2="568.214" gradientUnits="userSpaceOnUse">
<stop stop-color="#638D8D"/>
<stop offset="0.669792" stop-color="#BCE6E6"/>
<stop offset="1" stop-color="#98D8D8"/>
</linearGradient>
<linearGradient id="paint3_linear_719_109" x1="225.512" y1="285.416" x2="560.196" y2="555.57" gradientUnits="userSpaceOnUse">
<stop stop-color="#98D8D8"/>
<stop offset="0.442708" stop-color="#BCE6E6"/>
<stop offset="0.84375" stop-color="#638D8D"/>
</linearGradient>
<linearGradient id="paint4_linear_719_109" x1="225.512" y1="285.416" x2="560.196" y2="555.57" gradientUnits="userSpaceOnUse">
<stop stop-color="#98D8D8"/>
<stop offset="0.442708" stop-color="#BCE6E6"/>
<stop offset="0.84375" stop-color="#638D8D"/>
</linearGradient>
<linearGradient id="paint5_linear_719_109" x1="225.512" y1="285.416" x2="560.196" y2="555.57" gradientUnits="userSpaceOnUse">
<stop stop-color="#98D8D8"/>
<stop offset="0.442708" stop-color="#BCE6E6"/>
<stop offset="0.84375" stop-color="#638D8D"/>
</linearGradient>
<linearGradient id="paint6_linear_719_109" x1="225.512" y1="285.416" x2="560.196" y2="555.57" gradientUnits="userSpaceOnUse">
<stop stop-color="#98D8D8"/>
<stop offset="0.442708" stop-color="#BCE6E6"/>
<stop offset="0.84375" stop-color="#638D8D"/>
</linearGradient>
<linearGradient id="paint7_linear_719_109" x1="225.512" y1="285.416" x2="560.196" y2="555.57" gradientUnits="userSpaceOnUse">
<stop stop-color="#98D8D8"/>
<stop offset="0.442708" stop-color="#BCE6E6"/>
<stop offset="0.84375" stop-color="#638D8D"/>
</linearGradient>
<linearGradient id="paint8_linear_719_109" x1="225.512" y1="285.416" x2="560.196" y2="555.57" gradientUnits="userSpaceOnUse">
<stop stop-color="#98D8D8"/>
<stop offset="0.442708" stop-color="#BCE6E6"/>
<stop offset="0.84375" stop-color="#638D8D"/>
</linearGradient>
<linearGradient id="paint9_linear_719_109" x1="253.057" y1="250.485" x2="434.118" y2="604.29" gradientUnits="userSpaceOnUse">
<stop stop-color="#638D8D"/>
<stop offset="1" stop-color="#BCE6E6" stop-opacity="0"/>
</linearGradient>
<linearGradient id="paint10_linear_719_109" x1="253.057" y1="250.485" x2="434.118" y2="604.29" gradientUnits="userSpaceOnUse">
<stop stop-color="#638D8D"/>
<stop offset="1" stop-color="#BCE6E6" stop-opacity="0"/>
</linearGradient>
<linearGradient id="paint11_linear_719_109" x1="253.057" y1="250.485" x2="434.118" y2="604.29" gradientUnits="userSpaceOnUse">
<stop stop-color="#638D8D"/>
<stop offset="1" stop-color="#BCE6E6" stop-opacity="0"/>
</linearGradient>
<linearGradient id="paint12_linear_719_109" x1="253.057" y1="250.485" x2="434.118" y2="604.29" gradientUnits="userSpaceOnUse">
<stop stop-color="#638D8D"/>
<stop offset="1" stop-color="#BCE6E6" stop-opacity="0"/>
</linearGradient>
<linearGradient id="paint13_linear_719_109" x1="253.057" y1="250.485" x2="434.118" y2="604.29" gradientUnits="userSpaceOnUse">
<stop stop-color="#638D8D"/>
<stop offset="1" stop-color="#BCE6E6" stop-opacity="0"/>
</linearGradient>
<linearGradient id="paint14_linear_719_109" x1="253.057" y1="250.485" x2="434.118" y2="604.29" gradientUnits="userSpaceOnUse">
<stop stop-color="#638D8D"/>
<stop offset="1" stop-color="#BCE6E6" stop-opacity="0"/>
</linearGradient>
</defs>
</svg>
