<svg width="808" height="808" viewBox="0 0 808 808" fill="none" xmlns="http://www.w3.org/2000/svg">
<g filter="url(#filter0_d_719_119)">
<circle cx="404" cy="400" r="400" fill="url(#paint0_linear_719_119)"/>
<circle cx="404" cy="400" r="385" stroke="url(#paint1_linear_719_119)" stroke-width="30"/>
</g>
<g filter="url(#filter1_d_719_119)">
<circle cx="407" cy="402" r="300" fill="white"/>
<circle cx="407" cy="402" r="300" stroke="url(#paint2_linear_719_119)" stroke-width="30"/>
</g>
<g filter="url(#filter2_d_719_119)">
<mask id="path-4-inside-1_719_119" fill="white">
<path fill-rule="evenodd" clip-rule="evenodd" d="M295.097 545.157C294.989 545.157 294.913 545.029 294.949 544.908L397.07 202.124C397.093 202.05 397.152 202 397.219 202H506.236C506.303 202 506.363 202.05 506.385 202.125L606.991 544.909C607.026 545.03 606.951 545.157 606.843 545.157H298.166H295.097ZM207.157 546.498C207.048 546.498 206.972 546.368 207.01 546.246L283.057 305.067C283.08 304.994 283.139 304.946 283.204 304.946H349.28C349.39 304.946 349.465 305.075 349.428 305.196L275.893 546.375C275.87 546.448 275.811 546.498 275.745 546.498H207.157Z"/>
</mask>
<path fill-rule="evenodd" clip-rule="evenodd" d="M295.097 545.157C294.989 545.157 294.913 545.029 294.949 544.908L397.07 202.124C397.093 202.05 397.152 202 397.219 202H506.236C506.303 202 506.363 202.05 506.385 202.125L606.991 544.909C607.026 545.03 606.951 545.157 606.843 545.157H298.166H295.097ZM207.157 546.498C207.048 546.498 206.972 546.368 207.01 546.246L283.057 305.067C283.08 304.994 283.139 304.946 283.204 304.946H349.28C349.39 304.946 349.465 305.075 349.428 305.196L275.893 546.375C275.87 546.448 275.811 546.498 275.745 546.498H207.157Z" fill="url(#paint3_linear_719_119)"/>
<path fill-rule="evenodd" clip-rule="evenodd" d="M295.097 545.157C294.989 545.157 294.913 545.029 294.949 544.908L397.07 202.124C397.093 202.05 397.152 202 397.219 202H506.236C506.303 202 506.363 202.05 506.385 202.125L606.991 544.909C607.026 545.03 606.951 545.157 606.843 545.157H298.166H295.097ZM207.157 546.498C207.048 546.498 206.972 546.368 207.01 546.246L283.057 305.067C283.08 304.994 283.139 304.946 283.204 304.946H349.28C349.39 304.946 349.465 305.075 349.428 305.196L275.893 546.375C275.87 546.448 275.811 546.498 275.745 546.498H207.157Z" stroke="url(#paint4_linear_719_119)" stroke-width="60" mask="url(#path-4-inside-1_719_119)"/>
</g>
<defs>
<filter id="filter0_d_719_119" x="0" y="0" width="808" height="808" filterUnits="userSpaceOnUse" color-interpolation-filters="sRGB">
<feFlood flood-opacity="0" result="BackgroundImageFix"/>
<feColorMatrix in="SourceAlpha" type="matrix" values="0 0 0 0 0 0 0 0 0 0 0 0 0 0 0 0 0 0 127 0" result="hardAlpha"/>
<feOffset dy="4"/>
<feGaussianBlur stdDeviation="2"/>
<feComposite in2="hardAlpha" operator="out"/>
<feColorMatrix type="matrix" values="0 0 0 0 0 0 0 0 0 0 0 0 0 0 0 0 0 0 0.25 0"/>
<feBlend mode="normal" in2="BackgroundImageFix" result="effect1_dropShadow_719_119"/>
<feBlend mode="normal" in="SourceGraphic" in2="effect1_dropShadow_719_119" result="shape"/>
</filter>
<filter id="filter1_d_719_119" x="88" y="87" width="638" height="638" filterUnits="userSpaceOnUse" color-interpolation-filters="sRGB">
<feFlood flood-opacity="0" result="BackgroundImageFix"/>
<feColorMatrix in="SourceAlpha" type="matrix" values="0 0 0 0 0 0 0 0 0 0 0 0 0 0 0 0 0 0 127 0" result="hardAlpha"/>
<feOffset dy="4"/>
<feGaussianBlur stdDeviation="2"/>
<feComposite in2="hardAlpha" operator="out"/>
<feColorMatrix type="matrix" values="0 0 0 0 0 0 0 0 0 0 0 0 0 0 0 0 0 0 0.25 0"/>
<feBlend mode="normal" in2="BackgroundImageFix" result="effect1_dropShadow_719_119"/>
<feBlend mode="normal" in="SourceGraphic" in2="effect1_dropShadow_719_119" result="shape"/>
</filter>
<filter id="filter2_d_719_119" x="203" y="202" width="408" height="352.498" filterUnits="userSpaceOnUse" color-interpolation-filters="sRGB">
<feFlood flood-opacity="0" result="BackgroundImageFix"/>
<feColorMatrix in="SourceAlpha" type="matrix" values="0 0 0 0 0 0 0 0 0 0 0 0 0 0 0 0 0 0 127 0" result="hardAlpha"/>
<feOffset dy="4"/>
<feGaussianBlur stdDeviation="2"/>
<feComposite in2="hardAlpha" operator="out"/>
<feColorMatrix type="matrix" values="0 0 0 0 0 0 0 0 0 0 0 0 0 0 0 0 0 0 0.25 0"/>
<feBlend mode="normal" in2="BackgroundImageFix" result="effect1_dropShadow_719_119"/>
<feBlend mode="normal" in="SourceGraphic" in2="effect1_dropShadow_719_119" result="shape"/>
</filter>
<linearGradient id="paint0_linear_719_119" x1="98.5" y1="78" x2="668.097" y2="660.264" gradientUnits="userSpaceOnUse">
<stop offset="0.171875" stop-color="#E0C068"/>
<stop offset="0.604167" stop-color="#EBD69D"/>
<stop offset="1" stop-color="#927D44"/>
</linearGradient>
<linearGradient id="paint1_linear_719_119" x1="98.5" y1="103.5" x2="699.252" y2="717.106" gradientUnits="userSpaceOnUse">
<stop offset="0.0864582" stop-color="#927D44"/>
<stop offset="0.633333" stop-color="#EBD69D"/>
<stop offset="1" stop-color="#E0C068"/>
</linearGradient>
<linearGradient id="paint2_linear_719_119" x1="177.875" y1="179.625" x2="628.439" y2="639.83" gradientUnits="userSpaceOnUse">
<stop offset="0.0864582" stop-color="#927D44"/>
<stop offset="0.633333" stop-color="#EBD69D"/>
<stop offset="1" stop-color="#E0C068"/>
</linearGradient>
<linearGradient id="paint3_linear_719_119" x1="245.009" y1="273.841" x2="534.087" y2="510.507" gradientUnits="userSpaceOnUse">
<stop stop-color="#E0C068"/>
<stop offset="0.442708" stop-color="#EBD69D"/>
<stop offset="0.84375" stop-color="#927D44"/>
</linearGradient>
<linearGradient id="paint4_linear_719_119" x1="269.069" y1="243.757" x2="423.712" y2="550.244" gradientUnits="userSpaceOnUse">
<stop stop-color="#927D44"/>
<stop offset="1" stop-color="#EBD69D" stop-opacity="0"/>
</linearGradient>
</defs>
</svg>
