<svg width="25" height="28" viewBox="0 0 25 28" fill="none" xmlns="http://www.w3.org/2000/svg">
<path d="M17.9233 25.2029L18.9186 25.2917C19.2574 22.6283 20.3713 18.8333 23.8475 16.8708C23.6247 17.3484 23.3723 17.9514 23.1205 18.6797C22.4293 20.679 21.7444 23.6197 21.6897 27.5H3.3102C3.25548 23.6197 2.57055 20.679 1.87938 18.6797C1.62766 17.9515 1.37525 17.3486 1.15245 16.871C5.12795 19.1164 6.01259 23.7607 6.18207 26.3349L7.18074 26.2861C7.00947 20.9268 6.07018 16.091 5.17493 12.5967C4.74956 10.9365 4.33362 9.5771 4.01359 8.60601C6.37078 10.8399 7.83056 14.1142 8.72633 17.391C9.77684 21.2339 10.0266 24.9873 10.0828 26.8292L11.0826 26.8152C11.0879 24.6837 11.2367 19.9197 12.297 14.7501C13.1979 10.358 14.7463 5.72639 17.3802 2.16162C17.0336 3.4138 16.5941 5.14027 16.1472 7.26231C15.1665 11.9191 14.1494 18.4851 14.0028 26.127L15.0021 26.1602C15.1022 24.0414 15.435 20.3962 16.5117 16.7615C17.4199 13.6961 18.8404 10.6955 21.0452 8.606C20.7481 9.5078 20.3682 10.7444 19.9748 12.2457C19.1136 15.5333 18.1858 20.0982 17.9233 25.2029Z" fill="url(#paint0_linear)" stroke="url(#paint1_linear)"/>
<defs>
<linearGradient id="paint0_linear" x1="12.4999" y1="0" x2="12.4999" y2="28" gradientUnits="userSpaceOnUse">
<stop offset="0.0104167" stop-color="#0A1F06"/>
<stop offset="0.432292" stop-color="#038900"/>
<stop offset="0.932292" stop-color="#19F522" stop-opacity="0.66"/>
</linearGradient>
<linearGradient id="paint1_linear" x1="3.87925" y1="3.39394" x2="18.2141" y2="25.2405" gradientUnits="userSpaceOnUse">
<stop stop-color="#2CDD00"/>
<stop offset="1" stop-color="#01C44F" stop-opacity="0"/>
</linearGradient>
</defs>
</svg>
