<svg width="808" height="808" viewBox="0 0 808 808" fill="none" xmlns="http://www.w3.org/2000/svg">
<g id="Dragon">
<g id="OuterCircle" filter="url(#filter0_d_719_114)">
<circle cx="404" cy="400" r="400" fill="url(#paint0_linear_719_114)"/>
<circle cx="404" cy="400" r="385" stroke="url(#paint1_linear_719_114)" stroke-width="30"/>
</g>
<g id="InnerCircle" filter="url(#filter1_d_719_114)">
<circle cx="407" cy="402" r="300" fill="white"/>
<circle cx="407" cy="402" r="300" stroke="url(#paint2_linear_719_114)" stroke-width="30"/>
</g>
<g id="Drgaon" filter="url(#filter2_d_719_114)">
<mask id="path-4-inside-1_719_114" fill="white">
<path fill-rule="evenodd" clip-rule="evenodd" d="M420.181 399.126C422.89 397.473 425.189 394.009 427.043 390.159C451.438 400.135 468.582 423.71 468.582 451.203C468.582 487.727 438.326 517.335 401.005 517.335C385.685 517.335 371.555 512.345 360.22 503.937C356.502 502.175 353.443 500.483 350.94 499.098C347.057 496.95 344.511 495.541 342.917 495.762C338.256 496.405 339.609 500.695 340.839 504.593C341.674 507.241 342.452 509.707 341.248 510.724C339.987 511.79 335.905 507.895 331.136 503.345C324.643 497.151 316.876 489.741 313.213 491.966C310.317 493.727 313.129 498.501 316.57 504.345L316.826 504.778C318.279 507.248 319.964 509.764 321.502 512.059C324.627 516.724 327.144 520.484 325.885 521.12C324.362 521.888 313.755 514.724 304.816 504.778C301.365 500.94 298.024 496.779 294.918 492.913V492.912C288.12 484.448 282.456 477.397 279.276 478.232C275.452 479.237 278.345 487.13 282.596 494.727C284.584 498.279 286.923 501.896 288.947 505.028V505.029C292.096 509.899 294.486 513.595 293.619 514.05C292.45 514.662 282.158 504.62 275.168 491.966C271.016 484.45 267.53 476.144 264.708 469.42C261.647 462.127 259.367 456.695 257.866 456.148C252.65 454.248 252.65 464.89 254.742 480.248C255.015 482.252 255.421 484.354 255.922 486.494C276.21 552.176 338.532 600 412.268 600C502.461 600 575.576 528.447 575.576 440.181C575.576 356.172 509.344 287.302 425.192 280.855C425.298 276.897 427.363 269.049 427.363 269.049C427.363 269.049 442.219 233.084 443.004 225.398C443.056 224.888 443.117 224.334 443.184 223.744C444.109 215.44 445.83 200 432.556 200C425.466 200 422.17 205.277 418.399 211.312V211.312C416.952 213.629 415.434 216.058 413.605 218.343C400.435 234.8 378.289 255.351 365.732 266.299C339.19 289.441 313.15 308.459 297.962 319.552L297.961 319.552C291.054 324.597 286.392 328.002 284.949 329.409C274.076 340.016 235.09 410.38 235.09 410.38C235.09 410.38 222.482 432.955 226.963 437.534C231.445 442.112 242.251 441.062 242.251 441.062C242.251 441.062 387.43 407.737 400.427 405.109C403.927 404.401 406.397 403.992 408.294 403.679C413.443 402.828 414.367 402.675 420.181 399.126ZM317.535 356.3C309.742 363.712 296.817 381.403 296.817 381.403C296.817 381.403 320.837 382.884 334.066 370.302C347.295 357.719 344.265 336.276 344.265 336.276C344.265 336.276 325.327 348.888 317.535 356.3Z"/>
</mask>
<path fill-rule="evenodd" clip-rule="evenodd" d="M420.181 399.126C422.89 397.473 425.189 394.009 427.043 390.159C451.438 400.135 468.582 423.71 468.582 451.203C468.582 487.727 438.326 517.335 401.005 517.335C385.685 517.335 371.555 512.345 360.22 503.937C356.502 502.175 353.443 500.483 350.94 499.098C347.057 496.95 344.511 495.541 342.917 495.762C338.256 496.405 339.609 500.695 340.839 504.593C341.674 507.241 342.452 509.707 341.248 510.724C339.987 511.79 335.905 507.895 331.136 503.345C324.643 497.151 316.876 489.741 313.213 491.966C310.317 493.727 313.129 498.501 316.57 504.345L316.826 504.778C318.279 507.248 319.964 509.764 321.502 512.059C324.627 516.724 327.144 520.484 325.885 521.12C324.362 521.888 313.755 514.724 304.816 504.778C301.365 500.94 298.024 496.779 294.918 492.913V492.912C288.12 484.448 282.456 477.397 279.276 478.232C275.452 479.237 278.345 487.13 282.596 494.727C284.584 498.279 286.923 501.896 288.947 505.028V505.029C292.096 509.899 294.486 513.595 293.619 514.05C292.45 514.662 282.158 504.62 275.168 491.966C271.016 484.45 267.53 476.144 264.708 469.42C261.647 462.127 259.367 456.695 257.866 456.148C252.65 454.248 252.65 464.89 254.742 480.248C255.015 482.252 255.421 484.354 255.922 486.494C276.21 552.176 338.532 600 412.268 600C502.461 600 575.576 528.447 575.576 440.181C575.576 356.172 509.344 287.302 425.192 280.855C425.298 276.897 427.363 269.049 427.363 269.049C427.363 269.049 442.219 233.084 443.004 225.398C443.056 224.888 443.117 224.334 443.184 223.744C444.109 215.44 445.83 200 432.556 200C425.466 200 422.17 205.277 418.399 211.312V211.312C416.952 213.629 415.434 216.058 413.605 218.343C400.435 234.8 378.289 255.351 365.732 266.299C339.19 289.441 313.15 308.459 297.962 319.552L297.961 319.552C291.054 324.597 286.392 328.002 284.949 329.409C274.076 340.016 235.09 410.38 235.09 410.38C235.09 410.38 222.482 432.955 226.963 437.534C231.445 442.112 242.251 441.062 242.251 441.062C242.251 441.062 387.43 407.737 400.427 405.109C403.927 404.401 406.397 403.992 408.294 403.679C413.443 402.828 414.367 402.675 420.181 399.126ZM317.535 356.3C309.742 363.712 296.817 381.403 296.817 381.403C296.817 381.403 320.837 382.884 334.066 370.302C347.295 357.719 344.265 336.276 344.265 336.276C344.265 336.276 325.327 348.888 317.535 356.3Z" fill="url(#paint3_linear_719_114)"/>
<path fill-rule="evenodd" clip-rule="evenodd" d="M420.181 399.126C422.89 397.473 425.189 394.009 427.043 390.159C451.438 400.135 468.582 423.71 468.582 451.203C468.582 487.727 438.326 517.335 401.005 517.335C385.685 517.335 371.555 512.345 360.22 503.937C356.502 502.175 353.443 500.483 350.94 499.098C347.057 496.95 344.511 495.541 342.917 495.762C338.256 496.405 339.609 500.695 340.839 504.593C341.674 507.241 342.452 509.707 341.248 510.724C339.987 511.79 335.905 507.895 331.136 503.345C324.643 497.151 316.876 489.741 313.213 491.966C310.317 493.727 313.129 498.501 316.57 504.345L316.826 504.778C318.279 507.248 319.964 509.764 321.502 512.059C324.627 516.724 327.144 520.484 325.885 521.12C324.362 521.888 313.755 514.724 304.816 504.778C301.365 500.94 298.024 496.779 294.918 492.913V492.912C288.12 484.448 282.456 477.397 279.276 478.232C275.452 479.237 278.345 487.13 282.596 494.727C284.584 498.279 286.923 501.896 288.947 505.028V505.029C292.096 509.899 294.486 513.595 293.619 514.05C292.45 514.662 282.158 504.62 275.168 491.966C271.016 484.45 267.53 476.144 264.708 469.42C261.647 462.127 259.367 456.695 257.866 456.148C252.65 454.248 252.65 464.89 254.742 480.248C255.015 482.252 255.421 484.354 255.922 486.494C276.21 552.176 338.532 600 412.268 600C502.461 600 575.576 528.447 575.576 440.181C575.576 356.172 509.344 287.302 425.192 280.855C425.298 276.897 427.363 269.049 427.363 269.049C427.363 269.049 442.219 233.084 443.004 225.398C443.056 224.888 443.117 224.334 443.184 223.744C444.109 215.44 445.83 200 432.556 200C425.466 200 422.17 205.277 418.399 211.312V211.312C416.952 213.629 415.434 216.058 413.605 218.343C400.435 234.8 378.289 255.351 365.732 266.299C339.19 289.441 313.15 308.459 297.962 319.552L297.961 319.552C291.054 324.597 286.392 328.002 284.949 329.409C274.076 340.016 235.09 410.38 235.09 410.38C235.09 410.38 222.482 432.955 226.963 437.534C231.445 442.112 242.251 441.062 242.251 441.062C242.251 441.062 387.43 407.737 400.427 405.109C403.927 404.401 406.397 403.992 408.294 403.679C413.443 402.828 414.367 402.675 420.181 399.126ZM317.535 356.3C309.742 363.712 296.817 381.403 296.817 381.403C296.817 381.403 320.837 382.884 334.066 370.302C347.295 357.719 344.265 336.276 344.265 336.276C344.265 336.276 325.327 348.888 317.535 356.3Z" stroke="url(#paint4_linear_719_114)" stroke-width="60" mask="url(#path-4-inside-1_719_114)"/>
</g>
</g>
<defs>
<filter id="filter0_d_719_114" x="0" y="0" width="808" height="808" filterUnits="userSpaceOnUse" color-interpolation-filters="sRGB">
<feFlood flood-opacity="0" result="BackgroundImageFix"/>
<feColorMatrix in="SourceAlpha" type="matrix" values="0 0 0 0 0 0 0 0 0 0 0 0 0 0 0 0 0 0 127 0" result="hardAlpha"/>
<feOffset dy="4"/>
<feGaussianBlur stdDeviation="2"/>
<feComposite in2="hardAlpha" operator="out"/>
<feColorMatrix type="matrix" values="0 0 0 0 0 0 0 0 0 0 0 0 0 0 0 0 0 0 0.25 0"/>
<feBlend mode="normal" in2="BackgroundImageFix" result="effect1_dropShadow_719_114"/>
<feBlend mode="normal" in="SourceGraphic" in2="effect1_dropShadow_719_114" result="shape"/>
</filter>
<filter id="filter1_d_719_114" x="88" y="87" width="638" height="638" filterUnits="userSpaceOnUse" color-interpolation-filters="sRGB">
<feFlood flood-opacity="0" result="BackgroundImageFix"/>
<feColorMatrix in="SourceAlpha" type="matrix" values="0 0 0 0 0 0 0 0 0 0 0 0 0 0 0 0 0 0 127 0" result="hardAlpha"/>
<feOffset dy="4"/>
<feGaussianBlur stdDeviation="2"/>
<feComposite in2="hardAlpha" operator="out"/>
<feColorMatrix type="matrix" values="0 0 0 0 0 0 0 0 0 0 0 0 0 0 0 0 0 0 0.25 0"/>
<feBlend mode="normal" in2="BackgroundImageFix" result="effect1_dropShadow_719_114"/>
<feBlend mode="normal" in="SourceGraphic" in2="effect1_dropShadow_719_114" result="shape"/>
</filter>
<filter id="filter2_d_719_114" x="222" y="200" width="357.576" height="408" filterUnits="userSpaceOnUse" color-interpolation-filters="sRGB">
<feFlood flood-opacity="0" result="BackgroundImageFix"/>
<feColorMatrix in="SourceAlpha" type="matrix" values="0 0 0 0 0 0 0 0 0 0 0 0 0 0 0 0 0 0 127 0" result="hardAlpha"/>
<feOffset dy="4"/>
<feGaussianBlur stdDeviation="2"/>
<feComposite in2="hardAlpha" operator="out"/>
<feColorMatrix type="matrix" values="0 0 0 0 0 0 0 0 0 0 0 0 0 0 0 0 0 0 0.25 0"/>
<feBlend mode="normal" in2="BackgroundImageFix" result="effect1_dropShadow_719_114"/>
<feBlend mode="normal" in="SourceGraphic" in2="effect1_dropShadow_719_114" result="shape"/>
</filter>
<linearGradient id="paint0_linear_719_114" x1="80.0173" y1="166.831" x2="725.019" y2="621.618" gradientUnits="userSpaceOnUse">
<stop stop-color="#7038F8"/>
<stop offset="0.442708" stop-color="#A27DFA"/>
<stop offset="0.84375" stop-color="#4924A1"/>
</linearGradient>
<linearGradient id="paint1_linear_719_114" x1="80.0173" y1="166.831" x2="725.019" y2="621.618" gradientUnits="userSpaceOnUse">
<stop stop-color="#4924A1"/>
<stop offset="0.6125" stop-color="#A27DFA"/>
<stop offset="1" stop-color="#7038F8"/>
</linearGradient>
<linearGradient id="paint2_linear_719_114" x1="164.013" y1="227.124" x2="647.764" y2="568.214" gradientUnits="userSpaceOnUse">
<stop stop-color="#4924A1"/>
<stop offset="0.6125" stop-color="#A27DFA"/>
<stop offset="1" stop-color="#7038F8"/>
</linearGradient>
<linearGradient id="paint3_linear_719_114" x1="259.217" y1="283.416" x2="565.055" y2="471.876" gradientUnits="userSpaceOnUse">
<stop stop-color="#7038F8"/>
<stop offset="0.442708" stop-color="#A27DFA"/>
<stop offset="0.84375" stop-color="#4924A1"/>
</linearGradient>
<linearGradient id="paint4_linear_719_114" x1="280.245" y1="248.485" x2="486.741" y2="556.521" gradientUnits="userSpaceOnUse">
<stop stop-color="#4924A1"/>
<stop offset="1" stop-color="#A27DFA" stop-opacity="0"/>
</linearGradient>
</defs>
</svg>
