<svg width="943" height="908" viewBox="0 0 943 908" fill="none" xmlns="http://www.w3.org/2000/svg">
<g filter="url(#filter0_d_714_67)">
<mask id="path-1-inside-1_714_67" fill="white">
<path fill-rule="evenodd" clip-rule="evenodd" d="M423.358 796.025C441.115 798.643 459.3 800 477.818 800C674.975 800 834.803 646.098 834.803 456.251C834.803 266.402 674.975 112.5 477.818 112.5C464.59 112.5 451.529 113.193 438.676 114.543C536.477 185.89 601.139 309.484 601.139 450C601.139 597.727 529.669 726.75 423.358 796.025ZM471.326 900C729.424 900 938.653 698.528 938.653 450C938.653 201.472 729.424 0 471.326 0C213.229 0 4 201.472 4 450C4 698.528 213.229 900 471.326 900Z"/>
</mask>
<path fill-rule="evenodd" clip-rule="evenodd" d="M423.358 796.025C441.115 798.643 459.3 800 477.818 800C674.975 800 834.803 646.098 834.803 456.251C834.803 266.402 674.975 112.5 477.818 112.5C464.59 112.5 451.529 113.193 438.676 114.543C536.477 185.89 601.139 309.484 601.139 450C601.139 597.727 529.669 726.75 423.358 796.025ZM471.326 900C729.424 900 938.653 698.528 938.653 450C938.653 201.472 729.424 0 471.326 0C213.229 0 4 201.472 4 450C4 698.528 213.229 900 471.326 900Z" fill="url(#paint0_linear_714_67)"/>
<path fill-rule="evenodd" clip-rule="evenodd" d="M423.358 796.025C441.115 798.643 459.3 800 477.818 800C674.975 800 834.803 646.098 834.803 456.251C834.803 266.402 674.975 112.5 477.818 112.5C464.59 112.5 451.529 113.193 438.676 114.543C536.477 185.89 601.139 309.484 601.139 450C601.139 597.727 529.669 726.75 423.358 796.025ZM471.326 900C729.424 900 938.653 698.528 938.653 450C938.653 201.472 729.424 0 471.326 0C213.229 0 4 201.472 4 450C4 698.528 213.229 900 471.326 900Z" stroke="url(#paint1_linear_714_67)" stroke-width="6" mask="url(#path-1-inside-1_714_67)"/>
</g>
<defs>
<filter id="filter0_d_714_67" x="0" y="0" width="942.653" height="908" filterUnits="userSpaceOnUse" color-interpolation-filters="sRGB">
<feFlood flood-opacity="0" result="BackgroundImageFix"/>
<feColorMatrix in="SourceAlpha" type="matrix" values="0 0 0 0 0 0 0 0 0 0 0 0 0 0 0 0 0 0 127 0" result="hardAlpha"/>
<feOffset dy="4"/>
<feGaussianBlur stdDeviation="2"/>
<feComposite in2="hardAlpha" operator="out"/>
<feColorMatrix type="matrix" values="0 0 0 0 0 0 0 0 0 0 0 0 0 0 0 0 0 0 0.25 0"/>
<feBlend mode="normal" in2="BackgroundImageFix" result="effect1_dropShadow_714_67"/>
<feBlend mode="normal" in="SourceGraphic" in2="effect1_dropShadow_714_67" result="shape"/>
</filter>
<linearGradient id="paint0_linear_714_67" x1="92.8123" y1="187.685" x2="827.236" y2="725.462" gradientUnits="userSpaceOnUse">
<stop stop-color="#705848"/>
<stop offset="0.442708" stop-color="#A29288"/>
<stop offset="0.84375" stop-color="#49392F"/>
</linearGradient>
<linearGradient id="paint1_linear_714_67" x1="149.032" y1="109.091" x2="578.921" y2="871.12" gradientUnits="userSpaceOnUse">
<stop stop-color="#49392F"/>
<stop offset="1" stop-color="#A29288" stop-opacity="0"/>
</linearGradient>
</defs>
</svg>
