<svg width="1360" height="1361" viewBox="0 0 1360 1361" fill="none" xmlns="http://www.w3.org/2000/svg">
<g filter="url(#filter0_d_717_164)">
<mask id="path-1-inside-1_717_164" fill="white">
<path fill-rule="evenodd" clip-rule="evenodd" d="M1130 675C1130 923.528 928.528 1125 680 1125C431.472 1125 230 923.528 230 675C230 426.472 431.472 225 680 225C928.528 225 1130 426.472 1130 675ZM937.142 675C937.142 817.016 822.016 932.142 680 932.142C537.984 932.142 422.858 817.016 422.858 675C422.858 532.984 537.984 417.858 680 417.858C822.016 417.858 937.142 532.984 937.142 675Z"/>
</mask>
<path fill-rule="evenodd" clip-rule="evenodd" d="M1130 675C1130 923.528 928.528 1125 680 1125C431.472 1125 230 923.528 230 675C230 426.472 431.472 225 680 225C928.528 225 1130 426.472 1130 675ZM937.142 675C937.142 817.016 822.016 932.142 680 932.142C537.984 932.142 422.858 817.016 422.858 675C422.858 532.984 537.984 417.858 680 417.858C822.016 417.858 937.142 532.984 937.142 675Z" fill="url(#paint0_linear_717_164)"/>
<path fill-rule="evenodd" clip-rule="evenodd" d="M1130 675C1130 923.528 928.528 1125 680 1125C431.472 1125 230 923.528 230 675C230 426.472 431.472 225 680 225C928.528 225 1130 426.472 1130 675ZM937.142 675C937.142 817.016 822.016 932.142 680 932.142C537.984 932.142 422.858 817.016 422.858 675C422.858 532.984 537.984 417.858 680 417.858C822.016 417.858 937.142 532.984 937.142 675Z" stroke="url(#paint1_linear_717_164)" stroke-width="60" mask="url(#path-1-inside-1_717_164)"/>
</g>
<g filter="url(#filter1_d_717_164)">
<circle cx="680" cy="675" r="615.5" stroke="url(#paint2_linear_717_164)" stroke-width="119"/>
</g>
<defs>
<filter id="filter0_d_717_164" x="226" y="225" width="908" height="908" filterUnits="userSpaceOnUse" color-interpolation-filters="sRGB">
<feFlood flood-opacity="0" result="BackgroundImageFix"/>
<feColorMatrix in="SourceAlpha" type="matrix" values="0 0 0 0 0 0 0 0 0 0 0 0 0 0 0 0 0 0 127 0" result="hardAlpha"/>
<feOffset dy="4"/>
<feGaussianBlur stdDeviation="2"/>
<feComposite in2="hardAlpha" operator="out"/>
<feColorMatrix type="matrix" values="0 0 0 0 0 0 0 0 0 0 0 0 0 0 0 0 0 0 0.25 0"/>
<feBlend mode="normal" in2="BackgroundImageFix" result="effect1_dropShadow_717_164"/>
<feBlend mode="normal" in="SourceGraphic" in2="effect1_dropShadow_717_164" result="shape"/>
</filter>
<filter id="filter1_d_717_164" x="0" y="0" width="1360" height="1361" filterUnits="userSpaceOnUse" color-interpolation-filters="sRGB">
<feFlood flood-opacity="0" result="BackgroundImageFix"/>
<feColorMatrix in="SourceAlpha" type="matrix" values="0 0 0 0 0 0 0 0 0 0 0 0 0 0 0 0 0 0 127 0" result="hardAlpha"/>
<feOffset dy="6"/>
<feGaussianBlur stdDeviation="2.5"/>
<feColorMatrix type="matrix" values="0 0 0 0 0 0 0 0 0 0 0 0 0 0 0 0 0 0 0.25 0"/>
<feBlend mode="normal" in2="BackgroundImageFix" result="effect1_dropShadow_717_164"/>
<feBlend mode="normal" in="SourceGraphic" in2="effect1_dropShadow_717_164" result="shape"/>
</filter>
<linearGradient id="paint0_linear_717_164" x1="315.52" y1="412.685" x2="1041.15" y2="924.32" gradientUnits="userSpaceOnUse">
<stop stop-color="#A8A878"/>
<stop offset="0.442708" stop-color="#C6C6A7"/>
<stop offset="0.84375" stop-color="#6D6D4E"/>
</linearGradient>
<linearGradient id="paint1_linear_717_164" x1="369.655" y1="334.091" x2="807.794" y2="1081.95" gradientUnits="userSpaceOnUse">
<stop stop-color="#6D6D4E"/>
<stop offset="1" stop-color="#C6C6A7" stop-opacity="0"/>
</linearGradient>
<linearGradient id="paint2_linear_717_164" x1="133.279" y1="281.528" x2="1221.72" y2="1048.98" gradientUnits="userSpaceOnUse">
<stop stop-color="#A8A878"/>
<stop offset="0.442708" stop-color="#C6C6A7"/>
<stop offset="0.84375" stop-color="#6D6D4E"/>
</linearGradient>
</defs>
</svg>
