<svg width="1358" height="1358" viewBox="0 0 1358 1358" fill="none" xmlns="http://www.w3.org/2000/svg">
<g filter="url(#filter0_d_717_169)">
<mask id="path-1-inside-1_717_169" fill="white">
<path fill-rule="evenodd" clip-rule="evenodd" d="M406.799 983.871C403.948 981.189 401.128 978.456 398.341 975.669C251.22 828.563 251.22 590.055 398.341 442.949C545.462 295.841 1014.25 286 1014.25 286C1014.25 286 1078.24 828.563 931.116 975.669C800.453 1106.32 597.689 1120.94 450.894 1019.52L569.176 874.38L758.26 833.561L603.912 818.132L702.002 718.267L813.658 693.81L725.367 667.665L813.658 508.406L688.073 649.257L639.576 580.828L656.648 693.81L569.176 792.409L528.629 667.663V833.561L406.799 983.871Z"/>
</mask>
<path fill-rule="evenodd" clip-rule="evenodd" d="M406.799 983.871C403.948 981.189 401.128 978.456 398.341 975.669C251.22 828.563 251.22 590.055 398.341 442.949C545.462 295.841 1014.25 286 1014.25 286C1014.25 286 1078.24 828.563 931.116 975.669C800.453 1106.32 597.689 1120.94 450.894 1019.52L569.176 874.38L758.26 833.561L603.912 818.132L702.002 718.267L813.658 693.81L725.367 667.665L813.658 508.406L688.073 649.257L639.576 580.828L656.648 693.81L569.176 792.409L528.629 667.663V833.561L406.799 983.871Z" fill="url(#paint0_linear_717_169)"/>
<path fill-rule="evenodd" clip-rule="evenodd" d="M406.799 983.871C403.948 981.189 401.128 978.456 398.341 975.669C251.22 828.563 251.22 590.055 398.341 442.949C545.462 295.841 1014.25 286 1014.25 286C1014.25 286 1078.24 828.563 931.116 975.669C800.453 1106.32 597.689 1120.94 450.894 1019.52L569.176 874.38L758.26 833.561L603.912 818.132L702.002 718.267L813.658 693.81L725.367 667.665L813.658 508.406L688.073 649.257L639.576 580.828L656.648 693.81L569.176 792.409L528.629 667.663V833.561L406.799 983.871Z" stroke="url(#paint1_linear_717_169)" stroke-width="60" mask="url(#path-1-inside-1_717_169)"/>
</g>
<g filter="url(#filter1_d_717_169)">
<circle cx="679" cy="675" r="615.5" stroke="url(#paint2_linear_717_169)" stroke-width="119" shape-rendering="crispEdges"/>
</g>
<defs>
<filter id="filter0_d_717_169" x="284" y="286" width="748.097" height="808" filterUnits="userSpaceOnUse" color-interpolation-filters="sRGB">
<feFlood flood-opacity="0" result="BackgroundImageFix"/>
<feColorMatrix in="SourceAlpha" type="matrix" values="0 0 0 0 0 0 0 0 0 0 0 0 0 0 0 0 0 0 127 0" result="hardAlpha"/>
<feOffset dy="4"/>
<feGaussianBlur stdDeviation="2"/>
<feComposite in2="hardAlpha" operator="out"/>
<feColorMatrix type="matrix" values="0 0 0 0 0 0 0 0 0 0 0 0 0 0 0 0 0 0 0.25 0"/>
<feBlend mode="normal" in2="BackgroundImageFix" result="effect1_dropShadow_717_169"/>
<feBlend mode="normal" in="SourceGraphic" in2="effect1_dropShadow_717_169" result="shape"/>
</filter>
<filter id="filter1_d_717_169" x="0" y="0" width="1358" height="1358" filterUnits="userSpaceOnUse" color-interpolation-filters="sRGB">
<feFlood flood-opacity="0" result="BackgroundImageFix"/>
<feColorMatrix in="SourceAlpha" type="matrix" values="0 0 0 0 0 0 0 0 0 0 0 0 0 0 0 0 0 0 127 0" result="hardAlpha"/>
<feOffset dy="4"/>
<feGaussianBlur stdDeviation="2"/>
<feComposite in2="hardAlpha" operator="out"/>
<feColorMatrix type="matrix" values="0 0 0 0 0 0 0 0 0 0 0 0 0 0 0 0 0 0 0.25 0"/>
<feBlend mode="normal" in2="BackgroundImageFix" result="effect1_dropShadow_717_169"/>
<feBlend mode="normal" in="SourceGraphic" in2="effect1_dropShadow_717_169" result="shape"/>
</filter>
<linearGradient id="paint0_linear_717_169" x1="358.325" y1="452.831" x2="985.029" y2="861.628" gradientUnits="userSpaceOnUse">
<stop stop-color="#78C850"/>
<stop offset="0.442708" stop-color="#A7DB8D"/>
<stop offset="0.84375" stop-color="#4E8234"/>
</linearGradient>
<linearGradient id="paint1_linear_717_169" x1="402.843" y1="382.97" x2="806.451" y2="1020.3" gradientUnits="userSpaceOnUse">
<stop stop-color="#4E8234"/>
<stop offset="1" stop-color="#A7DB8D" stop-opacity="0"/>
</linearGradient>
<linearGradient id="paint2_linear_717_169" x1="132.279" y1="281.528" x2="1220.72" y2="1048.98" gradientUnits="userSpaceOnUse">
<stop stop-color="#78C850"/>
<stop offset="0.442708" stop-color="#A7DB8D"/>
<stop offset="0.84375" stop-color="#4E8234"/>
</linearGradient>
</defs>
</svg>
