<svg width="1358" height="1358" viewBox="0 0 1358 1358" fill="none" xmlns="http://www.w3.org/2000/svg">
<g filter="url(#filter0_d_717_163)">
<mask id="path-1-inside-1_717_163" fill="white">
<path fill-rule="evenodd" clip-rule="evenodd" d="M384.215 301.49C395.107 258.677 434.066 227 480.454 227C515.25 227 545.866 244.823 563.592 271.8H592.619C610.652 253.375 635.847 241.933 663.727 241.933C704.603 241.933 739.71 266.529 754.93 301.667H779.231C794.459 292.202 812.452 286.733 831.727 286.733C872.604 286.733 907.71 311.329 922.929 346.467H989.014C989.578 346.467 990.107 346.618 990.562 346.882C993.581 346.607 996.637 346.467 999.726 346.467C1054.55 346.467 1099 390.715 1099 445.298V741.65L1099 742.2L1099 742.749V747.018C1099 748.826 1098.95 750.626 1098.85 752.418C1092.88 958.005 907.191 1123 678.999 1123C447.04 1123 259 952.51 259 742.2C259 640.684 302.813 548.445 374.231 480.181C374.053 579.149 375.732 681.465 383.472 679.709C404.197 675.005 388.004 368.469 384.215 301.49Z"/>
</mask>
<path fill-rule="evenodd" clip-rule="evenodd" d="M384.215 301.49C395.107 258.677 434.066 227 480.454 227C515.25 227 545.866 244.823 563.592 271.8H592.619C610.652 253.375 635.847 241.933 663.727 241.933C704.603 241.933 739.71 266.529 754.93 301.667H779.231C794.459 292.202 812.452 286.733 831.727 286.733C872.604 286.733 907.71 311.329 922.929 346.467H989.014C989.578 346.467 990.107 346.618 990.562 346.882C993.581 346.607 996.637 346.467 999.726 346.467C1054.55 346.467 1099 390.715 1099 445.298V741.65L1099 742.2L1099 742.749V747.018C1099 748.826 1098.95 750.626 1098.85 752.418C1092.88 958.005 907.191 1123 678.999 1123C447.04 1123 259 952.51 259 742.2C259 640.684 302.813 548.445 374.231 480.181C374.053 579.149 375.732 681.465 383.472 679.709C404.197 675.005 388.004 368.469 384.215 301.49Z" fill="url(#paint0_linear_717_163)"/>
<path fill-rule="evenodd" clip-rule="evenodd" d="M384.215 301.49C395.107 258.677 434.066 227 480.454 227C515.25 227 545.866 244.823 563.592 271.8H592.619C610.652 253.375 635.847 241.933 663.727 241.933C704.603 241.933 739.71 266.529 754.93 301.667H779.231C794.459 292.202 812.452 286.733 831.727 286.733C872.604 286.733 907.71 311.329 922.929 346.467H989.014C989.578 346.467 990.107 346.618 990.562 346.882C993.581 346.607 996.637 346.467 999.726 346.467C1054.55 346.467 1099 390.715 1099 445.298V741.65L1099 742.2L1099 742.749V747.018C1099 748.826 1098.95 750.626 1098.85 752.418C1092.88 958.005 907.191 1123 678.999 1123C447.04 1123 259 952.51 259 742.2C259 640.684 302.813 548.445 374.231 480.181C374.053 579.149 375.732 681.465 383.472 679.709C404.197 675.005 388.004 368.469 384.215 301.49Z" stroke="url(#paint1_linear_717_163)" stroke-width="60" mask="url(#path-1-inside-1_717_163)"/>
</g>
<g filter="url(#filter1_d_717_163)">
<circle cx="679" cy="675" r="615.5" stroke="url(#paint2_linear_717_163)" stroke-width="119" shape-rendering="crispEdges"/>
</g>
<defs>
<filter id="filter0_d_717_163" x="255" y="227" width="848" height="904" filterUnits="userSpaceOnUse" color-interpolation-filters="sRGB">
<feFlood flood-opacity="0" result="BackgroundImageFix"/>
<feColorMatrix in="SourceAlpha" type="matrix" values="0 0 0 0 0 0 0 0 0 0 0 0 0 0 0 0 0 0 127 0" result="hardAlpha"/>
<feOffset dy="4"/>
<feGaussianBlur stdDeviation="2"/>
<feComposite in2="hardAlpha" operator="out"/>
<feColorMatrix type="matrix" values="0 0 0 0 0 0 0 0 0 0 0 0 0 0 0 0 0 0 0.25 0"/>
<feBlend mode="normal" in2="BackgroundImageFix" result="effect1_dropShadow_717_163"/>
<feBlend mode="normal" in="SourceGraphic" in2="effect1_dropShadow_717_163" result="shape"/>
</filter>
<filter id="filter1_d_717_163" x="0" y="0" width="1358" height="1358" filterUnits="userSpaceOnUse" color-interpolation-filters="sRGB">
<feFlood flood-opacity="0" result="BackgroundImageFix"/>
<feColorMatrix in="SourceAlpha" type="matrix" values="0 0 0 0 0 0 0 0 0 0 0 0 0 0 0 0 0 0 127 0" result="hardAlpha"/>
<feOffset dy="4"/>
<feGaussianBlur stdDeviation="2"/>
<feComposite in2="hardAlpha" operator="out"/>
<feColorMatrix type="matrix" values="0 0 0 0 0 0 0 0 0 0 0 0 0 0 0 0 0 0 0.25 0"/>
<feBlend mode="normal" in2="BackgroundImageFix" result="effect1_dropShadow_717_163"/>
<feBlend mode="normal" in="SourceGraphic" in2="effect1_dropShadow_717_163" result="shape"/>
</filter>
<linearGradient id="paint0_linear_717_163" x1="338.818" y1="413.851" x2="1044.44" y2="880.288" gradientUnits="userSpaceOnUse">
<stop stop-color="#C03028"/>
<stop offset="0.442708" stop-color="#D67873"/>
<stop offset="0.84375" stop-color="#7D1F1A"/>
</linearGradient>
<linearGradient id="paint1_linear_717_163" x1="389.345" y1="335.606" x2="838.793" y2="1054.82" gradientUnits="userSpaceOnUse">
<stop stop-color="#7D1F1A"/>
<stop offset="1" stop-color="#D67873" stop-opacity="0"/>
</linearGradient>
<linearGradient id="paint2_linear_717_163" x1="132.279" y1="281.528" x2="1220.72" y2="1048.98" gradientUnits="userSpaceOnUse">
<stop stop-color="#C03028"/>
<stop offset="0.442708" stop-color="#D67873"/>
<stop offset="0.84375" stop-color="#7D1F1A"/>
</linearGradient>
</defs>
</svg>
