<svg width="21" height="21" viewBox="0 0 21 21" fill="none" xmlns="http://www.w3.org/2000/svg">
<path d="M10.4167 20.8333C4.66354 20.8333 0 16.1698 0 10.4167C0 4.66354 4.66354 0 10.4167 0C16.1698 0 20.8333 4.66354 20.8333 10.4167C20.8333 16.1698 16.1698 20.8333 10.4167 20.8333ZM6.25 12.5V14.5833H14.5833V12.5H6.25ZM6.25 9.375C6.6644 9.375 7.06183 9.21038 7.35486 8.91736C7.64788 8.62433 7.8125 8.2269 7.8125 7.8125C7.8125 7.3981 7.64788 7.00067 7.35486 6.70765C7.06183 6.41462 6.6644 6.25 6.25 6.25C5.8356 6.25 5.43817 6.41462 5.14515 6.70765C4.85212 7.00067 4.6875 7.3981 4.6875 7.8125C4.6875 8.2269 4.85212 8.62433 5.14515 8.91736C5.43817 9.21038 5.8356 9.375 6.25 9.375V9.375ZM14.5833 9.375C14.9977 9.375 15.3952 9.21038 15.6882 8.91736C15.9812 8.62433 16.1458 8.2269 16.1458 7.8125C16.1458 7.3981 15.9812 7.00067 15.6882 6.70765C15.3952 6.41462 14.9977 6.25 14.5833 6.25C14.1689 6.25 13.7715 6.41462 13.4785 6.70765C13.1855 7.00067 13.0208 7.3981 13.0208 7.8125C13.0208 8.2269 13.1855 8.62433 13.4785 8.91736C13.7715 9.21038 14.1689 9.375 14.5833 9.375Z" fill="url(#paint0_radial_418_73)"/>
<defs>
<radialGradient id="paint0_radial_418_73" cx="0" cy="0" r="1" gradientUnits="userSpaceOnUse" gradientTransform="translate(10.4167 10.4167) rotate(90) scale(10.4167)">
<stop stop-color="#C6C6A7"/>
<stop offset="0.0001" stop-color="#C6C6A7"/>
<stop offset="0.0002" stop-color="#C6C6A7"/>
<stop offset="0.463542" stop-color="#C6C6A7"/>
<stop offset="1" stop-color="#6D6D4E"/>
</radialGradient>
</defs>
</svg>
