<svg width="23" height="25" viewBox="0 0 23 25" fill="none" xmlns="http://www.w3.org/2000/svg">
<path d="M17.454 0H13.8926H13.2344H8.39561C7.01981 0 5.9005 1.11931 5.9005 2.49511V10.5954L5.06183 10.6242V7.26713C5.06183 6.99198 4.83796 6.76811 4.56281 6.76811H1.36676C1.09161 6.76811 0.867737 6.99198 0.867737 7.26713V14.8629C0.867737 15.0816 1.0089 15.313 1.20345 15.413L6.80492 18.2924C6.81583 18.298 6.82687 18.3024 6.83785 18.3071C6.889 18.3481 6.94146 18.3875 6.99573 18.4244V24.0643C6.99573 24.5803 7.41547 25 7.9314 25H18.5039C19.0198 25 19.4395 24.5803 19.4395 24.0643V23.4898C19.4395 22.9739 19.0198 22.5542 18.5039 22.5542H13.8414C13.6695 22.5542 13.5296 22.4143 13.5296 22.2423V21.0285C13.5296 20.8566 13.6695 20.7166 13.8414 20.7166H18.5039C19.0198 20.7166 19.4395 20.2969 19.4395 19.781V18.4117C21.029 17.6634 22.1323 16.047 22.1323 14.177V4.67833C22.1323 2.0987 20.0336 0 17.454 0Z" fill="url(#paint0_radial_420_325)"/>
<defs>
<radialGradient id="paint0_radial_420_325" cx="0" cy="0" r="1" gradientUnits="userSpaceOnUse" gradientTransform="translate(12 3) rotate(91.3019) scale(22.0057 18.7177)">
<stop offset="0.119792" stop-color="#C03028"/>
<stop offset="0.640625" stop-color="#D67873"/>
<stop offset="1" stop-color="#7D1F1A"/>
</radialGradient>
</defs>
</svg>
