<svg width="1358" height="1358" viewBox="0 0 1358 1358" fill="none" xmlns="http://www.w3.org/2000/svg">
<g filter="url(#filter0_d_717_173)">
<mask id="path-1-inside-1_717_173" fill="white">
<path fill-rule="evenodd" clip-rule="evenodd" d="M549.69 1043.55C674.207 1043.55 780.81 974.361 824.819 876.274C825.357 875.077 648.13 922.324 653.781 905.622C656.304 898.164 764.945 858.483 844.096 812.198C889.59 785.595 910.539 729.279 910.539 729.279C910.539 729.279 833.895 766.486 795.148 775.924C717.068 794.947 648.335 792.898 648.335 790.916C648.335 786.631 762.463 764.949 921.088 668.301C995.701 622.841 1015.97 544.537 1015.97 544.537C1015.97 544.537 933.936 593.391 884.347 609.521C766.748 647.77 659.432 659.296 659.432 654.121C659.432 643.039 753.873 617.073 854.004 568.563C906.067 543.34 951.155 510.388 1003.41 473.742C1088.9 413.785 1103 307 1103 307C1103 307 1018.68 361.379 977.527 379.437C807.727 453.953 657.795 493.04 549.69 501.502C386.503 514.277 253 628.118 253 775.924C253 923.732 385.833 1043.55 549.69 1043.55Z"/>
</mask>
<path fill-rule="evenodd" clip-rule="evenodd" d="M549.69 1043.55C674.207 1043.55 780.81 974.361 824.819 876.274C825.357 875.077 648.13 922.324 653.781 905.622C656.304 898.164 764.945 858.483 844.096 812.198C889.59 785.595 910.539 729.279 910.539 729.279C910.539 729.279 833.895 766.486 795.148 775.924C717.068 794.947 648.335 792.898 648.335 790.916C648.335 786.631 762.463 764.949 921.088 668.301C995.701 622.841 1015.97 544.537 1015.97 544.537C1015.97 544.537 933.936 593.391 884.347 609.521C766.748 647.77 659.432 659.296 659.432 654.121C659.432 643.039 753.873 617.073 854.004 568.563C906.067 543.34 951.155 510.388 1003.41 473.742C1088.9 413.785 1103 307 1103 307C1103 307 1018.68 361.379 977.527 379.437C807.727 453.953 657.795 493.04 549.69 501.502C386.503 514.277 253 628.118 253 775.924C253 923.732 385.833 1043.55 549.69 1043.55Z" fill="url(#paint0_linear_717_173)"/>
<path fill-rule="evenodd" clip-rule="evenodd" d="M549.69 1043.55C674.207 1043.55 780.81 974.361 824.819 876.274C825.357 875.077 648.13 922.324 653.781 905.622C656.304 898.164 764.945 858.483 844.096 812.198C889.59 785.595 910.539 729.279 910.539 729.279C910.539 729.279 833.895 766.486 795.148 775.924C717.068 794.947 648.335 792.898 648.335 790.916C648.335 786.631 762.463 764.949 921.088 668.301C995.701 622.841 1015.97 544.537 1015.97 544.537C1015.97 544.537 933.936 593.391 884.347 609.521C766.748 647.77 659.432 659.296 659.432 654.121C659.432 643.039 753.873 617.073 854.004 568.563C906.067 543.34 951.155 510.388 1003.41 473.742C1088.9 413.785 1103 307 1103 307C1103 307 1018.68 361.379 977.527 379.437C807.727 453.953 657.795 493.04 549.69 501.502C386.503 514.277 253 628.118 253 775.924C253 923.732 385.833 1043.55 549.69 1043.55Z" stroke="url(#paint1_linear_717_173)" stroke-width="60" mask="url(#path-1-inside-1_717_173)"/>
</g>
<g filter="url(#filter1_d_717_173)">
<circle cx="679" cy="675" r="615.5" stroke="url(#paint2_linear_717_173)" stroke-width="119" shape-rendering="crispEdges"/>
</g>
<defs>
<filter id="filter0_d_717_173" x="249" y="307" width="858" height="744.554" filterUnits="userSpaceOnUse" color-interpolation-filters="sRGB">
<feFlood flood-opacity="0" result="BackgroundImageFix"/>
<feColorMatrix in="SourceAlpha" type="matrix" values="0 0 0 0 0 0 0 0 0 0 0 0 0 0 0 0 0 0 127 0" result="hardAlpha"/>
<feOffset dy="4"/>
<feGaussianBlur stdDeviation="2"/>
<feComposite in2="hardAlpha" operator="out"/>
<feColorMatrix type="matrix" values="0 0 0 0 0 0 0 0 0 0 0 0 0 0 0 0 0 0 0.25 0"/>
<feBlend mode="normal" in2="BackgroundImageFix" result="effect1_dropShadow_717_173"/>
<feBlend mode="normal" in="SourceGraphic" in2="effect1_dropShadow_717_173" result="shape"/>
</filter>
<filter id="filter1_d_717_173" x="0" y="0" width="1358" height="1358" filterUnits="userSpaceOnUse" color-interpolation-filters="sRGB">
<feFlood flood-opacity="0" result="BackgroundImageFix"/>
<feColorMatrix in="SourceAlpha" type="matrix" values="0 0 0 0 0 0 0 0 0 0 0 0 0 0 0 0 0 0 127 0" result="hardAlpha"/>
<feOffset dy="4"/>
<feGaussianBlur stdDeviation="2"/>
<feComposite in2="hardAlpha" operator="out"/>
<feColorMatrix type="matrix" values="0 0 0 0 0 0 0 0 0 0 0 0 0 0 0 0 0 0 0.25 0"/>
<feBlend mode="normal" in2="BackgroundImageFix" result="effect1_dropShadow_717_173"/>
<feBlend mode="normal" in="SourceGraphic" in2="effect1_dropShadow_717_173" result="shape"/>
</filter>
<linearGradient id="paint0_linear_717_173" x1="333.768" y1="460.6" x2="951.074" y2="962.899" gradientUnits="userSpaceOnUse">
<stop stop-color="#A890F0"/>
<stop offset="0.442708" stop-color="#C6B7F5"/>
<stop offset="0.84375" stop-color="#6D5E9C"/>
</linearGradient>
<linearGradient id="paint1_linear_717_173" x1="384.897" y1="396.279" x2="716.733" y2="1049.93" gradientUnits="userSpaceOnUse">
<stop stop-color="#6D5E9C"/>
<stop offset="1" stop-color="#C6B7F5" stop-opacity="0"/>
</linearGradient>
<linearGradient id="paint2_linear_717_173" x1="132.279" y1="281.528" x2="1220.72" y2="1048.98" gradientUnits="userSpaceOnUse">
<stop stop-color="#A890F0"/>
<stop offset="0.442708" stop-color="#C6B7F5"/>
<stop offset="0.84375" stop-color="#6D5E9C"/>
</linearGradient>
</defs>
</svg>
