<svg width="1358" height="1358" viewBox="0 0 1358 1358" fill="none" xmlns="http://www.w3.org/2000/svg">
<g filter="url(#filter0_d_717_154)">
<mask id="path-1-inside-1_717_154" fill="white">
<path fill-rule="evenodd" clip-rule="evenodd" d="M836.487 1071.23C764.327 1074.92 681.712 1074.92 653.637 1071.23C434.641 1042.42 260 882.302 260 665.875C260 449.448 439.086 274 660 274C880.914 274 1060 449.448 1060 665.875C1060 766.533 1021.26 858.327 957.594 927.73C940.305 946.575 964.027 959.794 988.128 973.225C1011.77 986.398 1035.77 999.775 1021.82 1018.86C1006.45 1039.9 923.112 1066.8 836.487 1071.23ZM603.75 616.891C603.75 650.706 575.767 678.12 541.25 678.12C506.733 678.12 478.75 650.706 478.75 616.891C478.75 594.211 491.336 574.412 510.038 563.83C511.114 593.316 535.358 616.889 565.108 616.889H603.75V616.891ZM797.463 563.83C796.386 593.316 772.142 616.889 742.392 616.889H703.75V616.891C703.75 650.706 731.733 678.12 766.25 678.12C800.767 678.12 828.75 650.706 828.75 616.891C828.75 594.211 816.164 574.412 797.463 563.83Z"/>
</mask>
<path fill-rule="evenodd" clip-rule="evenodd" d="M836.487 1071.23C764.327 1074.92 681.712 1074.92 653.637 1071.23C434.641 1042.42 260 882.302 260 665.875C260 449.448 439.086 274 660 274C880.914 274 1060 449.448 1060 665.875C1060 766.533 1021.26 858.327 957.594 927.73C940.305 946.575 964.027 959.794 988.128 973.225C1011.77 986.398 1035.77 999.775 1021.82 1018.86C1006.45 1039.9 923.112 1066.8 836.487 1071.23ZM603.75 616.891C603.75 650.706 575.767 678.12 541.25 678.12C506.733 678.12 478.75 650.706 478.75 616.891C478.75 594.211 491.336 574.412 510.038 563.83C511.114 593.316 535.358 616.889 565.108 616.889H603.75V616.891ZM797.463 563.83C796.386 593.316 772.142 616.889 742.392 616.889H703.75V616.891C703.75 650.706 731.733 678.12 766.25 678.12C800.767 678.12 828.75 650.706 828.75 616.891C828.75 594.211 816.164 574.412 797.463 563.83Z" fill="url(#paint0_linear_717_154)"/>
<path fill-rule="evenodd" clip-rule="evenodd" d="M836.487 1071.23C764.327 1074.92 681.712 1074.92 653.637 1071.23C434.641 1042.42 260 882.302 260 665.875C260 449.448 439.086 274 660 274C880.914 274 1060 449.448 1060 665.875C1060 766.533 1021.26 858.327 957.594 927.73C940.305 946.575 964.027 959.794 988.128 973.225C1011.77 986.398 1035.77 999.775 1021.82 1018.86C1006.45 1039.9 923.112 1066.8 836.487 1071.23ZM603.75 616.891C603.75 650.706 575.767 678.12 541.25 678.12C506.733 678.12 478.75 650.706 478.75 616.891C478.75 594.211 491.336 574.412 510.038 563.83C511.114 593.316 535.358 616.889 565.108 616.889H603.75V616.891ZM797.463 563.83C796.386 593.316 772.142 616.889 742.392 616.889H703.75V616.891C703.75 650.706 731.733 678.12 766.25 678.12C800.767 678.12 828.75 650.706 828.75 616.891C828.75 594.211 816.164 574.412 797.463 563.83Z" stroke="url(#paint1_linear_717_154)" stroke-width="60" mask="url(#path-1-inside-1_717_154)"/>
</g>
<g filter="url(#filter1_d_717_154)">
<mask id="path-2-inside-2_717_154" fill="white">
<path d="M1354 675C1354 1047.79 1051.79 1350 679 1350C306.208 1350 4 1047.79 4 675C4 302.208 306.208 0 679 0C1051.79 0 1354 302.208 1354 675Z"/>
</mask>
<path d="M1354 675C1354 1047.79 1051.79 1350 679 1350C306.208 1350 4 1047.79 4 675C4 302.208 306.208 0 679 0C1051.79 0 1354 302.208 1354 675Z" stroke="url(#paint2_linear_717_154)" stroke-width="238" shape-rendering="crispEdges" mask="url(#path-2-inside-2_717_154)"/>
</g>
<defs>
<filter id="filter0_d_717_154" x="256" y="274" width="808" height="808" filterUnits="userSpaceOnUse" color-interpolation-filters="sRGB">
<feFlood flood-opacity="0" result="BackgroundImageFix"/>
<feColorMatrix in="SourceAlpha" type="matrix" values="0 0 0 0 0 0 0 0 0 0 0 0 0 0 0 0 0 0 127 0" result="hardAlpha"/>
<feOffset dy="4"/>
<feGaussianBlur stdDeviation="2"/>
<feComposite in2="hardAlpha" operator="out"/>
<feColorMatrix type="matrix" values="0 0 0 0 0 0 0 0 0 0 0 0 0 0 0 0 0 0 0.25 0"/>
<feBlend mode="normal" in2="BackgroundImageFix" result="effect1_dropShadow_717_154"/>
<feBlend mode="normal" in="SourceGraphic" in2="effect1_dropShadow_717_154" result="shape"/>
</filter>
<filter id="filter1_d_717_154" x="0" y="0" width="1358" height="1358" filterUnits="userSpaceOnUse" color-interpolation-filters="sRGB">
<feFlood flood-opacity="0" result="BackgroundImageFix"/>
<feColorMatrix in="SourceAlpha" type="matrix" values="0 0 0 0 0 0 0 0 0 0 0 0 0 0 0 0 0 0 127 0" result="hardAlpha"/>
<feOffset dy="4"/>
<feGaussianBlur stdDeviation="2"/>
<feComposite in2="hardAlpha" operator="out"/>
<feColorMatrix type="matrix" values="0 0 0 0 0 0 0 0 0 0 0 0 0 0 0 0 0 0 0.25 0"/>
<feBlend mode="normal" in2="BackgroundImageFix" result="effect1_dropShadow_717_154"/>
<feBlend mode="normal" in="SourceGraphic" in2="effect1_dropShadow_717_154" result="shape"/>
</filter>
<linearGradient id="paint0_linear_717_154" x1="336.017" y1="440.831" x2="981.019" y2="895.618" gradientUnits="userSpaceOnUse">
<stop stop-color="#705898"/>
<stop offset="0.442708" stop-color="#A292BC"/>
<stop offset="0.84375" stop-color="#493963"/>
</linearGradient>
<linearGradient id="paint1_linear_717_154" x1="384.138" y1="370.97" x2="773.595" y2="1035.73" gradientUnits="userSpaceOnUse">
<stop stop-color="#493963"/>
<stop offset="1" stop-color="#A292BC" stop-opacity="0"/>
</linearGradient>
<linearGradient id="paint2_linear_717_154" x1="132.279" y1="281.528" x2="1220.72" y2="1048.98" gradientUnits="userSpaceOnUse">
<stop stop-color="#705898"/>
<stop offset="0.442708" stop-color="#A292BC"/>
<stop offset="0.84375" stop-color="#493963"/>
</linearGradient>
</defs>
</svg>
