<svg width="775" height="908" viewBox="0 0 775 908" fill="none" xmlns="http://www.w3.org/2000/svg">
<g filter="url(#filter0_d_714_70)">
<mask id="path-1-inside-1_714_70" fill="white">
<path fill-rule="evenodd" clip-rule="evenodd" d="M538.388 0.881168C539.043 -0.0535032 540.329 -0.280653 541.263 0.373812L605.127 45.1206C606.061 45.775 606.288 47.0632 605.635 47.9978L516.747 175.023C559.96 188.838 589.401 203.739 589.401 203.739C589.401 203.739 517.439 327.6 395.384 327.6C273.33 327.6 186.599 212.159 186.599 212.159C186.599 212.159 217.352 192.52 262.939 175.677L165.442 59.4108C164.709 58.5366 164.823 57.2335 165.696 56.5001L225.419 6.35398C226.294 5.62055 227.596 5.73455 228.328 6.60863L351.776 153.822C362.346 152.626 373.115 151.957 383.982 151.957C399.601 151.957 415.2 153.145 430.429 155.162L538.388 0.881168ZM562.535 333.466C595.107 310.188 644.393 249.434 644.393 249.434C644.393 249.434 770.286 349.262 770.286 560.934C770.286 772.604 552.636 900 552.636 900C552.636 900 448.648 794.915 423.119 661.704C397.593 528.493 460.882 380.578 460.882 380.578C460.882 380.578 529.963 356.743 562.535 333.466V333.466ZM211.75 333.466C179.179 310.188 129.893 249.434 129.893 249.434C129.893 249.434 4 349.262 4 560.934C4 772.604 221.649 900 221.649 900C221.649 900 325.638 794.915 351.166 661.704C376.693 528.493 313.404 380.578 313.404 380.578C313.404 380.578 244.323 356.743 211.75 333.466V333.466Z"/>
</mask>
<path fill-rule="evenodd" clip-rule="evenodd" d="M538.388 0.881168C539.043 -0.0535032 540.329 -0.280653 541.263 0.373812L605.127 45.1206C606.061 45.775 606.288 47.0632 605.635 47.9978L516.747 175.023C559.96 188.838 589.401 203.739 589.401 203.739C589.401 203.739 517.439 327.6 395.384 327.6C273.33 327.6 186.599 212.159 186.599 212.159C186.599 212.159 217.352 192.52 262.939 175.677L165.442 59.4108C164.709 58.5366 164.823 57.2335 165.696 56.5001L225.419 6.35398C226.294 5.62055 227.596 5.73455 228.328 6.60863L351.776 153.822C362.346 152.626 373.115 151.957 383.982 151.957C399.601 151.957 415.2 153.145 430.429 155.162L538.388 0.881168ZM562.535 333.466C595.107 310.188 644.393 249.434 644.393 249.434C644.393 249.434 770.286 349.262 770.286 560.934C770.286 772.604 552.636 900 552.636 900C552.636 900 448.648 794.915 423.119 661.704C397.593 528.493 460.882 380.578 460.882 380.578C460.882 380.578 529.963 356.743 562.535 333.466V333.466ZM211.75 333.466C179.179 310.188 129.893 249.434 129.893 249.434C129.893 249.434 4 349.262 4 560.934C4 772.604 221.649 900 221.649 900C221.649 900 325.638 794.915 351.166 661.704C376.693 528.493 313.404 380.578 313.404 380.578C313.404 380.578 244.323 356.743 211.75 333.466V333.466Z" fill="url(#paint0_linear_714_70)"/>
<path fill-rule="evenodd" clip-rule="evenodd" d="M538.388 0.881168C539.043 -0.0535032 540.329 -0.280653 541.263 0.373812L605.127 45.1206C606.061 45.775 606.288 47.0632 605.635 47.9978L516.747 175.023C559.96 188.838 589.401 203.739 589.401 203.739C589.401 203.739 517.439 327.6 395.384 327.6C273.33 327.6 186.599 212.159 186.599 212.159C186.599 212.159 217.352 192.52 262.939 175.677L165.442 59.4108C164.709 58.5366 164.823 57.2335 165.696 56.5001L225.419 6.35398C226.294 5.62055 227.596 5.73455 228.328 6.60863L351.776 153.822C362.346 152.626 373.115 151.957 383.982 151.957C399.601 151.957 415.2 153.145 430.429 155.162L538.388 0.881168ZM562.535 333.466C595.107 310.188 644.393 249.434 644.393 249.434C644.393 249.434 770.286 349.262 770.286 560.934C770.286 772.604 552.636 900 552.636 900C552.636 900 448.648 794.915 423.119 661.704C397.593 528.493 460.882 380.578 460.882 380.578C460.882 380.578 529.963 356.743 562.535 333.466V333.466ZM211.75 333.466C179.179 310.188 129.893 249.434 129.893 249.434C129.893 249.434 4 349.262 4 560.934C4 772.604 221.649 900 221.649 900C221.649 900 325.638 794.915 351.166 661.704C376.693 528.493 313.404 380.578 313.404 380.578C313.404 380.578 244.323 356.743 211.75 333.466V333.466Z" stroke="url(#paint1_linear_714_70)" stroke-width="6" mask="url(#path-1-inside-1_714_70)"/>
</g>
<defs>
<filter id="filter0_d_714_70" x="0" y="0" width="774.286" height="908" filterUnits="userSpaceOnUse" color-interpolation-filters="sRGB">
<feFlood flood-opacity="0" result="BackgroundImageFix"/>
<feColorMatrix in="SourceAlpha" type="matrix" values="0 0 0 0 0 0 0 0 0 0 0 0 0 0 0 0 0 0 127 0" result="hardAlpha"/>
<feOffset dy="4"/>
<feGaussianBlur stdDeviation="2"/>
<feComposite in2="hardAlpha" operator="out"/>
<feColorMatrix type="matrix" values="0 0 0 0 0 0 0 0 0 0 0 0 0 0 0 0 0 0 0.25 0"/>
<feBlend mode="normal" in2="BackgroundImageFix" result="effect1_dropShadow_714_70"/>
<feBlend mode="normal" in="SourceGraphic" in2="effect1_dropShadow_714_70" result="shape"/>
</filter>
<linearGradient id="paint0_linear_714_70" x1="76.8138" y1="187.685" x2="756.739" y2="595.869" gradientUnits="userSpaceOnUse">
<stop stop-color="#A8B820"/>
<stop offset="0.453125" stop-color="#D1DE68"/>
<stop offset="0.932292" stop-color="#6D7815"/>
</linearGradient>
<linearGradient id="paint1_linear_714_70" x1="122.906" y1="109.091" x2="592.016" y2="790.848" gradientUnits="userSpaceOnUse">
<stop stop-color="#6D7815"/>
<stop offset="1" stop-color="#C6D16E" stop-opacity="0"/>
</linearGradient>
</defs>
</svg>
