<svg width="25" height="23" viewBox="0 0 25 23" fill="none" xmlns="http://www.w3.org/2000/svg">
<path d="M24.7102 21.413L20.0912 16.5881C19.3258 15.7887 18.398 15.1699 17.3853 14.7598L17.8136 13.4384C17.9669 12.9655 17.7078 12.4578 17.2349 12.3045L15.8348 11.8507L17.9608 5.29244C18.9573 5.23423 19.8181 4.57639 20.1293 3.61645L20.6109 2.13105C20.7641 1.65816 20.505 1.15046 20.0321 0.997191L17.0906 0.0437313C16.8635 -0.0297225 16.6165 -0.0100387 16.4038 0.0982217C16.1912 0.206722 16.0303 0.395398 15.9566 0.622481L15.4751 2.10788C15.2749 2.72552 15.3272 3.3842 15.6225 3.96247C15.7777 4.26661 15.9916 4.52802 16.2479 4.73782L14.1222 11.2956L12.722 10.8417C12.4949 10.7684 12.2479 10.7879 12.0353 10.8962C11.8226 11.0047 11.6617 11.1934 11.5881 11.4204L10.7924 13.8749C10.7586 13.9793 10.7319 14.0854 10.7089 14.1922C8.78132 14.2521 6.96286 15.0127 5.56544 16.3531L0.27712 21.425C0.0118698 21.6795 -0.072026 22.0696 0.0649198 22.4105C0.202106 22.7515 0.532648 22.9749 0.900157 22.9749H24.0974C24.0984 22.9748 24.099 22.9748 24.0998 22.9749C24.5971 22.9749 25 22.572 25 22.0747C25 21.8131 24.8885 21.5776 24.7102 21.413ZM17.1876 2.66299L17.3915 2.03395L18.6203 2.4323L18.4164 3.06134C18.3318 3.32239 18.0909 3.49786 17.817 3.49786C17.7611 3.49786 17.7055 3.48874 17.6517 3.47398C17.6374 3.46858 17.6236 3.46246 17.6089 3.45766C17.596 3.45345 17.5832 3.45081 17.5703 3.44733C17.4208 3.39248 17.2985 3.28662 17.2256 3.14404C17.1492 2.99401 17.1357 2.82322 17.1876 2.66299ZM5.84737 20.6981L5.39428 21.1512C5.21845 21.3269 4.98801 21.4147 4.75768 21.4147C4.52736 21.4147 4.29692 21.3269 4.12108 21.1512C3.76954 20.7995 3.76954 20.2296 4.12108 19.8781L4.57417 19.425C4.92584 19.0736 5.4957 19.0736 5.84725 19.425C6.19892 19.7767 6.19892 20.3465 5.84737 20.6981ZM9.04261 20.6981L8.58953 21.1512C8.41369 21.3269 8.18325 21.4147 7.95293 21.4147C7.7226 21.4147 7.49216 21.3269 7.31633 21.1512C6.96478 20.7995 6.96478 20.2296 7.31633 19.8781L7.76941 19.425C8.12108 19.0736 8.69095 19.0736 9.04249 19.425C9.39416 19.7767 9.39416 20.3465 9.04261 20.6981ZM10.4138 17.0631L9.96067 17.5161C9.78483 17.6919 9.55439 17.7797 9.32407 17.7797C9.09374 17.7797 8.8633 17.6919 8.68747 17.5161C8.33592 17.1645 8.33592 16.5946 8.68747 16.2431L9.14055 15.79C9.49222 15.4386 10.0621 15.4386 10.4136 15.79C10.7653 16.1416 10.7653 16.7115 10.4138 17.0631ZM15.4331 20.6981L14.98 21.1512C14.8042 21.3269 14.5737 21.4147 14.3434 21.4147C14.1131 21.4147 13.8826 21.3269 13.7068 21.1512C13.3553 20.7995 13.3553 20.2296 13.7068 19.8781L14.1599 19.425C14.5116 19.0736 15.0814 19.0736 15.433 19.425C15.7846 19.7767 15.7846 20.3465 15.4331 20.6981Z" fill="url(#paint0_radial_419_203)"/>
<defs>
<radialGradient id="paint0_radial_419_203" cx="0" cy="0" r="1" gradientUnits="userSpaceOnUse" gradientTransform="translate(12 11) rotate(87.6091) scale(11.9853 13.0418)">
<stop offset="0.119792" stop-color="#E0C068"/>
<stop offset="0.536458" stop-color="#EBD69D"/>
<stop offset="1" stop-color="#927D44"/>
</radialGradient>
</defs>
</svg>
