<svg width="26" height="25" viewBox="0 0 26 21" fill="none" xmlns="http://www.w3.org/2000/svg">
<path d="M12.5391 0C8.57422 0 5.3711 3.22266 5.3711 7.16797C5.3711 9.60938 6.58203 11.7578 8.45703 13.0469C8.69141 13.2031 8.92578 13.3594 9.17969 13.4961C10.1953 14.0234 11.3281 14.3164 12.5195 14.3164C13.6523 14.3164 14.7266 14.043 15.7031 13.5742C15.957 13.457 16.1914 13.3008 16.4453 13.1445C18.3984 11.875 19.707 9.66797 19.707 7.14844C19.6875 3.20312 16.4648 0 12.5391 0ZM16.1719 12.3242C15.9375 12.4805 15.7031 12.6367 15.4492 12.7734C14.5703 13.2227 13.5742 13.4961 12.5195 13.4961C11.3867 13.4961 10.332 13.2031 9.41406 12.6758C9.16016 12.5391 8.92578 12.3633 8.69141 12.207C7.16797 11.0547 6.17188 9.21875 6.17188 7.14844C6.17188 3.65234 9.02344 0.800781 12.5195 0.800781C16.0156 0.800781 18.8672 3.65234 18.8672 7.14844C18.8477 9.29687 17.8125 11.1914 16.1719 12.3242ZM4.0625 9.19922C3.76953 8.75 3.18359 8.59375 2.71484 8.88672C2.26563 9.17969 2.10938 9.76562 2.40234 10.2344L4.60938 13.7109C4.70703 13.8477 4.66797 14.043 4.51172 14.1406C4.35547 14.2383 4.16016 14.1992 4.0625 14.043L1.875 10.5859C1.62109 10.2148 1.5625 9.78516 1.66016 9.375C1.75781 8.96485 2.03125 8.59375 2.38281 8.35938C2.53906 8.24219 2.75391 8.18359 2.92969 8.125L3.82813 4.12109C3.94531 3.59375 3.61328 3.06641 3.10547 2.94922C2.57813 2.83203 2.05078 3.18359 1.93359 3.69141L0.449219 10.1953C0.273437 10.957 0.371093 11.8555 0.820312 12.5977L2.71484 15.6055C2.96875 15.9766 3.02734 16.4258 2.92969 16.8164L0 20.1758H4.45313L7.16797 15.7812C7.55859 15 7.22656 14.1992 6.77734 13.4766L4.0625 9.19922ZM22.0898 16.8555C22.0117 16.4453 22.0703 16.0156 22.3047 15.6445L24.1992 12.6367C24.6484 11.8945 24.7461 10.9961 24.5703 10.2344L23.0859 3.73047C22.9688 3.22266 22.4414 2.87109 21.9141 2.98828C21.4063 3.10547 21.0742 3.63281 21.1914 4.16016L22.0898 8.16406C22.3047 8.20313 22.4805 8.28125 22.6367 8.39844C22.9883 8.63281 23.2813 9.00391 23.3594 9.41406C23.457 9.82422 23.3789 10.2734 23.1445 10.625L20.9766 14.043C20.8789 14.1992 20.6836 14.2578 20.5273 14.1406C20.3711 14.043 20.3125 13.8477 20.4297 13.7109L22.6172 10.2344C22.9102 9.78516 22.7539 9.17969 22.3047 8.88672C21.8555 8.59375 21.25 8.75 20.957 9.19922L18.2422 13.5352C17.793 14.2578 17.4609 15.0586 17.8516 15.8398L20.5664 20.2344H25.0195L22.0898 16.8555ZM12.5391 14.9414C11.3086 14.9414 10.0586 14.6484 8.94531 14.082L7.79297 17.2266H17.1094L15.9375 14.1602C14.8633 14.668 13.7305 14.9414 12.5391 14.9414ZM7.83203 4.41406L8.35938 4.72656C8.98438 3.67188 9.94141 2.89063 11.0938 2.51953L10.918 1.91406C9.62891 2.34375 8.53516 3.22266 7.83203 4.41406ZM7.05078 7.26563H7.67578C7.67578 6.79688 7.73438 6.30859 7.89063 5.85938L7.28516 5.70313C7.12891 6.19141 7.05078 6.73828 7.05078 7.26563Z" fill="url(#paint0_linear_418_65)"/>
<defs>
<linearGradient id="paint0_linear_418_65" x1="12.5098" y1="0" x2="12.5098" y2="20.2344" gradientUnits="userSpaceOnUse">
<stop stop-color="#F85888"/>
<stop offset="0.598958" stop-color="#682A68"/>
</linearGradient>
</defs>
</svg>
