<svg width="848" height="904" viewBox="0 0 848 904" fill="none" xmlns="http://www.w3.org/2000/svg">
<g filter="url(#filter0_d_714_82)">
<mask id="path-1-inside-1_714_82" fill="white">
<path fill-rule="evenodd" clip-rule="evenodd" d="M129.215 74.4898C140.107 31.6775 179.066 0 225.454 0C260.25 0 290.866 17.8232 308.592 44.8H337.619C355.652 26.3753 380.847 14.9333 408.727 14.9333C449.603 14.9333 484.71 39.5293 499.93 74.6667H524.231C539.459 65.2024 557.452 59.7333 576.727 59.7333C617.604 59.7333 652.71 84.3293 667.929 119.467H734.014C734.578 119.467 735.107 119.618 735.562 119.882C738.581 119.607 741.637 119.467 744.726 119.467C799.554 119.467 843.998 163.715 843.998 218.298V514.65L844 515.2L843.998 515.749V520.018C843.998 521.826 843.949 523.626 843.851 525.418C837.878 731.005 652.191 896 423.999 896C192.04 896 4 725.51 4 515.2C4 413.684 47.8133 321.445 119.231 253.181C119.053 352.149 120.732 454.465 128.472 452.709C149.197 448.005 133.004 141.469 129.215 74.4898Z"/>
</mask>
<path fill-rule="evenodd" clip-rule="evenodd" d="M129.215 74.4898C140.107 31.6775 179.066 0 225.454 0C260.25 0 290.866 17.8232 308.592 44.8H337.619C355.652 26.3753 380.847 14.9333 408.727 14.9333C449.603 14.9333 484.71 39.5293 499.93 74.6667H524.231C539.459 65.2024 557.452 59.7333 576.727 59.7333C617.604 59.7333 652.71 84.3293 667.929 119.467H734.014C734.578 119.467 735.107 119.618 735.562 119.882C738.581 119.607 741.637 119.467 744.726 119.467C799.554 119.467 843.998 163.715 843.998 218.298V514.65L844 515.2L843.998 515.749V520.018C843.998 521.826 843.949 523.626 843.851 525.418C837.878 731.005 652.191 896 423.999 896C192.04 896 4 725.51 4 515.2C4 413.684 47.8133 321.445 119.231 253.181C119.053 352.149 120.732 454.465 128.472 452.709C149.197 448.005 133.004 141.469 129.215 74.4898Z" fill="url(#paint0_linear_714_82)"/>
<path fill-rule="evenodd" clip-rule="evenodd" d="M129.215 74.4898C140.107 31.6775 179.066 0 225.454 0C260.25 0 290.866 17.8232 308.592 44.8H337.619C355.652 26.3753 380.847 14.9333 408.727 14.9333C449.603 14.9333 484.71 39.5293 499.93 74.6667H524.231C539.459 65.2024 557.452 59.7333 576.727 59.7333C617.604 59.7333 652.71 84.3293 667.929 119.467H734.014C734.578 119.467 735.107 119.618 735.562 119.882C738.581 119.607 741.637 119.467 744.726 119.467C799.554 119.467 843.998 163.715 843.998 218.298V514.65L844 515.2L843.998 515.749V520.018C843.998 521.826 843.949 523.626 843.851 525.418C837.878 731.005 652.191 896 423.999 896C192.04 896 4 725.51 4 515.2C4 413.684 47.8133 321.445 119.231 253.181C119.053 352.149 120.732 454.465 128.472 452.709C149.197 448.005 133.004 141.469 129.215 74.4898Z" stroke="url(#paint1_linear_714_82)" stroke-width="6" mask="url(#path-1-inside-1_714_82)"/>
</g>
<defs>
<filter id="filter0_d_714_82" x="0" y="0" width="848" height="904" filterUnits="userSpaceOnUse" color-interpolation-filters="sRGB">
<feFlood flood-opacity="0" result="BackgroundImageFix"/>
<feColorMatrix in="SourceAlpha" type="matrix" values="0 0 0 0 0 0 0 0 0 0 0 0 0 0 0 0 0 0 127 0" result="hardAlpha"/>
<feOffset dy="4"/>
<feGaussianBlur stdDeviation="2"/>
<feComposite in2="hardAlpha" operator="out"/>
<feColorMatrix type="matrix" values="0 0 0 0 0 0 0 0 0 0 0 0 0 0 0 0 0 0 0.25 0"/>
<feBlend mode="normal" in2="BackgroundImageFix" result="effect1_dropShadow_714_82"/>
<feBlend mode="normal" in="SourceGraphic" in2="effect1_dropShadow_714_82" result="shape"/>
</filter>
<linearGradient id="paint0_linear_714_82" x1="83.8182" y1="186.851" x2="789.444" y2="653.288" gradientUnits="userSpaceOnUse">
<stop stop-color="#C03028"/>
<stop offset="0.442708" stop-color="#D67873"/>
<stop offset="0.84375" stop-color="#7D1F1A"/>
</linearGradient>
<linearGradient id="paint1_linear_714_82" x1="134.345" y1="108.606" x2="583.793" y2="827.82" gradientUnits="userSpaceOnUse">
<stop stop-color="#7D1F1A"/>
<stop offset="1" stop-color="#D67873" stop-opacity="0"/>
</linearGradient>
</defs>
</svg>
