<svg width="795" height="908" viewBox="0 0 795 908" fill="none" xmlns="http://www.w3.org/2000/svg">
<g filter="url(#filter0_d_714_73)">
<mask id="path-1-inside-1_714_73" fill="white">
<path fill-rule="evenodd" clip-rule="evenodd" d="M440.908 448.033C447.003 444.313 452.175 436.519 456.346 427.857C511.236 450.304 549.808 503.348 549.808 565.207C549.808 647.385 481.734 714.004 397.762 714.004C363.291 714.004 331.499 702.777 305.996 683.858C297.63 679.894 290.747 676.086 285.115 672.97C276.379 668.138 270.65 664.968 267.063 665.464C256.577 666.911 259.621 676.564 262.388 685.334C264.266 691.291 266.018 696.841 263.307 699.129C260.472 701.527 251.287 692.764 240.555 682.527C225.946 668.589 208.47 651.916 200.229 656.924C193.713 660.885 200.039 671.627 207.783 684.775L208.358 685.751C211.629 691.309 215.42 696.969 218.879 702.134C225.911 712.63 231.575 721.088 228.741 722.519C225.315 724.249 201.448 708.129 181.335 685.751C173.572 677.115 166.053 667.753 159.065 659.053V659.051C143.769 640.007 131.025 624.143 123.872 626.022C115.266 628.283 121.776 646.044 131.342 663.135C135.814 671.128 141.076 679.266 145.631 686.313V686.315C152.716 697.273 158.093 705.589 156.143 706.613C153.512 707.989 130.356 685.396 114.629 656.924C105.287 640.013 97.4432 621.323 91.0929 606.194C84.2062 589.785 79.0764 577.563 75.6985 576.332C63.9623 572.059 63.9623 596.002 68.6694 630.559C69.2833 635.068 70.1977 639.796 71.3236 644.611C116.971 792.396 257.197 900 423.103 900C626.037 900 790.547 739.005 790.547 540.408C790.547 351.387 641.523 196.43 452.182 181.923C452.421 173.019 457.066 155.361 457.066 155.361C457.066 155.361 490.492 74.4384 492.259 57.1463C492.375 55.9986 492.514 54.7515 492.663 53.4233C494.745 34.7395 498.619 0 468.75 0C452.799 0 445.382 11.8734 436.899 25.4529V25.4531C433.642 30.6663 430.226 36.131 426.112 41.2717C396.479 78.2993 346.651 124.539 318.397 149.173C258.678 201.241 200.087 244.034 165.914 268.991L165.913 268.993C150.371 280.343 139.881 288.005 136.635 291.171C112.17 315.035 24.4518 473.354 24.4518 473.354C24.4518 473.354 -3.91538 524.148 6.16749 534.451C16.2504 544.751 40.5652 542.391 40.5652 542.391C40.5652 542.391 367.217 467.408 396.462 461.494C404.335 459.902 409.894 458.982 414.161 458.278C425.747 456.363 427.827 456.019 440.908 448.033ZM209.953 351.675C192.419 368.351 163.339 408.157 163.339 408.157C163.339 408.157 217.384 411.488 247.148 383.179C276.915 354.867 270.095 306.621 270.095 306.621C270.095 306.621 227.485 334.999 209.953 351.675Z"/>
</mask>
<path fill-rule="evenodd" clip-rule="evenodd" d="M440.908 448.033C447.003 444.313 452.175 436.519 456.346 427.857C511.236 450.304 549.808 503.348 549.808 565.207C549.808 647.385 481.734 714.004 397.762 714.004C363.291 714.004 331.499 702.777 305.996 683.858C297.63 679.894 290.747 676.086 285.115 672.97C276.379 668.138 270.65 664.968 267.063 665.464C256.577 666.911 259.621 676.564 262.388 685.334C264.266 691.291 266.018 696.841 263.307 699.129C260.472 701.527 251.287 692.764 240.555 682.527C225.946 668.589 208.47 651.916 200.229 656.924C193.713 660.885 200.039 671.627 207.783 684.775L208.358 685.751C211.629 691.309 215.42 696.969 218.879 702.134C225.911 712.63 231.575 721.088 228.741 722.519C225.315 724.249 201.448 708.129 181.335 685.751C173.572 677.115 166.053 667.753 159.065 659.053V659.051C143.769 640.007 131.025 624.143 123.872 626.022C115.266 628.283 121.776 646.044 131.342 663.135C135.814 671.128 141.076 679.266 145.631 686.313V686.315C152.716 697.273 158.093 705.589 156.143 706.613C153.512 707.989 130.356 685.396 114.629 656.924C105.287 640.013 97.4432 621.323 91.0929 606.194C84.2062 589.785 79.0764 577.563 75.6985 576.332C63.9623 572.059 63.9623 596.002 68.6694 630.559C69.2833 635.068 70.1977 639.796 71.3236 644.611C116.971 792.396 257.197 900 423.103 900C626.037 900 790.547 739.005 790.547 540.408C790.547 351.387 641.523 196.43 452.182 181.923C452.421 173.019 457.066 155.361 457.066 155.361C457.066 155.361 490.492 74.4384 492.259 57.1463C492.375 55.9986 492.514 54.7515 492.663 53.4233C494.745 34.7395 498.619 0 468.75 0C452.799 0 445.382 11.8734 436.899 25.4529V25.4531C433.642 30.6663 430.226 36.131 426.112 41.2717C396.479 78.2993 346.651 124.539 318.397 149.173C258.678 201.241 200.087 244.034 165.914 268.991L165.913 268.993C150.371 280.343 139.881 288.005 136.635 291.171C112.17 315.035 24.4518 473.354 24.4518 473.354C24.4518 473.354 -3.91538 524.148 6.16749 534.451C16.2504 544.751 40.5652 542.391 40.5652 542.391C40.5652 542.391 367.217 467.408 396.462 461.494C404.335 459.902 409.894 458.982 414.161 458.278C425.747 456.363 427.827 456.019 440.908 448.033ZM209.953 351.675C192.419 368.351 163.339 408.157 163.339 408.157C163.339 408.157 217.384 411.488 247.148 383.179C276.915 354.867 270.095 306.621 270.095 306.621C270.095 306.621 227.485 334.999 209.953 351.675Z" fill="url(#paint0_linear_714_73)"/>
<path fill-rule="evenodd" clip-rule="evenodd" d="M440.908 448.033C447.003 444.313 452.175 436.519 456.346 427.857C511.236 450.304 549.808 503.348 549.808 565.207C549.808 647.385 481.734 714.004 397.762 714.004C363.291 714.004 331.499 702.777 305.996 683.858C297.63 679.894 290.747 676.086 285.115 672.97C276.379 668.138 270.65 664.968 267.063 665.464C256.577 666.911 259.621 676.564 262.388 685.334C264.266 691.291 266.018 696.841 263.307 699.129C260.472 701.527 251.287 692.764 240.555 682.527C225.946 668.589 208.47 651.916 200.229 656.924C193.713 660.885 200.039 671.627 207.783 684.775L208.358 685.751C211.629 691.309 215.42 696.969 218.879 702.134C225.911 712.63 231.575 721.088 228.741 722.519C225.315 724.249 201.448 708.129 181.335 685.751C173.572 677.115 166.053 667.753 159.065 659.053V659.051C143.769 640.007 131.025 624.143 123.872 626.022C115.266 628.283 121.776 646.044 131.342 663.135C135.814 671.128 141.076 679.266 145.631 686.313V686.315C152.716 697.273 158.093 705.589 156.143 706.613C153.512 707.989 130.356 685.396 114.629 656.924C105.287 640.013 97.4432 621.323 91.0929 606.194C84.2062 589.785 79.0764 577.563 75.6985 576.332C63.9623 572.059 63.9623 596.002 68.6694 630.559C69.2833 635.068 70.1977 639.796 71.3236 644.611C116.971 792.396 257.197 900 423.103 900C626.037 900 790.547 739.005 790.547 540.408C790.547 351.387 641.523 196.43 452.182 181.923C452.421 173.019 457.066 155.361 457.066 155.361C457.066 155.361 490.492 74.4384 492.259 57.1463C492.375 55.9986 492.514 54.7515 492.663 53.4233C494.745 34.7395 498.619 0 468.75 0C452.799 0 445.382 11.8734 436.899 25.4529V25.4531C433.642 30.6663 430.226 36.131 426.112 41.2717C396.479 78.2993 346.651 124.539 318.397 149.173C258.678 201.241 200.087 244.034 165.914 268.991L165.913 268.993C150.371 280.343 139.881 288.005 136.635 291.171C112.17 315.035 24.4518 473.354 24.4518 473.354C24.4518 473.354 -3.91538 524.148 6.16749 534.451C16.2504 544.751 40.5652 542.391 40.5652 542.391C40.5652 542.391 367.217 467.408 396.462 461.494C404.335 459.902 409.894 458.982 414.161 458.278C425.747 456.363 427.827 456.019 440.908 448.033ZM209.953 351.675C192.419 368.351 163.339 408.157 163.339 408.157C163.339 408.157 217.384 411.488 247.148 383.179C276.915 354.867 270.095 306.621 270.095 306.621C270.095 306.621 227.485 334.999 209.953 351.675Z" stroke="url(#paint1_linear_714_73)" stroke-width="6" mask="url(#path-1-inside-1_714_73)"/>
</g>
<defs>
<filter id="filter0_d_714_73" x="0" y="0" width="794.547" height="908" filterUnits="userSpaceOnUse" color-interpolation-filters="sRGB">
<feFlood flood-opacity="0" result="BackgroundImageFix"/>
<feColorMatrix in="SourceAlpha" type="matrix" values="0 0 0 0 0 0 0 0 0 0 0 0 0 0 0 0 0 0 127 0" result="hardAlpha"/>
<feOffset dy="4"/>
<feGaussianBlur stdDeviation="2"/>
<feComposite in2="hardAlpha" operator="out"/>
<feColorMatrix type="matrix" values="0 0 0 0 0 0 0 0 0 0 0 0 0 0 0 0 0 0 0.25 0"/>
<feBlend mode="normal" in2="BackgroundImageFix" result="effect1_dropShadow_714_73"/>
<feBlend mode="normal" in="SourceGraphic" in2="effect1_dropShadow_714_73" result="shape"/>
</filter>
<linearGradient id="paint0_linear_714_73" x1="78.739" y1="187.685" x2="766.873" y2="611.721" gradientUnits="userSpaceOnUse">
<stop stop-color="#7038F8"/>
<stop offset="0.442708" stop-color="#A27DFA"/>
<stop offset="0.84375" stop-color="#4924A1"/>
</linearGradient>
<linearGradient id="paint1_linear_714_73" x1="126.05" y1="109.091" x2="590.668" y2="802.173" gradientUnits="userSpaceOnUse">
<stop stop-color="#4924A1"/>
<stop offset="1" stop-color="#A27DFA" stop-opacity="0"/>
</linearGradient>
</defs>
</svg>
