<svg width="908" height="908" viewBox="0 0 908 908" fill="none" xmlns="http://www.w3.org/2000/svg">
<g filter="url(#filter0_d_714_80)">
<mask id="path-1-inside-1_714_80" fill="white">
<path fill-rule="evenodd" clip-rule="evenodd" d="M184.579 713.657L328.939 671.798L453.625 899.779C453.788 900.074 454.212 900.074 454.374 899.779L579.059 671.798L723.421 713.657C723.745 713.75 724.045 713.449 723.948 713.126L682.083 571.623L903.777 450.374C904.074 450.212 904.074 449.788 903.779 449.626L680.257 327.377L723.948 179.698C724.045 179.375 723.745 179.074 723.421 179.167L575.674 222.009L454.374 0.221822C454.212 -0.0739355 453.788 -0.0739437 453.627 0.221815L332.326 222.009L184.579 179.167C184.256 179.074 183.955 179.375 184.052 179.698L227.744 327.377L4.22182 449.626C3.92606 449.788 3.92606 450.212 4.22182 450.374L225.915 571.623L184.052 713.126C183.955 713.449 184.256 713.75 184.579 713.657ZM296.601 451.555L398.872 507.489L454.806 609.758C454.968 610.055 455.393 610.055 455.555 609.758L511.489 507.489L613.758 451.555C614.053 451.393 614.053 450.968 613.758 450.806L511.489 394.872L455.555 292.603C455.393 292.306 454.968 292.306 454.806 292.603L398.872 394.872L296.601 450.806C296.306 450.968 296.306 451.393 296.601 451.555Z"/>
</mask>
<path fill-rule="evenodd" clip-rule="evenodd" d="M184.579 713.657L328.939 671.798L453.625 899.779C453.788 900.074 454.212 900.074 454.374 899.779L579.059 671.798L723.421 713.657C723.745 713.75 724.045 713.449 723.948 713.126L682.083 571.623L903.777 450.374C904.074 450.212 904.074 449.788 903.779 449.626L680.257 327.377L723.948 179.698C724.045 179.375 723.745 179.074 723.421 179.167L575.674 222.009L454.374 0.221822C454.212 -0.0739355 453.788 -0.0739437 453.627 0.221815L332.326 222.009L184.579 179.167C184.256 179.074 183.955 179.375 184.052 179.698L227.744 327.377L4.22182 449.626C3.92606 449.788 3.92606 450.212 4.22182 450.374L225.915 571.623L184.052 713.126C183.955 713.449 184.256 713.75 184.579 713.657ZM296.601 451.555L398.872 507.489L454.806 609.758C454.968 610.055 455.393 610.055 455.555 609.758L511.489 507.489L613.758 451.555C614.053 451.393 614.053 450.968 613.758 450.806L511.489 394.872L455.555 292.603C455.393 292.306 454.968 292.306 454.806 292.603L398.872 394.872L296.601 450.806C296.306 450.968 296.306 451.393 296.601 451.555Z" fill="url(#paint0_linear_714_80)"/>
<path fill-rule="evenodd" clip-rule="evenodd" d="M184.579 713.657L328.939 671.798L453.625 899.779C453.788 900.074 454.212 900.074 454.374 899.779L579.059 671.798L723.421 713.657C723.745 713.75 724.045 713.449 723.948 713.126L682.083 571.623L903.777 450.374C904.074 450.212 904.074 449.788 903.779 449.626L680.257 327.377L723.948 179.698C724.045 179.375 723.745 179.074 723.421 179.167L575.674 222.009L454.374 0.221822C454.212 -0.0739355 453.788 -0.0739437 453.627 0.221815L332.326 222.009L184.579 179.167C184.256 179.074 183.955 179.375 184.052 179.698L227.744 327.377L4.22182 449.626C3.92606 449.788 3.92606 450.212 4.22182 450.374L225.915 571.623L184.052 713.126C183.955 713.449 184.256 713.75 184.579 713.657ZM296.601 451.555L398.872 507.489L454.806 609.758C454.968 610.055 455.393 610.055 455.555 609.758L511.489 507.489L613.758 451.555C614.053 451.393 614.053 450.968 613.758 450.806L511.489 394.872L455.555 292.603C455.393 292.306 454.968 292.306 454.806 292.603L398.872 394.872L296.601 450.806C296.306 450.968 296.306 451.393 296.601 451.555Z" stroke="url(#paint1_linear_714_80)" stroke-width="6" mask="url(#path-1-inside-1_714_80)"/>
</g>
<defs>
<filter id="filter0_d_714_80" x="0" y="0" width="908" height="908" filterUnits="userSpaceOnUse" color-interpolation-filters="sRGB">
<feFlood flood-opacity="0" result="BackgroundImageFix"/>
<feColorMatrix in="SourceAlpha" type="matrix" values="0 0 0 0 0 0 0 0 0 0 0 0 0 0 0 0 0 0 127 0" result="hardAlpha"/>
<feOffset dy="4"/>
<feGaussianBlur stdDeviation="2"/>
<feComposite in2="hardAlpha" operator="out"/>
<feColorMatrix type="matrix" values="0 0 0 0 0 0 0 0 0 0 0 0 0 0 0 0 0 0 0.25 0"/>
<feBlend mode="normal" in2="BackgroundImageFix" result="effect1_dropShadow_714_80"/>
<feBlend mode="normal" in="SourceGraphic" in2="effect1_dropShadow_714_80" result="shape"/>
</filter>
<linearGradient id="paint0_linear_714_80" x1="89.5195" y1="187.685" x2="815.146" y2="699.32" gradientUnits="userSpaceOnUse">
<stop stop-color="#EE99AC"/>
<stop offset="0.442708" stop-color="#F4BDC9"/>
<stop offset="0.84375" stop-color="#9B6470"/>
</linearGradient>
<linearGradient id="paint1_linear_714_80" x1="143.655" y1="109.091" x2="581.794" y2="856.949" gradientUnits="userSpaceOnUse">
<stop stop-color="#9B6470"/>
<stop offset="0.930208" stop-color="#EE99AC" stop-opacity="0"/>
</linearGradient>
</defs>
</svg>
