<svg width="25" height="26" viewBox="0 0 25 26" fill="none" xmlns="http://www.w3.org/2000/svg">
<path d="M11.4951 3.17785L11.3461 3.25239L11.2715 3.40146L10.9375 4.06954L10.6035 3.40146L10.5289 3.25239L10.3799 3.17785L9.71177 2.8438L10.3799 2.50974L10.5289 2.43521L10.6035 2.28613L10.9375 1.61805L11.2715 2.28613L11.3461 2.43521L11.4951 2.50974L12.1632 2.8438L11.4951 3.17785ZM4.9844 5.26139L4.83531 5.33593L4.76078 5.48503L3.90625 7.19443L3.05172 5.48503L2.97719 5.33593L2.8281 5.26139L1.11802 4.40633L2.8281 3.55127L2.97719 3.47672L3.05172 3.32762L3.90625 1.61822L4.76078 3.32762L4.83531 3.47672L4.9844 3.55127L6.69448 4.40633L4.9844 5.26139ZM20.0156 17.614L20.1647 17.5395L20.2392 17.3904L21.0938 15.681L21.9483 17.3904L22.0228 17.5395L22.1719 17.614L23.882 18.4691L22.1719 19.3242L22.0228 19.3987L21.9483 19.5478L21.0938 21.2572L20.2392 19.5478L20.1647 19.3987L20.0156 19.3242L18.3055 18.4691L20.0156 17.614ZM24.1884 5.45471L24.1886 5.45486C24.6036 5.86952 24.6034 6.54238 24.1887 6.95636L24.1884 6.95665L6.45699 24.6889C6.24946 24.8965 5.97844 25 5.70557 25C5.43326 25 5.16222 24.8965 4.95463 24.6889L0.811565 20.5458L0.811424 20.5456C0.396596 20.1311 0.396393 19.4585 0.811565 19.0434L18.543 1.31157L18.5433 1.31128C18.7507 1.1035 19.0216 1 19.2944 1C19.5673 1 19.838 1.10354 20.0448 1.311L20.0454 1.31157L24.1884 5.45471ZM17.1977 10.7883L17.5513 11.1419L17.9048 10.7883L22.1333 6.55972L22.4869 6.20617L22.1333 5.85262L19.6475 3.36673L19.2939 3.01316L18.9404 3.36673L14.7119 7.59533L14.3583 7.94888L14.7119 8.30243L17.1977 10.7883Z" fill="url(#paint0_linear)" stroke="url(#paint1_linear)"/>
<defs>
<linearGradient id="paint0_linear" x1="12.5" y1="0.5" x2="12.5" y2="25.5" gradientUnits="userSpaceOnUse">
<stop stop-color="#FCDDEC"/>
<stop offset="0.317708" stop-color="#F1E3EA"/>
<stop offset="1" stop-color="#F0519E"/>
</linearGradient>
<linearGradient id="paint1_linear" x1="3.87931" y1="3.5303" x2="16.0498" y2="24.3041" gradientUnits="userSpaceOnUse">
<stop stop-color="#FF38DF"/>
<stop offset="1" stop-color="#C40199" stop-opacity="0"/>
</linearGradient>
</defs>
</svg>
