<svg width="25" height="23" viewBox="0 0 25 23" fill="none" xmlns="http://www.w3.org/2000/svg">
<path d="M25 13.5241C25 13.0129 24.5855 12.5984 24.0743 12.5984H20.9523V9.30315L23.9664 6.28913C24.3279 5.92761 24.3279 5.34148 23.9664 4.97996C23.6049 4.61843 23.0187 4.61843 22.6572 4.97996L20.9523 6.68479V6.61169C20.9523 5.38 19.9539 4.38157 18.7222 4.38157C18.59 4.38157 13.5511 4.38157 13.4257 4.38157C13.2553 4.38157 13.1171 4.51975 13.1171 4.69016V22.4706C13.1171 22.6537 13.276 22.7983 13.458 22.7777C16.0183 22.4875 18.2353 21.049 19.5802 18.9912L22.6572 22.0682C23.5184 22.9295 24.8409 21.6335 23.9664 20.759L20.4521 17.2448C20.7681 16.3706 20.9435 15.4298 20.9516 14.4498H24.0743C24.5855 14.4498 25 14.0353 25 13.5241Z" fill="url(#paint0_radial_420_363)"/>
<path d="M8.15508 3.14729H16.8449C17.082 3.14729 17.2305 2.89094 17.1131 2.68499C15.0727 -0.893579 9.92896 -0.896411 7.88696 2.68499C7.76948 2.89094 7.91797 3.14729 8.15508 3.14729Z" fill="url(#paint1_radial_420_363)"/>
<path d="M11.5743 4.38157C11.4595 4.38157 6.35884 4.38157 6.27778 4.38157C5.04614 4.38157 4.04766 5.38005 4.04766 6.61169V6.68479L2.34282 4.97996C1.98135 4.61843 1.39517 4.61843 1.03364 4.97996C0.672119 5.34148 0.672119 5.92761 1.03364 6.28913L4.04766 9.30315V12.5984H0.925732C0.414502 12.5984 0 13.0129 0 13.5241C0 14.0353 0.414502 14.4498 0.925732 14.4498H4.04849C4.05649 15.4299 4.23188 16.3706 4.5479 17.2448L1.03369 20.759C0.672168 21.1206 0.672168 21.7067 1.03369 22.0682C1.39517 22.4297 1.98135 22.4298 2.34287 22.0682L5.41973 18.9913C6.7647 21.049 8.98174 22.4876 11.5419 22.7777C11.7239 22.7983 11.8828 22.6538 11.8828 22.4706V4.69016C11.8829 4.5197 11.7447 4.38157 11.5743 4.38157Z" fill="url(#paint2_radial_420_363)"/>
<defs>
<radialGradient id="paint0_radial_420_363" cx="0" cy="0" r="1" gradientUnits="userSpaceOnUse" gradientTransform="translate(12) rotate(88.7426) scale(22.7851 25.006)">
<stop offset="0.109375" stop-color="#AFC111"/>
<stop offset="0.479167" stop-color="#CFDE59"/>
<stop offset="1" stop-color="#6D7815"/>
</radialGradient>
<radialGradient id="paint1_radial_420_363" cx="0" cy="0" r="1" gradientUnits="userSpaceOnUse" gradientTransform="translate(12) rotate(88.7426) scale(22.7851 25.006)">
<stop offset="0.109375" stop-color="#AFC111"/>
<stop offset="0.479167" stop-color="#CFDE59"/>
<stop offset="1" stop-color="#6D7815"/>
</radialGradient>
<radialGradient id="paint2_radial_420_363" cx="0" cy="0" r="1" gradientUnits="userSpaceOnUse" gradientTransform="translate(12) rotate(88.7426) scale(22.7851 25.006)">
<stop offset="0.109375" stop-color="#AFC111"/>
<stop offset="0.479167" stop-color="#CFDE59"/>
<stop offset="1" stop-color="#6D7815"/>
</radialGradient>
</defs>
</svg>
