<svg width="678" height="908" viewBox="0 0 678 908" fill="none" xmlns="http://www.w3.org/2000/svg">
<g filter="url(#filter0_d_714_114)">
<mask id="path-1-inside-1_714_114" fill="white">
<path fill-rule="evenodd" clip-rule="evenodd" d="M674 609.136C674 769.775 524.016 900 339 900C153.984 900 4 769.775 4 609.136C4 452.901 320.879 23.8157 338.258 0.400465C338.655 -0.133492 339.347 -0.133487 339.742 0.40047C357.121 23.8157 674 452.901 674 609.136ZM283.157 806.751C113.162 774.334 142.251 610.217 142.251 610.217C142.251 610.217 188.671 709.288 301.32 741.38C413.967 773.47 550.1 726.405 550.1 726.405C550.1 726.405 453.152 839.166 283.157 806.751Z"/>
</mask>
<path fill-rule="evenodd" clip-rule="evenodd" d="M674 609.136C674 769.775 524.016 900 339 900C153.984 900 4 769.775 4 609.136C4 452.901 320.879 23.8157 338.258 0.400465C338.655 -0.133492 339.347 -0.133487 339.742 0.40047C357.121 23.8157 674 452.901 674 609.136ZM283.157 806.751C113.162 774.334 142.251 610.217 142.251 610.217C142.251 610.217 188.671 709.288 301.32 741.38C413.967 773.47 550.1 726.405 550.1 726.405C550.1 726.405 453.152 839.166 283.157 806.751Z" fill="url(#paint0_linear_714_114)"/>
<path fill-rule="evenodd" clip-rule="evenodd" d="M674 609.136C674 769.775 524.016 900 339 900C153.984 900 4 769.775 4 609.136C4 452.901 320.879 23.8157 338.258 0.400465C338.655 -0.133492 339.347 -0.133487 339.742 0.40047C357.121 23.8157 674 452.901 674 609.136ZM283.157 806.751C113.162 774.334 142.251 610.217 142.251 610.217C142.251 610.217 188.671 709.288 301.32 741.38C413.967 773.47 550.1 726.405 550.1 726.405C550.1 726.405 453.152 839.166 283.157 806.751Z" stroke="url(#paint1_linear_714_114)" stroke-width="6" mask="url(#path-1-inside-1_714_114)"/>
</g>
<defs>
<filter id="filter0_d_714_114" x="0" y="0" width="678" height="908" filterUnits="userSpaceOnUse" color-interpolation-filters="sRGB">
<feFlood flood-opacity="0" result="BackgroundImageFix"/>
<feColorMatrix in="SourceAlpha" type="matrix" values="0 0 0 0 0 0 0 0 0 0 0 0 0 0 0 0 0 0 127 0" result="hardAlpha"/>
<feOffset dy="4"/>
<feGaussianBlur stdDeviation="2"/>
<feComposite in2="hardAlpha" operator="out"/>
<feColorMatrix type="matrix" values="0 0 0 0 0 0 0 0 0 0 0 0 0 0 0 0 0 0 0.25 0"/>
<feBlend mode="normal" in2="BackgroundImageFix" result="effect1_dropShadow_714_114"/>
<feBlend mode="normal" in="SourceGraphic" in2="effect1_dropShadow_714_114" result="shape"/>
</filter>
<linearGradient id="paint0_linear_714_114" x1="67.6645" y1="187.685" x2="701.716" y2="520.501" gradientUnits="userSpaceOnUse">
<stop stop-color="#6890F0"/>
<stop offset="0.442708" stop-color="#9DB7F5"/>
<stop offset="0.84375" stop-color="#445E9C"/>
</linearGradient>
<linearGradient id="paint1_linear_714_114" x1="107.966" y1="109.091" x2="596.163" y2="729.438" gradientUnits="userSpaceOnUse">
<stop stop-color="#445E9C"/>
<stop offset="1" stop-color="#9DB7F5" stop-opacity="0"/>
</linearGradient>
</defs>
</svg>
