<svg width="10" height="13" viewBox="0 0 12 15" fill="none" xmlns="http://www.w3.org/2000/svg">
<path d="M10.0085 6.03574C8.29685 4.13255 6.67216 2.84729 6.52716 0.326184C6.52716 0.252034 6.49814 0.202601 6.44012 0.153168C6.41111 0.0295843 6.26605 -0.0445657 6.121 0.0295843C5.94693 0.0295843 5.80192 0.128451 5.80192 0.301468C2.14648 3.66294 -4.03294 12.1902 3.74211 14.6371C7.25249 15.7494 11.227 14.2417 11.9233 10.979C12.3004 9.22419 11.227 7.37048 10.0085 6.03574ZM3.77107 13.0553C2.92974 12.6351 2.40754 11.7948 2.14644 11.0532C2.03039 10.6825 1.97237 10.3118 2.00138 9.94101C2.17545 9.29838 2.40754 8.68042 2.66864 8.06254C2.8137 8.60627 3.10381 9.15008 3.50997 9.54551C4.43833 10.4107 6.32408 10.9297 6.84628 12.0172C7.16541 12.6845 5.91792 13.253 5.39571 13.4013C4.84449 13.5496 4.23521 13.3025 3.77107 13.0553Z" fill="url(#paint0_radial_414_66)"/>
<defs>
<radialGradient id="paint0_radial_414_66" cx="0" cy="0" r="1" gradientUnits="userSpaceOnUse" gradientTransform="translate(6 7.5) rotate(90) scale(7.5 6)">
<stop stop-color="#889DCF"/>
<stop offset="0.125" stop-color="#7896E0"/>
<stop offset="0.375" stop-color="#6890F0"/>
<stop offset="0.3751" stop-color="#809AD8"/>
<stop offset="0.630208" stop-color="#445E9C"/>
<stop offset="1" stop-color="#2C3C62"/>
</radialGradient>
</defs>
</svg>
