<?xml version="1.0" encoding="UTF-8" standalone="no"?>
<svg
   width="50"
   height="50"
   viewBox="0 0 50 50"
   fill="none"
   version="1.1"
   id="svg988"
   sodipodi:docname="type_c21_fighting.svg"
   inkscape:version="1.1.2 (b8e25be833, 2022-02-05)"
   xmlns:inkscape="http://www.inkscape.org/namespaces/inkscape"
   xmlns:sodipodi="http://sodipodi.sourceforge.net/DTD/sodipodi-0.dtd"
   xmlns="http://www.w3.org/2000/svg"
   xmlns:svg="http://www.w3.org/2000/svg">
  <sodipodi:namedview
     id="namedview990"
     pagecolor="#ffffff"
     bordercolor="#cccccc"
     borderopacity="1"
     inkscape:pageshadow="0"
     inkscape:pageopacity="1"
     inkscape:pagecheckerboard="0"
     showgrid="false"
     inkscape:zoom="1.0804455"
     inkscape:cx="-152.252"
     inkscape:cy="25.452463"
     inkscape:window-width="3840"
     inkscape:window-height="2071"
     inkscape:window-x="-9"
     inkscape:window-y="-9"
     inkscape:window-maximized="1"
     inkscape:current-layer="svg988" />
  <g
     filter="url(#filter0_d_719_99)"
     id="g885"
     transform="scale(0.06188119)">
    <circle
       cx="404"
       cy="400"
       r="400"
       fill="url(#paint0_linear_719_99)"
       id="circle881"
       style="fill:url(#paint0_linear_719_99)" />
    <circle
       cx="404"
       cy="400"
       r="385"
       stroke="url(#paint1_linear_719_99)"
       stroke-width="30"
       id="circle883"
       style="stroke:url(#paint1_linear_719_99)" />
  </g>
  <g
     filter="url(#filter1_d_719_99)"
     id="g891"
     transform="scale(0.06188119)">
    <circle
       cx="407"
       cy="402"
       r="300"
       fill="#ffffff"
       id="circle887" />
    <circle
       cx="407"
       cy="402"
       r="300"
       stroke="url(#paint2_linear_719_99)"
       stroke-width="30"
       id="circle889"
       style="stroke:url(#paint2_linear_719_99)" />
  </g>
  <g
     filter="url(#filter2_d_719_99)"
     id="g900"
     transform="scale(0.06188119)">
    <mask
       id="path-4-inside-1_719_99"
       fill="#ffffff">
      <path
         fill-rule="evenodd"
         clip-rule="evenodd"
         d="M 275.9,235.254 C 280.762,216.142 298.154,202 318.864,202 c 15.533,0 29.201,7.957 37.114,20 h 12.959 c 8.05,-8.225 19.298,-13.333 31.745,-13.333 18.248,0 33.921,10.98 40.715,26.666 h 10.849 c 6.798,-4.225 14.831,-6.666 23.435,-6.666 18.25,0 33.922,10.98 40.716,26.666 h 29.502 c 0.252,0 0.488,0.068 0.691,0.186 1.348,-0.123 2.712,-0.186 4.091,-0.186 24.477,0 44.318,19.754 44.318,44.122 v 132.3 L 595,432 l -10e-4,0.245 v 1.906 c 0,0.807 -0.022,1.611 -0.066,2.411 C 592.267,528.341 509.371,602 407.5,602 303.946,602 220,525.888 220,432 c 0,-45.32 19.559,-86.498 51.442,-116.973 -0.079,44.182 0.67,89.859 4.126,89.075 9.252,-2.1 2.023,-138.946 0.332,-168.848 z"
         id="path893" />
    </mask>
    <path
       fill-rule="evenodd"
       clip-rule="evenodd"
       d="M 275.9,235.254 C 280.762,216.142 298.154,202 318.864,202 c 15.533,0 29.201,7.957 37.114,20 h 12.959 c 8.05,-8.225 19.298,-13.333 31.745,-13.333 18.248,0 33.921,10.98 40.715,26.666 h 10.849 c 6.798,-4.225 14.831,-6.666 23.435,-6.666 18.25,0 33.922,10.98 40.716,26.666 h 29.502 c 0.252,0 0.488,0.068 0.691,0.186 1.348,-0.123 2.712,-0.186 4.091,-0.186 24.477,0 44.318,19.754 44.318,44.122 v 132.3 L 595,432 l -10e-4,0.245 v 1.906 c 0,0.807 -0.022,1.611 -0.066,2.411 C 592.267,528.341 509.371,602 407.5,602 303.946,602 220,525.888 220,432 c 0,-45.32 19.559,-86.498 51.442,-116.973 -0.079,44.182 0.67,89.859 4.126,89.075 9.252,-2.1 2.023,-138.946 0.332,-168.848 z"
       fill="url(#paint3_linear_719_99)"
       id="path896"
       style="fill:url(#paint3_linear_719_99)" />
    <path
       fill-rule="evenodd"
       clip-rule="evenodd"
       d="M 275.9,235.254 C 280.762,216.142 298.154,202 318.864,202 c 15.533,0 29.201,7.957 37.114,20 h 12.959 c 8.05,-8.225 19.298,-13.333 31.745,-13.333 18.248,0 33.921,10.98 40.715,26.666 h 10.849 c 6.798,-4.225 14.831,-6.666 23.435,-6.666 18.25,0 33.922,10.98 40.716,26.666 h 29.502 c 0.252,0 0.488,0.068 0.691,0.186 1.348,-0.123 2.712,-0.186 4.091,-0.186 24.477,0 44.318,19.754 44.318,44.122 v 132.3 L 595,432 l -10e-4,0.245 v 1.906 c 0,0.807 -0.022,1.611 -0.066,2.411 C 592.267,528.341 509.371,602 407.5,602 303.946,602 220,525.888 220,432 c 0,-45.32 19.559,-86.498 51.442,-116.973 -0.079,44.182 0.67,89.859 4.126,89.075 9.252,-2.1 2.023,-138.946 0.332,-168.848 z"
       stroke="url(#paint4_linear_719_99)"
       stroke-width="60"
       mask="url(#path-4-inside-1_719_99)"
       id="path898"
       style="stroke:url(#paint4_linear_719_99)" />
  </g>
  <defs
     id="defs986">
    <filter
       id="filter0_d_719_99"
       x="0"
       y="0"
       width="808"
       height="808"
       filterUnits="userSpaceOnUse"
       color-interpolation-filters="sRGB">
      <feFlood
         flood-opacity="0"
         result="BackgroundImageFix"
         id="feFlood902" />
      <feColorMatrix
         in="SourceAlpha"
         type="matrix"
         values="0 0 0 0 0 0 0 0 0 0 0 0 0 0 0 0 0 0 127 0"
         result="hardAlpha"
         id="feColorMatrix904" />
      <feOffset
         dy="4"
         id="feOffset906" />
      <feGaussianBlur
         stdDeviation="2"
         id="feGaussianBlur908" />
      <feComposite
         in2="hardAlpha"
         operator="out"
         id="feComposite910" />
      <feColorMatrix
         type="matrix"
         values="0 0 0 0 0 0 0 0 0 0 0 0 0 0 0 0 0 0 0.25 0"
         id="feColorMatrix912" />
      <feBlend
         mode="normal"
         in2="BackgroundImageFix"
         result="effect1_dropShadow_719_99"
         id="feBlend914" />
      <feBlend
         mode="normal"
         in="SourceGraphic"
         in2="effect1_dropShadow_719_99"
         result="shape"
         id="feBlend916" />
    </filter>
    <filter
       id="filter1_d_719_99"
       x="88"
       y="87"
       width="638"
       height="638"
       filterUnits="userSpaceOnUse"
       color-interpolation-filters="sRGB">
      <feFlood
         flood-opacity="0"
         result="BackgroundImageFix"
         id="feFlood919" />
      <feColorMatrix
         in="SourceAlpha"
         type="matrix"
         values="0 0 0 0 0 0 0 0 0 0 0 0 0 0 0 0 0 0 127 0"
         result="hardAlpha"
         id="feColorMatrix921" />
      <feOffset
         dy="4"
         id="feOffset923" />
      <feGaussianBlur
         stdDeviation="2"
         id="feGaussianBlur925" />
      <feComposite
         in2="hardAlpha"
         operator="out"
         id="feComposite927" />
      <feColorMatrix
         type="matrix"
         values="0 0 0 0 0 0 0 0 0 0 0 0 0 0 0 0 0 0 0.25 0"
         id="feColorMatrix929" />
      <feBlend
         mode="normal"
         in2="BackgroundImageFix"
         result="effect1_dropShadow_719_99"
         id="feBlend931" />
      <feBlend
         mode="normal"
         in="SourceGraphic"
         in2="effect1_dropShadow_719_99"
         result="shape"
         id="feBlend933" />
    </filter>
    <filter
       id="filter2_d_719_99"
       x="216"
       y="202"
       width="383"
       height="408"
       filterUnits="userSpaceOnUse"
       color-interpolation-filters="sRGB">
      <feFlood
         flood-opacity="0"
         result="BackgroundImageFix"
         id="feFlood936" />
      <feColorMatrix
         in="SourceAlpha"
         type="matrix"
         values="0 0 0 0 0 0 0 0 0 0 0 0 0 0 0 0 0 0 127 0"
         result="hardAlpha"
         id="feColorMatrix938" />
      <feOffset
         dy="4"
         id="feOffset940" />
      <feGaussianBlur
         stdDeviation="2"
         id="feGaussianBlur942" />
      <feComposite
         in2="hardAlpha"
         operator="out"
         id="feComposite944" />
      <feColorMatrix
         type="matrix"
         values="0 0 0 0 0 0 0 0 0 0 0 0 0 0 0 0 0 0 0.25 0"
         id="feColorMatrix946" />
      <feBlend
         mode="normal"
         in2="BackgroundImageFix"
         result="effect1_dropShadow_719_99"
         id="feBlend948" />
      <feBlend
         mode="normal"
         in="SourceGraphic"
         in2="effect1_dropShadow_719_99"
         result="shape"
         id="feBlend950" />
    </filter>
    <linearGradient
       id="paint0_linear_719_99"
       x1="80.017303"
       y1="166.83099"
       x2="725.01898"
       y2="621.61798"
       gradientUnits="userSpaceOnUse">
      <stop
         stop-color="#C03028"
         id="stop953" />
      <stop
         offset="0.442708"
         stop-color="#D67873"
         id="stop955" />
      <stop
         offset="0.84375"
         stop-color="#7D1F1A"
         id="stop957" />
    </linearGradient>
    <linearGradient
       id="paint1_linear_719_99"
       x1="80.017303"
       y1="166.83099"
       x2="725.01898"
       y2="621.61798"
       gradientUnits="userSpaceOnUse">
      <stop
         offset="0.169792"
         stop-color="#7D1F1A"
         id="stop960" />
      <stop
         offset="0.628125"
         stop-color="#D67873"
         id="stop962" />
      <stop
         offset="0.977083"
         stop-color="#C03028"
         id="stop964" />
    </linearGradient>
    <linearGradient
       id="paint2_linear_719_99"
       x1="164.013"
       y1="227.12399"
       x2="647.76398"
       y2="568.21399"
       gradientUnits="userSpaceOnUse">
      <stop
         offset="0.169792"
         stop-color="#7D1F1A"
         id="stop967" />
      <stop
         offset="0.628125"
         stop-color="#D67873"
         id="stop969" />
      <stop
         offset="0.977083"
         stop-color="#C03028"
         id="stop971" />
    </linearGradient>
    <linearGradient
       id="paint3_linear_719_99"
       x1="255.633"
       y1="285.41599"
       x2="570.64502"
       y2="493.646"
       gradientUnits="userSpaceOnUse">
      <stop
         stop-color="#C03028"
         id="stop974" />
      <stop
         offset="0.442708"
         stop-color="#D67873"
         id="stop976" />
      <stop
         offset="0.84375"
         stop-color="#7D1F1A"
         id="stop978" />
    </linearGradient>
    <linearGradient
       id="paint4_linear_719_99"
       x1="278.19"
       y1="250.485"
       x2="478.836"
       y2="571.56201"
       gradientUnits="userSpaceOnUse">
      <stop
         stop-color="#7D1F1A"
         id="stop981" />
      <stop
         offset="1"
         stop-color="#D67873"
         stop-opacity="0"
         id="stop983" />
    </linearGradient>
  </defs>
</svg>
