<svg width="19" height="25" viewBox="0 0 19 25" fill="none" xmlns="http://www.w3.org/2000/svg">
<path d="M9.08691 0.00432393C3.95557 0.158133 0 4.6347 0 9.768V22.6547C0 23.351 0.841309 23.6992 1.3335 23.207L2.55029 22.3022C2.87549 22.0605 3.33154 22.1074 3.60059 22.4101L5.69775 24.7709C6.00293 25.0761 6.49756 25.0761 6.80273 24.7709L8.79102 22.5322C9.10205 22.1821 9.64844 22.1821 9.95898 22.5322L11.9473 24.7709C12.2524 25.0761 12.7471 25.0761 13.0522 24.7709L15.1494 22.4101C15.4185 22.1074 15.8745 22.06 16.1997 22.3022L17.4165 23.207C17.9087 23.6992 18.75 23.3505 18.75 22.6547V9.37493C18.75 4.10149 14.396 -0.154856 9.08691 0.00432393ZM6.25 10.9374C5.38721 10.9374 4.6875 10.2377 4.6875 9.37493C4.6875 8.51214 5.38721 7.81243 6.25 7.81243C7.11279 7.81243 7.8125 8.51214 7.8125 9.37493C7.8125 10.2377 7.11279 10.9374 6.25 10.9374ZM12.5 10.9374C11.6372 10.9374 10.9375 10.2377 10.9375 9.37493C10.9375 8.51214 11.6372 7.81243 12.5 7.81243C13.3628 7.81243 14.0625 8.51214 14.0625 9.37493C14.0625 10.2377 13.3628 10.9374 12.5 10.9374Z" fill="url(#paint0_linear_418_67)"/>
<defs>
<linearGradient id="paint0_linear_418_67" x1="9.375" y1="0" x2="9.375" y2="24.9998" gradientUnits="userSpaceOnUse">
<stop stop-color="#7647C4"/>
<stop offset="1" stop-color="#493963"/>
</linearGradient>
</defs>
</svg>
