<?xml version="1.0" encoding="UTF-8" standalone="no"?>
<svg
   width="50"
   height="50"
   viewBox="0 0 50 50"
   fill="none"
   version="1.1"
   id="svg706"
   sodipodi:docname="type_c21_fairy.svg"
   inkscape:version="1.1.2 (b8e25be833, 2022-02-05)"
   xmlns:inkscape="http://www.inkscape.org/namespaces/inkscape"
   xmlns:sodipodi="http://sodipodi.sourceforge.net/DTD/sodipodi-0.dtd"
   xmlns="http://www.w3.org/2000/svg"
   xmlns:svg="http://www.w3.org/2000/svg">
  <sodipodi:namedview
     id="namedview708"
     pagecolor="#ffffff"
     bordercolor="#cccccc"
     borderopacity="1"
     inkscape:pageshadow="0"
     inkscape:pageopacity="1"
     inkscape:pagecheckerboard="0"
     showgrid="false"
     inkscape:zoom="1.0804455"
     inkscape:cx="-152.252"
     inkscape:cy="25.452463"
     inkscape:window-width="3840"
     inkscape:window-height="2071"
     inkscape:window-x="-9"
     inkscape:window-y="-9"
     inkscape:window-maximized="1"
     inkscape:current-layer="svg706" />
  <g
     filter="url(#filter0_d_719_125)"
     id="g603"
     transform="scale(0.06188119)">
    <circle
       cx="404"
       cy="400"
       r="400"
       fill="url(#paint0_linear_719_125)"
       id="circle599"
       style="fill:url(#paint0_linear_719_125)" />
    <circle
       cx="404"
       cy="400"
       r="385"
       stroke="url(#paint1_linear_719_125)"
       stroke-width="30"
       id="circle601"
       style="stroke:url(#paint1_linear_719_125)" />
  </g>
  <g
     filter="url(#filter1_d_719_125)"
     id="g609"
     transform="scale(0.06188119)">
    <circle
       cx="407"
       cy="402"
       r="300"
       fill="#ffffff"
       id="circle605" />
    <circle
       cx="407"
       cy="402"
       r="300"
       stroke="url(#paint2_linear_719_125)"
       stroke-width="30"
       id="circle607"
       style="stroke:url(#paint2_linear_719_125)" />
  </g>
  <g
     filter="url(#filter2_d_719_125)"
     id="g618"
     transform="scale(0.06188119)">
    <mask
       id="path-4-inside-1_719_125"
       fill="#ffffff">
      <path
         fill-rule="evenodd"
         clip-rule="evenodd"
         d="m 284.257,517.181 64.16,-18.604 55.416,101.325 c 0.073,0.131 0.261,0.131 0.333,0 l 55.416,-101.325 64.161,18.604 c 0.143,0.041 0.277,-0.092 0.234,-0.236 l -18.607,-62.89 98.531,-53.889 c 0.132,-0.072 0.132,-0.26 0.001,-0.332 l -99.344,-54.333 19.419,-65.635 c 0.043,-0.144 -0.091,-0.277 -0.234,-0.236 l -65.666,19.04 -53.911,-98.571 c -0.072,-0.132 -0.26,-0.132 -0.332,0 l -53.911,98.571 -65.666,-19.04 c -0.143,-0.041 -0.277,0.092 -0.234,0.236 l 19.419,65.635 -99.343,54.333 c -0.132,0.072 -0.132,0.26 0,0.332 l 98.53,53.889 -18.606,62.89 c -0.043,0.144 0.091,0.277 0.234,0.236 z m 49.788,-116.49 45.454,24.859 24.859,45.454 c 0.072,0.132 0.261,0.132 0.333,0 l 24.86,-45.454 45.453,-24.859 c 0.131,-0.072 0.131,-0.261 0,-0.333 l -45.453,-24.859 -24.86,-45.453 c -0.072,-0.132 -0.261,-0.132 -0.333,0 l -24.859,45.453 -45.454,24.859 c -0.131,0.072 -0.131,0.261 0,0.333 z"
         id="path611" />
    </mask>
    <path
       fill-rule="evenodd"
       clip-rule="evenodd"
       d="m 284.257,517.181 64.16,-18.604 55.416,101.325 c 0.073,0.131 0.261,0.131 0.333,0 l 55.416,-101.325 64.161,18.604 c 0.143,0.041 0.277,-0.092 0.234,-0.236 l -18.607,-62.89 98.531,-53.889 c 0.132,-0.072 0.132,-0.26 0.001,-0.332 l -99.344,-54.333 19.419,-65.635 c 0.043,-0.144 -0.091,-0.277 -0.234,-0.236 l -65.666,19.04 -53.911,-98.571 c -0.072,-0.132 -0.26,-0.132 -0.332,0 l -53.911,98.571 -65.666,-19.04 c -0.143,-0.041 -0.277,0.092 -0.234,0.236 l 19.419,65.635 -99.343,54.333 c -0.132,0.072 -0.132,0.26 0,0.332 l 98.53,53.889 -18.606,62.89 c -0.043,0.144 0.091,0.277 0.234,0.236 z m 49.788,-116.49 45.454,24.859 24.859,45.454 c 0.072,0.132 0.261,0.132 0.333,0 l 24.86,-45.454 45.453,-24.859 c 0.131,-0.072 0.131,-0.261 0,-0.333 l -45.453,-24.859 -24.86,-45.453 c -0.072,-0.132 -0.261,-0.132 -0.333,0 l -24.859,45.453 -45.454,24.859 c -0.131,0.072 -0.131,0.261 0,0.333 z"
       fill="url(#paint3_linear_719_125)"
       id="path614"
       style="fill:url(#paint3_linear_719_125)" />
    <path
       fill-rule="evenodd"
       clip-rule="evenodd"
       d="m 284.257,517.181 64.16,-18.604 55.416,101.325 c 0.073,0.131 0.261,0.131 0.333,0 l 55.416,-101.325 64.161,18.604 c 0.143,0.041 0.277,-0.092 0.234,-0.236 l -18.607,-62.89 98.531,-53.889 c 0.132,-0.072 0.132,-0.26 0.001,-0.332 l -99.344,-54.333 19.419,-65.635 c 0.043,-0.144 -0.091,-0.277 -0.234,-0.236 l -65.666,19.04 -53.911,-98.571 c -0.072,-0.132 -0.26,-0.132 -0.332,0 l -53.911,98.571 -65.666,-19.04 c -0.143,-0.041 -0.277,0.092 -0.234,0.236 l 19.419,65.635 -99.343,54.333 c -0.132,0.072 -0.132,0.26 0,0.332 l 98.53,53.889 -18.606,62.89 c -0.043,0.144 0.091,0.277 0.234,0.236 z m 49.788,-116.49 45.454,24.859 24.859,45.454 c 0.072,0.132 0.261,0.132 0.333,0 l 24.86,-45.454 45.453,-24.859 c 0.131,-0.072 0.131,-0.261 0,-0.333 l -45.453,-24.859 -24.86,-45.453 c -0.072,-0.132 -0.261,-0.132 -0.333,0 l -24.859,45.453 -45.454,24.859 c -0.131,0.072 -0.131,0.261 0,0.333 z"
       stroke="url(#paint4_linear_719_125)"
       stroke-width="50"
       mask="url(#path-4-inside-1_719_125)"
       id="path616"
       style="stroke:url(#paint4_linear_719_125)" />
  </g>
  <defs
     id="defs704">
    <filter
       id="filter0_d_719_125"
       x="0"
       y="0"
       width="808"
       height="808"
       filterUnits="userSpaceOnUse"
       color-interpolation-filters="sRGB">
      <feFlood
         flood-opacity="0"
         result="BackgroundImageFix"
         id="feFlood620" />
      <feColorMatrix
         in="SourceAlpha"
         type="matrix"
         values="0 0 0 0 0 0 0 0 0 0 0 0 0 0 0 0 0 0 127 0"
         result="hardAlpha"
         id="feColorMatrix622" />
      <feOffset
         dy="4"
         id="feOffset624" />
      <feGaussianBlur
         stdDeviation="2"
         id="feGaussianBlur626" />
      <feComposite
         in2="hardAlpha"
         operator="out"
         id="feComposite628" />
      <feColorMatrix
         type="matrix"
         values="0 0 0 0 0 0 0 0 0 0 0 0 0 0 0 0 0 0 0.25 0"
         id="feColorMatrix630" />
      <feBlend
         mode="normal"
         in2="BackgroundImageFix"
         result="effect1_dropShadow_719_125"
         id="feBlend632" />
      <feBlend
         mode="normal"
         in="SourceGraphic"
         in2="effect1_dropShadow_719_125"
         result="shape"
         id="feBlend634" />
    </filter>
    <filter
       id="filter1_d_719_125"
       x="88"
       y="87"
       width="638"
       height="638"
       filterUnits="userSpaceOnUse"
       color-interpolation-filters="sRGB">
      <feFlood
         flood-opacity="0"
         result="BackgroundImageFix"
         id="feFlood637" />
      <feColorMatrix
         in="SourceAlpha"
         type="matrix"
         values="0 0 0 0 0 0 0 0 0 0 0 0 0 0 0 0 0 0 127 0"
         result="hardAlpha"
         id="feColorMatrix639" />
      <feOffset
         dy="4"
         id="feOffset641" />
      <feGaussianBlur
         stdDeviation="2"
         id="feGaussianBlur643" />
      <feComposite
         in2="hardAlpha"
         operator="out"
         id="feComposite645" />
      <feColorMatrix
         type="matrix"
         values="0 0 0 0 0 0 0 0 0 0 0 0 0 0 0 0 0 0 0.25 0"
         id="feColorMatrix647" />
      <feBlend
         mode="normal"
         in2="BackgroundImageFix"
         result="effect1_dropShadow_719_125"
         id="feBlend649" />
      <feBlend
         mode="normal"
         in="SourceGraphic"
         in2="effect1_dropShadow_719_125"
         result="shape"
         id="feBlend651" />
    </filter>
    <filter
       id="filter2_d_719_125"
       x="200"
       y="200"
       width="408"
       height="408"
       filterUnits="userSpaceOnUse"
       color-interpolation-filters="sRGB">
      <feFlood
         flood-opacity="0"
         result="BackgroundImageFix"
         id="feFlood654" />
      <feColorMatrix
         in="SourceAlpha"
         type="matrix"
         values="0 0 0 0 0 0 0 0 0 0 0 0 0 0 0 0 0 0 127 0"
         result="hardAlpha"
         id="feColorMatrix656" />
      <feOffset
         dy="4"
         id="feOffset658" />
      <feGaussianBlur
         stdDeviation="2"
         id="feGaussianBlur660" />
      <feComposite
         in2="hardAlpha"
         operator="out"
         id="feComposite662" />
      <feColorMatrix
         type="matrix"
         values="0 0 0 0 0 0 0 0 0 0 0 0 0 0 0 0 0 0 0.25 0"
         id="feColorMatrix664" />
      <feBlend
         mode="normal"
         in2="BackgroundImageFix"
         result="effect1_dropShadow_719_125"
         id="feBlend666" />
      <feBlend
         mode="normal"
         in="SourceGraphic"
         in2="effect1_dropShadow_719_125"
         result="shape"
         id="feBlend668" />
    </filter>
    <linearGradient
       id="paint0_linear_719_125"
       x1="80.017303"
       y1="166.83099"
       x2="725.01898"
       y2="621.61798"
       gradientUnits="userSpaceOnUse">
      <stop
         stop-color="#EE99AC"
         id="stop671" />
      <stop
         offset="0.442708"
         stop-color="#F4BDC9"
         id="stop673" />
      <stop
         offset="0.84375"
         stop-color="#9B6470"
         id="stop675" />
    </linearGradient>
    <linearGradient
       id="paint1_linear_719_125"
       x1="80.017303"
       y1="166.83099"
       x2="725.01898"
       y2="621.61798"
       gradientUnits="userSpaceOnUse">
      <stop
         offset="0.00833321"
         stop-color="#9B6470"
         id="stop678" />
      <stop
         offset="0.648958"
         stop-color="#F4BDC9"
         id="stop680" />
      <stop
         offset="1"
         stop-color="#EE99AC"
         id="stop682" />
    </linearGradient>
    <linearGradient
       id="paint2_linear_719_125"
       x1="164.013"
       y1="227.12399"
       x2="647.76398"
       y2="568.21399"
       gradientUnits="userSpaceOnUse">
      <stop
         offset="0.00833321"
         stop-color="#9B6470"
         id="stop685" />
      <stop
         offset="0.648958"
         stop-color="#F4BDC9"
         id="stop687" />
      <stop
         offset="1"
         stop-color="#EE99AC"
         id="stop689" />
    </linearGradient>
    <linearGradient
       id="paint3_linear_719_125"
       x1="242.009"
       y1="283.41599"
       x2="564.50897"
       y2="510.80899"
       gradientUnits="userSpaceOnUse">
      <stop
         stop-color="#EE99AC"
         id="stop692" />
      <stop
         offset="0.442708"
         stop-color="#F4BDC9"
         id="stop694" />
      <stop
         offset="0.84375"
         stop-color="#9B6470"
         id="stop696" />
    </linearGradient>
    <linearGradient
       id="paint4_linear_719_125"
       x1="266.069"
       y1="248.485"
       x2="460.797"
       y2="580.86603"
       gradientUnits="userSpaceOnUse">
      <stop
         stop-color="#9B6470"
         id="stop699" />
      <stop
         offset="0.930208"
         stop-color="#EE99AC"
         stop-opacity="0"
         id="stop701" />
    </linearGradient>
  </defs>
</svg>
