<svg width="908" height="908" viewBox="0 0 908 908" fill="none" xmlns="http://www.w3.org/2000/svg">
<g filter="url(#filter0_d_714_104)">
<mask id="path-1-inside-1_714_104" fill="white">
<path fill-rule="evenodd" clip-rule="evenodd" d="M904 450C904 698.528 702.528 900 454 900C205.472 900 4 698.528 4 450C4 201.472 205.472 0 454 0C702.528 0 904 201.472 904 450ZM711.142 450C711.142 592.016 596.016 707.142 454 707.142C311.984 707.142 196.858 592.016 196.858 450C196.858 307.984 311.984 192.858 454 192.858C596.016 192.858 711.142 307.984 711.142 450Z"/>
</mask>
<path fill-rule="evenodd" clip-rule="evenodd" d="M904 450C904 698.528 702.528 900 454 900C205.472 900 4 698.528 4 450C4 201.472 205.472 0 454 0C702.528 0 904 201.472 904 450ZM711.142 450C711.142 592.016 596.016 707.142 454 707.142C311.984 707.142 196.858 592.016 196.858 450C196.858 307.984 311.984 192.858 454 192.858C596.016 192.858 711.142 307.984 711.142 450Z" fill="url(#paint0_linear_714_104)"/>
<path fill-rule="evenodd" clip-rule="evenodd" d="M904 450C904 698.528 702.528 900 454 900C205.472 900 4 698.528 4 450C4 201.472 205.472 0 454 0C702.528 0 904 201.472 904 450ZM711.142 450C711.142 592.016 596.016 707.142 454 707.142C311.984 707.142 196.858 592.016 196.858 450C196.858 307.984 311.984 192.858 454 192.858C596.016 192.858 711.142 307.984 711.142 450Z" stroke="url(#paint1_linear_714_104)" stroke-width="6" mask="url(#path-1-inside-1_714_104)"/>
</g>
<defs>
<filter id="filter0_d_714_104" x="0" y="0" width="908" height="908" filterUnits="userSpaceOnUse" color-interpolation-filters="sRGB">
<feFlood flood-opacity="0" result="BackgroundImageFix"/>
<feColorMatrix in="SourceAlpha" type="matrix" values="0 0 0 0 0 0 0 0 0 0 0 0 0 0 0 0 0 0 127 0" result="hardAlpha"/>
<feOffset dy="4"/>
<feGaussianBlur stdDeviation="2"/>
<feComposite in2="hardAlpha" operator="out"/>
<feColorMatrix type="matrix" values="0 0 0 0 0 0 0 0 0 0 0 0 0 0 0 0 0 0 0.25 0"/>
<feBlend mode="normal" in2="BackgroundImageFix" result="effect1_dropShadow_714_104"/>
<feBlend mode="normal" in="SourceGraphic" in2="effect1_dropShadow_714_104" result="shape"/>
</filter>
<linearGradient id="paint0_linear_714_104" x1="89.5195" y1="187.685" x2="815.146" y2="699.32" gradientUnits="userSpaceOnUse">
<stop stop-color="#A8A878"/>
<stop offset="0.442708" stop-color="#C6C6A7"/>
<stop offset="0.84375" stop-color="#6D6D4E"/>
</linearGradient>
<linearGradient id="paint1_linear_714_104" x1="143.655" y1="109.091" x2="581.794" y2="856.949" gradientUnits="userSpaceOnUse">
<stop stop-color="#6D6D4E"/>
<stop offset="1" stop-color="#C6C6A7" stop-opacity="0"/>
</linearGradient>
</defs>
</svg>
