<svg width="12" height="15" viewBox="0 0 16 20" fill="none" xmlns="http://www.w3.org/2000/svg">
<path d="M13.3446 8.04765C11.0625 5.51007 8.89622 3.79638 8.70287 0.434913C8.70287 0.336046 8.66419 0.270135 8.58683 0.204224C8.54815 0.0394458 8.35474 -0.0594209 8.16133 0.0394458C7.92924 0.0394458 7.73589 0.171268 7.73589 0.401957C2.86198 4.88392 -5.37726 16.2536 4.98948 19.5161C9.66998 20.9992 14.9694 18.9889 15.8978 14.6387C16.4006 12.2989 14.9693 9.8273 13.3446 8.04765ZM5.0281 17.407C3.90632 16.8468 3.21005 15.7264 2.86191 14.7376C2.70719 14.2433 2.62982 13.749 2.6685 13.2547C2.90059 12.3978 3.21005 11.5739 3.55819 10.7501C3.7516 11.475 4.13841 12.2001 4.67996 12.7273C5.91778 13.8809 8.4321 14.5729 9.12837 16.023C9.55387 16.9127 7.89055 17.6707 7.19428 17.8684C6.45933 18.0661 5.64694 17.7366 5.0281 17.407Z" fill="url(#paint0_radial_414_66)"/>
<defs>
<radialGradient id="paint0_radial_414_66" cx="0" cy="0" r="1" gradientUnits="userSpaceOnUse" gradientTransform="translate(8 10) rotate(90) scale(10 8)">
<stop stop-color="#889DCF"/>
<stop offset="0.125" stop-color="#7896E0"/>
<stop offset="0.375" stop-color="#6890F0"/>
<stop offset="0.3751" stop-color="#809AD8"/>
<stop offset="0.630208" stop-color="#445E9C"/>
<stop offset="1" stop-color="#2C3C62"/>
</radialGradient>
</defs>
</svg>
