<svg width="908" height="908" viewBox="0 0 908 908" fill="none" xmlns="http://www.w3.org/2000/svg">
<g filter="url(#filter0_d_714_106)">
<mask id="path-1-inside-1_714_106" fill="white">
<path fill-rule="evenodd" clip-rule="evenodd" d="M756.029 691.61C846.913 618.94 904 513.942 904 397.178C904 177.822 702.528 0 454 0C205.472 0 4 177.822 4 397.178C4 509.727 57.0397 611.343 142.261 683.615C137.096 701.448 134.263 720.846 134.263 741.129C134.263 828.87 187.282 900 252.685 900C295.182 900 332.451 869.968 353.342 824.861C374.234 869.968 411.503 900 454 900C492.739 900 527.132 875.046 548.737 836.467C570.343 875.046 604.736 900 643.473 900C708.876 900 761.895 828.87 761.895 741.129C761.895 723.839 759.835 707.193 756.029 691.61ZM714.527 405.054C714.527 516.419 595.233 606.698 448.08 606.698C300.924 606.698 181.632 516.419 181.632 405.054C181.632 293.69 300.924 203.411 448.08 203.411C595.233 203.411 714.527 293.69 714.527 405.054Z"/>
</mask>
<path fill-rule="evenodd" clip-rule="evenodd" d="M756.029 691.61C846.913 618.94 904 513.942 904 397.178C904 177.822 702.528 0 454 0C205.472 0 4 177.822 4 397.178C4 509.727 57.0397 611.343 142.261 683.615C137.096 701.448 134.263 720.846 134.263 741.129C134.263 828.87 187.282 900 252.685 900C295.182 900 332.451 869.968 353.342 824.861C374.234 869.968 411.503 900 454 900C492.739 900 527.132 875.046 548.737 836.467C570.343 875.046 604.736 900 643.473 900C708.876 900 761.895 828.87 761.895 741.129C761.895 723.839 759.835 707.193 756.029 691.61ZM714.527 405.054C714.527 516.419 595.233 606.698 448.08 606.698C300.924 606.698 181.632 516.419 181.632 405.054C181.632 293.69 300.924 203.411 448.08 203.411C595.233 203.411 714.527 293.69 714.527 405.054Z" fill="url(#paint0_linear_714_106)"/>
<path fill-rule="evenodd" clip-rule="evenodd" d="M756.029 691.61C846.913 618.94 904 513.942 904 397.178C904 177.822 702.528 0 454 0C205.472 0 4 177.822 4 397.178C4 509.727 57.0397 611.343 142.261 683.615C137.096 701.448 134.263 720.846 134.263 741.129C134.263 828.87 187.282 900 252.685 900C295.182 900 332.451 869.968 353.342 824.861C374.234 869.968 411.503 900 454 900C492.739 900 527.132 875.046 548.737 836.467C570.343 875.046 604.736 900 643.473 900C708.876 900 761.895 828.87 761.895 741.129C761.895 723.839 759.835 707.193 756.029 691.61ZM714.527 405.054C714.527 516.419 595.233 606.698 448.08 606.698C300.924 606.698 181.632 516.419 181.632 405.054C181.632 293.69 300.924 203.411 448.08 203.411C595.233 203.411 714.527 293.69 714.527 405.054Z" stroke="url(#paint1_linear_714_106)" stroke-width="6" mask="url(#path-1-inside-1_714_106)"/>
</g>
<defs>
<filter id="filter0_d_714_106" x="0" y="0" width="908" height="908" filterUnits="userSpaceOnUse" color-interpolation-filters="sRGB">
<feFlood flood-opacity="0" result="BackgroundImageFix"/>
<feColorMatrix in="SourceAlpha" type="matrix" values="0 0 0 0 0 0 0 0 0 0 0 0 0 0 0 0 0 0 127 0" result="hardAlpha"/>
<feOffset dy="4"/>
<feGaussianBlur stdDeviation="2"/>
<feComposite in2="hardAlpha" operator="out"/>
<feColorMatrix type="matrix" values="0 0 0 0 0 0 0 0 0 0 0 0 0 0 0 0 0 0 0.25 0"/>
<feBlend mode="normal" in2="BackgroundImageFix" result="effect1_dropShadow_714_106"/>
<feBlend mode="normal" in="SourceGraphic" in2="effect1_dropShadow_714_106" result="shape"/>
</filter>
<linearGradient id="paint0_linear_714_106" x1="89.5195" y1="187.685" x2="815.146" y2="699.32" gradientUnits="userSpaceOnUse">
<stop stop-color="#A040A0"/>
<stop offset="0.466667" stop-color="#C183C1"/>
<stop offset="0.84375" stop-color="#682A68"/>
</linearGradient>
<linearGradient id="paint1_linear_714_106" x1="143.655" y1="109.091" x2="581.794" y2="856.949" gradientUnits="userSpaceOnUse">
<stop stop-color="#682A68"/>
<stop offset="1" stop-color="#C183C1" stop-opacity="0"/>
</linearGradient>
</defs>
</svg>
