<svg width="908" height="908" viewBox="0 0 908 908" fill="none" xmlns="http://www.w3.org/2000/svg">
<g filter="url(#filter0_d_714_88)">
<mask id="path-1-inside-1_714_88" fill="white">
<path fill-rule="evenodd" clip-rule="evenodd" d="M652.548 896.883C571.367 901.039 478.427 901.039 446.842 896.883C200.471 864.471 4 684.339 4 440.859C4 197.379 205.472 0 454 0C702.528 0 904 197.379 904 440.859C904 554.099 860.419 657.367 788.793 735.446C769.343 756.647 796.03 771.518 823.144 786.628C849.736 801.448 876.74 816.497 861.046 837.97C843.753 861.632 750.002 891.895 652.548 896.883ZM390.719 385.752C390.719 423.795 359.238 454.635 320.406 454.635C281.574 454.635 250.094 423.795 250.094 385.752C250.094 360.237 264.253 337.964 285.292 326.058C286.503 359.23 313.778 385.75 347.246 385.75H390.719V385.752ZM608.645 326.058C607.434 359.23 580.16 385.75 546.691 385.75H503.219V385.752C503.219 423.795 534.699 454.635 573.531 454.635C612.363 454.635 643.844 423.795 643.844 385.752C643.844 360.237 629.685 337.964 608.645 326.058Z"/>
</mask>
<path fill-rule="evenodd" clip-rule="evenodd" d="M652.548 896.883C571.367 901.039 478.427 901.039 446.842 896.883C200.471 864.471 4 684.339 4 440.859C4 197.379 205.472 0 454 0C702.528 0 904 197.379 904 440.859C904 554.099 860.419 657.367 788.793 735.446C769.343 756.647 796.03 771.518 823.144 786.628C849.736 801.448 876.74 816.497 861.046 837.97C843.753 861.632 750.002 891.895 652.548 896.883ZM390.719 385.752C390.719 423.795 359.238 454.635 320.406 454.635C281.574 454.635 250.094 423.795 250.094 385.752C250.094 360.237 264.253 337.964 285.292 326.058C286.503 359.23 313.778 385.75 347.246 385.75H390.719V385.752ZM608.645 326.058C607.434 359.23 580.16 385.75 546.691 385.75H503.219V385.752C503.219 423.795 534.699 454.635 573.531 454.635C612.363 454.635 643.844 423.795 643.844 385.752C643.844 360.237 629.685 337.964 608.645 326.058Z" fill="url(#paint0_linear_714_88)"/>
<path fill-rule="evenodd" clip-rule="evenodd" d="M652.548 896.883C571.367 901.039 478.427 901.039 446.842 896.883C200.471 864.471 4 684.339 4 440.859C4 197.379 205.472 0 454 0C702.528 0 904 197.379 904 440.859C904 554.099 860.419 657.367 788.793 735.446C769.343 756.647 796.03 771.518 823.144 786.628C849.736 801.448 876.74 816.497 861.046 837.97C843.753 861.632 750.002 891.895 652.548 896.883ZM390.719 385.752C390.719 423.795 359.238 454.635 320.406 454.635C281.574 454.635 250.094 423.795 250.094 385.752C250.094 360.237 264.253 337.964 285.292 326.058C286.503 359.23 313.778 385.75 347.246 385.75H390.719V385.752ZM608.645 326.058C607.434 359.23 580.16 385.75 546.691 385.75H503.219V385.752C503.219 423.795 534.699 454.635 573.531 454.635C612.363 454.635 643.844 423.795 643.844 385.752C643.844 360.237 629.685 337.964 608.645 326.058Z" stroke="url(#paint1_linear_714_88)" stroke-width="6" mask="url(#path-1-inside-1_714_88)"/>
</g>
<defs>
<filter id="filter0_d_714_88" x="0" y="0" width="908" height="908" filterUnits="userSpaceOnUse" color-interpolation-filters="sRGB">
<feFlood flood-opacity="0" result="BackgroundImageFix"/>
<feColorMatrix in="SourceAlpha" type="matrix" values="0 0 0 0 0 0 0 0 0 0 0 0 0 0 0 0 0 0 127 0" result="hardAlpha"/>
<feOffset dy="4"/>
<feGaussianBlur stdDeviation="2"/>
<feComposite in2="hardAlpha" operator="out"/>
<feColorMatrix type="matrix" values="0 0 0 0 0 0 0 0 0 0 0 0 0 0 0 0 0 0 0.25 0"/>
<feBlend mode="normal" in2="BackgroundImageFix" result="effect1_dropShadow_714_88"/>
<feBlend mode="normal" in="SourceGraphic" in2="effect1_dropShadow_714_88" result="shape"/>
</filter>
<linearGradient id="paint0_linear_714_88" x1="89.5195" y1="187.685" x2="815.146" y2="699.32" gradientUnits="userSpaceOnUse">
<stop stop-color="#705898"/>
<stop offset="0.442708" stop-color="#A292BC"/>
<stop offset="0.84375" stop-color="#493963"/>
</linearGradient>
<linearGradient id="paint1_linear_714_88" x1="143.655" y1="109.091" x2="581.794" y2="856.949" gradientUnits="userSpaceOnUse">
<stop stop-color="#493963"/>
<stop offset="1" stop-color="#A292BC" stop-opacity="0"/>
</linearGradient>
</defs>
</svg>
