<svg width="25" height="20" viewBox="0 0 25 20" fill="none" xmlns="http://www.w3.org/2000/svg">
<path d="M14.3269 19.1346H9.80771C10.0029 19.0029 10.3269 18.7077 10.3269 18.2625C10.3269 17.8346 10.2087 17.226 9.8904 16.374C10.2981 15.9337 10.5981 15.4164 10.7654 14.8692C10.9558 14.9298 11.15 14.9933 11.35 15.0596C11.8885 15.2346 12.4731 15.426 13.1183 15.5991C12.7702 16.1029 12.2991 16.5635 11.6635 16.9923C11.4327 17.1481 11.3539 17.2519 11.3539 17.4837C11.3539 17.8317 11.7971 18.1212 12.2433 18.2567C12.6048 18.3654 12.9952 18.4125 13.375 18.4125C13.8462 18.4125 14.1875 18.7529 14.3269 19.1346ZM20.9664 6.92597L20.5346 6.51251C20.2356 6.15963 20.1991 5.63751 19.9664 5.10963C19.6279 4.34328 19.1644 3.89424 19.1644 3.89424C19.1644 4.4529 18.9769 4.82597 18.9769 4.82597C18.9769 4.82597 18.3122 4.47174 17.4452 4.57655C16.6497 4.58146 15.9083 4.10319 15.6013 3.34261L15.6009 3.34146C15.6009 3.34146 15.6009 3.34155 15.6009 3.34165C15.6009 3.34155 15.6009 3.34155 15.6008 3.34146C15.6008 3.34165 15.6008 3.34174 15.6008 3.34194C15.5987 3.35117 15.3689 4.37905 16.2586 5.02684C16.245 5.03597 16.2315 5.04521 16.2179 5.05472C15.662 5.23674 15.0358 5.06482 14.6548 4.5979C14.6548 4.59809 14.6549 4.59819 14.655 4.59838L14.6547 4.59799C14.6547 4.59799 14.5664 5.27357 14.9972 5.67857C15.1294 5.8028 15.2745 5.85626 15.4122 5.87126C15.1555 6.24732 14.9761 6.68992 14.9664 7.15684C14.9385 8.45684 15.7471 9.16838 16.6221 10.1222C16.7692 10.2511 16.8625 10.4424 16.8625 10.6548C16.8625 11.0686 16.4816 11.4052 16.0712 11.3639C15.6755 11.3241 15.2655 10.933 14.9879 10.674C14.2832 10.0162 13.7904 9.15001 13.5205 8.22876C13.3513 7.65136 13.2686 7.04953 13.2686 6.44809C13.2686 5.24482 13.5984 4.13482 14.1544 3.24194C12.4558 1.3503 9.95405 0.192322 7.21155 0.192322C6.9179 0.192322 6.53646 0.261553 6.25001 0.288476C7.5028 1.08213 8.46242 2.39396 8.46242 3.98636C8.46242 5.36665 7.83771 6.60107 6.85617 7.42271C8.5103 7.7053 9.8303 8.9679 10.1963 10.5921C9.34838 10.7222 8.55607 10.9615 7.82136 11.2821C5.8154 12.1566 4.32424 13.7549 3.16203 14.6192C2.97857 14.7557 2.70011 14.8595 2.45367 14.8595C1.6479 14.8595 1.28126 13.9916 1.62338 13.3385C2.09598 12.4411 3.47126 11.3785 3.47126 10.5005C3.47126 9.7779 2.92376 9.31376 2.57511 9.09126C2.89117 8.80944 3.27569 8.64376 3.67213 8.59751L0.963379 7.74905L1.90982 10.4251C1.94021 10.0454 2.07992 9.67261 2.32742 9.35578C2.66751 9.67165 3.15598 10.3184 2.46251 11.0119C2.00674 11.4668 1.68251 11.693 1.06867 12.2433C1.06607 12.2456 1.06376 12.2481 1.06117 12.2504C0.543379 12.6857 0.192322 13.3091 0.192322 14.0385C0.192322 15.3495 1.27694 16.4411 2.58799 16.4411C3.34982 16.4411 4.02203 16.0224 4.58098 15.5406C5.02165 15.1607 5.48953 14.7959 6.00213 14.5163C6.66655 14.1539 7.39944 13.9801 8.15021 13.9514C8.03444 15.0975 7.06684 15.992 5.89011 15.992C5.56348 15.992 5.25415 15.923 4.97261 15.7995C4.92088 15.9973 4.86559 16.2714 4.87569 16.571C4.90646 17.4857 5.20098 17.7581 5.20098 18.2625C5.20098 18.7076 4.90723 19.0028 4.71155 19.1346H9.23078C9.09136 18.7526 8.71953 18.4126 8.24819 18.4126C7.86915 18.4126 7.47876 18.3658 7.11684 18.2565C6.6703 18.1216 6.23261 17.8842 6.23261 17.5364C6.23261 17.3044 6.3878 17.1618 6.63232 17.166C6.86376 17.1833 7.14867 17.1965 7.38117 17.1833C8.88924 17.0491 10.2148 15.7849 10.442 14.306C11.7017 14.6781 13.0928 15.2426 14.885 15.5284C15.2456 16.3187 15.7287 17.5619 15.57 18.2624C15.4755 18.6799 15.2919 19.0027 15.0962 19.1345H19.6154C19.476 18.7525 19.0885 18.4125 18.6171 18.4125C18.2381 18.4125 17.8477 18.3657 17.4858 18.2564C17.0392 18.1215 16.7977 17.8316 16.7315 17.3845C16.7039 17.1981 16.5972 16.1642 16.6818 15.6994C16.6776 15.724 17.3713 15.6561 17.4208 15.6498C17.7546 15.6073 18.0719 15.5691 18.3837 15.4357C20.1171 14.6939 20.8601 12.5934 20.1093 10.8977C19.7844 10.164 19.2468 9.55607 18.6558 9.02405C18.1981 8.61203 17.662 8.25876 17.2578 7.79136C16.9184 7.40001 17.002 6.98367 17.2145 6.76155C17.4722 6.49136 17.9982 6.47597 18.2424 6.77501C18.478 7.06347 19.0491 7.72982 19.3405 8.06828C19.4472 8.19232 19.6193 8.23655 19.7732 8.17982L20.1915 8.02309L19.8568 7.87982C19.8568 7.87982 19.5261 7.1529 19.4068 6.85578L20.4857 7.39521L20.4309 7.8529L20.9703 7.32213C21.0808 7.21251 21.0789 7.03367 20.9664 6.92597ZM20.2885 19.1346H24.8077C24.6692 18.7529 24.3433 18.4125 23.8721 18.4125C23.4933 18.4125 23.0991 18.376 22.7404 18.2567C21.8798 17.9692 20.8289 16.1048 19.9846 14.774C19.5942 15.2433 19.0933 15.6173 18.5221 15.8558C19.5337 16.6625 20.7423 17.7269 20.825 18.2625C20.8904 18.6856 20.4837 19.0029 20.2885 19.1346ZM22.324 10.2982C23.063 10.4877 24.2927 10.441 24.8077 9.32694C23.5801 10.1486 22.6273 9.52367 22.6273 9.52367C22.6273 9.52367 23.2104 9.15482 23.1398 8.63328C21.5295 9.23732 20.4485 8.28194 20.4485 8.28194C20.6899 9.40069 21.6598 10.1279 22.324 10.2982Z" fill="url(#paint0_radial_419_242)"/>
<defs>
<radialGradient id="paint0_radial_419_242" cx="0" cy="0" r="1" gradientUnits="userSpaceOnUse" gradientTransform="translate(8) rotate(76.7659) scale(19.6567 25.5437)">
<stop stop-color="#7038F8"/>
<stop offset="0.270833" stop-color="#8859F9"/>
<stop offset="0.442708" stop-color="#A27DFA"/>
<stop offset="0.848958" stop-color="#4924A1"/>
</radialGradient>
</defs>
</svg>
