<svg width="38" height="38" viewBox="0 0 38 38" fill="none" xmlns="http://www.w3.org/2000/svg">
<g filter="url(#filter0_d_1507_124)">
<path fill-rule="evenodd" clip-rule="evenodd" d="M13.6869 13.8407C16.5864 22.6558 14.939 20.8794 23.4394 23.8864C14.9391 26.8933 16.5865 25.1848 13.6869 34C10.7874 25.1849 12.4348 26.8933 4 23.8864C12.4347 20.8795 10.7873 22.6563 13.6869 13.8407Z" fill="#212121" shape-rendering="crispEdges"/>
<path fill-rule="evenodd" clip-rule="evenodd" d="M27.9682 9.05681C29.753 14.8656 28.7682 13.7722 34 15.7538C28.7682 17.7355 29.753 16.5739 27.9682 22.3822C26.1833 16.5734 27.2295 17.7353 21.9981 15.7538C27.23 13.7721 26.1835 14.8655 27.9682 9.05681Z" fill="#212121" shape-rendering="crispEdges"/>
<path fill-rule="evenodd" clip-rule="evenodd" d="M18.5913 4C19.6274 7.75856 19.0275 7.0069 22.0266 8.30516C19.0275 9.60363 19.6272 8.85174 18.5913 12.6103C17.5552 8.85174 18.1552 9.6034 15.1561 8.30516C18.1552 7.00669 17.5554 7.75856 18.5913 4Z" fill="#212121" shape-rendering="crispEdges"/>
<path d="M13.9244 13.7625L13.6869 13.0405L13.4494 13.7625C13.0761 14.8974 12.7808 15.848 12.5298 16.6562C12.2891 17.431 12.089 18.075 11.8998 18.6253C11.5162 19.7409 11.2011 20.3932 10.7399 20.8675C10.2793 21.3412 9.65031 21.6609 8.57832 22.0531C8.08738 22.2327 7.51171 22.4249 6.82452 22.6542C6.76382 22.6745 6.70226 22.695 6.63981 22.7159C5.8716 22.9724 4.97285 23.2742 3.91605 23.6509L3.25549 23.8864L3.91605 24.1219C5.01134 24.5123 5.92663 24.8201 6.7046 25.0816C7.43926 25.3286 8.05147 25.5344 8.57716 25.7299C9.64817 26.1281 10.2776 26.456 10.7385 26.9379C11.2006 27.4211 11.516 28.0824 11.8997 29.2046C12.0857 29.7488 12.2819 30.3817 12.5166 31.1392C12.7704 31.9581 13.0693 32.9226 13.4494 34.0781L13.6869 34.8001L13.9244 34.0781C14.3015 32.9317 14.5988 31.973 14.8515 31.158C15.089 30.3921 15.2872 29.7531 15.4751 29.2048C15.8597 28.0828 16.177 27.4217 16.6428 26.9386C17.1078 26.4565 17.7433 26.1284 18.8237 25.7301C19.3526 25.5351 19.9681 25.3299 20.7061 25.0838C21.4917 24.8218 22.4162 24.5135 23.5228 24.1221L24.189 23.8864L23.5228 23.6507C22.4578 23.274 21.5518 22.9722 20.7773 22.7156C20.7127 22.6942 20.649 22.6731 20.5862 22.6524C19.8955 22.4237 19.3165 22.232 18.8225 22.0528C17.741 21.6605 17.1059 21.3405 16.6414 20.8666C16.1764 20.3923 15.8594 19.7402 15.4749 18.6249C15.2839 18.0706 15.0819 17.4208 14.8385 16.6378C14.5885 15.8335 14.2948 14.8887 13.9244 13.7625ZM28.2072 8.98338L27.9682 8.20561L27.7292 8.98338C27.5055 9.71169 27.3261 10.3317 27.1736 10.8619C27.1606 10.9071 27.1478 10.9516 27.1352 10.9954C26.9996 11.4673 26.886 11.8624 26.7797 12.2C26.5459 12.9427 26.3583 13.3677 26.088 13.6754C25.8208 13.9796 25.4516 14.1924 24.7941 14.4562C24.4536 14.5927 24.0545 14.7363 23.5689 14.9109C23.1034 15.0782 22.5585 15.2742 21.9096 15.52L21.2923 15.7538L21.9096 15.9876C22.566 16.2362 23.1238 16.4355 23.5996 16.6048L23.6818 16.634C24.122 16.7906 24.4867 16.9203 24.7958 17.0414C25.4548 17.2993 25.8233 17.5042 26.0898 17.8001C26.3588 18.0987 26.546 18.5142 26.7798 19.2502C26.8912 19.6011 27.0074 20.0042 27.1463 20.4857C27.3032 21.0295 27.4889 21.6735 27.7292 22.4556L27.9682 23.2333L28.2072 22.4556C28.4277 21.7379 28.6042 21.1331 28.7551 20.6158C28.9128 20.0753 29.0426 19.6303 29.1656 19.2522C29.4047 18.5176 29.5991 18.1017 29.8752 17.8026C30.1496 17.5054 30.5266 17.3 31.1918 17.0418C31.4951 16.9241 31.8504 16.7982 32.2757 16.6474C32.3151 16.6335 32.355 16.6193 32.3955 16.605C32.8731 16.4356 33.432 16.2363 34.0886 15.9876L34.7058 15.7538L34.0886 15.52C33.4208 15.2671 32.8631 15.0672 32.3879 14.897C31.9182 14.7287 31.5291 14.5893 31.1937 14.4559C30.53 14.192 30.1524 13.9786 29.8772 13.6732C29.5998 13.3651 29.405 12.9398 29.1658 12.1984C29.0458 11.8261 28.9196 11.3922 28.7676 10.8693C28.614 10.341 28.434 9.72175 28.2072 8.98338ZM18.8323 3.93356L18.5913 3.0592L18.3503 3.93357C18.2103 4.44141 18.1028 4.85658 18.0121 5.20691C17.9314 5.51843 17.864 5.77868 17.7988 6.00721C17.6629 6.48414 17.5577 6.73964 17.4145 6.91918C17.2758 7.09291 17.083 7.2182 16.7103 7.38505C16.5342 7.46384 16.3261 7.5486 16.0717 7.65219L16.0279 7.67C15.755 7.78116 15.4343 7.91229 15.0567 8.07574L14.5268 8.30518L15.0567 8.53459C15.4343 8.69801 15.755 8.82911 16.0279 8.94026L16.0712 8.95789C16.3258 9.06154 16.5341 9.14635 16.7102 9.22518C17.083 9.392 17.2758 9.5173 17.4144 9.69103C17.5577 9.87059 17.6629 10.1261 17.7988 10.6031C17.8639 10.8315 17.9313 11.0916 18.0119 11.403C18.1027 11.7534 18.2102 12.1687 18.3503 12.6768L18.5913 13.5511L18.8323 12.6767C18.9723 12.1689 19.0798 11.7537 19.1706 11.4034C19.2513 11.0919 19.3187 10.8316 19.3838 10.6031C19.5197 10.1262 19.6249 9.87067 19.7682 9.69113C19.9068 9.51741 20.0996 9.39212 20.4724 9.22527C20.6484 9.14649 20.8566 9.06173 21.1109 8.95815L21.1547 8.94032C21.4276 8.82916 21.7484 8.69803 22.1259 8.53458L22.6559 8.30514L22.1259 8.07573C21.7484 7.91231 21.4276 7.7812 21.1547 7.67005L21.1114 7.65241C20.8568 7.54877 20.6485 7.46396 20.4724 7.38513C20.0996 7.2183 19.9069 7.09301 19.7682 6.91927C19.625 6.73972 19.5198 6.48419 19.3839 6.00724C19.3188 5.77878 19.2514 5.51868 19.1707 5.20736C19.08 4.85695 18.9724 4.44165 18.8323 3.93356Z" stroke="url(#paint0_linear_1507_124)" stroke-width="0.5" shape-rendering="crispEdges"/>
</g>
<defs>
<filter id="filter0_d_1507_124" x="0.510986" y="0.118408" width="36.9006" height="37.4818" filterUnits="userSpaceOnUse" color-interpolation-filters="sRGB">
<feFlood flood-opacity="0" result="BackgroundImageFix"/>
<feColorMatrix in="SourceAlpha" type="matrix" values="0 0 0 0 0 0 0 0 0 0 0 0 0 0 0 0 0 0 127 0" result="hardAlpha"/>
<feOffset/>
<feGaussianBlur stdDeviation="1"/>
<feComposite in2="hardAlpha" operator="out"/>
<feColorMatrix type="matrix" values="0 0 0 0 0.958333 0 0 0 0 0.958333 0 0 0 0 0.958333 0 0 0 0.25 0"/>
<feBlend mode="normal" in2="BackgroundImageFix" result="effect1_dropShadow_1507_124"/>
<feBlend mode="normal" in="SourceGraphic" in2="effect1_dropShadow_1507_124" result="shape"/>
</filter>
<linearGradient id="paint0_linear_1507_124" x1="-7.5" y1="-4.5" x2="30.4156" y2="41.4572" gradientUnits="userSpaceOnUse">
<stop offset="0.138762" stop-color="white"/>
<stop offset="0.393097" stop-color="white" stop-opacity="0.19"/>
<stop offset="0.748288"/>
</linearGradient>
</defs>
</svg>
